mtllib ./AugmentedHexagonalPrism.mtl
g AugmentedHexagonalPrism
v 0.373133 -0.7415512 -0.3743438
v -0.376864 -0.7406912 -0.3723038
v -0.751121 -0.09074415 -0.372752
v -0.375382 0.5583429 -0.3752412
v 0.374614 0.557483 -0.3772812
v 0.748872 -0.09246415 -0.376833
v -0.749079 -0.08905087 0.3772431
v -0.374821 -0.7389979 0.3776913
v 0.375175 -0.7398579 0.3756513
v 0.750914 -0.09077088 0.3731631
v 0.376657 0.5591762 0.3727139
v -0.37334 0.5600362 0.3747548
v 0.001242 1.089088 -0.00246239
v 0.375175 -0.7398579 0.3756513
v 0.748872 -0.09246415 -0.376833
v 0.373133 -0.7415512 -0.3743438
v 0.750914 -0.09077088 0.3731631
v 0.374614 0.557483 -0.3772812
v 0.376657 0.5591762 0.3727139
v -0.751121 -0.09074415 -0.372752
v -0.37334 0.5600362 0.3747548
v -0.749079 -0.08905087 0.3772431
v -0.375382 0.5583429 -0.3752412
v -0.376864 -0.7406912 -0.3723038
v -0.374821 -0.7389979 0.3776913
v 0.373133 -0.7415512 -0.3743438
v 0.375175 -0.7398579 0.3756513
v 0.001242 1.089088 -0.00246239
v 0.001242 1.089088 -0.00246239
v 0.001242 1.089088 -0.00246239

vn -0.00272302 -0.002258164 -0.9999938
vn -0.00272258 -0.002257404 -0.9999939
vn -0.00272302 -0.002258162 -0.9999939
vn -0.002567765 0.1167748 -0.9931553
vn -0.002521706 0.1473426 -0.9890825
vn -0.002723893 -0.002258163 -0.9999939
vn 0.002722801 0.002257762 0.9999938
vn 0.002722584 0.002257364 0.9999939
vn 0.002722583 0.002257362 0.9999938
vn 0.002722583 0.00225814 0.9999939
vn 0.002863159 0.151808 0.988406
vn 0.002941384 0.3050557 0.9523301
vn -0.001564519 0.5755051 -0.8177968
vn 0.8654515 -0.5009913 -0.00122525
vn 0.9817609 -0.1901071 -0.002243809
vn 0.8654515 -0.5009913 -0.001225249
vn 0.9821919 0.1878555 -0.003098758
vn 0.8524112 0.5228605 -0.003502054
vn 0.8445333 0.5354918 -0.003509525
vn -0.9817607 0.1901079 0.002243808
vn -0.8512163 0.5248139 0.001132707
vn -0.9821917 -0.1878556 0.003098748
vn -0.8433095 0.5374272 0.001082699
vn -0.655513 -0.7551759 0.003490155
vn -0.3284031 -0.944533 0.003027057
vn -0.001140487 -0.999997 0.002260819
vn -0.001140488 -0.9999969 0.002260818
vn 0.8171515 0.5764122 -0.003527323
vn -0.8158346 0.5782844 0.0009156506
vn 0.002882507 0.5791919 0.8151863

vt 2.8E-05 0.106308
vt 0.193988 0
vt 0.387921 0.106353
vt 0.387893 0.319015
vt 0.193933 0.425322
vt 0 0.318969
vt 0.775842 0.396052
vt 0.58191 0.502406
vt 0.387949 0.396098
vt 0.387921 0.183437
vt 0.581854 0.077083
vt 0.775815 0.183391
vt 0.370075 0.502406
vt 0.775704 1
vt 0.551798 0.898732
vt 0.551754 0.999911
vt 0.775749 0.898821
vt 0.551892 0.686152
vt 0.775842 0.686242
vt 0.775998 0.31909
vt 1 0.425322
vt 0.999948 0.318992
vt 0.77605 0.425421
vt 0.775894 0.106429
vt 0.999845 0.106331
vt 0.775842 9.8E-05
vt 0.999793 0
vt 0.663948 0.502406
vt 0.888062 0.502434
vt 0.757996 0

usemtl unnamed
usemap unnamed
f 13/13/13 5/5/5 4/4/4
f 4/4/4 5/5/5 1/1/1
f 4/4/4 1/1/1 3/3/3
f 3/3/3 1/1/1 2/2/2
f 1/1/1 5/5/5 6/6/6
f 10/10/10 11/11/11 7/7/7
f 10/10/10 7/7/7 9/9/9
f 9/9/9 7/7/7 8/8/8
f 14/14/14 16/16/16 15/15/15
f 14/14/14 15/15/15 17/17/17
f 17/17/17 15/15/15 18/18/18
f 17/17/17 18/18/18 19/19/19
f 19/19/19 18/18/18 28/28/28
f 26/26/26 27/27/27 25/25/25
f 26/26/26 25/25/25 24/24/24
f 24/24/24 25/25/25 22/22/22
f 24/24/24 22/22/22 20/20/20
f 20/20/20 22/22/22 21/21/21
f 20/20/20 21/21/21 23/23/23
f 23/23/23 21/21/21 29/29/29
f 11/11/11 30/30/30 12/12/12
f 11/11/11 12/12/12 7/7/7
