mtllib ./DiSphenocingulum.mtl
g DiSphenocingulum
v 0.602624 -0.6726751 0.1053723
v 0.007862 -0.6760249 0.5622593
v -0.08795 -0.7433662 -0.1785398
v 0.085096 -0.2552083 -0.720993
v 0.775669 -0.1845172 -0.437083
v 0.397729 0.4237798 -0.6598703
v 0.492645 -0.1041018 0.5819521
v 0.665691 0.384057 0.03949887
v 0.223488 0.5954823 0.6071739
v -0.23241 0.01350326 0.7334911
v -0.499939 0.6369262 0.4136908
v -0.878358 0.220266 -0.08198409
v -0.610829 -0.403157 0.2378172
v -0.629078 -0.3432372 -0.509562
v 0.03309 0.7624661 -0.09877428
v -0.34533 0.3458068 -0.5944492
v 0.602624 -0.6726751 0.1053723
v -0.08795 -0.7433662 -0.1785398
v 0.007862 -0.6760249 0.5622593
v 0.602624 -0.6726751 0.1053723
v 0.775669 -0.1845172 -0.437083
v 0.397729 0.4237798 -0.6598703
v 0.492645 -0.1041018 0.5819521
v 0.007862 -0.6760249 0.5622593
v 0.223488 0.5954823 0.6071739
v -0.23241 0.01350326 0.7334911
v -0.499939 0.6369262 0.4136908
v -0.499939 0.6369262 0.4136908
v -0.878358 0.220266 -0.08198409
v 0.223488 0.5954823 0.6071739
v 0.03309 0.7624661 -0.09877428
v 0.397729 0.4237798 -0.6598703
v 0.665691 0.384057 0.03949887
v -0.34533 0.3458068 -0.5944492
v -0.629078 -0.3432372 -0.509562
v -0.629078 -0.3432372 -0.509562

vn 0.06825366 -0.9943287 0.0815604
vn -0.3609559 -0.8574404 0.3667522
vn -0.3370807 -0.9396182 0.05911431
vn 0.1121353 -0.4416927 -0.8901311
vn 0.3748537 -0.4824642 -0.7916521
vn 0.1485419 0.02060772 -0.9886915
vn 0.8865417 -0.07008618 0.4573093
vn 0.8940805 0.4172785 0.162784
vn 0.7100818 0.6274939 0.3194298
vn 0.05740455 0.08201802 0.9949763
vn -0.2204052 0.3686625 0.9030557
vn -0.8786295 -0.143405 0.4554617
vn -0.7590261 -0.5547597 0.3407655
vn -0.7743455 -0.6319656 -0.03175924
vn -0.04800275 0.9709171 -0.2345549
vn -0.4903762 0.7200911 -0.4909177
vn 0.3145618 -0.7533091 -0.5775607
vn 0.1186651 -0.7566024 -0.6430175
vn 0.5365421 -0.4787216 0.6949448
vn 0.823221 -0.2626442 0.5033144
vn 0.989124 0.104935 0.1030654
vn 0.8551449 0.4200467 -0.3037895
vn 0.1936294 -0.06740969 0.9787562
vn 0.1731595 -0.1801168 0.968284
vn -0.004607659 0.2155526 0.9764816
vn -0.7316996 -0.1311852 0.6688843
vn -0.7862453 -0.02060254 0.617571
vn -0.3659939 0.9174614 -0.1559266
vn -0.634213 0.5727553 -0.5193509
vn -0.006263623 0.9727478 0.2317815
vn 0.5009834 0.8627065 0.06894522
vn 0.2158076 0.8916543 -0.3979697
vn 0.5319954 0.8321462 -0.1565689
vn -0.1936277 0.06740794 -0.9787567
vn -0.2162827 -0.3924789 -0.89397
vn -0.7029905 0.2056162 -0.6808279

vt 0.066584 0.489538
vt 0.25557 0.530429
vt 0.045362 0.642988
vt 0.557157 0.705529
vt 0.623911 0.938422
vt 0.790361 0.767647
vt 0.357069 0.306203
vt 0.178948 0.137991
vt 0.401472 0.069669
vt 0.792808 0.716135
vt 0.791213 0.959123
vt 0.252357 1
vt 0.251984 0.757006
vt 0.045735 0.885982
vt 0.623982 0.351544
vt 0.445826 0.183371
vt 0.468226 0.938322
vt 0.401472 0.705428
vt 0.401302 0.488513
vt 0.196543 0.489538
vt 0.018421 0.321326
vt 0 0.109537
vt 1 0.603239
vt 0.790361 0.489541
vt 0.998405 0.846228
vt 0.401099 0.710534
vt 0.401472 0.953528
vt 0.784471 0.168173
vt 0.606315 0
vt 0.802936 0.379958
vt 0.212844 0
vt 0.401472 0.419913
vt 0.590113 0.489541
vt 0.723606 0.534753
vt 0.491143 0.489541
vt 0.401557 0.00107

usemtl unnamed
usemap unnamed
f 3/3/3 1/1/1 2/2/2
f 3/3/3 2/2/2 13/13/13
f 13/13/13 2/2/2 26/26/26
f 13/13/13 26/26/26 12/12/12
f 12/12/12 26/26/26 27/27/27
f 22/22/22 8/8/8 21/21/21
f 21/21/21 8/8/8 7/7/7
f 21/21/21 7/7/7 20/20/20
f 20/20/20 7/7/7 19/19/19
f 25/25/25 11/11/11 10/10/10
f 25/25/25 10/10/10 23/23/23
f 23/23/23 10/10/10 24/24/24
f 36/36/36 29/29/29 16/16/16
f 16/16/16 29/29/29 28/28/28
f 16/16/16 28/28/28 15/15/15
f 15/15/15 28/28/28 30/30/30
f 8/8/8 31/31/31 9/9/9
f 8/8/8 9/9/9 7/7/7
f 15/15/15 33/33/33 32/32/32
f 15/15/15 32/32/32 16/16/16
f 18/18/18 35/35/35 4/4/4
f 18/18/18 4/4/4 17/17/17
f 17/17/17 4/4/4 5/5/5
f 6/6/6 5/5/5 4/4/4
f 6/6/6 4/4/4 34/34/34
f 34/34/34 4/4/4 35/35/35
f 14/14/14 3/3/3 13/13/13
f 14/14/14 13/13/13 12/12/12
