mtllib ./ElongatedPentagonalPyramid.mtl
g ElongatedPentagonalPyramid
v 0.548541 -0.4477412 -0.3219129
v 0.473659 -0.4478619 0.4243402
v -0.259198 -0.4439299 0.5837293
v -0.637247 -0.4413801 -0.06401485
v -0.138036 -0.4437353 -0.6237329
v -0.633107 0.308609 -0.06347912
v -0.133896 0.3062538 -0.6231962
v 0.003861 0.6993511 0.00049975
v 0.552681 0.3022479 -0.3213761
v 0.477799 0.3021272 0.4248759
v -0.255058 0.3060582 0.5842659
v -0.138036 -0.4437353 -0.6237329
v -0.637247 -0.4413801 -0.06401485
v 0.548541 -0.4477412 -0.3219129
v -0.133896 0.3062538 -0.6231962
v -0.138036 -0.4437353 -0.6237329
v 0.003861 0.6993511 0.00049975
v -0.133896 0.3062538 -0.6231962
v 0.552681 0.3022479 -0.3213761
v 0.473659 -0.4478619 0.4243402
v 0.548541 -0.4477412 -0.3219129
v 0.477799 0.3021272 0.4248759
v -0.259198 -0.4439299 0.5837293
v 0.473659 -0.4478619 0.4243402
v -0.255058 0.3060582 0.5842659
v -0.255058 0.3060582 0.5842659
v -0.637247 -0.4413801 -0.06401485
v -0.633107 0.308609 -0.06347912
v -0.259198 -0.4439299 0.5837293
v 0.003861 0.6993511 0.00049975

vn -0.005520179 -0.9999846 -0.00071523
vn -0.005520971 -0.9999847 -0.0007157761
vn -0.005520258 -0.9999847 -0.0007151404
vn -0.005519877 -0.9999847 -0.0007150215
vn -0.005519973 -0.9999847 -0.0007154648
vn -0.7185752 0.2673179 -0.642021
vn -0.6780056 0.4153485 -0.6064603
vn -0.4486484 0.7974326 -0.4035045
vn 0.4024245 -0.001566271 -0.9154519
vn 0.7326795 0.6116323 0.2984743
vn 0.212513 -0.001872373 0.9771565
vn -0.7462756 0.004595423 -0.6656212
vn -0.746276 0.004594991 -0.6656209
vn 0.4024245 -0.001566285 -0.9154519
vn 0.4024245 -0.001566285 -0.9154519
vn 0.4024245 -0.001566299 -0.9154519
vn 0.384148 0.9224603 0.03869642
vn 0.2486831 0.7936913 -0.5551676
vn 0.8925452 0.4447579 -0.07452235
vn 0.9949879 -0.005563804 0.09984025
vn 0.994988 -0.005563892 0.09984016
vn 0.2125123 -0.001871728 0.9771566
vn 0.2125123 -0.001871728 0.9771566
vn 0.2125117 -0.001871083 0.9771569
vn 0.1333946 0.7935061 0.5937628
vn -0.8318189 0.2671366 0.486534
vn -0.8636479 0.004407045 0.5040761
vn -0.7849977 0.415177 0.45979
vn -0.8636478 0.004406706 0.5040764
vn -0.5199004 0.7973182 0.3065738

vt 0.24046 0.447006
vt 0 0.36149
vt 0.000139 0.085226
vt 0.240686 0
vt 0.389212 0.223592
vt 0.174384 0.456934
vt 0.35752 0.647444
vt 0.357631 0.447006
vt 0.747095 1
vt 0.543435 0.36222
vt 1 0.447251
vt 0.183135 0.847514
vt 0 0.657004
vt 0.746894 0.723735
vt 0.999975 0.999781
vt 0.999774 0.723516
vt 0.76208 0.223417
vt 0.733623 0
vt 0.542726 0.085956
vt 0.389922 0.36269
vt 0.389212 0.086426
vt 0.74712 0.447004
vt 0.999774 0.723516
vt 0.746894 0.723269
vt 0.734771 0.447004
vt 0.746734 0.647025
vt 0.389212 0.637567
vt 0.563644 0.837587
vt 0.572302 0.447004
vt 0.746894 0.847463

usemtl unnamed
usemap unnamed
f 4/4/4 5/5/5 1/1/1
f 4/4/4 1/1/1 3/3/3
f 3/3/3 1/1/1 2/2/2
f 12/12/12 13/13/13 6/6/6
f 12/12/12 6/6/6 7/7/7
f 7/7/7 6/6/6 8/8/8
f 14/14/14 16/16/16 15/15/15
f 14/14/14 15/15/15 9/9/9
f 10/10/10 20/20/20 19/19/19
f 10/10/10 19/19/19 17/17/17
f 17/17/17 19/19/19 18/18/18
f 20/20/20 21/21/21 19/19/19
f 22/22/22 11/11/11 23/23/23
f 22/22/22 23/23/23 24/24/24
f 17/17/17 25/25/25 10/10/10
f 27/27/27 29/29/29 26/26/26
f 27/27/27 26/26/26 28/28/28
f 28/28/28 26/26/26 30/30/30
