mtllib ./ElongatedTriangularGyroBiCupola.mtl
g ElongatedTriangularGyroBiCupola
v -0.374655 0.2152034 0.9877881
v -0.002676 -0.4360477 0.9860323
v 0.375336 0.2117194 0.9882821
v 0.377759 0.6466122 0.3772478
v -0.372232 0.6500962 0.3767538
v 0.749739 -0.004639866 0.3754921
v 0.371727 -0.6524059 0.3732423
v -0.378265 -0.648922 0.3727483
v -0.750244 0.002329134 0.374504
v 0.374655 -0.2152034 -0.9877881
v -0.375336 -0.2117194 -0.9882821
v 0.002676 0.4360477 -0.9860323
v 0.378265 0.648922 -0.3727483
v 0.750244 -0.002329134 -0.374504
v -0.371727 0.6524059 -0.3732423
v -0.749739 0.004639866 -0.3754921
v -0.377759 -0.6466122 -0.3772478
v 0.372232 -0.6500962 -0.3767538
v 0.375336 0.2117194 0.9882821
v -0.374655 0.2152034 0.9877881
v 0.749739 -0.004639866 0.3754921
v -0.374655 0.2152034 0.9877881
v -0.378265 -0.648922 0.3727483
v -0.002676 -0.4360477 0.9860323
v -0.750244 0.002329134 0.374504
v 0.002676 0.4360477 -0.9860323
v 0.374655 -0.2152034 -0.9877881
v 0.378265 0.648922 -0.3727483
v -0.375336 -0.2117194 -0.9882821
v -0.749739 0.004639866 -0.3754921
v 0.374655 -0.2152034 -0.9877881
v 0.750244 -0.002329134 -0.374504
v -0.749739 0.004639866 -0.3754921
v -0.377759 -0.6466122 -0.3772478
v -0.750244 0.002329134 0.374504
v -0.372232 0.6500962 0.3767538
v 0.378265 0.648922 -0.3727483
v -0.371727 0.6524059 -0.3732423
v 0.377759 0.6466122 0.3772478
v 0.749739 -0.004639866 0.3754921
v 0.372232 -0.6500962 -0.3767538
v 0.750244 -0.002329134 -0.374504
v 0.371727 -0.6524059 0.3732423
v -0.378265 -0.648922 0.3727483

vn -0.000672987 -0.003080392 0.9999951
vn 0.4443192 -0.5207172 0.7289954
vn 0.4246679 -0.2508412 0.8699058
vn 0.2879049 0.8911111 0.3507592
vn -0.1584928 0.9289246 0.334633
vn 0.8184524 0.466577 0.3353235
vn 0.6283529 -0.6966991 0.3460971
vn -0.004601994 -0.9438215 0.3304241
vn -0.827748 -0.4736012 0.3008907
vn 0.000672987 0.003080392 -0.9999951
vn -0.5423421 0.3191895 -0.7771635
vn -0.3131599 0.5515695 -0.7731121
vn 0.8277481 0.4736011 -0.3008904
vn 0.827748 0.4736013 -0.3008904
vn -0.7203803 0.6097802 -0.330485
vn -0.822914 0.4812707 -0.3019787
vn -0.1666754 -0.927414 -0.3348473
vn 0.2800749 -0.8937498 -0.350385
vn 0.2754372 0.782686 0.5581551
vn -0.423319 0.7389094 0.5242271
vn 0.8229142 -0.4812704 0.3019787
vn -0.7093837 -0.406735 0.5756228
vn -0.827748 -0.4736013 0.3008904
vn -0.7093837 -0.406735 0.5756227
vn -0.8145229 0.4741636 0.3342476
vn 0.7093838 0.406735 -0.5756228
vn 0.7093837 0.4067349 -0.5756227
vn 0.004601994 0.9438215 -0.3304241
vn -0.4294751 -0.7349475 -0.524789
vn -0.8184524 -0.466577 -0.3353235
vn 0.2688884 -0.7852147 -0.5577965
vn 0.8145229 -0.4741636 -0.3342476
vn -0.8683379 -0.4959685 -0.002113028
vn -0.8683378 -0.4959687 -0.002113262
vn -0.863694 0.5040159 0.0009709507
vn -0.8636941 0.5040155 0.0009706235
vn 0.004643258 0.9999847 0.003082752
vn 0.004643214 0.9999846 0.003082709
vn 0.8683379 0.4959685 0.002113028
vn 0.8683378 0.4959687 0.002112794
vn 0.863694 -0.5040158 -0.0009709477
vn 0.8636941 -0.5040155 -0.00097127
vn -0.004643258 -0.9999847 -0.003082752
vn -0.004643214 -0.9999846 -0.003082794

vt 0.284283 1
vt 0.176396 0.884194
vt 0.392122 0.884143
vt 0.608105 0.11597
vt 0.607847 0.347633
vt 0.50037 0
vt 0.176349 0.65253
vt 0.06851 0.768388
vt 0.999986 0.274156
vt 0.499961 1
vt 0.392122 0.884143
vt 0.607848 0.884194
vt 0.931474 0.695008
vt 0.715748 0.69499
vt 0.607895 0.65253
vt 0.392169 0.652479
vt 0.176139 0.11597
vt 0.176396 0.347633
vt 0.392379 0.115694
vt 0.392122 0.347357
vt 0.392074 0.652479
vt 0.999969 0.042493
vt 0.784261 0.274174
vt 0.784244 0.042511
vt 0.499856 0.463327
vt 0.93149 0.463345
vt 0.715765 0.463327
vt 0.715734 0.768388
vt 0.391865 0.115694
vt 0.283873 0
vt 0.392122 0.347357
vt 0.284388 0.463327
vt 1 0.463309
vt 0.784274 0.463327
vt 0.392208 0.463327
vt 0.607934 0.463378
vt 0.784244 0.116195
vt 0.783987 0.347859
vt 0.93146 0.884161
vt 0.715734 0.884143
vt 0.17631 0.463378
vt 0.392035 0.463327
vt 0.000257 0.347859
vt 0 0.116195

usemtl unnamed
usemap unnamed
f 7/7/7 41/41/41 21/21/21
f 7/7/7 21/21/21 2/2/2
f 2/2/2 21/21/21 3/3/3
f 2/2/2 3/3/3 1/1/1
f 25/25/25 20/20/20 5/5/5
f 5/5/5 20/20/20 19/19/19
f 5/5/5 19/19/19 4/4/4
f 4/4/4 19/19/19 6/6/6
f 2/2/2 8/8/8 7/7/7
f 9/9/9 33/33/33 23/23/23
f 9/9/9 23/23/23 22/22/22
f 22/22/22 23/23/23 24/24/24
f 16/16/16 35/35/35 15/15/15
f 16/16/16 15/15/15 11/11/11
f 11/11/11 15/15/15 12/12/12
f 11/11/11 12/12/12 10/10/10
f 13/13/13 39/39/39 14/14/14
f 13/13/13 14/14/14 26/26/26
f 26/26/26 14/14/14 27/27/27
f 12/12/12 15/15/15 28/28/28
f 32/32/32 18/18/18 31/31/31
f 31/31/31 18/18/18 17/17/17
f 31/31/31 17/17/17 29/29/29
f 29/29/29 17/17/17 30/30/30
f 23/23/23 33/33/33 34/34/34
f 35/35/35 36/36/36 15/15/15
f 37/37/37 38/38/38 5/5/5
f 37/37/37 5/5/5 4/4/4
f 39/39/39 40/40/40 14/14/14
f 21/21/21 41/41/41 42/42/42
f 43/43/43 44/44/44 17/17/17
f 43/43/43 17/17/17 18/18/18
