mtllib ./ElongatedPentagonalOrthoBiRotunda.mtl
g ElongatedPentagonalOrthoBiRotunda
v -1.409009 0.1962698 -0.6030381
v -1.409144 -0.5160012 -0.3681558
v -1.4067 -0.5127209 0.3818322
v -1.405054 0.2015782 0.610469
v -1.406481 0.6397581 0.001785771
v -1.013917 0.8337539 -0.6071144
v -0.377307 0.7094648 -0.9836513
v -0.378953 -0.004834434 -1.212287
v -1.01658 -0.3220064 -0.977056
v -0.374779 1.152953 -0.3788275
v -1.009962 0.8390613 0.6063927
v -0.372335 1.156233 0.3711616
v -0.370908 0.7180524 0.9798459
v -1.010181 -0.3134177 0.9864402
v -0.371043 0.005781435 1.214728
v -0.372689 -0.7085178 0.9860914
v -1.014271 -1.030997 0.007815369
v -0.375216 -1.152006 0.3812675
v -0.377661 -1.155286 -0.3687216
v -0.379088 -0.7171054 -0.9774059
v 1.405547 0.1927168 -0.6121951
v 1.408074 0.6362051 -0.007371228
v 1.409501 0.1980242 0.601312
v 1.407856 -0.5162749 0.3726763
v 1.405411 -0.5195552 -0.3773128
v 1.009384 -0.3245644 -0.983647
v 0.371043 -0.005781435 -1.214728
v 0.372689 0.7085178 -0.9860914
v 1.012047 0.8311959 -0.6137053
v 0.370908 -0.7180524 -0.9798459
v 1.011693 -1.033555 0.00122337
v 0.372335 -1.156233 -0.3711616
v 0.374779 -1.152953 0.3788275
v 1.015783 -0.3159757 0.9798492
v 0.377307 -0.7094648 0.9836513
v 0.378953 0.004834434 1.212287
v 1.016002 0.8365033 0.5998018
v 0.379088 0.7171054 0.9774059
v 0.377661 1.155286 0.3687216
v 0.375216 1.152006 -0.3812675
v -1.409009 0.1962698 -0.6030381
v -0.378953 -0.004834434 -1.212287
v -1.013917 0.8337539 -0.6071144
v -1.406481 0.6397581 0.001785771
v -1.406481 0.6397581 0.001785771
v -0.374779 1.152953 -0.3788275
v -0.372335 1.156233 0.3711616
v -1.013917 0.8337539 -0.6071144
v -1.009962 0.8390613 0.6063927
v -1.009962 0.8390613 0.6063927
v -1.405054 0.2015782 0.610469
v -1.010181 -0.3134177 0.9864402
v -1.010181 -0.3134177 0.9864402
v -0.371043 0.005781435 1.214728
v -1.4067 -0.5127209 0.3818322
v -1.014271 -1.030997 0.007815369
v -1.409144 -0.5160012 -0.3681558
v -0.377661 -1.155286 -0.3687216
v -1.014271 -1.030997 0.007815369
v -1.01658 -0.3220064 -0.977056
v 1.405547 0.1927168 -0.6121951
v 1.009384 -0.3245644 -0.983647
v 1.009384 -0.3245644 -0.983647
v 0.371043 -0.005781435 -1.214728
v 1.405411 -0.5195552 -0.3773128
v 1.011693 -1.033555 0.00122337
v 1.011693 -1.033555 0.00122337
v 0.372335 -1.156233 -0.3711616
v 1.407856 -0.5162749 0.3726763
v 1.015783 -0.3159757 0.9798492
v 1.409501 0.1980242 0.601312
v 0.378953 0.004834434 1.212287
v 1.015783 -0.3159757 0.9798492
v 1.016002 0.8365033 0.5998018
v 1.408074 0.6362051 -0.007371228
v 1.012047 0.8311959 -0.6137053
v 1.012047 0.8311959 -0.6137053
v 0.375216 1.152006 -0.3812675

vn -0.9852308 0.0542548 -0.1624087
vn -0.9402323 -0.2774118 -0.1974995
vn -0.9764404 -0.1720525 0.130239
vn -0.975886 0.06852751 0.2072452
vn -0.9387994 0.344461 0.001552848
vn -0.3432269 0.5495608 -0.7616944
vn -0.2174315 0.5547239 -0.8031222
vn -0.2023767 0.2989637 -0.9325582
vn -0.4172517 -0.2845399 -0.8630981
vn -0.08835074 0.8034588 -0.5887685
vn -0.4460948 0.8949825 -0.002460797
vn -0.4460948 0.8949825 -0.002460797
vn -0.2105405 0.4740107 0.8549776
vn -0.4440943 0.2806753 0.8508829
vn -0.3228897 0.2964568 0.8988081
vn -0.2124346 -0.665812 0.7152386
vn -0.3416069 -0.8921907 0.2954668
vn -0.2156237 -0.9207653 0.3251123
vn -0.08869182 -0.9960484 0.004645508
vn -0.2187891 -0.5928754 -0.7750035
vn 0.9842871 0.05176797 -0.1688166
vn 0.9396563 0.3420894 -0.00455816
vn 0.9773835 0.06606168 0.200891
vn 0.9768294 -0.174519 0.1238841
vn 0.9382232 -0.2797846 -0.2036117
vn 0.4447845 0.2721034 -0.8533034
vn 0.3236189 0.2877679 -0.9013661
vn 0.2117139 0.465979 -0.8590931
vn 0.3396501 0.5486994 -0.7639156
vn 0.2107635 -0.6725775 -0.709379
vn 0.4445943 -0.7264631 -0.5240112
vn 0.3234186 -0.7676024 -0.5533417
vn 0.2141723 -0.882028 0.4197106
vn 0.3432264 -0.5495599 0.7616953
vn 0.2173164 -0.5866106 0.7801678
vn 0.09015226 -0.3037954 0.9484625
vn 0.4167424 0.7382089 0.5304466
vn 0.2188245 0.5611905 0.7982364
vn 0.2157102 0.9601948 0.1774689
vn 0.3273642 0.9448841 -0.005199798
vn -0.4496384 0.273234 -0.8503932
vn -0.2248105 -0.120408 -0.9669345
vn -0.7952 0.4905606 -0.3563808
vn -0.4460948 0.8949825 -0.002460797
vn -0.4460947 0.8949825 -0.002460394
vn -0.2535285 0.967322 -0.00340441
vn -0.1663514 0.9297156 0.3285671
vn -0.4460946 0.8949825 -0.002459983
vn -0.7928736 0.4936826 0.3572519
vn -0.3382709 0.5562134 0.7590783
vn -0.4440943 0.2806759 0.8508828
vn -0.7930028 -0.1840616 0.5807479
vn -0.3396502 -0.5486985 0.7639162
vn -0.05418839 -0.3042879 0.9510377
vn -0.4464011 -0.720735 0.5303463
vn -0.7954081 -0.6060516 0.005242754
vn -0.4498278 -0.7253342 -0.5211002
vn -0.2575646 -0.7844841 -0.5641323
vn -0.4498277 -0.7253336 -0.5211011
vn -0.796766 -0.1891125 -0.5739341
vn 0.4447842 0.2721048 -0.853303
vn 0.7925339 -0.1911201 -0.5791056
vn 0.3382707 -0.5562129 -0.7590787
vn 0.0534181 -0.312738 -0.9483362
vn 0.4445944 -0.7264634 -0.5240104
vn 0.7938917 -0.6080593 7.13831E-05
vn 0.3412685 -0.8930532 0.2932439
vn 0.05565134 -0.9984416 0.004185485
vn 0.4480208 -0.7218645 0.5274362
vn 0.7962967 -0.1860673 0.5755785
vn 0.4503285 0.2795461 0.8479731
vn 0.258106 0.3025202 0.917531
vn 0.4503281 0.2795468 0.847973
vn 0.7964257 0.4916753 0.3520818
vn 0.4483274 0.8938534 -0.005370677
vn 0.4483274 0.8938535 -0.005370914
vn 0.7940996 0.4885552 -0.3615517
vn 0.05599393 0.8050596 -0.5905455

vt 0.227018 0.805685
vt 0.107171 0.850345
vt 0.033188 0.733114
vt 0.107312 0.616001
vt 0.227105 0.660852
vt 0.646341 0.485143
vt 0.646378 0.628052
vt 0.558523 0.687457
vt 0.495064 0.532495
vt 0.754973 0.554623
vt 0.87333 0.581338
vt 0.818884 0.687457
vt 0.102023 0.344178
vt 0 0.467273
vt 9.7E-05 0.344071
vt 0.526828 0.328259
vt 0.330146 0.328626
vt 0.421076 0.249538
vt 0.335521 0.185851
vt 0.432257 0.655823
vt 0.913254 0.117146
vt 0.913341 0.261978
vt 0.793547 0.306829
vt 0.719424 0.189716
vt 0.793406 0.072485
vt 0.676732 0.91849
vt 0.622397 0.812296
vt 0.710252 0.752891
vt 0.818884 0.82237
vt 0.432476 0.800655
vt 0.330738 0.924061
vt 0.330551 0.800859
vt 0.489554 0.127967
vt 0.686236 0.127601
vt 0.595306 0.206688
vt 0.680861 0.270375
vt 0.165227 0.076209
vt 0.102137 0.199345
vt 0.228123 0.199476
vt 0.330049 0.199583
vt 0.558463 0.456226
vt 0.558244 0.655571
vt 0.313765 0.733338
vt 0.819186 0.456226
vt 0.227852 0.543654
vt 0.329935 0.344415
vt 0.228009 0.344309
vt 0.329837 0.467617
vt 0.194058 0.543654
vt 0.164919 0.467445
vt 0.101865 0.543523
vt 0.000141 0.615916
vt 0.501256 0.456
vt 0.612382 0.391946
vt 0.3797 0.456226
vt 0 0.85026
vt 0.431956 0.456478
vt 0.330332 0.656026
vt 0.330146 0.532825
vt 0.19383 0.922831
vt 0.798167 0.924716
vt 0.880066 0
vt 0.495656 0.923731
vt 0.558463 0.800403
vt 0.432778 1
vt 0.686236 0.072571
vt 0.515126 0.000226
vt 0.403999 0.06428
vt 0.636682 0
vt 0.686377 0.306915
vt 0.102294 0
vt 0.000211 0.199239
vt 0.000309 0.076037
vt 0.880294 0.379177
vt 0.228281 0.000131
vt 0.330146 0.076381
vt 1 0.189493
vt 0.818847 0.679462

usemtl unnamed
usemap unnamed
f 44/44/44 11/11/11 12/12/12
f 63/63/63 65/65/65 30/30/30
f 63/63/63 30/30/30 64/64/64
f 64/64/64 30/30/30 20/20/20
f 64/64/64 20/20/20 42/42/42
f 42/42/42 20/20/20 9/9/9
f 42/42/42 9/9/9 41/41/41
f 3/3/3 52/52/52 4/4/4
f 3/3/3 4/4/4 1/1/1
f 1/1/1 4/4/4 5/5/5
f 1/1/1 5/5/5 43/43/43
f 71/71/71 37/37/37 38/38/38
f 38/38/38 37/37/37 39/39/39
f 38/38/38 39/39/39 47/47/47
f 47/47/47 39/39/39 46/46/46
f 47/47/47 46/46/46 45/45/45
f 45/45/45 46/46/46 48/48/48
f 5/5/5 4/4/4 49/49/49
f 51/51/51 14/14/14 15/15/15
f 51/51/51 15/15/15 13/13/13
f 13/13/13 15/15/15 72/72/72
f 13/13/13 72/72/72 38/38/38
f 38/38/38 72/72/72 71/71/71
f 1/1/1 60/60/60 2/2/2
f 1/1/1 2/2/2 3/3/3
f 3/3/3 2/2/2 56/56/56
f 20/20/20 30/30/30 58/58/58
f 20/20/20 58/58/58 57/57/57
f 57/57/57 58/58/58 59/59/59
f 41/41/41 6/6/6 7/7/7
f 41/41/41 7/7/7 8/8/8
f 8/8/8 7/7/7 28/28/28
f 8/8/8 28/28/28 27/27/27
f 27/27/27 28/28/28 61/61/61
f 27/27/27 61/61/61 26/26/26
f 23/23/23 70/70/70 24/24/24
f 23/23/23 24/24/24 21/21/21
f 21/21/21 24/24/24 25/25/25
f 21/21/21 25/25/25 62/62/62
f 65/65/65 31/31/31 32/32/32
f 65/65/65 32/32/32 30/30/30
f 30/30/30 32/32/32 58/58/58
f 25/25/25 24/24/24 66/66/66
f 71/71/71 72/72/72 73/73/73
f 21/21/21 77/77/77 22/22/22
f 21/21/21 22/22/22 23/23/23
f 23/23/23 22/22/22 74/74/74
f 39/39/39 37/37/37 75/75/75
f 39/39/39 75/75/75 40/40/40
f 40/40/40 75/75/75 76/76/76
f 29/29/29 61/61/61 28/28/28
f 29/29/29 28/28/28 78/78/78
f 78/78/78 28/28/28 7/7/7
f 78/78/78 7/7/7 10/10/10
f 10/10/10 7/7/7 6/6/6
f 50/50/50 51/51/51 13/13/13
f 50/50/50 13/13/13 47/47/47
f 47/47/47 13/13/13 38/38/38
f 54/54/54 53/53/53 16/16/16
f 54/54/54 16/16/16 35/35/35
f 35/35/35 16/16/16 33/33/33
f 35/35/35 33/33/33 69/69/69
f 69/69/69 33/33/33 67/67/67
f 17/17/17 19/19/19 18/18/18
f 17/17/17 18/18/18 55/55/55
f 55/55/55 18/18/18 16/16/16
f 55/55/55 16/16/16 53/53/53
f 57/57/57 9/9/9 20/20/20
f 68/68/68 67/67/67 33/33/33
f 68/68/68 33/33/33 18/18/18
f 18/18/18 33/33/33 16/16/16
f 36/36/36 54/54/54 35/35/35
f 36/36/36 35/35/35 34/34/34
f 34/34/34 35/35/35 69/69/69
f 18/18/18 19/19/19 68/68/68
f 46/46/46 39/39/39 40/40/40
