mtllib ./ElongatedPentagonalDiPyramid.mtl
g ElongatedPentagonalDiPyramid
v 0.75 -0.3750003 -0.8160939
v 0.375 0.7499998 -0.8160943
v 0.722644 0.8658813 0.3117197
v 1.097644 -0.2591189 0.3117201
v 0.384649 -1.153947 4.126836E-07
v -0.384649 1.153947 -4.126836E-07
v -0.1875 0.5625004 1.008748
v 0.1875 -0.5624997 1.008748
v -1.097644 0.2591192 0.31172
v -0.722644 -0.865881 0.3117204
v -0.75 0.3749998 -0.8160942
v -0.375 -0.7500004 -0.8160938
v 1.097644 -0.2591189 0.3117201
v 0.75 -0.3750003 -0.8160939
v 0.375 0.7499998 -0.8160943
v 0.722644 0.8658813 0.3117197
v 1.097644 -0.2591189 0.3117201
v 0.1875 -0.5624997 1.008748
v 0.1875 -0.5624997 1.008748
v -0.1875 0.5625004 1.008748
v -0.722644 -0.865881 0.3117204
v -1.097644 0.2591192 0.31172
v -0.722644 -0.865881 0.3117204
v -1.097644 0.2591192 0.31172
v -0.375 -0.7500004 -0.8160938
v -0.722644 -0.865881 0.3117204
v 0.384649 -1.153947 4.126836E-07
v -1.097644 0.2591192 0.31172
v -0.75 0.3749998 -0.8160942
v -0.384649 1.153947 -4.126836E-07
v 0.375 0.7499998 -0.8160943
v 0.75 -0.3750003 -0.8160939
v -0.75 0.3749998 -0.8160942
v 0.375 0.7499998 -0.8160943

vn 0.9022515 0.3007504 -0.309017
vn 0.9022515 0.3007504 -0.309017
vn 0.9022515 0.3007504 -0.309017
vn 0.9022515 0.3007504 -0.309017
vn 0.5048102 -0.806338 0.3081981
vn -0.07995408 0.9479567 0.3081975
vn 0.2221353 0.5479922 0.8064494
vn 0.5576224 0.1858744 0.8090168
vn -0.5576224 -0.1858739 0.8090169
vn -0.5576224 -0.1858739 0.8090169
vn -0.9022515 -0.3007506 -0.3090168
vn -0.9022515 -0.3007506 -0.3090168
vn 0.7433407 -0.6488847 0.16246
vn 0.799014 -0.5713018 -0.1875923
vn 0.2964306 0.9364497 -0.1875925
vn 0.3981858 0.781924 0.4796281
vn 0.5576224 0.1858744 0.8090168
vn 0.2689992 -0.8069984 0.525731
vn -0.5576224 -0.1858739 0.8090169
vn -0.5576224 -0.1858739 0.8090169
vn -0.08721952 -0.8667127 0.4911234
vn -0.5898029 0.641039 0.491123
vn -0.9022515 -0.3007506 -0.3090168
vn -0.9022515 -0.3007506 -0.3090168
vn -0.01277 -0.4782036 -0.8781562
vn -0.2964306 -0.9364498 -0.1875918
vn -0.02415971 -0.9047184 -0.4253249
vn -0.7990141 0.5713016 -0.1875927
vn -0.5621584 0.7092786 -0.4253255
vn -0.5621584 0.7092786 -0.4253255
vn 0 -3.576279E-07 -1
vn 0.1300219 -0.3900661 -0.9115607
vn 0 -3.576279E-07 -1
vn -0.2512919 0.7538756 -0.6070621

vt 0.669915 0.723665
vt 0.669525 0.44745
vt 0.948488 0.447064
vt 0.948879 0.723278
vt 0.169446 0.670408
vt 0.411135 0.223419
vt 0.169742 0.361864
vt 0.000394 0.362101
vt 0.669647 1
vt 0.669525 0.723786
vt 0.999609 0
vt 1 0.276214
vt 0.410937 0.53213
vt 0.200045 0.446924
vt 0.380056 0
vt 0.169348 0.08565
vt 0 0.085887
vt 0.411135 0.808345
vt 0.948488 0.723665
vt 0.948611 0.999879
vt 0.200366 0.893848
vt 0.380694 0.446924
vt 0.721036 0.276601
vt 0.720646 0.000387
vt 0.448587 0.224605
vt 0.411135 0.447064
vt 0.638036 0.427354
vt 0.669525 0.447064
vt 0.448954 0.50333
vt 0.669404 0.672592
vt 0.683199 0
vt 0.720646 0.163529
vt 0.411141 0.061076
vt 0.411135 0.776994

usemtl unnamed
usemap unnamed
f 1/1/1 2/2/2 3/3/3
f 1/1/1 3/3/3 4/4/4
f 18/18/18 21/21/21 5/5/5
f 18/18/18 5/5/5 13/13/13
f 13/13/13 5/5/5 14/14/14
f 8/8/8 17/17/17 7/7/7
f 7/7/7 17/17/17 16/16/16
f 7/7/7 16/16/16 6/6/6
f 6/6/6 16/16/16 15/15/15
f 19/19/19 20/20/20 9/9/9
f 19/19/19 9/9/9 10/10/10
f 7/7/7 6/6/6 22/22/22
f 23/23/23 24/24/24 11/11/11
f 23/23/23 11/11/11 12/12/12
f 27/27/27 26/26/26 25/25/25
f 27/27/27 25/25/25 32/32/32
f 32/32/32 25/25/25 31/31/31
f 30/30/30 34/34/34 29/29/29
f 30/30/30 29/29/29 28/28/28
f 31/31/31 25/25/25 33/33/33
