mtllib ./GreatIcosahedron.mtl
g GreatIcosahedron
v -0.311667 -0.03314889 0.3100061
v -0.055366 0.3161349 -0.3022121
v 0.179622 -0.3774121 -0.1401249
v 0.110618 0.1322972 0.40571
v -0.414251 0.08046997 -0.127514
v 0.414251 -0.08046997 0.127514
v -0.26902 -0.348166 -0.02733788
v -0.110618 -0.1322972 -0.40571
v -0.179622 0.3774121 0.1401249
v 0.26902 0.348166 0.02733788
v 0.055366 -0.3161349 0.3022121
v 0.311667 0.03314889 -0.3100061
v 0.179622 -0.3774121 -0.1401249
v -0.311667 -0.03314889 0.3100061
v -0.055366 0.3161349 -0.3022121
v -0.055366 0.3161349 -0.3022121
v 0.110618 0.1322972 0.40571
v -0.311667 -0.03314889 0.3100061
v 0.414251 -0.08046997 0.127514
v 0.414251 -0.08046997 0.127514
v -0.26902 -0.348166 -0.02733788
v -0.311667 -0.03314889 0.3100061
v -0.110618 -0.1322972 -0.40571
v -0.110618 -0.1322972 -0.40571
v -0.179622 0.3774121 0.1401249
v -0.311667 -0.03314889 0.3100061
v 0.26902 0.348166 0.02733788
v 0.179622 -0.3774121 -0.1401249
v 0.26902 0.348166 0.02733788
v 0.055366 -0.3161349 0.3022121
v -0.414251 0.08046997 -0.127514
v 0.110618 0.1322972 0.40571
v -0.055366 0.3161349 -0.3022121
v 0.179622 -0.3774121 -0.1401249
v 0.110618 0.1322972 0.40571
v -0.414251 0.08046997 -0.127514
v -0.26902 -0.348166 -0.02733788
v 0.414251 -0.08046997 0.127514
v -0.055366 0.3161349 -0.3022121
v 0.311667 0.03314889 -0.3100061
v 0.110618 0.1322972 0.40571
v -0.179622 0.3774121 0.1401249
v -0.110618 -0.1322972 -0.40571
v 0.414251 -0.08046997 0.127514
v 0.311667 0.03314889 -0.3100061
v -0.179622 0.3774121 0.1401249
v -0.26902 -0.348166 -0.02733788
v 0.055366 -0.3161349 0.3022121
v 0.26902 0.348166 0.02733788
v -0.110618 -0.1322972 -0.40571
v 0.311667 0.03314889 -0.3100061
v 0.055366 -0.3161349 0.3022121
v -0.179622 0.3774121 0.1401249
v -0.414251 0.08046997 -0.127514
v 0.179622 -0.3774121 -0.1401249
v 0.26902 0.348166 0.02733788
v 0.311667 0.03314889 -0.3100061
v -0.414251 0.08046997 -0.127514
v 0.055366 -0.3161349 0.3022121
v -0.26902 -0.348166 -0.02733788

vn -0.7554057 -0.380604 -0.5333884
vn -0.7554057 -0.380604 -0.5333884
vn -0.7554057 -0.380604 -0.5333884
vn -0.4998566 -0.6636418 0.5565278
vn -0.4998566 -0.6636418 0.5565278
vn 0.1903199 0.8162908 0.5453878
vn -0.8616445 0.4041453 0.3069778
vn -0.03238225 -0.9912174 0.1282171
vn -0.1386217 -0.2064688 0.9685839
vn -0.6177682 0.7364973 -0.275562
vn -0.9467095 -0.2862616 0.1476334
vn 0.03238226 0.9912174 -0.1282171
vn -0.4998566 -0.6636418 0.5565278
vn 0.1903199 0.8162908 0.5453878
vn 0.1903199 0.8162908 0.5453878
vn -0.8616445 0.4041453 0.3069778
vn -0.8616445 0.4041453 0.3069778
vn -0.03238225 -0.9912174 0.1282171
vn -0.03238225 -0.9912174 0.1282171
vn -0.1386217 -0.2064688 0.9685839
vn -0.1386217 -0.2064688 0.9685839
vn -0.6177682 0.7364973 -0.275562
vn -0.6177682 0.7364973 -0.275562
vn -0.9467095 -0.2862616 0.1476334
vn -0.9467095 -0.2862616 0.1476334
vn 0.5521091 -0.2514958 0.7949374
vn 0.5521091 -0.2514958 0.7949374
vn 0.5521091 -0.2514958 0.7949374
vn -0.362219 0.4534606 0.8143532
vn -0.362219 0.4534606 0.8143532
vn -0.362219 0.4534606 0.8143532
vn 0.9467095 0.2862616 -0.1476334
vn 0.9467095 0.2862616 -0.1476334
vn 0.9467095 0.2862616 -0.1476334
vn 0.03238226 0.9912174 -0.1282171
vn 0.03238226 0.9912174 -0.1282171
vn 0.362219 -0.4534606 -0.8143532
vn 0.362219 -0.4534606 -0.8143532
vn 0.362219 -0.4534606 -0.8143532
vn 0.6177682 -0.7364973 0.275562
vn 0.6177682 -0.7364973 0.275562
vn 0.4998565 0.6636418 -0.5565277
vn 0.4998565 0.6636418 -0.5565277
vn 0.4998565 0.6636418 -0.5565277
vn -0.5521091 0.2514958 -0.7949374
vn -0.5521091 0.2514958 -0.7949374
vn -0.5521091 0.2514958 -0.7949374
vn 0.8616444 -0.4041453 -0.3069778
vn 0.8616444 -0.4041453 -0.3069778
vn 0.8616444 -0.4041453 -0.3069778
vn 0.7554055 0.3806039 0.5333884
vn 0.7554055 0.3806039 0.5333884
vn 0.7554055 0.3806039 0.5333884
vn 0.1386217 0.2064688 -0.968584
vn 0.1386217 0.2064688 -0.968584
vn 0.1386217 0.2064688 -0.968584
vn -0.1903199 -0.8162909 -0.5453878
vn -0.1903199 -0.8162909 -0.5453878
vn -0.1903199 -0.8162909 -0.5453878
vn 0.6177682 -0.7364973 0.275562

vt 0.207524 0
vt 0.414534 0.112554
vt 0.207301 0.224745
vt 0.000357 0
vt 0.207301 0.112663
vt 0.810901 0.224745
vt 0.20737 0.674235
vt 0.758172 0.862336
vt 0.947086 0.632993
vt 0.569053 0.224745
vt 0.75819 0.44949
vt 6.7E-05 0.674235
vt 0 0.224745
vt 0.810992 0.408248
vt 1 0.270538
vt 0.414458 0.561806
vt 0.207301 0.44949
vt 0.947218 1
vt 0.947258 0.816496
vt 0.758172 0.770817
vt 0.947302 0.816496
vt 0.758223 0.179212
vt 0.56943 0.041242
vt 0.569014 0.495002
vt 0.75779 0.632993
vt 0.414458 0.857738
vt 0.414384 0.674235
vt 0.225326 0.720178
vt 0.207232 0.812091
vt 0.018344 0.674235
vt 0.018093 0.857738
vt 0.758063 0.816497
vt 0.758172 0.632993
vt 0.569014 0.770522
vt 0.207232 0.561931
vt 0.000152 0.44949
vt 0.41474 0.44949
vt 0.414529 0.674235
vt 0.569014 0.561991
vt 0.41469 0.224745
vt 0.621732 0.337249
vt 0.568776 0
vt 0.414534 0.112541
vt 0.569053 0.224745
vt 0.9473 0.632993
vt 0.947165 0.44949
vt 0.75819 0.58724
vt 0.810901 0.408248
vt 0.810526 0.224745
vt 0.621732 0.362714
vt 0.207077 0.224745
vt 6.7E-05 0.337299
vt 0.207301 0.44949
vt 0.414529 0.224745
vt 0.207301 0.336945
vt 0.414317 0.44949
vt 0.947231 0.224745
vt 0.947322 0.041241
vt 0.758223 0.087035
vt 0.414529 0.44949

usemtl unnamed
usemap unnamed
f 1/1/1 2/2/2 3/3/3
f 13/13/13 4/4/4 5/5/5
f 14/14/14 6/6/6 15/15/15
f 16/16/16 7/7/7 17/17/17
f 18/18/18 8/8/8 19/19/19
f 20/20/20 9/9/9 21/21/21
f 22/22/22 10/10/10 23/23/23
f 24/24/24 11/11/11 25/25/25
f 26/26/26 28/28/28 27/27/27
f 29/29/29 31/31/31 30/30/30
f 32/32/32 34/34/34 33/33/33
f 12/12/12 36/36/36 35/35/35
f 37/37/37 39/39/39 38/38/38
f 40/40/40 41/41/41 60/60/60
f 42/42/42 44/44/44 43/43/43
f 45/45/45 47/47/47 46/46/46
f 48/48/48 50/50/50 49/49/49
f 51/51/51 53/53/53 52/52/52
f 54/54/54 56/56/56 55/55/55
f 57/57/57 59/59/59 58/58/58
