mtllib ./GyroElongatedPentagonalPyramid.mtl
g GyroElongatedPentagonalPyramid
v 0.581068 0.2534269 -0.2641121
v 0.431776 0.2519222 0.470878
v 0.624298 -0.385658 0.1260192
v 0.071502 -0.3856168 0.6328883
v -0.313374 0.2534932 0.556021
v -0.58138 -0.3831149 0.2637832
v -0.624609 0.255969 -0.1263481
v -0.432087 -0.3816102 -0.4712059
v -0.071814 0.2559278 -0.6332172
v 0.313063 -0.3831822 -0.5563489
v 0.001555 0.6484441 0.001643768
v 0.431776 0.2519222 0.470878
v 0.624298 -0.385658 0.1260192
v -0.313374 0.2534932 0.556021
v 0.071502 -0.3856168 0.6328883
v -0.624609 0.255969 -0.1263481
v -0.58138 -0.3831149 0.2637832
v -0.071814 0.2559278 -0.6332172
v 0.313063 -0.3831822 -0.5563489
v 0.581068 0.2534269 -0.2641121
v 0.431776 0.2519222 0.470878
v 0.431776 0.2519222 0.470878
v -0.313374 0.2534932 0.556021
v 0.001555 0.6484441 0.001643768
v -0.624609 0.255969 -0.1263481
v -0.624609 0.255969 -0.1263481
v -0.071814 0.2559278 -0.6332172
v -0.432087 -0.3816102 -0.4712059
v 0.624298 -0.385658 0.1260192
v 0.313063 -0.3831822 -0.5563489
v 0.071502 -0.3856168 0.6328883
v -0.58138 -0.3831149 0.2637832

vn 0.9075903 0.07162817 -0.4137019
vn 0.9630374 0.184787 0.1959916
vn 0.9935331 -0.002094868 -0.113524
vn 0.4149801 -0.00330277 0.9098246
vn 0.1119525 0.1848488 0.9763697
vn -0.7370613 5.490069E-05 0.6758261
vn -0.8932253 0.1887024 0.4080932
vn -0.6742051 -0.06927557 -0.735288
vn -0.4149804 0.00330091 -0.9098246
vn -0.1119527 -0.1848505 -0.9763694
vn 0.1897024 0.9249793 -0.3292819
vn 0.4149801 -0.00330277 0.9098246
vn 0.6633734 -0.1910194 0.7234967
vn -0.7370613 5.490069E-05 0.6758261
vn -0.4838585 -0.1886 0.8545825
vn -0.8705091 0.003335213 -0.4921409
vn -0.9630371 -0.1847866 -0.1959931
vn 0.4838583 0.1885993 -0.8545827
vn 0.7370608 -5.447497E-05 -0.6758264
vn 0.4803644 0.8500514 -0.2160156
vn 0.5968177 0.7929167 0.1228496
vn 0.07081795 0.7929558 0.6051497
vn -0.2566971 0.8501062 0.4598111
vn -0.2566971 0.8501062 0.4598111
vn -0.5504165 0.7953355 0.2539358
vn -0.4083602 0.7967674 -0.4454254
vn -0.05764005 0.8521124 -0.5201753
vn -0.002398931 -0.999994 -0.002534466
vn -0.00239887 -0.9999941 -0.002534426
vn -0.002399177 -0.999994 -0.002533882
vn -0.002398837 -0.999994 -0.002534689
vn -0.002399092 -0.999994 -0.002534573

vt 0.259832 0.605525
vt 0.226684 0.807356
vt 0 0.730205
vt 0.721549 0.796295
vt 0.721928 1
vt 0.721854 0.497811
vt 0.721549 0.701515
vt 0.461665 0.201921
vt 0.721904 0.326013
vt 0.495473 0.403676
vt 0.721549 0.605498
vt 0.958986 0.948769
vt 0.999036 0.701515
vt 0.958778 0.650835
vt 0.99966 0.403676
vt 0.721001 0.076527
vt 0.494011 0
vt 0.226827 0.403678
vt 8.8E-05 0.480718
vt 0.461855 0.730378
vt 0.688626 0.807354
vt 1 0.105827
vt 0.722199 0.199971
vt 0.959131 0.352988
vt 0.721904 0.403676
vt 0.688318 0.403676
vt 0.461665 0.480891
vt 0.461571 0.077021
vt 0.176399 0.403678
vt 0.461665 0.326508
vt 0 0.201885
vt 0.176246 0

usemtl unnamed
usemap unnamed
f 19/19/19 18/18/18 1/1/1
f 19/19/19 1/1/1 3/3/3
f 3/3/3 1/1/1 2/2/2
f 4/4/4 13/13/13 12/12/12
f 4/4/4 12/12/12 5/5/5
f 6/6/6 15/15/15 14/14/14
f 6/6/6 14/14/14 7/7/7
f 9/9/9 10/10/10 8/8/8
f 9/9/9 8/8/8 16/16/16
f 16/16/16 8/8/8 17/17/17
f 27/27/27 26/26/26 11/11/11
f 27/27/27 11/11/11 20/20/20
f 20/20/20 11/11/11 21/21/21
f 24/24/24 25/25/25 23/23/23
f 24/24/24 23/23/23 22/22/22
f 31/31/31 32/32/32 28/28/28
f 31/31/31 28/28/28 29/29/29
f 29/29/29 28/28/28 30/30/30
