mtllib ./GyroElongatedSquareBiCupola.mtl
g GyroElongatedSquareBiCupola
v -0.842824 0.4723041 0.2744729
v -0.857805 -0.2552919 0.4558001
v -0.301975 -0.1443317 0.9469622
v -0.286993 0.5832633 0.7656349
v 0.079499 0.9957913 0.2576927
v -0.476332 0.884831 -0.2334693
v 0.461937 0.5597634 0.7332149
v 0.446956 -0.1678327 0.9145432
v 0.04333 -0.7607808 0.6954564
v -0.5125 -0.8717411 0.2042943
v -0.894938 -0.4357142 -0.2712269
v -0.879957 0.2918819 -0.4525551
v 0.939567 0.1053889 -0.3389171
v 0.713019 -0.6092852 -0.3593518
v 0.205231 -0.4333604 -0.8825179
v 0.43178 0.2813137 -0.8620832
v 0.236075 0.888625 -0.4679104
v 0.743862 0.7127001 0.05525575
v -0.283179 0.5076728 -0.8522933
v -0.509727 -0.2070013 -0.872728
v -0.310861 -0.8367493 -0.5172437
v 0.196926 -1.012675 0.005922363
v 0.71618 -0.6317219 0.3903053
v 0.942728 0.08295116 0.41074
v -0.301975 -0.1443317 0.9469622
v 0.461937 0.5597634 0.7332149
v -0.286993 0.5832633 0.7656349
v -0.301975 -0.1443317 0.9469622
v 0.446956 -0.1678327 0.9145432
v -0.857805 -0.2552919 0.4558001
v -0.894938 -0.4357142 -0.2712269
v 0.205231 -0.4333604 -0.8825179
v -0.283179 0.5076728 -0.8522933
v 0.43178 0.2813137 -0.8620832
v 0.713019 -0.6092852 -0.3593518
v 0.713019 -0.6092852 -0.3593518
v 0.196926 -1.012675 0.005922363
v 0.939567 0.1053889 -0.3389171
v 0.942728 0.08295116 0.41074
v 0.196926 -1.012675 0.005922363
v -0.5125 -0.8717411 0.2042943
v -0.894938 -0.4357142 -0.2712269
v -0.879957 0.2918819 -0.4525551
v -0.283179 0.5076728 -0.8522933
v -0.476332 0.884831 -0.2334693
v 0.236075 0.888625 -0.4679104
v 0.079499 0.9957913 0.2576927
v 0.743862 0.7127001 0.05525575
v 0.743862 0.7127001 0.05525575
v 0.04333 -0.7607808 0.6954564

vn -0.8737139 0.3452101 0.3427157
vn -0.9036152 0.1210068 0.4108978
vn -0.6710891 0.192259 0.716014
vn -0.4391699 0.7072836 0.5539675
vn -0.02134889 0.9411858 0.3372145
vn -0.5246519 0.8512848 -0.007406227
vn 0.2629339 0.8071136 0.5286148
vn 0.5101415 -0.09789152 0.8545017
vn -0.2990969 -0.643818 0.7043008
vn -0.5162431 -0.7324664 0.4438313
vn -0.8268647 -0.5345197 0.174881
vn -0.881366 0.4237653 -0.2088469
vn 0.824537 0.1202323 -0.5528861
vn 0.6710893 -0.1922588 -0.7160139
vn 0.6710894 -0.1922594 -0.7160136
vn 0.6232764 0.392083 -0.6766074
vn 0.3110536 0.7887555 -0.5301987
vn 0.7296743 0.6175188 -0.2936766
vn -0.007934865 0.7155858 -0.69848
vn -0.4795154 -0.2028953 -0.8537556
vn -0.1820381 -0.8301858 -0.5269285
vn 0.03847323 -0.9352671 -0.3518459
vn 0.7714418 -0.5636947 0.2951709
vn 0.8812733 0.01290512 0.4724308
vn 0.04951041 0.2405622 0.9693703
vn 0.3923509 0.3078761 0.8667603
vn 0.04951091 0.2405617 0.9693704
vn -0.2606418 -0.486275 0.834028
vn 0.02889114 -0.3636863 0.9310734
vn -0.6151339 -0.5677587 0.547047
vn -0.9985738 0.03133306 0.04322653
vn 0.02844223 -0.3480213 -0.9370552
vn -0.1918457 0.08876106 -0.9774032
vn -0.004215139 0.0299162 -0.9995437
vn 0.2609398 -0.8097488 -0.5255641
vn 0.8299394 -0.5574883 -0.02018477
vn 0.4873855 -0.8529426 0.1869342
vn 0.9532783 -0.3018113 -0.01305277
vn 0.9527453 0.3037278 0.005073488
vn -0.09691305 -0.9416296 0.3223999
vn -0.4283463 -0.8888268 -0.162809
vn -0.7189895 -0.4997206 -0.4830462
vn -0.7229704 0.04415792 -0.6894664
vn -0.5836135 0.5996024 -0.5476061
vn -0.186331 0.8120298 -0.5530719
vn -0.05722599 0.9857888 -0.1579425
vn 0.3771352 0.9245141 -0.05516292
vn 0.457537 0.8074467 0.372411
vn 0.7648272 0.4824963 0.426892
vn 0.3951282 -0.7244374 0.5648577

vt 0.133502 0.138734
vt 0.163363 0
vt 0.322303 0.052128
vt 0.292443 0.190862
vt 0.250214 0.387062
vt 0.091274 0.334934
vt 0.383717 0.325822
vt 0.500431 0.291979
vt 0.744666 0.666753
vt 0.85986 0.811637
vt 1 0.842986
vt 0 0.199974
vt 0.581809 0.89972
vt 0.498602 1
vt 0.383717 0.854743
vt 0.466923 0.754463
vt 0.584596 0.612646
vt 0.699481 0.757903
vt 0.444523 0.580842
vt 0.138057 0.637653
vt 0.137919 0.84066
vt 0.179361 0.98425
vt 0.541796 0.097398
vt 0.65807 0.240962
vt 0.383717 0.358342
vt 0.606049 0.426842
vt 0.489334 0.493206
vt 0.862036 0.524555
vt 0.721896 0.493206
vt 0.97723 0.669439
vt 0.02986 0.06124
vt 0.275976 0.739299
vt 0.179695 0.494149
vt 0.317613 0.595795
vt 0.317418 0.88289
vt 0.620629 0.000107
vt 0.456242 0
vt 0.736903 0.143671
vt 0.721882 0.931523
vt 0.72261 0.835698
vt 0.022354 0.92659
vt 0 0.739013
vt 0.022609 0.551483
vt 0.006671 0.392897
vt 0.583914 0.493206
vt 0.142086 0.494149
vt 0.721896 0.58903
vt 0.300355 0.489217
vt 0.736952 0.346594
vt 0.391203 0.161571

usemtl unnamed
usemap unnamed
f 36/36/36 38/38/38 23/23/23
f 23/23/23 38/38/38 24/24/24
f 23/23/23 24/24/24 8/8/8
f 8/8/8 24/24/24 26/26/26
f 8/8/8 26/26/26 25/25/25
f 25/25/25 26/26/26 27/27/27
f 11/11/11 10/10/10 30/30/30
f 30/30/30 10/10/10 9/9/9
f 30/30/30 9/9/9 28/28/28
f 28/28/28 9/9/9 29/29/29
f 17/17/17 47/47/47 18/18/18
f 17/17/17 18/18/18 16/16/16
f 16/16/16 18/18/18 13/13/13
f 16/16/16 13/13/13 15/15/15
f 15/15/15 13/13/13 14/14/14
f 33/33/33 34/34/34 32/32/32
f 33/33/33 32/32/32 20/20/20
f 20/20/20 32/32/32 21/21/21
f 20/20/20 21/21/21 42/42/42
f 42/42/42 21/21/21 41/41/41
f 13/13/13 18/18/18 39/39/39
f 9/9/9 10/10/10 40/40/40
f 3/3/3 4/4/4 1/1/1
f 1/1/1 4/4/4 6/6/6
f 1/1/1 6/6/6 12/12/12
f 12/12/12 6/6/6 44/44/44
f 17/17/17 16/16/16 19/19/19
f 17/17/17 19/19/19 45/45/45
f 4/4/4 7/7/7 5/5/5
f 4/4/4 5/5/5 6/6/6
f 6/6/6 5/5/5 46/46/46
f 5/5/5 7/7/7 48/48/48
f 26/26/26 24/24/24 49/49/49
f 2/2/2 3/3/3 1/1/1
f 2/2/2 1/1/1 31/31/31
f 31/31/31 1/1/1 12/12/12
f 22/22/22 41/41/41 21/21/21
f 22/22/22 21/21/21 35/35/35
f 35/35/35 21/21/21 32/32/32
f 37/37/37 36/36/36 23/23/23
f 37/37/37 23/23/23 50/50/50
f 50/50/50 23/23/23 8/8/8
f 43/43/43 33/33/33 20/20/20
f 43/43/43 20/20/20 42/42/42
