mtllib ./GyroElongatedPentagonalRotunda.mtl
g GyroElongatedPentagonalRotunda
v 1.148767 -0.7065712 -0.3965308
v 1.159594 -0.7117679 0.3533733
v 0.727561 -0.7161208 0.9664214
v 0.017689 -0.7179676 1.208451
v -0.698875 -0.7166038 0.9870144
v -1.148428 -0.7125499 0.3866923
v -1.159255 -0.7073532 -0.3632118
v -0.727222 -0.7030004 -0.9762599
v -0.01735 -0.7011535 -1.218289
v 0.699214 -0.7025174 -0.9968519
v -0.991943 -0.05816926 -0.699465
v -0.391608 -0.05490942 -1.149006
v 0.358314 -0.05465542 -1.159832
v 0.971378 -0.05750427 -0.7278081
v 1.213414 -0.06236701 -0.01795198
v 0.991973 -0.06738776 0.6985941
v 0.367278 0.973186 -0.5147694
v -0.382644 0.9729319 -0.5039434
v -0.604085 0.9679122 0.2126027
v 0.008979 0.9650633 0.6446267
v 0.609314 0.9683232 0.1950867
v 0.976918 0.5777369 -0.3291372
v -0.01504 0.5823467 -1.028166
v 0.618619 0.5696144 0.8302589
v 0.391638 -0.0706476 1.148135
v -0.59478 0.5692034 0.8477759
v -0.358284 -0.0709016 1.158961
v -0.971348 -0.06805275 0.7269371
v -0.986403 0.577072 -0.3007942
v -1.213384 -0.063189 0.01708202
v -0.727222 -0.7030004 -0.9762599
v -0.01735 -0.7011535 -1.218289
v 0.358314 -0.05465542 -1.159832
v -0.01735 -0.7011535 -1.218289
v 0.699214 -0.7025174 -0.9968519
v 1.148767 -0.7065712 -0.3965308
v 1.159594 -0.7117679 0.3533733
v 0.991973 -0.06738776 0.6985941
v 1.159594 -0.7117679 0.3533733
v 0.727561 -0.7161208 0.9664214
v 0.367278 0.973186 -0.5147694
v 0.976918 0.5777369 -0.3291372
v 0.609314 0.9683232 0.1950867
v 1.213414 -0.06236701 -0.01795198
v 0.976918 0.5777369 -0.3291372
v 0.618619 0.5696144 0.8302589
v 0.008979 0.9650633 0.6446267
v 0.008979 0.9650633 0.6446267
v -0.358284 -0.0709016 1.158961
v -0.59478 0.5692034 0.8477759
v -0.604085 0.9679122 0.2126027
v -0.986403 0.577072 -0.3007942
v -0.986403 0.577072 -0.3007942
v -1.213384 -0.063189 0.01708202
v -0.382644 0.9729319 -0.5039434
v -0.01504 0.5823467 -1.028166
v -0.01504 0.5823467 -1.028166
v 0.017689 -0.7179676 1.208451
v 0.017689 -0.7179676 1.208451
v -0.698875 -0.7166038 0.9870144
v -1.148428 -0.7125499 0.3866923
v -1.159255 -0.7073532 -0.3632118
v -1.159255 -0.7073532 -0.3632118

vn 0.0002386774 -0.9999761 -0.006932167
vn 0.0002370129 -0.9999761 -0.006933104
vn 0.0002376626 -0.9999761 -0.006932904
vn 0.0002384954 -0.999976 -0.006932415
vn 0.0002390561 -0.999976 -0.006931894
vn 0.0002389701 -0.9999761 -0.006932404
vn 0.0002387314 -0.999976 -0.006932529
vn 0.0002386724 -0.999976 -0.006931562
vn 0.0002385596 -0.9999761 -0.006931198
vn 0.0002385591 -0.999976 -0.006931197
vn -0.7472146 0.245563 -0.617551
vn -0.3839945 0.2475353 -0.8895362
vn -0.01432845 0.1465395 -0.9891012
vn 0.7289099 0.2460633 -0.6388609
vn 0.9929779 0.07342871 -0.09275342
vn 0.9513937 0.08962981 0.2946462
vn 0.09993396 0.9857506 -0.1353116
vn -0.2059865 0.9410668 -0.2682594
vn -0.2036143 0.9760882 0.07611248
vn 0.002868951 0.9751288 0.2216211
vn 0.3277502 0.938587 0.1078634
vn 0.7522615 0.3455171 -0.5609996
vn 0.5151229 0.4523945 -0.7280026
vn 0.5455019 0.4091511 0.7314528
vn 0.2404257 0.2349892 0.9417939
vn -0.5244371 0.4087888 0.7468985
vn -0.3655167 0.1683446 0.915455
vn -0.8198726 0.2376536 0.5208934
vn -0.8466786 0.4450001 0.2917365
vn -0.9295212 0.271388 0.2496777
vn -0.5990962 -0.02622261 -0.8002477
vn -0.1706769 0.006789002 -0.9853038
vn 0.4992875 0.2791461 -0.8202376
vn 0.2940396 -0.08477633 -0.9520262
vn 0.5757635 -0.02582481 -0.8172084
vn 0.9460304 -0.02916325 -0.3227632
vn 0.9898437 -0.0007492042 0.1421577
vn 0.806415 0.2631552 0.5295699
vn 0.8140154 -0.09522337 0.5729847
vn 0.5991116 -0.03702838 0.799809
vn 0.5151229 0.4523944 -0.7280025
vn 0.574392 0.7961308 -0.1903938
vn 0.8544456 0.4455762 0.2671792
vn 0.8544455 0.4455763 0.2671793
vn 0.8544455 0.4455763 0.2671791
vn 0.3636848 0.7913538 0.4914189
vn 0.01280634 0.4410063 0.8974128
vn 0.01280578 0.4410064 0.8974128
vn 0.01357944 0.3176884 0.9480981
vn -0.3498839 0.7911122 0.50172
vn -0.8466786 0.4449999 0.2917371
vn -0.5801879 0.7957395 -0.1737265
vn -0.768376 0.3450017 -0.5390475
vn -0.9460853 0.14148 -0.2913862
vn -0.5362294 0.4520382 -0.712825
vn -0.3034017 0.3475271 -0.8872275
vn -0.00895359 0.7988414 -0.6014751
vn 0.1706777 -0.006789356 0.9853036
vn -0.293996 -0.09810641 0.9507585
vn -0.5757489 -0.03742623 0.8167697
vn -0.9460152 -0.03408728 0.3223248
vn -0.9956846 -0.09177866 0.01373962
vn -0.8974679 0.002843188 -0.4410707

vt 0.198653 0.429688
vt 0.076006 0.38878
vt 0.000127 0.281435
vt 0 0.148655
vt 0.075673 0.041156
vt 0.198242 0
vt 0.320889 0.040907
vt 0.396768 0.148252
vt 0.396895 0.281033
vt 0.321221 0.388532
vt 0.804436 0.452668
vt 0.879141 0.560883
vt 0.955206 0.636985
vt 0.509183 0.481778
vt 0.513488 0.614485
vt 0.51885 0.721782
vt 0.629206 0.240237
vt 0.506558 0.281144
vt 0.430885 0.173645
vt 0.506764 0.0663
vt 0.629333 0.107456
vt 0.621424 0.544343
vt 0.618831 0.370523
vt 0.197398 0.521603
vt 0.215024 0.651792
vt 0.910732 0.794134
vt 0.800142 0.728525
vt 0.801027 0.861302
vt 0.914934 0.967921
vt 0.803625 0.968708
vt 0.752023 0.572514
vt 0.831288 0.669415
vt 0.507581 0.374351
vt 0.396952 0.347625
vt 0.396895 0.425717
vt 0.4 0.551962
vt 0.405082 0.67814
vt 0.095832 0.601198
vt 0 0.683516
vt 0.112982 0.732575
vt 0.68919 0.475584
vt 0.717989 0.173937
vt 0.164458 0.429688
vt 0.00012 0.558476
vt 0.042533 0.452477
vt 0.595548 0
vt 0.980245 0.727251
vt 0.28365 0.480281
vt 0.312169 0.690932
vt 0.3971 0.066189
vt 0.981131 0.860029
vt 0.396895 0.281033
vt 0.879124 0.347625
vt 0.759625 0.353676
vt 0.99999 0.390919
vt 1 0.522719
vt 0.595215 0.347625
vt 0.226718 0.779751
vt 0.689337 0.669415
vt 0.68919 0.795701
vt 0.691021 0.921973
vt 0.69413 1
vt 0.68919 0.463579

usemtl unnamed
usemap unnamed
f 4/4/4 5/5/5 1/1/1
f 4/4/4 1/1/1 3/3/3
f 3/3/3 1/1/1 2/2/2
f 9/9/9 10/10/10 1/1/1
f 9/9/9 1/1/1 8/8/8
f 8/8/8 1/1/1 7/7/7
f 16/16/16 37/37/37 15/15/15
f 15/15/15 37/37/37 36/36/36
f 15/15/15 36/36/36 14/14/14
f 14/14/14 36/36/36 35/35/35
f 14/14/14 35/35/35 33/33/33
f 33/33/33 35/35/35 34/34/34
f 49/49/49 58/58/58 25/25/25
f 25/25/25 58/58/58 40/40/40
f 25/25/25 40/40/40 38/38/38
f 38/38/38 40/40/40 39/39/39
f 22/22/22 15/15/15 14/14/14
f 22/22/22 14/14/14 41/41/41
f 41/41/41 14/14/14 33/33/33
f 41/41/41 33/33/33 23/23/23
f 19/19/19 50/50/50 20/20/20
f 19/19/19 20/20/20 17/17/17
f 17/17/17 20/20/20 21/21/21
f 17/17/17 21/21/21 42/42/42
f 48/48/48 49/49/49 25/25/25
f 48/48/48 25/25/25 24/24/24
f 24/24/24 25/25/25 38/38/38
f 24/24/24 38/38/38 43/43/43
f 43/43/43 38/38/38 44/44/44
f 43/43/43 44/44/44 45/45/45
f 21/21/21 20/20/20 46/46/46
f 27/27/27 47/47/47 26/26/26
f 27/27/27 26/26/26 28/28/28
f 28/28/28 26/26/26 51/51/51
f 28/28/28 51/51/51 30/30/30
f 30/30/30 51/51/51 29/29/29
f 17/17/17 57/57/57 18/18/18
f 17/17/17 18/18/18 19/19/19
f 19/19/19 18/18/18 52/52/52
f 30/30/30 62/62/62 61/61/61
f 30/30/30 61/61/61 28/28/28
f 28/28/28 61/61/61 60/60/60
f 28/28/28 60/60/60 27/27/27
f 27/27/27 60/60/60 59/59/59
f 1/1/1 5/5/5 6/6/6
f 1/1/1 6/6/6 7/7/7
f 63/63/63 54/54/54 11/11/11
f 63/63/63 11/11/11 31/31/31
f 31/31/31 11/11/11 12/12/12
f 31/31/31 12/12/12 32/32/32
f 32/32/32 12/12/12 13/13/13
f 56/56/56 13/13/13 12/12/12
f 56/56/56 12/12/12 55/55/55
f 55/55/55 12/12/12 11/11/11
f 55/55/55 11/11/11 53/53/53
f 53/53/53 11/11/11 54/54/54
