mtllib ./GyroElongatedPentagonalBiRotunda.mtl
g GyroElongatedPentagonalBiRotunda
v -1.391566 0.4748229 -0.2880952
v -1.337959 -0.1799342 -0.649924
v -1.303464 -0.7260321 -0.1370038
v -1.335752 -0.4087828 0.5418262
v -1.390202 0.3333862 0.4484459
v -1.036814 0.9389832 0.1822307
v -0.410571 1.176688 -0.1551354
v -0.378283 0.8594388 -0.8339654
v -0.984572 0.4256617 -0.9161392
v -0.409207 1.035252 0.5814067
v -0.981 0.05537637 1.012152
v -0.374712 0.4891534 1.094327
v -0.320262 -0.2530156 1.187706
v -0.894262 -1.004042 0.4267024
v -0.266655 -0.9077728 0.8258784
v -0.234367 -1.225022 0.1470485
v -0.89647 -0.7751933 -0.7650478
v -0.235731 -1.083586 -0.5894937
v -0.270227 -0.5374874 -1.102414
v -0.324677 0.2046816 -1.195793
v 1.305471 0.7326351 -0.06248327
v 1.324323 0.3711763 0.594398
v 1.381132 -0.3632309 0.4532662
v 1.397389 -0.4556611 -0.2908389
v 1.350628 0.2216208 -0.6095902
v 0.911145 0.8234828 -0.6939533
v 0.246808 1.120033 -0.5117055
v 0.230551 1.212463 0.2323996
v 0.88484 0.9730383 0.5100337
v 0.291966 0.6090187 -1.058812
v 1.003064 -0.3648134 -0.922309
v 0.348774 -0.1253884 -1.199944
v 0.395536 -0.8026714 -0.8811938
v 1.033567 -0.9496661 0.1405464
v 0.414388 -1.164129 -0.2243126
v 0.39813 -1.071699 0.5197924
v 0.960501 -0.1228276 1.025783
v 0.352973 -0.5606847 1.066899
v 0.296164 0.1737224 1.208031
v 0.249403 0.8510054 0.8892808
v -1.391566 0.4748229 -0.2880952
v -1.036814 0.9389832 0.1822307
v -1.036814 0.9389832 0.1822307
v -0.410571 1.176688 -0.1551354
v -1.390202 0.3333862 0.4484459
v -0.981 0.05537637 1.012152
v -1.335752 -0.4087828 0.5418262
v -0.320262 -0.2530156 1.187706
v -0.981 0.05537637 1.012152
v -0.894262 -1.004042 0.4267024
v -1.303464 -0.7260321 -0.1370038
v -0.89647 -0.7751933 -0.7650478
v -0.89647 -0.7751933 -0.7650478
v -0.235731 -1.083586 -0.5894937
v -1.337959 -0.1799342 -0.649924
v -0.984572 0.4256617 -0.9161392
v -0.984572 0.4256617 -0.9161392
v -0.324677 0.2046816 -1.195793
v 1.305471 0.7326351 -0.06248327
v 0.911145 0.8234828 -0.6939533
v 0.911145 0.8234828 -0.6939533
v 0.246808 1.120033 -0.5117055
v 1.350628 0.2216208 -0.6095902
v 1.003064 -0.3648134 -0.922309
v 1.003064 -0.3648134 -0.922309
v 0.348774 -0.1253884 -1.199944
v 1.397389 -0.4556611 -0.2908389
v 1.033567 -0.9496661 0.1405464
v 1.033567 -0.9496661 0.1405464
v 0.414388 -1.164129 -0.2243126
v 1.381132 -0.3632309 0.4532662
v 0.960501 -0.1228276 1.025783
v 1.324323 0.3711763 0.594398
v 0.296164 0.1737224 1.208031
v 0.960501 -0.1228276 1.025783
v 0.88484 0.9730383 0.5100337

vn -0.992776 0.08344129 -0.08621642
vn -0.9290929 -0.1124931 -0.3523233
vn -0.9575574 -0.283394 -0.05264585
vn -0.9684322 -0.1765424 0.1759884
vn -0.9572026 0.1637067 0.2386702
vn -0.5016936 0.7742869 -0.3857247
vn -0.4172825 0.8155292 -0.4009833
vn -0.2898195 0.73802 -0.6093696
vn -0.3836879 0.6588579 -0.6470625
vn -0.3080049 0.7900259 0.5300871
vn -0.3809224 0.3720627 0.8464441
vn -0.2871349 0.4596206 0.8404182
vn -0.1607458 0.1115937 0.980667
vn -0.3561395 -0.8529298 0.3816748
vn -0.200827 -0.6708391 0.7138934
vn -0.168881 -0.9847307 0.04224858
vn -0.3781796 -0.9092521 -0.1739002
vn -0.2884564 -0.9404122 -0.18005
vn -0.2038364 -0.3588398 -0.9108705
vn -0.3388965 -0.1418837 -0.9300636
vn 0.9693098 0.2456651 -0.009338114
vn 0.9217553 0.2153942 0.3224476
vn 0.9837165 -0.08347745 0.1591647
vn 0.989192 -0.1146088 -0.09145466
vn 0.9359095 0.1349232 -0.3253756
vn 0.3809924 0.9185084 -0.1057703
vn 0.2913902 0.9500666 -0.1116479
vn 0.167343 0.9796702 0.1106472
vn 0.3478315 0.8255915 0.4443109
vn 0.2218587 0.4181422 -0.8808723
vn 0.4443012 0.2020918 -0.8727862
vn 0.3574214 0.20284 -0.9116502
vn 0.3024964 -0.6963086 -0.6508844
vn 0.5098581 -0.7474235 -0.4259144
vn 0.4257981 -0.7875107 -0.4455591
vn 0.2978168 -0.8235491 0.4827755
vn 0.3640845 -0.4274659 0.8274754
vn 0.2704952 -0.5143713 0.8137904
vn 0.1410822 -0.176295 0.9741746
vn 0.185996 0.6220379 0.7605751
vn -0.5016939 0.7742871 -0.3857239
vn -0.8383522 0.5350583 0.1042989
vn -0.4076388 0.7950295 0.4491758
vn -0.1388333 0.9867952 0.08343066
vn -0.4997818 0.576 0.6468711
vn -0.8055289 0.01543211 0.5923555
vn -0.4234453 -0.4644836 0.7777848
vn -0.2531011 -0.4258347 0.8686799
vn -0.4234451 -0.4644835 0.7777849
vn -0.7545207 -0.607587 0.248066
vn -0.3781795 -0.909252 -0.1739005
vn -0.7558194 -0.4730062 -0.4527716
vn -0.2999952 -0.4230943 -0.854982
vn 0.001092942 -0.7570198 -0.6533912
vn -0.42654 -0.1436492 -0.8929887
vn -0.4265398 -0.1436495 -0.8929888
vn -0.8076299 0.2331871 -0.541625
vn -0.08095235 0.3824202 -0.9204356
vn 0.3809924 0.9185084 -0.1057702
vn 0.7644492 0.501404 -0.4052303
vn 0.3168325 0.4784971 -0.8189371
vn 0.01153256 0.7985637 -0.6018002
vn 0.4443012 0.2020921 -0.872786
vn 0.8185046 -0.1974046 -0.5395199
vn 0.397051 -0.6148891 -0.6813677
vn 0.09968485 -0.3207813 -0.9418931
vn 0.5098586 -0.7474235 -0.4259136
vn 0.8364427 -0.5413412 0.08551804
vn 0.3990595 -0.8232587 0.4037288
vn 0.1377854 -0.9902443 0.02077846
vn 0.4870656 -0.6178411 0.6172841
vn 0.7934738 -0.05509789 0.6061052
vn 0.4074229 0.4117617 0.8151435
vn 0.2353122 0.3673007 0.8998437
vn 0.4074228 0.411761 0.8151439
vn 0.7489797 0.5893542 0.3028058

vt 0.508637 0.802742
vt 0.39871 0.758342
vt 0.398776 0.614912
vt 0.508743 0.570667
vt 0.576641 0.686753
vt 0.953376 0.500754
vt 0.9916 0.616179
vt 0.899861 0.685658
vt 0.80494 0.613173
vt 0.223525 0.313269
vt 0.17166 0.498895
vt 0.132411 0.384001
vt 0.080645 0.426219
vt 0.517079 0.395396
vt 0.515668 0.25353
vt 0.417569 0.328877
vt 0.381675 0.496345
vt 0.333886 0.391267
vt 0.70334 0.685606
vt 0.79504 0.61605
vt 0.208373 0.758617
vt 0.098447 0.803017
vt 0.030442 0.687028
vt 0.09834 0.570943
vt 0.208307 0.615187
vt 0.257071 0.002769
vt 0.304729 0.107938
vt 0.220968 0.170167
vt 0.121542 0.103458
vt 0.901145 0.828786
vt 0.863553 0.99568
vt 0.816834 0.889864
vt 0.704702 0.828733
vt 0.667202 0.995658
vt 0.620425 0.889882
vt 0.414833 0.185781
vt 0.466467 5.5E-05
vt 0.505859 0.114874
vt 0.557573 0.072557
vt 0.122776 0.245327
vt 0.838014 0.498896
vt 0.606976 0.802811
vt 0.319086 0.384448
vt 0.319184 0.241039
vt 0.287032 0.499172
vt 0.607083 0.570737
vt 0.592993 0.423548
vt 0.590711 0.194004
vt 0.6385 0.299082
vt 0.429218 0.498896
vt 0.494895 0.498896
vt 0.319184 0.68657
vt 0.608379 0.613201
vt 0.607083 0.756602
vt 0.641391 0.498896
vt 0.756753 0.500657
vt 0.429045 0.8744
vt 0.803565 0.756572
vt 0.143854 0
vt 0.287899 0.686846
vt 0.999971 0.896854
vt 1 0.754977
vt 0.976738 1
vt 0.177865 0.499172
vt 0.803565 0.896717
vt 0.803517 0.75484
vt 0.780389 0.999883
vt 0 0.571012
vt 0.319184 0.114785
vt 0.319265 0.258194
vt 0.351095 0
vt 0.000107 0.803087
vt 0.045662 0.07516
vt 0.047659 0.304708
vt 0 0.199539
vt 0.178038 0.874676

usemtl unnamed
usemap unnamed
f 61/61/61 63/63/63 30/30/30
f 61/61/61 30/30/30 62/62/62
f 62/62/62 30/30/30 8/8/8
f 62/62/62 8/8/8 7/7/7
f 7/7/7 8/8/8 41/41/41
f 7/7/7 41/41/41 6/6/6
f 3/3/3 50/50/50 4/4/4
f 3/3/3 4/4/4 1/1/1
f 1/1/1 4/4/4 5/5/5
f 1/1/1 5/5/5 42/42/42
f 5/5/5 4/4/4 46/46/46
f 48/48/48 49/49/49 47/47/47
f 48/48/48 47/47/47 15/15/15
f 15/15/15 47/47/47 14/14/14
f 15/15/15 14/14/14 16/16/16
f 16/16/16 14/14/14 51/51/51
f 16/16/16 51/51/51 18/18/18
f 18/18/18 51/51/51 17/17/17
f 1/1/1 57/57/57 2/2/2
f 1/1/1 2/2/2 3/3/3
f 3/3/3 2/2/2 52/52/52
f 65/65/65 67/67/67 33/33/33
f 65/65/65 33/33/33 66/66/66
f 66/66/66 33/33/33 19/19/19
f 66/66/66 19/19/19 20/20/20
f 20/20/20 19/19/19 55/55/55
f 20/20/20 55/55/55 56/56/56
f 74/74/74 75/75/75 73/73/73
f 74/74/74 73/73/73 40/40/40
f 40/40/40 73/73/73 29/29/29
f 40/40/40 29/29/29 28/28/28
f 28/28/28 29/29/29 59/59/59
f 28/28/28 59/59/59 27/27/27
f 27/27/27 59/59/59 26/26/26
f 23/23/23 68/68/68 24/24/24
f 23/23/23 24/24/24 21/21/21
f 21/21/21 24/24/24 25/25/25
f 21/21/21 25/25/25 60/60/60
f 9/9/9 41/41/41 8/8/8
f 9/9/9 8/8/8 58/58/58
f 58/58/58 8/8/8 30/30/30
f 58/58/58 30/30/30 32/32/32
f 32/32/32 30/30/30 63/63/63
f 32/32/32 63/63/63 31/31/31
f 25/25/25 24/24/24 64/64/64
f 53/53/53 55/55/55 19/19/19
f 53/53/53 19/19/19 54/54/54
f 54/54/54 19/19/19 33/33/33
f 54/54/54 33/33/33 35/35/35
f 35/35/35 33/33/33 67/67/67
f 35/35/35 67/67/67 34/34/34
f 21/21/21 76/76/76 22/22/22
f 21/21/21 22/22/22 23/23/23
f 23/23/23 22/22/22 72/72/72
f 11/11/11 13/13/13 12/12/12
f 11/11/11 12/12/12 45/45/45
f 45/45/45 12/12/12 10/10/10
f 45/45/45 10/10/10 43/43/43
f 43/43/43 10/10/10 44/44/44
f 37/37/37 39/39/39 38/38/38
f 37/37/37 38/38/38 71/71/71
f 71/71/71 38/38/38 36/36/36
f 71/71/71 36/36/36 69/69/69
f 69/69/69 36/36/36 70/70/70
f 39/39/39 48/48/48 38/38/38
f 38/38/38 48/48/48 15/15/15
f 38/38/38 15/15/15 36/36/36
f 36/36/36 15/15/15 16/16/16
f 36/36/36 16/16/16 70/70/70
f 70/70/70 16/16/16 18/18/18
f 13/13/13 74/74/74 12/12/12
f 12/12/12 74/74/74 40/40/40
f 12/12/12 40/40/40 10/10/10
f 10/10/10 40/40/40 28/28/28
f 10/10/10 28/28/28 44/44/44
f 44/44/44 28/28/28 27/27/27
