mtllib ./GyroElongatedPentagonalCupolaRotunda.mtl
g GyroElongatedPentagonalCupolaRotunda
v 0.198684 -0.9440404 -0.6095878
v 0.637981 -0.9461821 -0.001711662
v 0.195604 -0.9483119 0.6039264
v -0.517098 -0.947487 0.3703564
v -0.515195 -0.9448462 -0.3796367
v -0.710802 -0.5484114 -0.9855059
v 0.003077 -0.5476055 -1.215457
v -1.153179 -0.5505412 -0.3798679
v -1.155082 -0.5531819 0.3701252
v -0.715784 -0.5553237 0.9780013
v -0.003082 -0.5561497 1.211571
v 0.710796 -0.5553437 0.9816203
v 1.153173 -0.553214 0.3759822
v 1.155076 -0.5505732 -0.3740109
v 0.715778 -0.5484314 -0.9818869
v -0.373684 1.129018 -0.5131215
v -0.607256 1.12651 0.1995756
v -0.001613 1.12495 0.6419507
v 0.606266 1.126494 0.2026546
v 0.376314 1.129008 -0.5112185
v 0.002623 0.7365347 -1.029696
v -0.37207 0.0989846 -1.154738
v -0.979949 0.09744076 -0.7154431
v -0.980947 0.734037 -0.3189023
v 0.377928 0.09897359 -1.152835
v 0.982573 0.73401 -0.3139203
v 0.98357 0.09741376 -0.7104601
v 1.213522 0.09489901 0.003412966
v 0.604645 0.7299523 0.8392488
v 0.97995 0.09239127 0.7161111
v 0.372071 0.09084842 1.155406
v -0.608876 0.7299684 0.8361698
v -0.377927 0.09085842 1.153503
v -0.983569 0.09241827 0.7111291
v -1.213521 0.09493301 -0.002745034
v -0.373684 1.129018 -0.5131215
v 0.002623 0.7365347 -1.029696
v 0.376314 1.129008 -0.5112185
v 0.377928 0.09897359 -1.152835
v 0.002623 0.7365347 -1.029696
v 0.982573 0.73401 -0.3139203
v 0.606266 1.126494 0.2026546
v 1.213522 0.09489901 0.003412966
v 0.982573 0.73401 -0.3139203
v 0.604645 0.7299523 0.8392488
v -0.001613 1.12495 0.6419507
v -0.608876 0.7299684 0.8361698
v -0.608876 0.7299684 0.8361698
v -0.377927 0.09085842 1.153503
v -0.607256 1.12651 0.1995756
v -0.980947 0.734037 -0.3189023
v -0.980947 0.734037 -0.3189023
v -0.979949 0.09744076 -0.7154431
v -0.003082 -0.5561497 1.211571
v 0.710796 -0.5553437 0.9816203
v 1.153173 -0.553214 0.3759822
v 1.153173 -0.553214 0.3759822
v 1.155076 -0.5505732 -0.3740109
v 0.715778 -0.5484314 -0.9818869
v 0.003077 -0.5476055 -1.215457
v 0.003077 -0.5476055 -1.215457
v -0.710802 -0.5484114 -0.9855059
v -1.153179 -0.5505412 -0.3798679
v -1.153179 -0.5505412 -0.3798679
v -1.155082 -0.5531819 0.3701252
v -0.715784 -0.5553237 0.9780013
v -0.715784 -0.5553237 0.9780013

vn 0.1233959 -0.9637208 -0.2366765
vn 0.3938534 -0.9168471 0.06535401
vn 0.04293719 -0.9537475 0.297527
vn -0.2728911 -0.9531579 0.130463
vn -0.2783314 -0.9155918 -0.2902126
vn -0.319165 -0.8369436 -0.4445888
vn -0.05614584 -0.8436751 -0.5339102
vn -0.5223038 -0.8451523 -0.1136512
vn -0.5186548 -0.8390854 0.1641131
vn -0.2666614 -0.8471715 0.4595567
vn -0.001386567 -0.8404185 0.5419364
vn 0.3574915 -0.8469425 0.3935586
vn 0.5177914 -0.8391002 0.1667426
vn 0.4875982 -0.8447814 -0.220437
vn 0.3213942 -0.8369525 -0.4429633
vn -0.1018487 0.9852555 -0.1374721
vn -0.3267409 0.938859 0.108556
vn -0.0005410673 0.9758785 0.2183144
vn 0.2041967 0.9763984 0.07035679
vn 0.2024821 0.9402029 -0.2738973
vn -0.288175 0.3445894 -0.893428
vn -0.3687528 0.2446148 -0.8967636
vn -0.61514 0.2759392 -0.738553
vn -0.5238904 0.4497656 -0.7233602
vn 0.002513214 0.1431678 -0.9896954
vn 0.7617987 0.3433717 -0.5493259
vn 0.7397363 0.2436603 -0.627232
vn 0.9767072 0.06436563 -0.2046951
vn 0.5331578 0.4114795 0.7392074
vn 0.825937 0.2396556 0.5102877
vn 0.2244921 0.2381282 0.944933
vn -0.002268355 0.4440621 0.8959933
vn -0.06785026 0.2699551 0.9604795
vn -0.828509 0.2396787 0.5060899
vn -0.9676366 0.2411996 0.07417618
vn -0.5238909 0.4497659 -0.7233597
vn 0.001543717 0.7967871 -0.6042582
vn 0.5275674 0.449751 -0.7206919
vn 0.5132375 0.2761944 -0.812591
vn 0.5275676 0.4497512 -0.7206916
vn 0.5778278 0.7953024 -0.1833288
vn 0.8499489 0.4462258 0.2801237
vn 0.8865014 0.3591241 0.2917964
vn 0.8499489 0.4462256 0.2801244
vn 0.3555791 0.7929157 0.4948218
vn -0.002267511 0.444062 0.8959933
vn -0.358064 0.7929253 0.493011
vn -0.7617952 0.3395039 0.5517293
vn -0.5840527 0.1368703 0.8000932
vn -0.8513471 0.4462495 0.2758071
vn -0.9398991 0.3414503 -0.001182643
vn -0.5768678 0.7953184 -0.1862584
vn -0.9409526 0.1407719 -0.3078824
vn -0.002535889 -0.03514419 0.9993792
vn 0.5854374 -0.03448096 0.8099841
vn 0.8898517 -0.001610866 0.4562471
vn 0.9958066 -0.09145705 0.002204769
vn 0.9513612 -0.03055206 -0.306559
vn 0.5895414 -0.02878743 -0.8072251
vn 0.3101238 -0.08811334 -0.9466043
vn -0.1539279 0.00347852 -0.988076
vn -0.5854375 -0.02877149 -0.8102069
vn -0.80414 -0.089371 -0.5876834
vn -0.9872883 0.0005649112 -0.1589391
vn -0.9513616 -0.03269964 0.3063361
vn -0.7088988 -0.002479243 0.7053059
vn -0.3101244 -0.09477207 0.9459606

vt 0.211594 0.404176
vt 0.091657 0.356806
vt 0.091757 0.183464
vt 0.211756 0.123703
vt 0.28582 0.26011
vt 0.388226 0.35712
vt 0.314001 0.501186
vt 0.388326 0.183778
vt 0.314263 0.04737
vt 0.194325 0
vt 0.074325 0.059761
vt 0.0001 0.203827
vt 0 0.377169
vt 0.074064 0.513577
vt 0.194001 0.560947
vt 0.600806 0.8767
vt 0.477535 0.822432
vt 0.477505 0.646691
vt 0.600758 0.592346
vt 0.676962 0.734499
vt 0.783931 0.828773
vt 0.81398 0.661336
vt 0.943152 0.646959
vt 0.992934 0.805512
vt 0.711055 0.699019
vt 0.221986 0.89377
vt 0.105057 0.826263
vt 0.11569 0.970102
vt 0.611937 0.206941
vt 0.501888 0.11418
vt 0.499144 0.285077
vt 0.616915 0.46961
vt 0.50222 0.447415
vt 0.80334 0.138924
vt 0.878335 0.282255
vt 0.89453 0.917879
vt 0.711056 0.876666
vt 0.304857 0.760341
vt 0.115662 0.651112
vt 0.239145 0.610369
vt 0.711007 0.592312
vt 0.687469 0.150091
vt 0.509405 0
vt 0.6241 0.022194
vt 0.51155 0.504504
vt 0.684724 0.320988
vt 0.388326 0.73459
vt 0.878533 0
vt 0.758391 0.007841
vt 1 0.057472
vt 0.999877 0.231915
vt 0.511628 0.964599
vt 0.954729 0.383088
vt 0.388501 0.37091
vt 0.388326 0.195718
vt 0.393721 0.045844
vt 0.020225 1
vt 1.5E-05 0.894105
vt 0 0.726401
vt 0.020187 0.560947
vt 0.747487 0.531873
vt 0.869508 0.504504
vt 0.993186 0.504527
vt 0.830117 0.425835
vt 0.750527 0.297471
vt 0.687469 0.153202
vt 0.394178 0.504504

usemtl unnamed
usemap unnamed
f 61/61/61 62/62/62 22/22/22
f 22/22/22 62/62/62 23/23/23
f 22/22/22 23/23/23 36/36/36
f 36/36/36 23/23/23 24/24/24
f 18/18/18 45/45/45 19/19/19
f 18/18/18 19/19/19 16/16/16
f 16/16/16 19/19/19 20/20/20
f 16/16/16 20/20/20 37/37/37
f 58/58/58 59/59/59 27/27/27
f 27/27/27 59/59/59 39/39/39
f 27/27/27 39/39/39 38/38/38
f 38/38/38 39/39/39 40/40/40
f 20/20/20 19/19/19 41/41/41
f 43/43/43 44/44/44 42/42/42
f 43/43/43 42/42/42 30/30/30
f 30/30/30 42/42/42 29/29/29
f 30/30/30 29/29/29 31/31/31
f 31/31/31 29/29/29 46/46/46
f 31/31/31 46/46/46 33/33/33
f 33/33/33 46/46/46 32/32/32
f 16/16/16 52/52/52 17/17/17
f 16/16/16 17/17/17 18/18/18
f 18/18/18 17/17/17 47/47/47
f 38/38/38 26/26/26 27/27/27
f 27/27/27 26/26/26 28/28/28
f 27/27/27 28/28/28 58/58/58
f 58/58/58 28/28/28 57/57/57
f 59/59/59 60/60/60 39/39/39
f 62/62/62 63/63/63 23/23/23
f 56/56/56 43/43/43 30/30/30
f 56/56/56 30/30/30 55/55/55
f 55/55/55 30/30/30 31/31/31
f 55/55/55 31/31/31 54/54/54
f 54/54/54 31/31/31 33/33/33
f 54/54/54 33/33/33 67/67/67
f 11/11/11 10/10/10 3/3/3
f 3/3/3 10/10/10 4/4/4
f 3/3/3 4/4/4 1/1/1
f 1/1/1 4/4/4 5/5/5
f 1/1/1 5/5/5 7/7/7
f 7/7/7 5/5/5 6/6/6
f 10/10/10 9/9/9 4/4/4
f 4/4/4 9/9/9 8/8/8
f 4/4/4 8/8/8 5/5/5
f 5/5/5 8/8/8 6/6/6
f 12/12/12 11/11/11 3/3/3
f 12/12/12 3/3/3 2/2/2
f 2/2/2 3/3/3 1/1/1
f 2/2/2 1/1/1 14/14/14
f 14/14/14 1/1/1 15/15/15
f 13/13/13 12/12/12 2/2/2
f 13/13/13 2/2/2 14/14/14
f 1/1/1 7/7/7 15/15/15
f 25/25/25 61/61/61 22/22/22
f 25/25/25 22/22/22 21/21/21
f 21/21/21 22/22/22 36/36/36
f 51/51/51 53/53/53 35/35/35
f 51/51/51 35/35/35 50/50/50
f 50/50/50 35/35/35 34/34/34
f 50/50/50 34/34/34 48/48/48
f 48/48/48 34/34/34 49/49/49
f 66/66/66 49/49/49 34/34/34
f 66/66/66 34/34/34 65/65/65
f 65/65/65 34/34/34 35/35/35
f 65/65/65 35/35/35 64/64/64
f 64/64/64 35/35/35 53/53/53
