mtllib ./GyroElongatedTriangularBiCupola.mtl
g GyroElongatedTriangularBiCupola
v -0.001106 0.9331089 -0.4332564
v -0.375256 0.9330622 0.2167527
v 0.374744 0.9334952 0.2157717
v 0.749814 0.321283 -0.001065115
v 0.373964 0.3208958 -0.6500932
v 0.375664 0.3212373 0.648944
v -0.374335 0.3208033 0.6499249
v -0.750185 0.320417 0.0008968855
v -0.376035 0.3204628 -0.6491122
v 0.217536 -0.932999 0.3749604
v -0.432473 -0.9334721 0.0008103339
v 0.216555 -0.9331952 -0.3750387
v 0.649213 -0.3205732 -0.3757659
v 0.650194 -0.3203759 0.3742341
v -0.000796 -0.3210463 -0.749915
v -0.649824 -0.3213232 -0.3740659
v -0.648842 -0.3211269 0.3759331
v 0.001167 -0.3206528 0.7500832
v 0.374744 0.9334952 0.2157717
v -0.001106 0.9331089 -0.4332564
v -0.375256 0.9330622 0.2167527
v 0.375664 0.3212373 0.648944
v 0.374744 0.9334952 0.2157717
v -0.750185 0.320417 0.0008968855
v 0.373964 0.3208958 -0.6500932
v 0.216555 -0.9331952 -0.3750387
v 0.217536 -0.932999 0.3749604
v -0.000796 -0.3210463 -0.749915
v -0.432473 -0.9334721 0.0008103339
v -0.649824 -0.3213232 -0.3740659
v 0.217536 -0.932999 0.3749604
v 0.650194 -0.3203759 0.3742341
v -0.374335 0.3208033 0.6499249
v -0.750185 0.320417 0.0008968855
v -0.648842 -0.3211269 0.3759331
v -0.649824 -0.3213232 -0.3740659
v -0.376035 0.3204628 -0.6491122
v 0.373964 0.3208958 -0.6500932
v -0.000796 -0.3210463 -0.749915
v 0.649213 -0.3205732 -0.3757659
v 0.749814 0.321283 -0.001065115
v 0.375664 0.3212373 0.648944
v 0.650194 -0.3203759 0.3742341
v 0.001167 -0.3206528 0.7500832
v -0.001106 0.9331089 -0.4332564
v -0.001106 0.9331089 -0.4332564

vn -0.0005776311 0.9999999 -0.0002605883
vn -0.4272254 0.8700779 -0.2458516
vn -0.0005776311 0.9999999 -0.0002605883
vn 0.8922798 0.4147038 -0.1784866
vn 0.7463679 0.3343609 -0.575446
vn 0.8169199 0.3339283 0.4702487
vn -0.2920204 0.4142911 0.8620251
vn -0.8160713 0.3329849 0.4723862
vn -0.6009779 0.4137087 -0.6838646
vn 0.0005776496 -0.9999999 0.0002609091
vn -0.3145317 -0.7781019 -0.5437164
vn -0.2462374 -0.8706421 -0.4258518
vn 0.8616062 -0.413814 -0.2939267
vn 0.9347368 -0.3335077 0.1226367
vn 0.4705275 -0.3332752 -0.8170261
vn -0.4609129 -0.3919345 -0.7962078
vn -0.6865271 -0.3544397 0.6348646
vn -0.1758021 -0.4141027 0.8930917
vn 0.815969 0.5559857 -0.158349
vn 0.7062386 0.577651 -0.4093243
vn -0.2714588 0.5556042 0.7858845
vn 0.1248004 0.3343967 0.9341328
vn 0.0007343597 0.5775648 0.8163447
vn -0.8717483 0.3334824 -0.3589492
vn -0.001425651 0.3330862 -0.9428955
vn 0.7856385 -0.555173 -0.2730479
vn 0.8168299 -0.5768779 -0.0009174697
vn -0.3609475 -0.3345168 -0.8705262
vn -0.7376885 -0.5225476 0.4275042
vn -0.9426154 -0.3338779 0.001321635
vn -0.1557456 -0.555432 0.816847
vn 0.4726649 -0.3328469 0.8159663
vn -0.7061809 -0.0002230754 0.7080315
vn -0.8550416 0.1543354 0.4950601
vn -0.9878709 -0.1552715 0.00133415
vn -0.9662635 -0.0006260763 -0.2575547
vn -0.2600819 -0.0004038744 -0.9655866
vn -0.001381514 0.1544404 -0.9880012
vn 0.4929493 -0.1546398 -0.8562054
vn 0.7061805 0.0002230596 -0.7080318
vn 0.9662634 0.0006250743 0.2575551
vn 0.8561557 0.1553238 0.4928205
vn 0.495189 -0.1541907 0.8549932
vn 0.2600821 0.0004030251 0.9655866
vn -0.7079735 0.576835 -0.4074738
vn -0.001425651 0.3330862 -0.9428955

vt 0.487622 0.492495
vt 0.650788 0.342956
vt 0.622538 0.490278
vt 0.734642 0.215199
vt 0.940289 0.162013
vt 0.650788 0.333233
vt 0.410202 0.707824
vt 0.326541 0.82603
vt 0.354963 0.312031
vt 0.083872 0.492485
vt 0.205654 0.557357
vt 0 0.610504
vt 0.916115 0.719958
vt 0.710455 0.773078
vt 1 0.60195
vt 0.252803 0.784813
vt 0.134918 0.329976
vt 0.298189 0.180579
vt 0.781824 0.442646
vt 0.987471 0.389461
vt 0.457758 0.935174
vt 0.61576 0.654217
vt 0.663316 0.881567
vt 0.518129 0.162492
vt 0.326713 0.459353
vt 0.868991 0.492495
vt 0.663331 0.545615
vt 0.047148 0.837961
vt 0.002385 0.149396
vt 0 0.332075
vt 0.165656 0
vt 0.326541 0.033282
vt 0.326453 0.405019
vt 0.154294 0.492485
vt 0.49864 0
vt 0.326541 0.087616
vt 0.189072 1
vt 2.6E-05 0.993231
vt 0.987388 0.006734
vt 0.798341 0
vt 0.852361 0.935136
vt 0.663316 0.928342
vt 0.662604 0.498841
vt 0.473546 0.492495
vt 0.487622 0.492495
vt 0.487622 0.492495

usemtl unnamed
usemap unnamed
f 1/1/1 2/2/2 3/3/3
f 46/46/46 25/25/25 9/9/9
f 4/4/4 40/40/40 5/5/5
f 4/4/4 5/5/5 19/19/19
f 19/19/19 5/5/5 20/20/20
f 19/19/19 6/6/6 4/4/4
f 7/7/7 44/44/44 22/22/22
f 7/7/7 22/22/22 21/21/21
f 21/21/21 22/22/22 23/23/23
f 21/21/21 8/8/8 7/7/7
f 9/9/9 36/36/36 24/24/24
f 9/9/9 24/24/24 45/45/45
f 45/45/45 24/24/24 2/2/2
f 16/16/16 37/37/37 28/28/28
f 16/16/16 28/28/28 11/11/11
f 11/11/11 28/28/28 12/12/12
f 11/11/11 12/12/12 10/10/10
f 13/13/13 41/41/41 14/14/14
f 13/13/13 14/14/14 26/26/26
f 26/26/26 14/14/14 27/27/27
f 26/26/26 15/15/15 13/13/13
f 32/32/32 18/18/18 31/31/31
f 31/31/31 18/18/18 17/17/17
f 31/31/31 17/17/17 29/29/29
f 29/29/29 17/17/17 30/30/30
f 33/33/33 34/34/34 17/17/17
f 33/33/33 17/17/17 18/18/18
f 24/24/24 36/36/36 35/35/35
f 37/37/37 38/38/38 28/28/28
f 5/5/5 40/40/40 39/39/39
f 41/41/41 42/42/42 14/14/14
f 22/22/22 44/44/44 43/43/43
