mtllib ./MetaGyrateDiminishedRhombIcosiDodecahedron.mtl
g MetaGyrateDiminishedRhombIcosiDodecahedron
v 0.372151 -1.293249 1.156899
v 0.372383 -0.6545575 1.550056
v -0.377616 -0.6537225 1.549142
v -0.377848 -1.292414 1.155985
v -0.002053 -0.0159354 1.670304
v -0.608135 0.3786856 1.471712
v -0.983698 -0.2591015 1.35055
v -1.35851 -0.6539047 0.8346553
v -0.984074 -1.292527 0.7144076
v -1.214361 0.3785724 1.030135
v -0.375273 1.015844 1.151862
v -0.981499 1.015731 0.7102847
v -1.589172 -0.01622982 0.5142401
v -1.589404 -0.6549221 0.1210822
v -1.587956 0.376927 -0.1244511
v -1.588188 -0.2617652 -0.5176079
v -1.212393 1.014714 -0.003289363
v -1.355326 0.3753937 -0.8374593
v -0.979763 1.013181 -0.7162974
v 0.979825 -0.2612875 1.352943
v 0.605389 0.3773346 1.473191
v 1.212687 0.3758704 1.033092
v 0.982024 1.013545 0.7126767
v 0.374726 1.015008 1.152776
v 0.375942 1.408165 0.5140846
v 1.214654 1.012012 -0.000331362
v 0.608572 1.406632 -0.1989235
v -0.374057 1.409 0.5131706
v -0.604952 1.407983 -0.2004025
v 0.002346 1.40652 -0.6405016
v -0.372465 1.011717 -1.156395
v 1.355012 -0.6569257 0.8379623
v 1.587874 -0.01976782 0.5181111
v 1.587642 -0.6584591 0.1249533
v 1.588858 -0.2653022 -0.513737
v 1.58909 0.37339 -0.1205802
v 1.254768 0.7254138 -0.6922514
v 1.254536 0.08672162 -1.085409
v 0.648686 1.120034 -0.8908435
v 0.273874 0.7252316 -1.406739
v 0.64831 0.08660946 -1.526986
v -0.372697 0.3730255 -1.549553
v 0.001739 -0.2655966 -1.669801
v 0.979449 -1.294713 0.7168005
v 1.212079 -1.296246 0.003791464
v -1.214968 -1.293544 0.0008344627
v -0.982338 -1.295077 -0.7121736
v -0.37504 -1.296541 -1.152273
v 0.374959 -1.297376 -1.151359
v 0.981184 -1.297263 -0.7097816
v 1.214047 -0.6601044 -1.029632
v 0.607821 -0.6602176 -1.471209
v -0.605703 -0.6588666 -1.472688
v -0.980139 -0.02024449 -1.35244
v -1.213001 -0.6574025 -1.032589
v 0.372383 -0.6545575 1.550056
v -0.377616 -0.6537225 1.549142
v -0.377848 -1.292414 1.155985
v -1.587956 0.376927 -0.1244511
v -1.212393 1.014714 -0.003289363
v -1.355326 0.3753937 -0.8374593
v 0.372383 -0.6545575 1.550056
v -0.002053 -0.0159354 1.670304
v 0.374726 1.015008 1.152776
v 0.374726 1.015008 1.152776
v 0.982024 1.013545 0.7126767
v -0.375273 1.015844 1.151862
v -0.981499 1.015731 0.7102847
v 1.587874 -0.01976782 0.5181111
v 1.587642 -0.6584591 0.1249533
v 1.58909 0.37339 -0.1205802
v 1.214654 1.012012 -0.000331362
v 1.214654 1.012012 -0.000331362
v 1.254768 0.7254138 -0.6922514
v 0.648686 1.120034 -0.8908435
v 0.273874 0.7252316 -1.406739
v -0.372465 1.011717 -1.156395
v 0.273874 0.7252316 -1.406739
v 0.64831 0.08660946 -1.526986
v 0.979449 -1.294713 0.7168005
v -0.984074 -1.292527 0.7144076
v 1.212079 -1.296246 0.003791464
v 0.981184 -1.297263 -0.7097816
v 1.212079 -1.296246 0.003791464
v 0.374959 -1.297376 -1.151359
v 0.607821 -0.6602176 -1.471209
v -0.37504 -1.296541 -1.152273
v 0.374959 -1.297376 -1.151359
v -1.214968 -1.293544 0.0008344627
v -0.982338 -1.295077 -0.7121736
v -0.982338 -1.295077 -0.7121736
v -1.213001 -0.6574025 -1.032589
v -1.355326 0.3753937 -0.8374593
v -1.588188 -0.2617652 -0.5176079
v 0.372151 -1.293249 1.156899
v -0.979763 1.013181 -0.7162974

vn -0.001650165 -0.692563 0.7213556
vn -0.0016214 -0.5242096 0.851588
vn -0.00162142 -0.5242095 0.8515878
vn -0.001433806 -0.951678 0.3070944
vn -0.07536899 0.2309326 0.9700464
vn -0.3850034 0.2993964 0.8730031
vn -0.5785252 -0.1855288 0.7942845
vn -0.7567212 -0.297674 0.5820339
vn -0.7434383 -0.5160071 0.4254835
vn -0.7499672 0.2454586 0.614247
vn -0.1483636 0.48645 0.8610197
vn -0.7216085 0.5026834 0.4760156
vn -0.9257233 0.2313206 0.2992109
vn -0.9424928 -0.333937 0.0139027
vn -0.9868788 0.161456 -0.001489245
vn -0.9460265 -0.2284712 -0.2298583
vn -0.8504873 0.4486537 0.2745564
vn -0.9335927 0.1880889 -0.3050036
vn -0.6512494 0.6964638 -0.3013513
vn 0.620059 -0.1574447 0.7685949
vn 0.3835404 0.298541 0.8739395
vn 0.7903914 0.3717369 0.4869221
vn 0.6339156 0.5179156 0.5743819
vn 0.2659715 0.5079002 0.8193271
vn 0.1775167 0.9170513 0.3570782
vn 0.5586179 0.8271648 -0.06119361
vn 0.3461705 0.9347991 -0.07947858
vn -0.1341854 0.9737296 0.1839704
vn -0.3830998 0.9149404 -0.1269599
vn 0.01571498 0.9407453 -0.3387499
vn -0.1803013 0.8399639 -0.5118129
vn 0.754604 -0.3868629 0.5300092
vn 0.8823669 0.0715607 0.4650889
vn 0.8808887 -0.3754596 0.2882106
vn 0.9684203 -0.05900149 -0.2422412
vn 0.938945 0.2451886 -0.2413813
vn 0.7903792 0.4133063 -0.4521933
vn 0.7196199 0.1896579 -0.6679648
vn 0.3258284 0.8327984 -0.4475299
vn 0.08704077 0.7595986 -0.6445418
vn 0.5614801 0.3007209 -0.7709132
vn -0.2224504 0.3067936 -0.9254155
vn -0.03924533 -0.006762207 -0.9992068
vn 0.6962739 -0.5066015 0.5084858
vn 0.8081098 -0.5261608 0.2647896
vn -0.001115455 -0.9999979 0.001786491
vn -0.001115267 -0.9999979 0.001786157
vn -0.00111526 -0.9999979 0.001786059
vn -0.001115794 -0.9999979 0.0017863
vn -0.001116137 -0.9999979 0.00178649
vn 0.7362977 -0.3887786 -0.5538203
vn 0.5711703 -0.2428706 -0.7840781
vn -0.2575021 -0.3566979 -0.8980308
vn -0.5381564 0.197845 -0.8192955
vn -0.6688789 -0.2611244 -0.6959995
vn -0.001404308 -0.1858358 0.9825799
vn -0.3063383 -0.1583392 0.9386618
vn -0.5271093 -0.4453336 0.7237636
vn -0.8081096 0.5261608 -0.2647899
vn -0.6550702 0.7492557 -0.09746251
vn -0.8081096 0.5261609 -0.2647898
vn 0.3905848 -0.1478844 0.908611
vn 0.1637308 0.2281495 0.9597605
vn -0.0005892946 0.4488111 0.8936266
vn 0.1686859 0.8392425 0.5169306
vn 0.4638301 0.8455071 0.2645361
vn -0.1090413 0.8466042 0.5209334
vn -0.4625895 0.8465387 0.2634072
vn 0.9999986 -0.001113386 0.001218519
vn 0.9081336 -0.3573135 -0.2182213
vn 0.8508126 0.4467592 0.27663
vn 0.8508125 0.4467596 0.27663
vn 0.8363358 0.5219368 -0.1677035
vn 0.5865983 0.7596917 -0.2806618
vn 0.5271094 0.4453337 -0.7237636
vn 0.5271099 0.4453336 -0.7237633
vn -0.4223737 0.4752672 -0.7718301
vn 0.03173593 0.3249987 -0.9451819
vn 0.1696735 0.08657986 -0.9816898
vn -0.00111549 -0.9999979 0.001786496
vn -0.001115511 -0.9999979 0.001787068
vn -0.001115502 -0.9999979 0.001786491
vn 0.774138 -0.4863342 -0.4052029
vn 0.8504871 -0.4486537 -0.2745576
vn 0.50025 -0.5275169 -0.6866411
vn 0.05348523 -0.382131 -0.9225592
vn -0.230968 -0.5022594 -0.8333004
vn 0.0005895069 -0.4488117 -0.8936263
vn -0.8626679 -0.505771 -0.0001455245
vn -0.4997489 -0.5264034 -0.6878595
vn -0.8508124 -0.4467596 -0.2766302
vn -0.8508124 -0.4467596 -0.2766299
vn -0.7413828 0.1487294 -0.6543938
vn -0.8083014 -0.0001503763 -0.588769
vn 0.5243509 -0.4465046 0.7250448
vn -0.5243509 0.4465046 -0.7250448

vt 0.538956 0.545845
vt 0.570943 0.48715
vt 0.654894 0.568062
vt 0.622908 0.626757
vt 0.176191 0.022133
vt 0.230862 0.116857
vt 0.142766 0.175768
vt 0.088459 0.293221
vt 0.000224 0.271088
vt 0.231086 0.247989
vt 0.319096 0.13899
vt 0.319321 0.270122
vt 0.176779 0.365443
vt 0.088683 0.424354
vt 0.23145 0.460166
vt 0.143354 0.519077
vt 0.319545 0.401255
vt 0.231588 0.54121
vt 0.440936 0.42898
vt 0.823469 0.333851
vt 0.911892 0.391888
vt 0.911382 0.260757
vt 0.99949 0.237751
vt 1 0.368882
vt 0.487186 0.098505
vt 0.619044 0.076969
vt 0.573 0.175474
vt 0.405629 0.183497
vt 0.441039 0.312995
vt 0.544479 0.308036
vt 0.544376 0.424021
vt 0.768505 0.216938
vt 0.856419 0.143844
vt 0.767996 0.085807
vt 0.849899 0.721141
vt 0.898849 0.613045
vt 0.80835 0.546901
vt 0.7594 0.654996
vt 0.633844 0.270332
vt 0.633741 0.386317
vt 0.664664 0.662052
vt 0.177062 0.89312
vt 0.089517 0.819248
vt 0.680397 0.239944
vt 0.679888 0.108813
vt 0.623142 0.889023
vt 0.539334 0.9702
vt 0.435653 0.970363
vt 0.351701 0.889451
vt 0.319545 0.758369
vt 0.761097 0.792308
vt 0.666361 0.799364
vt 0.144978 0.703008
vt 0.232523 0.776879
vt 0.23266 0.647915
vt 0.087957 0
vt 0.088096 0.081044
vt 0 0.139956
vt 0.319545 0.410181
vt 0.355122 0.352011
vt 0.405359 0.48715
vt 0.76933 0.429113
vt 0.857753 0.48715
vt 0.318958 0.057945
vt 0.429789 0.004959
vt 0.53323 0
vt 0.348233 0.089951
vt 0.319712 0.222513
vt 0.974075 0.696503
vt 0.925125 0.804598
vt 0.910558 0.048582
vt 0.998981 0.10662
vt 0.889249 0.509311
vt 0.679888 0.171827
vt 0.743866 0.48715
vt 0.655064 0.558318
vt 0.229196 0.992059
vt 0.126067 1
vt 0.038522 0.926129
vt 0.435275 0.546009
vt 0.655064 0.75784
vt 0.351467 0.627186
vt 0.78144 0.919749
vt 0.882815 0.927345
vt 0.686704 0.926805
vt 0 0.79866
vt 0.089738 0.610579
vt 0.000137 0.669696
vt 0.000449 0.402221
vt 0.17742 0.555486
vt 0.000588 0.483265
vt 0.088908 0.555486
vt 0.318934 0.803977
vt 0.319071 0.675013
vt 0.680907 0.371075
vt 0.316878 0.936966

usemtl unnamed
usemap unnamed
f 81/81/81 46/46/46 80/80/80
f 81/81/81 80/80/80 4/4/4
f 4/4/4 80/80/80 1/1/1
f 4/4/4 1/1/1 3/3/3
f 3/3/3 1/1/1 2/2/2
f 18/18/18 16/16/16 15/15/15
f 15/15/15 16/16/16 14/14/14
f 15/15/15 14/14/14 13/13/13
f 13/13/13 14/14/14 8/8/8
f 13/13/13 8/8/8 10/10/10
f 10/10/10 8/8/8 7/7/7
f 10/10/10 7/7/7 6/6/6
f 6/6/6 7/7/7 57/57/57
f 6/6/6 57/57/57 5/5/5
f 5/5/5 57/57/57 56/56/56
f 65/65/65 66/66/66 25/25/25
f 65/65/65 25/25/25 67/67/67
f 67/67/67 25/25/25 28/28/28
f 67/67/67 28/28/28 68/68/68
f 68/68/68 28/28/28 29/29/29
f 68/68/68 29/29/29 60/60/60
f 60/60/60 29/29/29 19/19/19
f 60/60/60 19/19/19 59/59/59
f 59/59/59 19/19/19 61/61/61
f 5/5/5 64/64/64 11/11/11
f 5/5/5 11/11/11 6/6/6
f 6/6/6 11/11/11 12/12/12
f 6/6/6 12/12/12 10/10/10
f 10/10/10 12/12/12 13/13/13
f 37/37/37 73/73/73 36/36/36
f 37/37/37 36/36/36 38/38/38
f 38/38/38 36/36/36 35/35/35
f 38/38/38 35/35/35 51/51/51
f 51/51/51 35/35/35 70/70/70
f 51/51/51 70/70/70 83/83/83
f 83/83/83 70/70/70 84/84/84
f 83/83/83 85/85/85 51/51/51
f 51/51/51 85/85/85 52/52/52
f 51/51/51 52/52/52 38/38/38
f 38/38/38 52/52/52 41/41/41
f 38/38/38 41/41/41 75/75/75
f 75/75/75 41/41/41 76/76/76
f 50/50/50 82/82/82 80/80/80
f 50/50/50 80/80/80 49/49/49
f 49/49/49 80/80/80 48/48/48
f 77/77/77 78/78/78 42/42/42
f 77/77/77 42/42/42 54/54/54
f 54/54/54 42/42/42 43/43/43
f 54/54/54 43/43/43 53/53/53
f 53/53/53 43/43/43 86/86/86
f 53/53/53 86/86/86 87/87/87
f 87/87/87 86/86/86 88/88/88
f 87/87/87 90/90/90 55/55/55
f 87/87/87 55/55/55 53/53/53
f 53/53/53 55/55/55 54/54/54
f 89/89/89 9/9/9 14/14/14
f 89/89/89 14/14/14 91/91/91
f 91/91/91 14/14/14 16/16/16
f 91/91/91 16/16/16 92/92/92
f 96/96/96 77/77/77 54/54/54
f 96/96/96 54/54/54 93/93/93
f 93/93/93 54/54/54 55/55/55
f 93/93/93 55/55/55 94/94/94
f 14/14/14 9/9/9 8/8/8
f 8/8/8 9/9/9 58/58/58
f 8/8/8 58/58/58 7/7/7
f 7/7/7 58/58/58 57/57/57
f 13/13/13 12/12/12 17/17/17
f 13/13/13 17/17/17 15/15/15
f 44/44/44 45/45/45 32/32/32
f 44/44/44 32/32/32 95/95/95
f 95/95/95 32/32/32 20/20/20
f 95/95/95 20/20/20 62/62/62
f 62/62/62 20/20/20 21/21/21
f 62/62/62 21/21/21 63/63/63
f 63/63/63 21/21/21 24/24/24
f 23/23/23 24/24/24 21/21/21
f 23/23/23 21/21/21 22/22/22
f 22/22/22 21/21/21 20/20/20
f 22/22/22 20/20/20 33/33/33
f 33/33/33 20/20/20 32/32/32
f 33/33/33 32/32/32 34/34/34
f 34/34/34 32/32/32 45/45/45
f 26/26/26 74/74/74 27/27/27
f 26/26/26 27/27/27 66/66/66
f 66/66/66 27/27/27 25/25/25
f 31/31/31 19/19/19 29/29/29
f 31/31/31 29/29/29 30/30/30
f 30/30/30 29/29/29 28/28/28
f 30/30/30 28/28/28 27/27/27
f 27/27/27 28/28/28 25/25/25
f 69/69/69 70/70/70 35/35/35
f 69/69/69 35/35/35 36/36/36
f 72/72/72 23/23/23 22/22/22
f 72/72/72 22/22/22 71/71/71
f 71/71/71 22/22/22 33/33/33
f 40/40/40 31/31/31 30/30/30
f 40/40/40 30/30/30 39/39/39
f 39/39/39 30/30/30 27/27/27
f 39/39/39 27/27/27 74/74/74
f 75/75/75 37/37/37 38/38/38
f 79/79/79 86/86/86 43/43/43
f 79/79/79 43/43/43 78/78/78
f 78/78/78 43/43/43 42/42/42
f 80/80/80 46/46/46 47/47/47
f 80/80/80 47/47/47 48/48/48
