mtllib ./MetaBiDiminishedIcosahedron.mtl
g MetaBiDiminishedIcosahedron
v 0.606416 0.2803809 -0.2608771
v 0.376254 -0.3586152 -0.579011
v -0.373744 -0.3601642 -0.579675
v -0.607106 0.2778749 -0.2619511
v -0.001334 0.673754 -0.06492325
v 0.607382 -0.356947 0.1344862
v 0.000229 -0.3574648 0.5747862
v -0.60614 -0.359453 0.1334112
v -0.375978 0.2795432 0.4515449
v 0.37402 0.2810922 0.4522089
v -0.373744 -0.3601642 -0.579675
v 0.376254 -0.3586152 -0.579011
v -0.001334 0.673754 -0.06492325
v 0.606416 0.2803809 -0.2608771
v 0.606416 0.2803809 -0.2608771
v 0.376254 -0.3586152 -0.579011
v 0.607382 -0.356947 0.1344862
v 0.606416 0.2803809 -0.2608771
v 0.607382 -0.356947 0.1344862
v 0.37402 0.2810922 0.4522089
v 0.000229 -0.3574648 0.5747862
v 0.000229 -0.3574648 0.5747862
v -0.60614 -0.359453 0.1334112
v -0.375978 0.2795432 0.4515449
v -0.375978 0.2795432 0.4515449
v -0.373744 -0.3601642 -0.579675
v -0.607106 0.2778749 -0.2619511
v -0.001334 0.673754 -0.06492325

vn -0.0001281553 0.445721 -0.895172
vn -0.0001280461 0.4457209 -0.8951721
vn -0.0001281396 0.4457211 -0.8951721
vn -0.000128197 0.445721 -0.8951721
vn -0.0001281964 0.4457207 -0.8951721
vn 0.002063638 -0.9999967 0.001669714
vn 0.002063568 -0.9999965 0.001669468
vn 0.002063568 -0.9999967 0.00166976
vn -0.002179564 0.7956638 0.6057348
vn 0.3068831 0.8519952 0.4241781
vn 0.002063665 -0.9999967 0.001669808
vn 0.002063822 -0.9999967 0.001669592
vn 0.3068831 0.8519952 0.4241781
vn 0.5755427 0.7961566 0.1867763
vn 0.934827 -0.186169 -0.3023897
vn 0.934827 -0.186169 -0.3023897
vn 0.934827 -0.186169 -0.3023897
vn 0.9335132 0.1900272 0.3040441
vn 0.8084924 0.002650841 0.5885007
vn 0.5853586 0.0753113 0.8072693
vn 0.3081703 0.002223652 0.9513288
vn -0.5776679 -0.1874593 0.7944551
vn -0.9486575 -0.07420029 0.3074791
vn -0.8112239 0.3073554 0.4974422
vn -0.001260149 0.1892291 0.9819323
vn -0.9335133 -0.1900267 -0.3040442
vn -0.9492343 0.3063595 0.07140116
vn -0.5791559 0.793772 0.1857543

vt 0.176053 0.424348
vt 0 0.211962
vt 0.176721 0
vt 0.461993 0.081386
vt 0.461581 0.343647
vt 0.923785 0.212179
vt 0.74739 0.424348
vt 0.461993 0.343296
vt 0.722231 0.737738
vt 0.722233 0.523603
vt 0.462003 0.081035
vt 0.747406 0
vt 0.959471 0.684207
vt 1 0.424348
vt 0.982147 1
vt 0.982081 0.737738
vt 0.722231 0.868919
vt 0.688568 0.424348
vt 0.461993 0.50586
vt 0.722231 0.636453
vt 0.462703 0.768121
vt 0.461993 0.424348
vt 0.224706 0.477722
vt 0.461804 0.638483
vt 0.689716 0.848695
vt 0.012418 0.584646
vt 0.183951 0.737553
vt 0.39605 0.844764

usemtl unnamed
usemap unnamed
f 15/15/15 17/17/17 16/16/16
f 4/4/4 5/5/5 1/1/1
f 4/4/4 1/1/1 3/3/3
f 3/3/3 1/1/1 2/2/2
f 11/11/11 12/12/12 6/6/6
f 11/11/11 6/6/6 8/8/8
f 8/8/8 6/6/6 7/7/7
f 10/10/10 14/14/14 13/13/13
f 10/10/10 13/13/13 9/9/9
f 19/19/19 18/18/18 20/20/20
f 19/19/19 20/20/20 21/21/21
f 21/21/21 20/20/20 25/25/25
f 23/23/23 22/22/22 24/24/24
f 23/23/23 24/24/24 27/27/27
f 27/27/27 24/24/24 28/28/28
f 26/26/26 23/23/23 27/27/27
