mtllib ./ParaBiAugmentedTruncatedDodecahedron.mtl
g ParaBiAugmentedTruncatedDodecahedron
v -1.192535 -1.392298 -1.264629
v -1.477439 -0.7376416 -1.494314
v -1.305595 -0.07590666 -1.802658
v -0.742642 0.3401483 -2.071882
v -0.003608 0.3516043 -2.199154
v 0.629221 -0.04591577 -2.135858
v 0.914125 -0.7005718 -1.906172
v 0.742281 -1.362307 -1.597829
v 0.179327 -1.778362 -1.328604
v -0.559706 -1.789817 -1.201333
v -1.82839 -0.1152585 -1.266341
v -1.823269 -0.9066218 0.9020214
v -2.108173 -0.2519658 0.6723352
v -2.218206 0.184905 0.07272194
v -2.111338 0.2371228 -0.6677862
v -1.082502 -1.82917 -0.6650154
v -1.189369 -1.881387 0.07549369
v -1.472317 -1.529005 0.6740476
v -2.046362 0.846641 -0.2356213
v 0.572531 -1.935887 0.9404618
v -0.166503 -1.947342 1.067732
v -0.839489 -1.926525 0.7373438
v 0.852314 -1.799179 -0.9982154
v 1.202194 -1.844316 -0.3363644
v 1.095327 -1.896535 0.4041437
v 2.218206 -0.184905 -0.07272194
v 2.046362 -0.846641 0.2356213
v 1.65828 -1.48048 0.1349196
v 1.302207 -0.06673265 -1.80547
v 1.758293 0.2971046 -1.334186
v 2.108173 0.2519658 -0.6723352
v 1.823269 0.9066218 -0.9020214
v 1.472317 1.529005 -0.6740476
v 1.189369 1.881387 -0.07549369
v 1.082502 1.82917 0.6650154
v 1.192535 1.392298 1.264629
v 1.477439 0.7376416 1.494314
v 1.82839 0.1152585 1.266341
v 2.111338 -0.2371228 0.6677862
v -0.35456 0.9739874 -1.971181
v -1.65828 1.48048 -0.1349196
v -1.095327 1.896535 -0.4041437
v -0.572531 1.935887 -0.9404618
v -0.289583 1.583505 -1.539016
v 0.166503 1.947342 -1.067732
v -0.742281 1.362307 1.597829
v -0.914125 0.7005718 1.906172
v -0.629221 0.04591577 2.135858
v 0.003608 -0.3516043 2.199154
v 0.742642 -0.3401483 2.071882
v 1.305595 0.07590666 1.802658
v 0.559706 1.789817 1.201333
v -0.179327 1.778362 1.328604
v -1.302207 0.06673265 1.80547
v -1.758293 -0.2971046 1.334186
v -0.852314 1.799179 0.9982154
v -1.202194 1.844316 0.3363644
v 0.839489 1.926525 -0.7373438
v 0.35456 -0.9739874 1.971181
v 0.289583 -1.583505 1.539016
v -0.656384 -0.7035484 2.143967
v -1.32937 -0.6827314 1.813578
v -1.394347 -1.292249 1.381415
v -0.761518 -1.689769 1.444711
v -0.305433 -1.325932 1.915994
v 0.656384 0.7035484 -2.143967
v 0.305433 1.325932 -1.915994
v 0.761518 1.689769 -1.444711
v 1.394347 1.292249 -1.381415
v 1.32937 0.6827314 -1.813578
v -1.477439 -0.7376416 -1.494314
v -1.305595 -0.07590666 -1.802658
v -1.82839 -0.1152585 -1.266341
v -1.477439 -0.7376416 -1.494314
v -1.192535 -1.392298 -1.264629
v -2.218206 0.184905 0.07272194
v -2.111338 0.2371228 -0.6677862
v -0.559706 -1.789817 -1.201333
v -1.189369 -1.881387 0.07549369
v -1.082502 -1.82917 -0.6650154
v -0.839489 -1.926525 0.7373438
v 1.095327 -1.896535 0.4041437
v 1.65828 -1.48048 0.1349196
v 1.202194 -1.844316 -0.3363644
v 2.108173 0.2519658 -0.6723352
v 2.218206 -0.184905 -0.07272194
v 1.758293 0.2971046 -1.334186
v -0.742642 0.3401483 -2.071882
v -0.003608 0.3516043 -2.199154
v 1.477439 0.7376416 1.494314
v 1.192535 1.392298 1.264629
v -2.046362 0.846641 -0.2356213
v -2.108173 -0.2519658 0.6723352
v -2.218206 0.184905 0.07272194
v -1.65828 1.48048 -0.1349196
v -1.758293 -0.2971046 1.334186
v 0.166503 1.947342 -1.067732
v -1.095327 1.896535 -0.4041437
v -0.572531 1.935887 -0.9404618
v 1.082502 1.82917 0.6650154
v 1.189369 1.881387 -0.07549369
v -1.202194 1.844316 0.3363644
v 0.559706 1.789817 1.201333
v 0.839489 1.926525 -0.7373438
v 1.82839 0.1152585 1.266341
v 1.305595 0.07590666 1.802658
v 1.477439 0.7376416 1.494314
v 2.046362 -0.846641 0.2356213
v 2.111338 -0.2371228 0.6677862
v 0.742642 -0.3401483 2.071882
v 0.572531 -1.935887 0.9404618
v 2.218206 -0.184905 -0.07272194
v 0.003608 -0.3516043 2.199154
v -0.166503 -1.947342 1.067732
v -0.305433 -1.325932 1.915994
v -0.656384 -0.7035484 2.143967
v -0.761518 -1.689769 1.444711
v -0.166503 -1.947342 1.067732
v -1.32937 -0.6827314 1.813578
v -0.656384 -0.7035484 2.143967
v 1.32937 0.6827314 -1.813578
v 0.656384 0.7035484 -2.143967
v 0.166503 1.947342 -1.067732
v 0.305433 1.325932 -1.915994
v 0.761518 1.689769 -1.444711
v 0.656384 0.7035484 -2.143967

vn -0.1508266 -0.3850795 -0.9104753
vn -0.1508297 -0.3850794 -0.9104748
vn -0.1508269 -0.3850794 -0.9104754
vn -0.1508267 -0.3850791 -0.9104755
vn -0.1197327 -0.3391773 -0.9330719
vn 0.04322213 -0.2705163 -0.9617447
vn 0.3839772 -0.4431228 -0.8100641
vn 0.4721752 -0.4981813 -0.7272317
vn -0.008869224 -0.9269093 -0.3751809
vn -0.01048438 -0.9886506 -0.1498671
vn -0.6740665 0.3879272 -0.6286073
vn -0.9009488 -0.4317472 -0.04342218
vn -0.9212151 -0.326896 0.2109547
vn -0.8837596 -0.4402497 -0.1585856
vn -0.8837594 -0.4402497 -0.158586
vn -0.8291003 -0.5132282 -0.2217869
vn -0.8179097 -0.5732426 -0.0491608
vn -0.6874104 -0.6963663 0.2062546
vn -0.8843063 0.3291007 -0.3312028
vn 0.003433789 -0.9975519 -0.06984805
vn 0.003433548 -0.9975519 -0.06984723
vn 0.003433581 -0.9975519 -0.06984746
vn 0.5171468 -0.7741529 -0.3650296
vn 0.6004363 -0.7110472 -0.3659077
vn 0.00343109 -0.9975517 -0.06984968
vn 0.7926661 -0.414264 -0.4472873
vn 0.7926656 -0.4142637 -0.4472884
vn 0.7926658 -0.4142638 -0.4472882
vn 0.7214351 -0.2845954 -0.6312978
vn 0.7915806 -0.3107491 -0.5261514
vn 0.7926663 -0.4142637 -0.4472871
vn 0.8685183 0.3751875 -0.3238987
vn 0.7354016 0.6645266 -0.1326235
vn 0.8476555 0.522294 0.09321661
vn 0.8434438 0.4959242 0.2065474
vn 0.8471285 0.4912927 0.2024972
vn 0.88376 0.4402488 0.1585856
vn 0.8837598 0.440249 0.1585856
vn 0.8837592 0.4402503 0.1585858
vn -0.4644986 0.4577415 -0.758099
vn -0.6474938 0.5092478 -0.5669379
vn -0.652576 0.7075771 -0.2710705
vn -0.5095199 0.6143024 -0.6025132
vn -0.4538195 0.6202126 -0.6398316
vn -0.05168751 0.8140746 -0.5784558
vn -0.1203044 0.459415 0.880037
vn -0.7199272 0.4018361 0.565891
vn -0.1245248 0.2092629 0.9698984
vn 0.1097189 0.3242723 0.9395794
vn 0.1508266 0.3850793 0.9104754
vn 0.1508266 0.3850796 0.9104753
vn 0.04441989 0.9385003 0.3424093
vn -0.02325533 0.9781179 0.206748
vn -0.7142917 0.2827316 0.6401955
vn -0.7936137 0.352214 0.4961075
vn -0.3824091 0.8737319 0.3005931
vn -0.3188205 0.9191772 0.2312291
vn -0.003433742 0.9975519 0.06984763
vn 0.4704609 -0.4641103 0.7505121
vn 0.3109012 -0.6968912 0.6462843
vn -0.3932449 -0.5035301 0.7692959
vn -0.7028935 -0.3600235 0.6134524
vn -0.5876855 -0.5943742 0.5489494
vn -0.4025341 -0.6844828 0.6078237
vn -0.3932444 -0.5035303 0.7692959
vn 0.3932449 0.5035301 -0.7692959
vn 0.3932444 0.5035303 -0.7692959
vn 0.4302549 0.7104134 -0.5569504
vn 0.6357684 0.5091028 -0.5801836
vn 0.6339024 0.4012301 -0.6611977
vn -0.7036309 -0.1417214 -0.6962892
vn -0.6671809 0.4127699 -0.6200732
vn -0.8837598 -0.440249 -0.1585857
vn -0.88376 -0.4402487 -0.1585855
vn -0.8434439 -0.495924 -0.2065478
vn -0.9728625 0.1935787 -0.1267504
vn -0.7716493 0.420574 -0.477153
vn -0.4325359 -0.7646434 -0.4777378
vn 0.003433662 -0.9975519 -0.0698477
vn 0.003434114 -0.9975519 -0.06984819
vn -0.4561904 -0.8358153 0.3054563
vn 0.6474938 -0.5092478 0.5669379
vn 0.652576 -0.7075772 0.2710704
vn 0.6035927 -0.7966928 0.03092715
vn 0.8922185 0.433137 0.1278218
vn 0.8837584 0.4402517 0.1585864
vn 0.8324359 0.2587011 -0.490025
vn -0.5976932 0.4692311 -0.6500655
vn -0.1218183 0.2800958 -0.9522117
vn 0.1508268 0.3850794 0.9104754
vn 0.1508265 0.3850792 0.9104755
vn -0.7926661 0.414264 0.4472873
vn -0.7926665 0.4142635 0.447287
vn -0.7926667 0.4142634 0.4472869
vn -0.7926657 0.4142638 0.447288
vn -0.8410894 -0.2503114 0.4794924
vn -0.003433794 0.9975519 0.06984805
vn -0.003432699 0.9975519 0.0698489
vn -0.003433534 0.9975519 0.06984732
vn -0.003434428 0.9975518 0.06984805
vn -0.003433826 0.9975519 0.06984772
vn -0.6035927 0.7966928 -0.03092715
vn 0.4325359 0.7646434 0.4777378
vn 0.4291568 0.8523341 -0.2989169
vn 0.6671813 -0.4127699 0.620073
vn 0.6652803 -0.4192806 0.6177427
vn 0.7036309 0.1417214 0.6962892
vn 0.7716489 -0.420574 0.4771535
vn 0.7231928 -0.4491093 0.5246838
vn 0.5932862 -0.4673823 0.6554124
vn 0.3404054 -0.7310743 0.5913161
vn 0.9728625 -0.1935787 0.1267504
vn 0.1077919 -0.2877846 0.9516098
vn 0.06436016 -0.8190811 0.5700564
vn 0.107999 -0.5130627 0.8515298
vn 0.0815763 -0.301918 0.9498373
vn 0.02803344 -0.8041875 0.5937143
vn -0.1908009 -0.9243501 0.3304121
vn -0.5847131 0.02996256 0.8106867
vn -0.3391444 0.02246708 0.9404661
vn 0.5353856 -0.02853688 -0.8441256
vn 0.2825313 -0.02061651 -0.9590367
vn 0.1908009 0.9243501 -0.3304121
vn -0.09360676 0.648073 -0.7558038
vn -0.02803406 0.8041875 -0.5937144
vn -0.08157622 0.301918 -0.9498374

vt 0.645834 0.097845
vt 0.701445 0.128032
vt 0.735894 0.207318
vt 0.736021 0.305419
vt 0.701778 0.384863
vt 0.646244 0.415306
vt 0.590632 0.385119
vt 0.556184 0.305833
vt 0.556057 0.207732
vt 0.5903 0.128288
vt 0.491916 0.546744
vt 0.900712 0.168497
vt 0.966348 0.211645
vt 1 0.297445
vt 0.988815 0.393126
vt 0.765226 0.349177
vt 0.776412 0.253497
vt 0.828162 0.184483
vt 0.624898 0.604548
vt 0.36801 0.128799
vt 0.402253 0.049355
vt 0.46587 0.000158
vt 0.49244 0.256929
vt 0.423749 0.257087
vt 0.376221 0.208146
vt 0.402791 0.464917
vt 0.368342 0.385631
vt 0.376348 0.306247
vt 0.582627 0.464503
vt 0.535226 0.513663
vt 0.466535 0.513821
vt 0.783064 0.690372
vt 0.855613 0.706358
vt 0.907363 0.775372
vt 0.918549 0.871052
vt 0.884896 0.956852
vt 0.81926 1
vt 0.746711 0.984014
vt 0.69496 0.915
vt 0.432325 0.790894
vt 0.647578 0.697856
vt 0.624816 0.791113
vt 0.565307 0.848697
vt 0.491783 0.848613
vt 0.52798 0.917136
vt 0.179836 0.305833
vt 0.145388 0.385119
vt 0.089776 0.415306
vt 0.034243 0.384863
vt 0 0.305419
vt 0.000127 0.207318
vt 0.14572 0.128288
vt 0.179963 0.207732
vt 0.153393 0.464503
vt 0.200794 0.513663
vt 0.24358 0.256929
vt 0.312272 0.257087
vt 0.27015 0.000158
vt 0.303695 0.790894
vt 0.244238 0.848613
vt 0.879852 0
vt 0.909009 0.049493
vt 0.854481 0.096067
vt 0.791623 0.075359
vt 0.807303 0.015986
vt 0.803923 0.521875
vt 0.876472 0.537861
vt 0.892153 0.597233
vt 0.829294 0.617942
vt 0.774766 0.571368
vt 0.43191 0.521875
vt 0.432408 0.604328
vt 0.937064 0.462139
vt 0.864515 0.478125
vt 0.798879 0.434978
vt 0.6244 0.522094
vt 0.565441 0.546828
vt 0.736021 0.414269
vt 0.534562 0
vt 0.58209 0.048941
vt 0.765304 0.163775
vt 0.111205 0.791113
vt 0.088443 0.697856
vt 0.052245 0.766379
vt 0.717427 0.73352
vt 0.683775 0.81932
vt 0.728535 0.643798
vt 0.409646 0.697585
vt 0.372319 0.766024
vt 0.034575 0.128032
vt 0.090187 0.097845
vt 0.367678 0.385631
vt 0.269486 0.513821
vt 0.33323 0.464917
vt 0.359673 0.306247
vt 0.95524 0.121923
vt 0.333767 0.049355
vt 0.3598 0.208146
vt 0.36801 0.128799
vt 0.153931 0.048941
vt 0.201459 0
vt 0.683775 0.766379
vt 0.947755 0.936144
vt 0.918471 0.68565
vt 0.244104 0.546744
vt 0.303613 0.604328
vt 0.304111 0.521875
vt 0.111122 0.604548
vt 0.170579 0.546828
vt 0.326374 0.697585
vt 0.170713 0.848697
vt 0.11162 0.522094
vt 0.363702 0.766024
vt 0.208041 0.917136
vt 0.308004 0.88216
vt 0.36801 0.85729
vt 0.271806 0.950683
vt 0.736147 0.114283
vt 0.128466 0.521875
vt 0.064849 0.472678
vt 0.607554 0.521875
vt 0.671171 0.472678
vt 0.947628 0.636157
vt 0.428017 0.88216
vt 0.464214 0.950683
vt 0.36801 0.85729

usemtl unnamed
usemap unnamed
f 4/4/4 5/5/5 1/1/1
f 4/4/4 1/1/1 3/3/3
f 3/3/3 1/1/1 2/2/2
f 126/126/126 89/89/89 40/40/40
f 40/40/40 89/89/89 88/88/88
f 40/40/40 88/88/88 41/41/41
f 41/41/41 88/88/88 72/72/72
f 41/41/41 72/72/72 11/11/11
f 11/11/11 72/72/72 71/71/71
f 41/41/41 11/11/11 77/77/77
f 41/41/41 77/77/77 19/19/19
f 19/19/19 77/77/77 76/76/76
f 75/75/75 78/78/78 16/16/16
f 75/75/75 16/16/16 12/12/12
f 12/12/12 16/16/16 17/17/17
f 12/12/12 17/17/17 18/18/18
f 18/18/18 17/17/17 81/81/81
f 18/18/18 81/81/81 63/63/63
f 63/63/63 81/81/81 64/64/64
f 63/63/63 64/64/64 61/61/61
f 61/61/61 64/64/64 65/65/65
f 79/79/79 80/80/80 20/20/20
f 79/79/79 20/20/20 22/22/22
f 22/22/22 20/20/20 21/21/21
f 121/121/121 30/30/30 29/29/29
f 121/121/121 29/29/29 6/6/6
f 6/6/6 29/29/29 7/7/7
f 6/6/6 7/7/7 1/1/1
f 1/1/1 7/7/7 8/8/8
f 1/1/1 8/8/8 9/9/9
f 9/9/9 8/8/8 23/23/23
f 9/9/9 23/23/23 20/20/20
f 20/20/20 23/23/23 24/24/24
f 20/20/20 24/24/24 25/25/25
f 24/24/24 23/23/23 26/26/26
f 24/24/24 26/26/26 28/28/28
f 28/28/28 26/26/26 27/27/27
f 30/30/30 31/31/31 26/26/26
f 30/30/30 26/26/26 29/29/29
f 29/29/29 26/26/26 7/7/7
f 112/112/112 109/109/109 108/108/108
f 108/108/108 109/109/109 82/82/82
f 108/108/108 82/82/82 83/83/83
f 83/83/83 82/82/82 84/84/84
f 39/39/39 86/86/86 85/85/85
f 39/39/39 85/85/85 38/38/38
f 38/38/38 85/85/85 37/37/37
f 119/119/119 120/120/120 54/54/54
f 119/119/119 54/54/54 55/55/55
f 55/55/55 54/54/54 92/92/92
f 55/55/55 92/92/92 93/93/93
f 93/93/93 92/92/92 94/94/94
f 90/90/90 91/91/91 46/46/46
f 46/46/46 91/91/91 52/52/52
f 46/46/46 52/52/52 53/53/53
f 53/53/53 52/52/52 97/97/97
f 53/53/53 97/97/97 56/56/56
f 56/56/56 97/97/97 57/57/57
f 56/56/56 57/57/57 92/92/92
f 92/92/92 57/57/57 95/95/95
f 97/97/97 99/99/99 98/98/98
f 97/97/97 98/98/98 57/57/57
f 101/101/101 58/58/58 97/97/97
f 101/101/101 97/97/97 100/100/100
f 100/100/100 97/97/97 52/52/52
f 125/125/125 124/124/124 45/45/45
f 45/45/45 124/124/124 44/44/44
f 45/45/45 44/44/44 43/43/43
f 43/43/43 44/44/44 41/41/41
f 43/43/43 41/41/41 42/42/42
f 42/42/42 41/41/41 102/102/102
f 68/68/68 123/123/123 104/104/104
f 68/68/68 104/104/104 33/33/33
f 33/33/33 104/104/104 34/34/34
f 33/33/33 34/34/34 85/85/85
f 85/85/85 34/34/34 35/35/35
f 85/85/85 35/35/35 36/36/36
f 36/36/36 35/35/35 103/103/103
f 105/105/105 107/107/107 106/106/106
f 105/105/105 106/106/106 82/82/82
f 82/82/82 106/106/106 110/110/110
f 82/82/82 110/110/110 59/59/59
f 59/59/59 110/110/110 113/113/113
f 59/59/59 113/113/113 115/115/115
f 115/115/115 113/113/113 116/116/116
f 64/64/64 81/81/81 118/118/118
f 85/85/85 87/87/87 32/32/32
f 85/85/85 32/32/32 33/33/33
f 33/33/33 32/32/32 69/69/69
f 33/33/33 69/69/69 68/68/68
f 68/68/68 69/69/69 66/66/66
f 68/68/68 66/66/66 67/67/67
f 20/20/20 80/80/80 10/10/10
f 20/20/20 10/10/10 9/9/9
f 9/9/9 10/10/10 1/1/1
f 15/15/15 73/73/73 12/12/12
f 15/15/15 12/12/12 14/14/14
f 14/14/14 12/12/12 13/13/13
f 12/12/12 73/73/73 74/74/74
f 12/12/12 74/74/74 75/75/75
f 85/85/85 36/36/36 37/37/37
f 50/50/50 51/51/51 46/46/46
f 50/50/50 46/46/46 49/49/49
f 49/49/49 46/46/46 48/48/48
f 49/49/49 48/48/48 120/120/120
f 120/120/120 48/48/48 54/54/54
f 46/46/46 51/51/51 90/90/90
f 63/63/63 61/61/61 62/62/62
f 63/63/63 62/62/62 12/12/12
f 12/12/12 62/62/62 96/96/96
f 12/12/12 96/96/96 13/13/13
f 82/82/82 109/109/109 105/105/105
f 111/111/111 82/82/82 60/60/60
f 111/111/111 60/60/60 114/114/114
f 114/114/114 60/60/60 117/117/117
f 115/115/115 117/117/117 60/60/60
f 115/115/115 60/60/60 59/59/59
f 59/59/59 60/60/60 82/82/82
f 70/70/70 66/66/66 69/69/69
f 70/70/70 69/69/69 87/87/87
f 87/87/87 69/69/69 32/32/32
f 122/122/122 121/121/121 6/6/6
f 122/122/122 6/6/6 5/5/5
f 5/5/5 6/6/6 1/1/1
f 124/124/124 126/126/126 40/40/40
f 124/124/124 40/40/40 44/44/44
f 44/44/44 40/40/40 41/41/41
f 26/26/26 23/23/23 8/8/8
f 26/26/26 8/8/8 7/7/7
f 54/54/54 48/48/48 47/47/47
f 47/47/47 48/48/48 46/46/46
f 47/47/47 46/46/46 92/92/92
f 92/92/92 46/46/46 56/56/56
f 92/92/92 54/54/54 47/47/47
f 56/56/56 46/46/46 53/53/53
f 63/63/63 12/12/12 18/18/18
