mtllib ./PentagonalDiPyramid.mtl
g PentagonalDiPyramid
v -0.197541 0.0009592171 0.6066341
v -0.637976 -0.003983 -0.0004019986
v 0.00246 -0.3942881 0.001424141
v -0.196749 -0.003420217 -0.606883
v 0.516378 0.001868866 -0.3746721
v -0.00246 0.3942881 -0.001424141
v 0.515888 0.004575135 0.375323
v -0.637976 -0.003983 -0.0004019986
v -0.197541 0.0009592171 0.6066341
v -0.196749 -0.003420217 -0.606883
v 0.516378 0.001868866 -0.3746721
v 0.00246 -0.3942881 0.001424141
v -0.197541 0.0009592171 0.6066341
v -0.197541 0.0009592171 0.6066341
v -0.00246 0.3942881 -0.001424141
v 0.515888 0.004575135 0.375323
v 0.516378 0.001868866 -0.3746721
v 0.516378 0.001868866 -0.3746721

vn -0.4863872 -0.796412 0.3593823
vn -0.5204122 -0.8539109 0.002742015
vn -0.3022757 -0.9273023 -0.2207714
vn -0.1568217 -0.8534471 -0.4970264
vn 0.1929247 -0.7955462 -0.5743575
vn -0.3138153 0.9218383 -0.2274518
vn 0.430423 -0.8468589 0.312356
vn -0.5310287 0.8473471 -0.003404545
vn -0.4963054 0.7928559 0.3536393
vn -0.1674385 0.8478106 -0.5031717
vn 0.183007 0.7937217 -0.5800987
vn 0.430423 -0.8468589 0.312356
vn 0.1921699 -0.7913796 0.5803356
vn 0.1822533 0.7978883 0.574594
vn 0.4198076 0.8543987 0.3062101
vn 0.4198076 0.8543987 0.3062101
vn 0.6120085 -0.7908447 0.003253548
vn 0.6020916 0.7984232 -0.002487639

vt 0.367953 0
vt 0.651882 0.129821
vt 0.325943 0.338284
vt 0.651198 0.548067
vt 0.366845 0.676736
vt 0.325943 0.338453
vt 0.99992 0.841808
vt 0.000694 0.128662
vt 0.285049 0
vt 0 0.546908
vt 0.283927 0.676736
vt 0.702752 0.585599
vt 0.651882 1
vt 0.652297 0.500311
vt 0.949421 0.414491
vt 0.651882 0.158815
vt 1 0.500311
vt 0.999691 0

usemtl unnamed
usemap unnamed
f 4/4/4 5/5/5 3/3/3
f 4/4/4 3/3/3 2/2/2
f 2/2/2 3/3/3 1/1/1
f 8/8/8 9/9/9 6/6/6
f 8/8/8 6/6/6 10/10/10
f 10/10/10 6/6/6 11/11/11
f 7/7/7 13/13/13 12/12/12
f 7/7/7 12/12/12 17/17/17
f 16/16/16 18/18/18 15/15/15
f 16/16/16 15/15/15 14/14/14
