mtllib ./PentagonalOrthoCupolaRotunda.mtl
g PentagonalOrthoCupolaRotunda
v -0.372225 -0.6463763 -0.5220318
v 0.37775 -0.6479062 -0.5161328
v 0.603888 -0.651619 0.1989533
v -0.006326 -0.6523838 0.6350013
v -0.609598 -0.649143 0.1894083
v -1.213997 -0.252715 -0.01070891
v -0.976625 -0.2499483 -0.722148
v -0.987859 -0.2564288 0.7043772
v -0.384588 -0.2596696 1.149971
v 0.365387 -0.2611996 1.15587
v 0.975602 -0.2604358 0.7198222
v 1.212974 -0.257669 0.008382093
v 0.986836 -0.2539553 -0.706704
v 0.383565 -0.2507154 -1.152297
v -0.366411 -0.2491844 -1.158197
v 0.38061 0.7786609 -0.5096304
v -0.369365 0.7801909 -0.5155293
v -0.606737 0.7774242 0.1959108
v -0.003466 0.7741833 0.6415038
v 0.606748 0.7749482 0.2054558
v 0.98501 0.3822339 -0.3095142
v 0.008897 0.3874767 -1.030499
v 0.600934 0.3777564 0.84162
v -0.612552 0.3802333 0.8320749
v -0.978451 0.3862409 -0.3249582
v 0.38061 0.7786609 -0.5096304
v 0.986836 -0.2539553 -0.706704
v 0.383565 -0.2507154 -1.152297
v 0.98501 0.3822339 -0.3095142
v 0.98501 0.3822339 -0.3095142
v 0.986836 -0.2539553 -0.706704
v 1.212974 -0.257669 0.008382093
v 0.606748 0.7749482 0.2054558
v 0.975602 -0.2604358 0.7198222
v 0.606748 0.7749482 0.2054558
v 1.212974 -0.257669 0.008382093
v 0.975602 -0.2604358 0.7198222
v 0.98501 0.3822339 -0.3095142
v 0.600934 0.3777564 0.84162
v 0.600934 0.3777564 0.84162
v 0.975602 -0.2604358 0.7198222
v 0.365387 -0.2611996 1.15587
v -0.003466 0.7741833 0.6415038
v -0.384588 -0.2596696 1.149971
v 0.365387 -0.2611996 1.15587
v -0.003466 0.7741833 0.6415038
v -0.612552 0.3802333 0.8320749
v -0.987859 -0.2564288 0.7043772
v -0.606737 0.7774242 0.1959108
v -1.213997 -0.252715 -0.01070891
v -0.987859 -0.2564288 0.7043772
v -0.612552 0.3802333 0.8320749
v -0.978451 0.3862409 -0.3249582
v -0.976625 -0.2499483 -0.722148
v -0.369365 0.7801909 -0.5155293
v -0.366411 -0.2491844 -1.158197
v -0.976625 -0.2499483 -0.722148
v -0.369365 0.7801909 -0.5155293
v 0.008897 0.3874767 -1.030499

vn -0.1168638 -0.9632222 -0.241963
vn 0.2866306 -0.9159148 -0.2809686
vn 0.2659866 -0.9538736 0.1391994
vn -0.05564513 -0.9539381 0.2947982
vn -0.3979073 -0.9160516 0.05019586
vn -0.5465578 -0.8373822 -0.008108279
vn -0.462801 -0.8433878 -0.2729698
vn -0.4001352 -0.8463603 0.35152
vn -0.1741378 -0.8405054 0.5130565
vn 0.2131609 -0.848198 0.4848948
vn 0.4366094 -0.8408499 0.3199126
vn 0.5295318 -0.8463618 -0.05716528
vn 0.4416549 -0.8379397 -0.320622
vn 0.1117659 -0.843389 -0.5255508
vn -0.1659764 -0.8357973 -0.5233496
vn 0.1052888 0.9851832 -0.1353822
vn -0.1976976 0.9408952 -0.2750129
vn -0.2029194 0.9767444 0.06924255
vn 0.0002657626 0.9756528 0.2193215
vn 0.3275136 0.9380742 0.1129238
vn 0.5323082 0.449422 -0.7174037
vn 0.00799883 0.4182113 -0.9083147
vn 0.8493428 0.4442169 0.2851109
vn -0.2967916 0.3379683 0.8931363
vn -0.8626155 0.4171211 -0.2861898
vn 0.5323085 0.449422 -0.7174036
vn 0.5323082 0.449422 -0.7174038
vn 0.4136303 0.3990141 -0.8183507
vn 0.5804012 0.794319 -0.1794213
vn 0.936908 0.1870622 -0.2953152
vn 0.936908 0.1870622 -0.2953152
vn 0.936908 0.1870622 -0.2953152
vn 0.8493428 0.4442169 0.2851109
vn 0.8493428 0.4442169 0.2851109
vn 0.8493427 0.4442167 0.2851112
vn 0.8493427 0.4442167 0.2851112
vn 0.8493428 0.4442168 0.2851108
vn 0.8493426 0.4442166 0.2851118
vn 0.3545354 0.7916858 0.4975325
vn 0.2840816 0.336783 0.8977055
vn 0.571449 0.1828026 0.8000184
vn 0.2840816 0.336783 0.8977055
vn -0.006146693 0.4431457 0.8964286
vn -0.1615454 0.3923098 0.9055364
vn -0.006146831 0.4431458 0.8964286
vn -0.006146506 0.4431458 0.8964286
vn -0.359084 0.7931427 0.4919184
vn -0.5832136 0.1851587 0.7909351
vn -0.8519027 0.4476885 0.2717295
vn -0.9088763 0.3973583 0.1266895
vn -0.8519027 0.4476886 0.2717292
vn -0.8519031 0.4476883 0.2717284
vn -0.5742598 0.7966756 -0.1885036
vn -0.7553374 0.345497 -0.556864
vn -0.5191189 0.4515683 -0.7256733
vn -0.3990736 0.4006734 -0.8247432
vn -0.5191194 0.4515682 -0.725673
vn -0.5191181 0.4515677 -0.7256742
vn 0.006372922 0.7974021 -0.6034149

vt 0.266473 0.383248
vt 0.115428 0.338334
vt 0.11555 0.173968
vt 0.26667 0.117297
vt 0.359945 0.24664
vt 0.488913 0.338623
vt 0.395441 0.475232
vt 0.489035 0.174256
vt 0.39576 0.044914
vt 0.244715 0
vt 0.093595 0.056671
vt 0.000122 0.193279
vt 0 0.357646
vt 0.093275 0.486989
vt 0.24432 0.531902
vt 0.783353 0.134866
vt 0.783166 0.301507
vt 0.627878 0.35282
vt 0.532091 0.217892
vt 0.628181 0.083189
vt 0.659799 0.87239
vt 0.630468 0.654283
vt 0.347682 0.666712
vt 0.949474 0.562369
vt 0.141408 0.750059
vt 0.735906 0.737498
vt 0.507324 0.872544
vt 0.489196 0.737747
vt 0.7406 0
vt 0.489023 0.833359
vt 0.347677 0.91669
vt 0.489035 1
vt 0.271435 0.531902
vt 0.271454 0.801533
vt 0.868891 0.706625
vt 0.735906 0.939577
vt 0.867878 0.958504
vt 0.736532 0.783906
vt 0.489338 0.083026
vt 0.489033 0.698544
vt 0.489035 0.531902
vt 0.347682 0.615221
vt 1 0.436465
vt 0.786255 0.56225
vt 0.735906 0.436272
vt 0.471034 0.833359
vt 0.489035 0.352657
vt 0.867763 0.706625
vt 0.246709 0.666664
vt 0 0.666838
vt 0.017906 0.53201
vt 0.170381 0.531902
vt 0.74011 0.436272
vt 0.000113 0.833479
vt 0.735744 0.570857
vt 0.489035 0.571105
vt 0.506902 0.436272
vt 0.246822 0.833305
vt 0.895586 0.218318

usemtl unnamed
usemap unnamed
f 30/30/30 32/32/32 31/31/31
f 33/33/33 23/23/23 34/34/34
f 57/57/57 55/55/55 56/56/56
f 56/56/56 55/55/55 22/22/22
f 56/56/56 22/22/22 28/28/28
f 28/28/28 22/22/22 26/26/26
f 28/28/28 26/26/26 27/27/27
f 27/27/27 26/26/26 21/21/21
f 18/18/18 47/47/47 19/19/19
f 18/18/18 19/19/19 16/16/16
f 16/16/16 19/19/19 20/20/20
f 16/16/16 20/20/20 29/29/29
f 35/35/35 37/37/37 36/36/36
f 35/35/35 36/36/36 38/38/38
f 20/20/20 19/19/19 39/39/39
f 42/42/42 41/41/41 40/40/40
f 42/42/42 40/40/40 46/46/46
f 24/24/24 48/48/48 44/44/44
f 24/24/24 44/44/44 43/43/43
f 43/43/43 44/44/44 45/45/45
f 51/51/51 52/52/52 49/49/49
f 51/51/51 49/49/49 50/50/50
f 50/50/50 49/49/49 25/25/25
f 50/50/50 25/25/25 54/54/54
f 54/54/54 25/25/25 58/58/58
f 16/16/16 59/59/59 17/17/17
f 16/16/16 17/17/17 18/18/18
f 18/18/18 17/17/17 53/53/53
f 11/11/11 10/10/10 3/3/3
f 3/3/3 10/10/10 4/4/4
f 3/3/3 4/4/4 1/1/1
f 1/1/1 4/4/4 5/5/5
f 1/1/1 5/5/5 7/7/7
f 7/7/7 5/5/5 6/6/6
f 10/10/10 9/9/9 4/4/4
f 4/4/4 9/9/9 8/8/8
f 4/4/4 8/8/8 5/5/5
f 5/5/5 8/8/8 6/6/6
f 12/12/12 11/11/11 3/3/3
f 12/12/12 3/3/3 2/2/2
f 2/2/2 3/3/3 1/1/1
f 2/2/2 1/1/1 14/14/14
f 14/14/14 1/1/1 15/15/15
f 13/13/13 12/12/12 2/2/2
f 13/13/13 2/2/2 14/14/14
f 1/1/1 7/7/7 15/15/15
