mtllib ./PentagonalOrthoBiRotunda.mtl
g PentagonalOrthoBiRotunda
v 0.061687 -1.209163 0.08224344
v 0.735637 -0.9565242 -0.1286237
v 1.006324 -0.528724 0.4247442
v 0.499668 -0.5169677 0.9776103
v -0.08415 -0.9375018 0.7659324
v -0.635826 -0.999943 0.2616954
v -0.944637 -0.6804392 -0.3425008
v -0.437981 -0.6921954 -0.8953669
v 0.183962 -1.018965 -0.6328607
v -1.090474 -0.4087789 0.3411892
v -0.197845 -0.3077466 1.157062
v -0.819788 0.01902232 0.8945561
v -0.23597 0.4395564 1.106233
v 0.892629 0.1010313 0.8158731
v 0.437981 0.6921954 0.8953669
v 0.944637 0.6804392 0.3425008
v 1.128599 -0.3385251 -0.2903599
v 1.090474 0.4087789 -0.3411892
v 0.819788 -0.01902232 -0.8945561
v 0.23597 -0.4395564 -1.106233
v -0.825979 0.4503888 -0.7665192
v -0.971816 0.7220501 -0.08282927
v -0.387999 1.142585 0.1288476
v 0.118658 1.130828 -0.4240184
v -0.152029 0.7030278 -0.9773864
v -0.364646 0.006694587 -1.157425
v -1.184433 0.02571691 -0.262869
v 0.579991 0.6871338 -0.8149244
v 0.344022 1.126691 0.2913097
v -0.746453 0.7179123 0.6324988
v -0.08415 -0.9375018 0.7659324
v -0.197845 -0.3077466 1.157062
v 0.499668 -0.5169677 0.9776103
v -0.819788 0.01902232 0.8945561
v 1.006324 -0.528724 0.4247442
v 1.006324 -0.528724 0.4247442
v 0.944637 0.6804392 0.3425008
v 0.892629 0.1010313 0.8158731
v 0.735637 -0.9565242 -0.1286237
v 0.735637 -0.9565242 -0.1286237
v 0.183962 -1.018965 -0.6328607
v 0.819788 -0.01902232 -0.8945561
v 1.128599 -0.3385251 -0.2903599
v -0.437981 -0.6921954 -0.8953669
v -0.825979 0.4503888 -0.7665192
v -0.944637 -0.6804392 -0.3425008
v -0.364646 0.006694587 -1.157425
v -0.152029 0.7030278 -0.9773864
v 0.579991 0.6871338 -0.8149244
v 0.579991 0.6871338 -0.8149244
v 0.118658 1.130828 -0.4240184
v 0.344022 1.126691 0.2913097
v 0.344022 1.126691 0.2913097
v -0.387999 1.142585 0.1288476
v -0.746453 0.7179123 0.6324988
v -1.090474 -0.4087789 0.3411892
v -1.184433 0.02571691 -0.262869
v -0.819788 0.01902232 0.8945561
v -1.184433 0.02571691 -0.262869

vn 0.05083249 -0.9964052 0.06777173
vn 0.3826844 -0.9151576 0.1266475
vn 0.4299516 -0.8038236 0.4111075
vn 0.4299511 -0.8038236 0.4111081
vn -0.3468646 -0.7009358 0.6231968
vn -0.5239491 -0.8239983 0.2156488
vn -0.6036045 -0.7745554 -0.1890124
vn -0.34347 -0.8913622 -0.2958075
vn -0.044602 -0.9635196 -0.2638957
vn -0.7340744 -0.53152 0.4226362
vn -0.5479257 -0.5105075 0.6626913
vn -0.5479256 -0.5105074 0.6626914
vn -0.06564666 0.4263054 0.9021942
vn 0.5841318 0.08470523 0.8072269
vn 0.2381609 0.5401915 0.8071386
vn 0.5989869 0.5946609 0.5362772
vn 0.9837118 -0.1581303 -0.0854746
vn 0.9018459 0.4038563 -0.1535387
vn 0.8275758 0.1688531 -0.5353569
vn 0.3192102 -0.2905952 -0.9020306
vn -0.5275595 0.6881706 -0.4980986
vn -0.8914164 0.443502 0.09318212
vn -0.4011028 0.8904026 -0.2151747
vn -0.2304572 0.8864431 -0.401383
vn -0.246816 0.6867797 -0.683678
vn -0.2576958 -0.1134468 -0.9595431
vn -0.7280297 -0.1724008 -0.663514
vn 0.2168148 0.1817861 -0.9591379
vn 0.5963047 0.7815403 -0.183346
vn -0.3295657 0.6149042 0.7164354
vn 0.06400263 -0.5181581 0.852887
vn -0.002614578 -0.1352441 0.990809
vn 0.3265009 -0.08529285 0.9413408
vn -0.457381 0.1986685 0.8667951
vn 0.7052853 -0.2777639 0.6522422
vn 0.9864506 -0.05983901 0.1527567
vn 0.8816639 0.4718778 0.0005683943
vn 0.980864 0.06257983 0.1843623
vn 0.8440525 -0.5362578 0.001693408
vn 0.6013747 -0.5371752 -0.5914317
vn 0.3295664 -0.6149038 -0.7164354
vn 0.4573816 -0.1986687 -0.8667946
vn 0.6013755 -0.537175 -0.5914311
vn -0.5027375 -0.3237987 -0.8015047
vn -0.7280301 -0.1724006 -0.6635137
vn -0.72803 -0.1724006 -0.6635137
vn -0.3947917 0.3411162 -0.8530999
vn 0.2168147 0.1817858 -0.9591379
vn 0.160727 0.7412664 -0.6516834
vn 0.6977947 0.591066 -0.4046277
vn 0.5963039 0.781541 -0.183345
vn 0.02195951 0.9997584 -0.001136681
vn 0.1924237 0.8105784 0.5531147
vn -0.1140027 0.7980223 0.5917466
vn -0.8267238 0.497175 0.263334
vn -0.9324867 0.208454 0.2949843
vn -0.9562963 0.292395 -0.001552147
vn -0.9324867 0.2084541 0.2949841
vn -0.9466674 -0.3127089 -0.07767931

vt 0.115116 0.269786
vt 0 0.242224
vt 0.00731 0.075487
vt 0.126943 0
vt 0.193571 0.120083
vt 0.258473 0.279528
vt 0.296859 0.417431
vt 0.177226 0.492918
vt 0.064902 0.401668
vt 0.375314 0.267729
vt 0.2703 0.009742
vt 0.382624 0.100992
vt 0.504959 0.870757
vt 0.641361 0.636639
vt 0.641469 0.815391
vt 0.740219 0.725922
vt 0.812064 0.890191
vt 0.88379 0.738092
vt 0.740219 0.738179
vt 0.642506 0.246031
vt 0.071791 0.814979
vt 0.116152 0.644974
vt 0.259723 0.644968
vt 0.304093 0.81497
vt 0.187945 0.920042
vt 0.570591 0.09407
vt 0.382655 0.094319
vt 0.758527 0.093822
vt 0.999881 0.585967
vt 0.488151 0.984852
vt 0.382655 0.581646
vt 0.420483 0.726223
vt 0.504783 0.58153
vt 0.382831 0.870872
vt 0.603533 0.492061
vt 0.883886 0.984123
vt 0.999941 0.738022
vt 1 0.890077
vt 0.740315 0.98421
vt 0.642717 0.492061
vt 0.570851 0.398181
vt 0.758657 0.245877
vt 0.758787 0.397932
vt 0.498936 0.246221
vt 0.498726 0.00019
vt 0.382785 0.246375
vt 0.071795 0.967034
vt 0.642296 0
vt 0.304097 0.967025
vt 0.811945 0.58608
vt 0.883694 0.492061
vt 0.375875 0.691951
vt 0.709029 0.895267
vt 0.614273 1
vt 0.187935 0.521956
vt 0 0.597991
vt 2E-06 0.691966
vt 0.116148 0.492918
vt 0.382655 0.380411

usemtl unnamed
usemap unnamed
f 8/8/8 9/9/9 1/1/1
f 8/8/8 1/1/1 7/7/7
f 7/7/7 1/1/1 6/6/6
f 7/7/7 6/6/6 10/10/10
f 10/10/10 6/6/6 5/5/5
f 10/10/10 5/5/5 12/12/12
f 12/12/12 5/5/5 11/11/11
f 32/32/32 31/31/31 33/33/33
f 32/32/32 33/33/33 13/13/13
f 13/13/13 33/33/33 15/15/15
f 13/13/13 15/15/15 54/54/54
f 54/54/54 15/15/15 53/53/53
f 16/16/16 53/53/53 15/15/15
f 16/16/16 15/15/15 14/14/14
f 14/14/14 15/15/15 33/33/33
f 14/14/14 33/33/33 35/35/35
f 50/50/50 51/51/51 18/18/18
f 18/18/18 51/51/51 37/37/37
f 18/18/18 37/37/37 36/36/36
f 36/36/36 37/37/37 38/38/38
f 19/19/19 50/50/50 18/18/18
f 19/19/19 18/18/18 17/17/17
f 17/17/17 18/18/18 36/36/36
f 17/17/17 36/36/36 39/39/39
f 26/26/26 48/48/48 20/20/20
f 20/20/20 48/48/48 42/42/42
f 20/20/20 42/42/42 40/40/40
f 40/40/40 42/42/42 43/43/43
f 26/26/26 20/20/20 44/44/44
f 26/26/26 44/44/44 45/45/45
f 45/45/45 44/44/44 46/46/46
f 45/45/45 46/46/46 27/27/27
f 23/23/23 52/52/52 24/24/24
f 23/23/23 24/24/24 21/21/21
f 21/21/21 24/24/24 25/25/25
f 21/21/21 25/25/25 47/47/47
f 48/48/48 28/28/28 42/42/42
f 25/25/25 24/24/24 49/49/49
f 51/51/51 29/29/29 37/37/37
f 59/59/59 7/7/7 10/10/10
f 4/4/4 5/5/5 1/1/1
f 4/4/4 1/1/1 3/3/3
f 3/3/3 1/1/1 2/2/2
f 34/34/34 32/32/32 13/13/13
f 34/34/34 13/13/13 30/30/30
f 30/30/30 13/13/13 54/54/54
f 41/41/41 44/44/44 20/20/20
f 41/41/41 20/20/20 40/40/40
f 2/2/2 1/1/1 9/9/9
f 55/55/55 23/23/23 22/22/22
f 55/55/55 22/22/22 58/58/58
f 58/58/58 22/22/22 56/56/56
f 57/57/57 56/56/56 22/22/22
f 57/57/57 22/22/22 21/21/21
f 21/21/21 22/22/22 23/23/23
f 1/1/1 5/5/5 6/6/6
