mtllib ./SnubSquareAntiPrism.mtl
g SnubSquareAntiPrism
v 0.374363 0.5065649 -0.3770992
v -0.375636 0.5067409 -0.3755952
v -0.374131 0.5087342 0.3744009
v 0.375868 0.5085582 0.3728969
v 0.642075 -0.1410643 -0.644316
v -0.001794 0.1367867 -0.9102682
v -0.644721 -0.1407643 -0.641735
v 0.644657 -0.1376448 0.6424751
v 0.909933 0.138992 -0.00219505
v -0.642138 -0.1373448 0.6450561
v 0.001857 0.1416223 0.909529
v -0.90987 0.139417 0.00145495
v -0.530445 -0.507526 0.002413182
v -0.00118 -0.5090593 -0.5289779
v 0.530213 -0.507773 0.0002851816
v 0.000949 -0.5062399 0.5316762
v -0.644721 -0.1407643 -0.641735
v -0.90987 0.139417 0.00145495
v -0.001794 0.1367867 -0.9102682
v -0.642138 -0.1373448 0.6450561
v 0.001857 0.1416223 0.909529
v 0.644657 -0.1376448 0.6424751
v 0.909933 0.138992 -0.00219505
v 0.642075 -0.1410643 -0.644316

vn 0.3189771 0.8912329 -0.3224247
vn -0.3900937 0.8336629 -0.390939
vn -0.3185695 0.8930799 0.3176826
vn 0.3904753 0.835551 0.3865021
vn 0.6087529 0.504334 -0.6124274
vn -0.001315798 0.6780372 -0.7350265
vn -0.6109692 0.5046183 -0.6099812
vn 0.6112004 0.5075749 0.6072906
vn 0.7333769 0.6798143 -0.003278141
vn -0.6085226 0.5078589 0.6097373
vn 0.001626082 0.6819341 0.7314121
vn -0.7330669 0.6801566 -0.0003362116
vn -0.4519232 -0.892051 0.003277995
vn -0.001295317 -0.8360705 -0.5486207
vn 0.4515166 -0.8922616 0.001465333
vn 0.0009152362 -0.8331432 0.5530567
vn -0.5196614 -0.6812425 -0.5156171
vn -0.8625896 -0.505895 0.003075808
vn -0.001845733 -0.5083879 -0.8611263
vn -0.5175804 -0.6784872 0.5213116
vn 0.001615154 -0.5038056 0.8638157
vn 0.5193512 -0.6787294 0.519231
vn 0.8623586 -0.5062979 -0.0003849636
vn 0.5172707 -0.6814843 -0.5176971

vt 0.604325 0.379587
vt 0.810189 0.208542
vt 0.89572 0.620236
vt 0.689855 0.791281
vt 0.500044 0.293467
vt 0.646257 0.000443
vt 0.853253 0
vt 0.646791 0.999823
vt 0.500266 0.707424
vt 1 0.706355
vt 0.853788 0.99938
vt 0.999779 0.292398
vt 0.395746 0.620199
vt 0.189917 0.791421
vt 0.104299 0.379801
vt 0.310127 0.208579
vt 0.353895 0.99938
vt 0.500044 0.70623
vt 0.146898 1
vt 0.499734 0.292273
vt 0.353146 0
vt 0.146149 0.00062
vt 0 0.293771
vt 0.00031 0.707727

usemtl unnamed
usemap unnamed
f 12/12/12 10/10/10 3/3/3
f 12/12/12 3/3/3 2/2/2
f 2/2/2 3/3/3 1/1/1
f 2/2/2 1/1/1 6/6/6
f 6/6/6 1/1/1 5/5/5
f 7/7/7 12/12/12 2/2/2
f 7/7/7 2/2/2 6/6/6
f 11/11/11 8/8/8 4/4/4
f 4/4/4 8/8/8 9/9/9
f 4/4/4 9/9/9 1/1/1
f 1/1/1 9/9/9 5/5/5
f 4/4/4 1/1/1 3/3/3
f 4/4/4 3/3/3 11/11/11
f 11/11/11 3/3/3 10/10/10
f 24/24/24 23/23/23 15/15/15
f 24/24/24 15/15/15 14/14/14
f 14/14/14 15/15/15 13/13/13
f 14/14/14 13/13/13 17/17/17
f 17/17/17 13/13/13 18/18/18
f 19/19/19 24/24/24 14/14/14
f 19/19/19 14/14/14 17/17/17
f 22/22/22 21/21/21 16/16/16
f 16/16/16 21/21/21 20/20/20
f 16/16/16 20/20/20 13/13/13
f 13/13/13 20/20/20 18/18/18
f 16/16/16 13/13/13 15/15/15
f 16/16/16 15/15/15 22/22/22
f 22/22/22 15/15/15 23/23/23
