mtllib ./SquareOrthoBiCupola.mtl
g SquareOrthoBiCupola
v -0.375038 0.5315342 0.3732539
v 0.374962 0.5315892 0.3732508
v 0.374959 0.5291209 -0.3767452
v -0.375041 0.529065 -0.3767422
v -0.905332 -0.001301134 -0.374994
v -0.905329 0.001167134 0.375002
v -0.375004 -0.003007324 -0.9053241
v 0.374996 -0.002952324 -0.9053271
v 0.905329 -0.001167134 -0.375002
v 0.905332 0.001301134 0.374994
v 0.375004 0.003007324 0.9053241
v -0.374996 0.002952324 0.9053271
v -0.374962 -0.5315892 -0.3732508
v 0.375038 -0.5315342 -0.3732539
v 0.375041 -0.529065 0.3767422
v -0.374959 -0.5291209 0.3767452
v -0.905332 -0.001301134 -0.374994
v -0.905329 0.001167134 0.375002
v -0.374996 0.002952324 0.9053271
v 0.375004 0.003007324 0.9053241
v 0.905332 0.001301134 0.374994
v 0.905329 -0.001167134 -0.375002
v 0.374996 -0.002952324 -0.9053271
v -0.375004 -0.003007324 -0.9053241

vn -0.2346519 0.8993012 0.3690476
vn 0.4482026 0.8489881 0.2798817
vn 0.2345189 0.8968869 -0.3749598
vn -0.4483283 0.847061 -0.2854641
vn -0.6786495 0.6776198 -0.2833134
vn -0.6953964 0.6958885 0.1793404
vn -0.1816812 0.6930403 -0.6976299
vn 0.2810317 0.6763818 -0.6808296
vn 0.6952932 0.6947962 -0.1839177
vn 0.6785489 0.6795706 0.2788467
vn 0.1815786 0.6976447 0.6930524
vn -0.2811321 0.6808075 0.6763624
vn -0.234522 -0.8993359 -0.3690456
vn 0.4483258 -0.8489219 -0.2798854
vn 0.2346546 -0.8968524 0.3749578
vn -0.4482 -0.8471275 0.285468
vn -0.6952946 -0.6959918 -0.1793345
vn -0.6785464 -0.6777202 0.2833198
vn -0.1815728 -0.693067 0.6976315
vn 0.2811374 -0.6763409 0.6808267
vn 0.6953979 -0.694693 0.1839117
vn 0.6786475 -0.6794695 -0.2788529
vn 0.1816756 -0.6976175 -0.6930542
vn -0.2810373 -0.6808494 -0.6763596

vt 0.249871 0.207214
vt 0.396393 0.499742
vt 0.250129 0.792786
vt 0.103607 0.500258
vt 0 0.29341
vt 0.146264 0.000366
vt 0.000183 0.707472
vt 0.146705 1
vt 0.353736 0.999634
vt 0.5 0.70659
vt 0.499817 0.292528
vt 0.353295 0
vt 0.603607 0.499741
vt 0.750129 0.207214
vt 0.896393 0.500259
vt 0.749871 0.792786
vt 0.5 0.70659
vt 0.646264 0.999634
vt 0.853295 1
vt 0.999817 0.707472
vt 1 0.29341
vt 0.853736 0.000366
vt 0.646705 0
vt 0.500183 0.292528

usemtl unnamed
usemap unnamed
f 10/10/10 9/9/9 2/2/2
f 2/2/2 9/9/9 3/3/3
f 2/2/2 3/3/3 1/1/1
f 1/1/1 3/3/3 4/4/4
f 1/1/1 4/4/4 6/6/6
f 6/6/6 4/4/4 5/5/5
f 9/9/9 8/8/8 3/3/3
f 3/3/3 8/8/8 7/7/7
f 3/3/3 7/7/7 4/4/4
f 4/4/4 7/7/7 5/5/5
f 6/6/6 12/12/12 1/1/1
f 1/1/1 12/12/12 11/11/11
f 1/1/1 11/11/11 2/2/2
f 2/2/2 11/11/11 10/10/10
f 22/22/22 21/21/21 14/14/14
f 14/14/14 21/21/21 15/15/15
f 14/14/14 15/15/15 13/13/13
f 13/13/13 15/15/15 16/16/16
f 13/13/13 16/16/16 17/17/17
f 17/17/17 16/16/16 18/18/18
f 21/21/21 20/20/20 15/15/15
f 15/15/15 20/20/20 19/19/19
f 15/15/15 19/19/19 16/16/16
f 16/16/16 19/19/19 18/18/18
f 17/17/17 24/24/24 13/13/13
f 13/13/13 24/24/24 23/23/23
f 13/13/13 23/23/23 14/14/14
f 14/14/14 23/23/23 22/22/22
