mtllib ./Tetrahedron.mtl
g Tetrahedron
v -0.214002 -0.1522741 -0.376767
v 0.432845 -0.15354 0.002821055
v -0.219312 -0.1534649 0.3732141
v 0.000469 0.4592791 0.0007328358
v 0.432845 -0.15354 0.002821055
v -0.214002 -0.1522741 -0.376767
v -0.214002 -0.1522741 -0.376767
v 0.000469 0.4592791 0.0007328358
v -0.219312 -0.1534649 0.3732141
v 0.432845 -0.15354 0.002821055
v -0.219312 -0.1534649 0.3732141
v 0.000469 0.4592791 0.0007328358

vn -0.001021035 -0.9999983 -0.001594916
vn -0.001021035 -0.9999983 -0.001594916
vn -0.001021035 -0.9999983 -0.001594916
vn 0.4775142 0.3341424 -0.8126065
vn 0.4775142 0.3341424 -0.8126065
vn 0.4775142 0.3341424 -0.8126065
vn -0.9424447 0.3343056 -0.006141903
vn -0.9424447 0.3343056 -0.006141903
vn -0.9424447 0.3343056 -0.006141903
vn 0.4659527 0.3315495 0.8203433
vn 0.4659527 0.3315495 0.8203433
vn 0.4659527 0.3315495 0.8203433

vt 0.499195 0
vt 0.500051 0.5
vt 0 0.250643
vt 0.999601 0.5
vt 0.999748 1
vt 0.500051 0.75011
vt 0.000324 0.749844
vt 0.499843 1
vt 0.500051 0.5
vt 0.999349 0
vt 0.500051 0.250489
vt 1 0.5

usemtl unnamed
usemap unnamed
f 1/1/1 2/2/2 3/3/3
f 5/5/5 6/6/6 4/4/4
f 7/7/7 9/9/9 8/8/8
f 10/10/10 12/12/12 11/11/11
