mtllib ./TrapezoidalHexeContahedron.mtl
g TrapezoidalHexeContahedron
v -0.639176 -0.3541726 1.180565
v -0.086051 -0.8446087 1.053975
v 0.220506 -0.5001456 1.211301
v 0.034509 -0.07204752 1.351017
v -0.820122 -0.8557949 0.6531814
v -0.378373 -1.049353 0.7222955
v -1.153242 -0.09014677 0.7025211
v -1.126203 -0.5206679 0.4760152
v -0.625051 0.3942354 1.133807
v -0.989508 0.3552863 0.8128119
v -0.157196 0.3679695 1.267244
v 0.699407 0.2284244 1.177442
v 0.680889 -0.5108107 1.052185
v 0.141888 0.7280335 1.132018
v 0.854631 0.7837474 0.6978368
v 0.4175 0.9676644 0.8095298
v 1.187752 0.01810024 0.648497
v 1.150385 0.4701812 0.4707039
v 1.028636 -0.4369758 0.7190123
v 0.488987 -1.11997 0.6589954
v -0.173742 -1.294558 0.3543485
v 1.067192 -0.7544619 0.3514533
v 0.539001 -1.238844 -0.07983357
v 0.929209 -0.9471421 -0.07424467
v 0.059629 -1.325612 -0.07221553
v -0.792228 -1.139494 -0.0405306
v -1.240934 -0.5400971 0.002895193
v -0.19507 -1.25003 -0.4806266
v -0.854631 -0.7837474 -0.6978368
v -0.4175 -0.9676644 -0.8095298
v -1.150385 -0.4701812 -0.4707039
v -1.373643 0.196833 0.04558394
v -1.045864 0.7099342 0.4835208
v -1.187752 -0.01810024 -0.648497
v -1.067192 0.7544619 -0.3514533
v -1.028636 0.4369758 -0.7190123
v -0.929209 0.9471421 0.07424467
v -0.451762 1.042253 0.7983327
v -0.539001 1.238844 0.07983357
v 0.19507 1.25003 0.4806266
v -0.059629 1.325612 0.07221553
v -0.488987 1.11997 -0.6589954
v 0.086051 0.8446087 -1.053975
v -0.220506 0.5001456 -1.211301
v -0.680889 0.5108107 -1.052185
v 0.173742 1.294558 -0.3543485
v 0.378373 1.049353 -0.7222955
v -0.699407 -0.2284244 -1.177442
v -0.034509 0.07204752 -1.351017
v 0.157196 -0.3679695 -1.267244
v -0.141888 -0.7280335 -1.132018
v 0.451762 -1.042253 -0.7983327
v 0.625051 -0.3942354 -1.133807
v 0.989508 -0.3552863 -0.8128119
v 1.045864 -0.7099342 -0.4835208
v 1.373643 -0.196833 -0.04558394
v 1.153242 0.09014677 -0.7025211
v 1.126203 0.5206679 -0.4760152
v 1.240934 0.5400971 -0.002895193
v 0.792228 1.139494 0.0405306
v 0.820122 0.8557949 -0.6531814
v 0.639176 0.3541726 -1.180565
v 0.699407 0.2284244 1.177442
v 0.141888 0.7280335 1.132018
v 1.187752 0.01810024 0.648497
v 0.488987 -1.11997 0.6589954
v 1.067192 -0.7544619 0.3514533
v -0.173742 -1.294558 0.3543485
v -1.126203 -0.5206679 0.4760152
v -0.820122 -0.8557949 0.6531814
v -0.378373 -1.049353 0.7222955
v -0.173742 -1.294558 0.3543485
v 0.059629 -1.325612 -0.07221553
v -0.989508 0.3552863 0.8128119
v -1.153242 -0.09014677 0.7025211
v -1.373643 0.196833 0.04558394
v -1.153242 -0.09014677 0.7025211
v -1.067192 0.7544619 -0.3514533
v -0.157196 0.3679695 1.267244
v -0.625051 0.3942354 1.133807
v 0.141888 0.7280335 1.132018
v 0.4175 0.9676644 0.8095298
v -0.488987 1.11997 -0.6589954
v 0.173742 1.294558 -0.3543485
v -1.028636 0.4369758 -0.7190123
v -1.067192 0.7544619 -0.3514533
v -1.187752 -0.01810024 -0.648497
v -0.699407 -0.2284244 -1.177442
v -0.141888 -0.7280335 -1.132018
v 0.157196 -0.3679695 -1.267244
v -0.141888 -0.7280335 -1.132018
v -0.4175 -0.9676644 -0.8095298
v -0.19507 -1.25003 -0.4806266
v 1.373643 -0.196833 -0.04558394
v 1.153242 0.09014677 -0.7025211
v 1.028636 -0.4369758 0.7190123
v 1.067192 -0.7544619 0.3514533
v 0.378373 1.049353 -0.7222955
v 0.173742 1.294558 -0.3543485
v 0.19507 1.25003 0.4806266
v -0.059629 1.325612 0.07221553
v 0.625051 -0.3942354 -1.133807
v 0.989508 -0.3552863 -0.8128119
v 1.153242 0.09014677 -0.7025211
v 1.126203 0.5206679 -0.4760152
v 0.820122 0.8557949 -0.6531814

vn -0.4603613 -0.2550893 0.8502924
vn -0.06358182 -0.6240754 0.7787731
vn 0.1659293 -0.3763558 0.9114954
vn 0.0254989 -0.05323509 0.9982565
vn -0.5656839 -0.4918319 0.6618937
vn -0.2069654 -0.7404318 0.6394734
vn -0.713738 -0.1515429 0.6838223
vn -0.7278895 -0.3545153 0.5869377
vn -0.4789862 0.06373908 0.8755053
vn -0.6633393 0.05912594 0.7459794
vn -0.06668561 0.1584986 0.9851047
vn 0.407995 -0.02060423 0.9127518
vn 0.5031036 -0.3774341 0.7774513
vn 0.1403228 0.2438351 0.9596114
vn 0.6314803 0.5791057 0.5156253
vn 0.4370388 0.6841341 0.5839159
vn 0.9183958 0.06531853 0.3902343
vn 0.8656564 0.3538084 0.3542013
vn 0.6854226 -0.3520336 0.6373917
vn 0.3030864 -0.6928694 0.6542712
vn -0.02866985 -0.8390898 0.5432371
vn 0.6357428 -0.5499146 0.5416872
vn 0.3982628 -0.9153728 -0.05898798
vn 0.6992228 -0.7127176 -0.05586836
vn 0.1769452 -0.9825736 -0.05691852
vn -0.570596 -0.8207121 -0.02919221
vn -0.9169163 -0.3990739 0.00213899
vn -0.336058 -0.9142332 -0.2263684
vn -0.6314803 -0.5791057 -0.5156253
vn -0.4370388 -0.6841341 -0.5839159
vn -0.8656564 -0.3538083 -0.3542013
vn -0.8971926 0.3774805 0.2292465
vn -0.7727808 0.524564 0.3572707
vn -0.9183958 -0.06531852 -0.3902343
vn -0.9071248 0.2667281 -0.3255467
vn -0.9071248 0.2667288 -0.3255464
vn -0.6992228 0.7127176 0.05586836
vn -0.3253778 0.7506748 0.574993
vn -0.3982628 0.9153728 0.05898799
vn -0.05549815 0.8836262 0.4648924
vn -0.1769452 0.9825736 0.05691851
vn -0.3030864 0.6928694 -0.6542712
vn 0.06358183 0.6240754 -0.778773
vn -0.1659293 0.3763557 -0.9114954
vn -0.5031036 0.3774341 -0.7774513
vn 0.02866985 0.8390898 -0.5432371
vn 0.2069654 0.7404318 -0.6394734
vn -0.407995 0.02060423 -0.9127517
vn -0.02549891 0.05323509 -0.9982565
vn 0.06668562 -0.1584986 -0.9851049
vn -0.1403228 -0.2438351 -0.9596114
vn 0.3253777 -0.7506748 -0.574993
vn 0.4199964 -0.5032722 -0.7551954
vn 0.7667161 -0.3671486 -0.5266387
vn 0.7727808 -0.5245641 -0.3572707
vn 0.9941909 0.02829672 0.1038453
vn 0.9531974 0.1854862 -0.2387671
vn 0.8865297 0.4006287 -0.2314343
vn 0.9169163 0.3990739 -0.00213899
vn 0.570596 0.820712 0.0291922
vn 0.6138579 0.7390181 -0.2775444
vn 0.4603613 0.2550893 -0.8502923
vn 0.5999791 0.420231 0.6807576
vn 0.4117033 0.5270203 0.7434717
vn 0.7002924 -0.1362757 0.7007279
vn 0.3934675 -0.9031164 0.1719425
vn 0.7433583 -0.666146 0.06056479
vn 0.1781625 -0.9695442 0.1680551
vn -0.8865296 -0.4006287 0.2314343
vn -0.6138579 -0.7390181 0.2775444
vn -0.4217016 -0.8450797 0.3286462
vn -0.326579 -0.9340232 0.1447309
vn -0.2148703 -0.9755335 -0.04653493
vn -0.7667161 0.3671486 0.5266387
vn -0.8886478 0.2281541 0.3978075
vn -0.9941909 -0.02829671 -0.1038453
vn -0.9531974 -0.1854862 0.2387671
vn -0.7433583 0.666146 -0.0605648
vn -0.2128157 0.4934884 0.8433143
vn -0.4199964 0.5032722 0.7551954
vn -0.07913385 0.6516275 0.7544003
vn 0.05856557 0.7766739 0.6271745
vn -0.3934676 0.9031164 -0.1719425
vn -0.1781625 0.9695442 -0.1680551
vn -0.6854225 0.3520336 -0.6373917
vn -0.6357429 0.5499146 -0.5416872
vn -0.7002924 0.1362757 -0.7007279
vn -0.5999791 -0.420231 -0.6807576
vn -0.4117033 -0.5270203 -0.7434717
vn 0.2128157 -0.4934884 -0.8433143
vn 0.07913385 -0.6516275 -0.7544003
vn -0.05856557 -0.7766739 -0.6271745
vn 0.05549816 -0.8836262 -0.4648924
vn 0.8971925 -0.3774805 -0.2292465
vn 0.8886478 -0.2281541 -0.3978075
vn 0.9071248 -0.2667288 0.3255464
vn 0.9071248 -0.2667281 0.3255467
vn 0.4217016 0.8450797 -0.3286462
vn 0.326579 0.9340232 -0.1447309
vn 0.336058 0.9142332 0.2263684
vn 0.2148703 0.9755335 0.04653493
vn 0.4789862 -0.06373908 -0.8755053
vn 0.6633393 -0.05912594 -0.7459794
vn 0.713738 0.1515429 -0.6838223
vn 0.7278895 0.3545152 -0.5869377
vn 0.5656839 0.4918319 -0.6618937

vt 0.221367 0.391922
vt 0.102348 0.318305
vt 0.143777 0.221742
vt 0.229662 0.222684
vt 0.126873 0.487934
vt 0.071748 0.407615
vt 0.269343 0.49715
vt 0.18877 0.53294
vt 0.33287 0.333217
vt 0.333122 0.424523
vt 0.305315 0.232192
vt 0.222208 0.066632
vt 0.10283 0.13193
vt 0.333352 0.146842
vt 0.563003 0.84326
vt 0.638665 0.833871
vt 0.436085 0.933814
vt 0.477118 0.844067
vt 0.072632 0.065697
vt 0 0.233524
vt 4.1E-05 0.39718
vt 0.00082 0.095621
vt 0.769058 0.747483
vt 0.810425 0.84409
vt 0.738517 0.658141
vt 0.111834 0.67401
vt 0.230923 0.74744
vt 0.000387 0.73289
vt 0.103701 0.84326
vt 0.028039 0.833871
vt 0.189586 0.844067
vt 0.7779 0.53294
vt 0.770346 0.376896
vt 0.230619 0.933814
vt 0.332663 0.969964
vt 0.26088 1
vt 0.85623 0.377747
vt 0.778531 0.20765
vt 0.897597 0.28114
vt 0.872963 0.111537
vt 0.928139 0.191797
vt 0.666704 0.233524
vt 0.564356 0.318305
vt 0.522927 0.221742
vt 0.563874 0.13193
vt 0.666663 0.39718
vt 0.594956 0.407615
vt 0.444497 0.066632
vt 0.437043 0.222684
vt 0.361389 0.232192
vt 0.333352 0.146842
vt 0.888125 0.673993
vt 0.99959 0.732817
vt 0.97197 0.833812
vt 0.89631 0.84324
vt 0.333352 0.832059
vt 0.333549 0.668403
vt 0.405266 0.658081
vt 0.435781 0.74744
vt 0.55487 0.67401
vt 0.460467 0.577849
vt 0.445337 0.391922
vt 0.5554 0.9993
vt 0.666621 0.919265
vt 0.128134 0
vt 0.666656 0.832155
vt 0.76942 0.933858
vt 0.666802 0.668499
vt 0.261438 0.658081
vt 0.206237 0.577849
vt 0.144297 0.53294
vt 0.063758 0.568857
vt 4.8E-05 0.641584
vt 0.694686 0.367469
vt 0.666704 0.452848
vt 0.333352 0.832059
vt 0.333155 0.668403
vt 0.897236 0.467515
vt 0.666755 0.175168
vt 0.667065 0.266474
vt 0.730486 0.102473
vt 0.811037 0.066597
vt 1 0.365812
vt 0.999853 0.202156
vt 0.594072 0.065697
vt 0.665884 0.095621
vt 0.53857 0
vt 0.111304 0.9993
vt 8.3E-05 0.919265
vt 0.999901 0.641511
vt 0.936169 0.568816
vt 0.855619 0.53294
vt 0.793693 0.57788
vt 0.888755 0.999283
vt 0.999952 0.919192
vt 0.405824 1
vt 0.334041 0.969964
vt 0.522407 0.53294
vt 0.602947 0.568857
vt 0.666317 0.73289
vt 0.666656 0.641584
vt 0.333834 0.333217
vt 0.333582 0.424523
vt 0.397361 0.49715
vt 0.477934 0.53294
vt 0.539831 0.487934

usemtl unnamed
usemap unnamed
f 21/21/21 20/20/20 6/6/6
f 6/6/6 20/20/20 2/2/2
f 6/6/6 2/2/2 1/1/1
f 1/1/1 2/2/2 3/3/3
f 1/1/1 3/3/3 4/4/4
f 4/4/4 3/3/3 12/12/12
f 4/4/4 12/12/12 11/11/11
f 11/11/11 12/12/12 14/14/14
f 57/57/57 58/58/58 56/56/56
f 56/56/56 58/58/58 59/59/59
f 56/56/56 59/59/59 18/18/18
f 18/18/18 59/59/59 60/60/60
f 18/18/18 60/60/60 15/15/15
f 15/15/15 60/60/60 16/16/16
f 15/15/15 16/16/16 63/63/63
f 63/63/63 16/16/16 64/64/64
f 3/3/3 2/2/2 20/20/20
f 3/3/3 20/20/20 13/13/13
f 13/13/13 20/20/20 19/19/19
f 13/13/13 19/19/19 12/12/12
f 12/12/12 19/19/19 65/65/65
f 20/20/20 22/22/22 19/19/19
f 95/95/95 94/94/94 54/54/54
f 54/54/54 94/94/94 55/55/55
f 54/54/54 55/55/55 52/52/52
f 52/52/52 55/55/55 24/24/24
f 52/52/52 24/24/24 23/23/23
f 23/23/23 24/24/24 66/66/66
f 23/23/23 66/66/66 25/25/25
f 25/25/25 66/66/66 68/68/68
f 84/84/84 83/83/83 41/41/41
f 41/41/41 83/83/83 39/39/39
f 41/41/41 39/39/39 38/38/38
f 38/38/38 39/39/39 37/37/37
f 38/38/38 37/37/37 33/33/33
f 33/33/33 37/37/37 32/32/32
f 33/33/33 32/32/32 74/74/74
f 74/74/74 32/32/32 75/75/75
f 89/89/89 30/30/30 88/88/88
f 88/88/88 30/30/30 29/29/29
f 88/88/88 29/29/29 31/31/31
f 31/31/31 29/29/29 26/26/26
f 31/31/31 26/26/26 27/27/27
f 27/27/27 26/26/26 69/69/69
f 27/27/27 69/69/69 76/76/76
f 76/76/76 69/69/69 77/77/77
f 88/88/88 31/31/31 34/34/34
f 34/34/34 31/31/31 76/76/76
f 34/34/34 76/76/76 36/36/36
f 36/36/36 76/76/76 35/35/35
f 51/51/51 48/48/48 50/50/50
f 50/50/50 48/48/48 49/49/49
f 50/50/50 49/49/49 62/62/62
f 62/62/62 49/49/49 44/44/44
f 62/62/62 44/44/44 43/43/43
f 43/43/43 44/44/44 42/42/42
f 43/43/43 42/42/42 47/47/47
f 47/47/47 42/42/42 46/46/46
f 44/44/44 49/49/49 48/48/48
f 44/44/44 48/48/48 45/45/45
f 45/45/45 48/48/48 85/85/85
f 45/45/45 85/85/85 42/42/42
f 42/42/42 85/85/85 86/86/86
f 48/48/48 87/87/87 85/85/85
f 96/96/96 97/97/97 56/56/56
f 96/96/96 56/56/56 17/17/17
f 17/17/17 56/56/56 18/18/18
f 17/17/17 18/18/18 63/63/63
f 63/63/63 18/18/18 15/15/15
f 5/5/5 6/6/6 1/1/1
f 5/5/5 1/1/1 8/8/8
f 8/8/8 1/1/1 7/7/7
f 10/10/10 7/7/7 1/1/1
f 10/10/10 1/1/1 9/9/9
f 9/9/9 1/1/1 11/11/11
f 67/67/67 66/66/66 24/24/24
f 67/67/67 24/24/24 94/94/94
f 94/94/94 24/24/24 55/55/55
f 70/70/70 69/69/69 26/26/26
f 70/70/70 26/26/26 71/71/71
f 71/71/71 26/26/26 72/72/72
f 73/73/73 72/72/72 26/26/26
f 73/73/73 26/26/26 28/28/28
f 28/28/28 26/26/26 30/30/30
f 78/78/78 32/32/32 37/37/37
f 78/78/78 37/37/37 83/83/83
f 83/83/83 37/37/37 39/39/39
f 81/81/81 82/82/82 38/38/38
f 81/81/81 38/38/38 79/79/79
f 79/79/79 38/38/38 80/80/80
f 74/74/74 80/80/80 38/38/38
f 74/74/74 38/38/38 33/33/33
f 40/40/40 41/41/41 38/38/38
f 40/40/40 38/38/38 82/82/82
f 53/53/53 54/54/54 52/52/52
f 53/53/53 52/52/52 90/90/90
f 90/90/90 52/52/52 91/91/91
f 92/92/92 91/91/91 52/52/52
f 92/92/92 52/52/52 93/93/93
f 93/93/93 52/52/52 25/25/25
f 99/99/99 101/101/101 60/60/60
f 99/99/99 60/60/60 98/98/98
f 98/98/98 60/60/60 61/61/61
f 58/58/58 61/61/61 60/60/60
f 58/58/58 60/60/60 59/59/59
f 100/100/100 16/16/16 60/60/60
f 100/100/100 60/60/60 101/101/101
f 102/102/102 50/50/50 62/62/62
f 102/102/102 62/62/62 103/103/103
f 103/103/103 62/62/62 104/104/104
f 105/105/105 104/104/104 62/62/62
f 105/105/105 62/62/62 106/106/106
f 106/106/106 62/62/62 47/47/47
f 1/1/1 4/4/4 11/11/11
f 12/12/12 3/3/3 13/13/13
f 26/26/26 29/29/29 30/30/30
f 76/76/76 31/31/31 27/27/27
f 42/42/42 44/44/44 45/45/45
f 52/52/52 23/23/23 25/25/25
f 62/62/62 43/43/43 47/47/47
