mtllib ./TriangularPrism.mtl
g TriangularPrism
v 0.375 -0.2165059 0.3750001
v 0 0.4330132 0.3749999
v -0.375 -0.2165059 0.3750001
v -0.375 -0.2165062 -0.375
v 0 0.4330129 -0.3750002
v 0.375 -0.2165062 -0.375
v 0 0.4330129 -0.3750002
v -0.375 -0.2165059 0.3750001
v -0.375 -0.2165062 -0.375
v 0 0.4330132 0.3749999
v 0.375 -0.2165059 0.3750001
v -0.375 -0.2165062 -0.375
v -0.375 -0.2165059 0.3750001
v 0.375 -0.2165062 -0.375
v 0 0.4330132 0.3749999
v 0.375 -0.2165062 -0.375
v 0.375 -0.2165059 0.3750001
v 0 0.4330129 -0.3750002

vn 0 3.576278E-07 1
vn 0 3.576278E-07 1
vn 0 3.576278E-07 1
vn 0 -3.576278E-07 -1
vn 0 -3.576278E-07 -1
vn 0 -3.576278E-07 -1
vn -0.8660253 0.5000001 -1.78814E-07
vn -0.8660253 0.5000001 -1.78814E-07
vn -0.8660253 0.5000001 -1.78814E-07
vn -0.8660253 0.5000001 -1.78814E-07
vn 0 -1 3.576279E-07
vn 0 -1 3.576279E-07
vn 0 -1 3.576279E-07
vn 0 -1 3.576279E-07
vn 0.8660253 0.5000001 -1.78814E-07
vn 0.8660253 0.5000001 -1.78814E-07
vn 0.8660253 0.5000001 -1.78814E-07
vn 0.8660253 0.5000001 -1.78814E-07

vt 0.999626 0.5
vt 1 0.998473
vt 0.683299 0.749678
vt 0.682926 0.5
vt 0.683299 0.998473
vt 0.366599 0.749678
vt 0.733197 0.498471
vt 0.366599 0.001529
vt 0.36772 0.5
vt 0.732076 0
vt 0.001121 0.5
vt 0.365477 0
vt 0 0.001529
vt 0.366599 0.498471
vt 0.366599 0.998471
vt 0 0.501529
vt 0.001121 1
vt 0.365477 0.5

usemtl unnamed
usemap unnamed
f 1/1/1 2/2/2 3/3/3
f 4/4/4 5/5/5 6/6/6
f 7/7/7 9/9/9 8/8/8
f 7/7/7 8/8/8 10/10/10
f 11/11/11 13/13/13 12/12/12
f 11/11/11 12/12/12 14/14/14
f 15/15/15 17/17/17 16/16/16
f 15/15/15 16/16/16 18/18/18
