mtllib ./TriangularCupola.mtl
g TriangularCupola
v -0.749939 -0.204344 -0.001354927
v -0.374226 -0.2025463 -0.650459
v 0.375774 -0.2023263 -0.649634
v 0.75006 -0.203903 0.000294073
v 0.374347 -0.2057008 0.6493992
v -0.375653 -0.2059208 0.6485742
v -0.374883 0.408699 -0.2158572
v -0.000597 0.4071222 0.4340709
v 0.375117 0.408919 -0.2150332
v 0.375117 0.408919 -0.2150332
v -0.374226 -0.2025463 -0.650459
v 0.375774 -0.2023263 -0.649634
v -0.374883 0.408699 -0.2158572
v 0.375774 -0.2023263 -0.649634
v 0.75006 -0.203903 0.000294073
v 0.374347 -0.2057008 0.6493992
v -0.375653 -0.2059208 0.6485742
v -0.375653 -0.2059208 0.6485742
v -0.000597 0.4071222 0.4340709
v -0.000597 0.4071222 0.4340709
v -0.000597 0.4071222 0.4340709
v -0.749939 -0.204344 -0.001354927

vn 0.0002966335 -0.9999967 -0.00259739
vn 0.0002961917 -0.9999967 -0.00259817
vn 0.0002966335 -0.9999967 -0.002597403
vn 0.0002968549 -0.9999967 -0.00259739
vn 0.0002966335 -0.9999967 -0.002597376
vn 0.0002961899 -0.9999967 -0.00259661
vn -0.0002961865 0.9999967 0.002596658
vn -0.0002961865 0.9999967 0.002596658
vn 0.6322253 0.7747801 0.002707076
vn 0.00072599 0.5794693 -0.8149939
vn -0.2714667 0.5575148 -0.7845274
vn 0.0007265479 0.5794688 -0.8149941
vn -0.7171875 0.6832758 -0.1370268
vn 0.816915 0.3347961 -0.4696397
vn 0.8161584 0.5553855 0.1594751
vn 0.4254347 0.520439 0.7403708
vn -0.001135082 0.3308841 0.9436709
vn -0.7077262 0.5760802 0.4089687
vn -0.7077259 0.5760804 0.4089688
vn 0.7064864 0.5764959 0.4105235
vn -0.001135082 0.3308841 0.9436709
vn -0.8529572 0.5219808 0.0004189721

vt 0.550489 0.146433
vt 0.550497 0.439312
vt 0.275257 0.585759
vt 9E-06 0.439326
vt 0 0.146447
vt 0.27524 0
vt 1 0.999944
vt 0.775264 0.999972
vt 0.99997 0.792847
vt 0.919267 0.437889
vt 0.552281 0.439787
vt 0.644919 0.58575
vt 0.826629 0.291926
vt 0.999939 0.58575
vt 0.775203 0.585778
vt 0.550497 0.792903
vt 0.550528 1
vt 0.641353 0
vt 0.917484 0.145014
vt 0.775264 0.999972
vt 0.775264 0.999972
vt 0.550497 0.146912

usemtl unnamed
usemap unnamed
f 7/7/7 8/8/8 9/9/9
f 21/21/21 17/17/17 16/16/16
f 4/4/4 5/5/5 1/1/1
f 4/4/4 1/1/1 3/3/3
f 3/3/3 1/1/1 2/2/2
f 1/1/1 5/5/5 6/6/6
f 22/22/22 18/18/18 13/13/13
f 22/22/22 13/13/13 11/11/11
f 11/11/11 13/13/13 10/10/10
f 11/11/11 10/10/10 12/12/12
f 20/20/20 16/16/16 15/15/15
f 20/20/20 15/15/15 9/9/9
f 9/9/9 15/15/15 14/14/14
f 13/13/13 18/18/18 19/19/19
