mtllib ./TriaKisIcosahedron.mtl
g TriaKisIcosahedron
v 0.350812 -0.3536739 0.3516002
v 0.607273 -0.002874867 0.3741631
v -0.000974 -0.3749038 0.6068212
v 0.372064 -0.6085671 -0.0004217824
v 0.21835 -0.0009647965 0.5692971
v 0.002649 0.3750873 0.6067029
v -0.216778 0.001137204 0.5698971
v -0.606238 0.002988135 0.375836
v -0.353241 -0.3502729 0.3525712
v -0.377926 -0.6049441 0.0006132164
v -0.002451 -0.569558 0.2176572
v 0.353241 0.3502729 -0.3525712
v 0.606238 -0.002988135 -0.375836
v 0.000974 0.3749038 -0.6068212
v 0.377926 0.6049441 -0.0006132164
v 0.002451 0.569558 -0.2176572
v -0.372064 0.6085671 0.0004217824
v -0.350812 0.3536739 -0.3516002
v -0.607273 0.002874867 -0.3741631
v -0.21835 0.0009647965 -0.5692971
v -0.002649 -0.3750873 -0.6067029
v 0.216778 -0.001137204 -0.5698971
v 0.56854 -0.220316 -0.0007509213
v 0.570642 0.214813 -0.0008200769
v 0.354213 0.3503792 0.3514899
v 0.003052 0.5696241 0.2174768
v -0.34984 0.3537812 0.3524609
v -0.56854 0.220316 0.0007509213
v -0.570642 -0.214813 0.0008200769
v -0.354213 -0.3503792 -0.3514899
v -0.003052 -0.5696241 -0.2174768
v 0.34984 -0.3537812 -0.3524609
v 0.350812 -0.3536739 0.3516002
v 0.607273 -0.002874867 0.3741631
v 0.350812 -0.3536739 0.3516002
v 0.372064 -0.6085671 -0.0004217824
v -0.000974 -0.3749038 0.6068212
v -0.606238 0.002988135 0.375836
v -0.350812 0.3536739 -0.3516002
v -0.372064 0.6085671 0.0004217824
v -0.350812 0.3536739 -0.3516002
v -0.607273 0.002874867 -0.3741631
v 0.000974 0.3749038 -0.6068212
v 0.606238 -0.002988135 -0.375836
v 0.606238 -0.002988135 -0.375836
v 0.377926 0.6049441 -0.0006132164
v 0.377926 0.6049441 -0.0006132164
v 0.002649 0.3750873 0.6067029
v 0.002649 0.3750873 0.6067029
v -0.606238 0.002988135 0.375836
v -0.377926 -0.6049441 0.0006132164
v -0.377926 -0.6049441 0.0006132164
v -0.002649 -0.3750873 -0.6067029
v -0.002649 -0.3750873 -0.6067029

vn 0.5437413 -0.4433496 0.7125915
vn 0.5919482 0.1170703 0.7974284
vn 0.1203248 -0.1713941 0.9778274
vn 0.7952342 -0.5941442 -0.1208105
vn 0.3581061 -0.001582661 0.9336796
vn 0.1885283 0.2803683 0.9411966
vn -0.3555286 0.001864874 0.9346638
vn -0.4459732 0.002295537 0.8950434
vn -0.5793351 -0.5744672 0.5782375
vn -0.2854152 -0.9401008 0.1864107
vn -0.00401982 -0.9341077 0.3569693
vn 0.5793351 0.5744672 -0.5782375
vn 0.6397956 0.496823 -0.586369
vn 0.122843 0.7975845 -0.5905666
vn 0.2854152 0.9401008 -0.1864107
vn 0.004019804 0.9341077 -0.3569692
vn -0.1664044 0.9787627 -0.1197216
vn -0.4381292 0.7153143 -0.5443974
vn -0.9776111 0.1245001 -0.1696351
vn -0.3581061 0.001582653 -0.9336796
vn -0.1885283 -0.2803683 -0.9411966
vn 0.3555286 -0.001864874 -0.9346638
vn 0.9324365 -0.3613319 -0.001232162
vn 0.935884 0.352306 -0.001344697
vn 0.5809286 0.5746424 0.576462
vn 0.005005172 0.9342155 0.3566744
vn -0.5737569 0.5802203 0.5780552
vn -0.9324365 0.3613319 0.001232166
vn -0.935884 -0.352306 0.001344709
vn -0.5809286 -0.5746424 -0.5764619
vn -0.005005172 -0.9342155 -0.3566744
vn 0.5737569 -0.5802203 -0.5780552
vn 0.7112414 -0.5482677 0.43993
vn 0.9776112 -0.1245001 0.1696351
vn 0.4381292 -0.7153143 0.5443974
vn 0.1664044 -0.9787627 0.1197216
vn -0.122843 -0.7975845 0.5905666
vn -0.6397956 -0.496823 0.586369
vn -0.7112414 0.5482677 -0.43993
vn -0.7952343 0.5941442 0.1208105
vn -0.5437413 0.4433496 -0.7125915
vn -0.5919482 -0.1170704 -0.7974284
vn -0.1203248 0.171394 -0.9778274
vn 0.4459732 -0.002295542 -0.8950434
vn 0.9402001 -0.1904625 -0.2823967
vn 0.8965755 0.442889 -0.001304134
vn 0.5891756 0.6354377 0.4990903
vn 0.004937994 0.8944843 0.4470723
vn -0.4962835 0.5879155 0.6387943
vn -0.9402001 0.1904625 0.2823967
vn -0.8965755 -0.442889 0.001304151
vn -0.5891756 -0.6354377 -0.4990903
vn -0.004937994 -0.8944843 -0.4470723
vn 0.4962835 -0.5879155 -0.6387943

vt 0.666682 0.763538
vt 0.727174 0.596917
vt 0.751703 0.905908
vt 0.418407 0.59417
vt 0.824959 0.741448
vt 0.999943 0.727345
vt 0.922744 0.885978
vt 0.999882 0.999991
vt 0.410898 0.385872
vt 0.333414 0.227388
vt 0.508424 0.241155
vt 0.232882 0.403982
vt 0.293271 0.49992
vt 0.06034 0.402811
vt 0.333228 0.272646
vt 0.158256 0.258375
vt 0.08515 0.093844
vt 0 0.236132
vt 0.27289 0.903053
vt 0.841723 0.241414
vt 0.666739 0.227312
vt 0.743938 0.385945
vt 0.491695 0.758615
vt 0.566483 0.904133
vt 0.899717 0.595913
vt 0.256173 0.113939
vt 0.077377 0.61395
vt 0.175133 0.758501
vt 0.100346 0.90402
vt 0.766966 0.09588
vt 0.433404 0.095764
vt 0.589452 0.614063
vt 0.333414 0.736558
vt 0.393939 0.903166
vt 0.666739 0.262944
vt 0.605949 0.096438
vt 0.581974 0.405476
vt 0.333965 0.500033
vt 0.333414 0.736444
vt 0.248422 0.594056
vt 1 0.263505
vt 0.939509 0.096884
vt 0.914979 0.405875
vt 0.6668 0.499958
vt 0.666682 0.772679
vt 0.626978 1
vt 0.960192 0.500033
vt 0.333414 0
vt 0.000262 0.49992
vt 0.000147 0.772566
vt 0.039851 0.999886
vt 0.70649 0
vt 0.372756 0
vt 0.666567 0.500033

usemtl unnamed
usemap unnamed
f 3/3/3 1/1/1 2/2/2
f 3/3/3 2/2/2 5/5/5
f 5/5/5 2/2/2 6/6/6
f 5/5/5 6/6/6 3/3/3
f 3/3/3 6/6/6 7/7/7
f 3/3/3 7/7/7 8/8/8
f 8/8/8 7/7/7 6/6/6
f 34/34/34 33/33/33 4/4/4
f 34/34/34 4/4/4 23/23/23
f 23/23/23 4/4/4 45/45/45
f 23/23/23 45/45/45 34/34/34
f 34/34/34 45/45/45 24/24/24
f 34/34/34 24/24/24 46/46/46
f 46/46/46 24/24/24 45/45/45
f 36/36/36 35/35/35 37/37/37
f 36/36/36 37/37/37 11/11/11
f 11/11/11 37/37/37 10/10/10
f 11/11/11 10/10/10 36/36/36
f 36/36/36 10/10/10 31/31/31
f 36/36/36 31/31/31 53/53/53
f 53/53/53 31/31/31 10/10/10
f 14/14/14 18/18/18 17/17/17
f 14/14/14 17/17/17 16/16/16
f 16/16/16 17/17/17 15/15/15
f 16/16/16 15/15/15 14/14/14
f 14/14/14 15/15/15 12/12/12
f 14/14/14 12/12/12 13/13/13
f 13/13/13 12/12/12 15/15/15
f 40/40/40 39/39/39 19/19/19
f 40/40/40 19/19/19 28/28/28
f 28/28/28 19/19/19 50/50/50
f 28/28/28 50/50/50 40/40/40
f 40/40/40 50/50/50 27/27/27
f 40/40/40 27/27/27 49/49/49
f 49/49/49 27/27/27 50/50/50
f 42/42/42 41/41/41 43/43/43
f 42/42/42 43/43/43 20/20/20
f 20/20/20 43/43/43 21/21/21
f 20/20/20 21/21/21 42/42/42
f 42/42/42 21/21/21 30/30/30
f 42/42/42 30/30/30 52/52/52
f 52/52/52 30/30/30 21/21/21
f 37/37/37 38/38/38 9/9/9
f 37/37/37 9/9/9 10/10/10
f 10/10/10 9/9/9 38/38/38
f 43/43/43 44/44/44 22/22/22
f 43/43/43 22/22/22 21/21/21
f 21/21/21 22/22/22 44/44/44
f 6/6/6 2/2/2 25/25/25
f 6/6/6 25/25/25 47/47/47
f 47/47/47 25/25/25 2/2/2
f 15/15/15 17/17/17 26/26/26
f 15/15/15 26/26/26 48/48/48
f 48/48/48 26/26/26 17/17/17
f 19/19/19 51/51/51 29/29/29
f 19/19/19 29/29/29 50/50/50
f 50/50/50 29/29/29 51/51/51
f 4/4/4 54/54/54 32/32/32
f 4/4/4 32/32/32 45/45/45
f 45/45/45 32/32/32 54/54/54
