mtllib ./TriAugmentedTruncatedDodecahedron.mtl
g TriAugmentedTruncatedDodecahedron
v 0.90375 -1.876139 1.020725
v 1.199259 -1.875951 0.3313957
v 1.617319 -1.480328 -0.1494445
v 1.998246 -0.8403832 -0.2381327
v 2.196538 -0.200554 0.09920808
v 2.136455 0.1947663 0.733725
v 1.840946 0.1945795 1.423054
v 1.422885 -0.2010444 1.903895
v 1.041959 -0.8409884 1.992583
v 0.843666 -1.480818 1.655242
v 1.033161 -1.87844 -0.3999764
v -1.217747 -1.889961 0.1112537
v -0.922238 -1.889774 -0.5780744
v -0.277996 -1.886984 -0.9620605
v 0.4689 -1.882654 -0.8940324
v 0.259508 -1.87893 1.40471
v -0.487388 -1.883259 1.336683
v -1.051649 -1.887473 0.8426268
v 0.140065 -1.49136 -1.442901
v -1.176755 -0.2151693 2.109782
v -1.375047 -0.8549985 1.772442
v -1.111732 -1.492153 1.477144
v 0.778643 -0.2038352 2.28788
v 0.154299 0.1872719 2.428341
v -0.592597 0.1829419 2.360313
v 0.238584 1.855851 1.396755
v -0.179476 1.460228 1.877595
v -0.21167 0.8228869 2.271626
v 1.87314 0.8319195 1.029023
v 1.507171 1.467535 0.8723076
v 0.882826 1.858643 1.012768
v 1.072321 1.46102 -1.04245
v 1.012237 1.856341 -0.4079327
v 1.178335 1.858829 0.3234394
v 2.03044 -0.2030433 -0.632164
v 1.701605 0.1882516 -1.181032
v 1.335636 0.8238667 -1.337747
v 1.137344 0.1840374 -1.675088
v -2.037658 0.8092514 0.6728268
v -1.656731 1.449196 0.5841385
v -1.238671 1.844819 0.1032984
v -0.943162 1.845006 -0.5860307
v -0.883078 1.449686 -1.220548
v -1.08137 0.8098565 -1.557889
v -1.462297 0.1699115 -1.469201
v -1.880357 -0.2257114 -0.9883611
v -2.175866 -0.2258991 -0.2990319
v -2.23595 0.1694221 0.335485
v -1.072573 1.847307 0.8346705
v -0.508312 1.851522 1.328727
v -2.069852 0.1719104 1.066858
v -1.741017 -0.2193834 1.615726
v -1.912551 -0.8630523 -0.5943298
v -1.546582 -1.498667 -0.4376145
v -0.818055 0.1727034 -1.853186
v 0.553185 -0.2140747 -1.92562
v -0.19371 -0.2184037 -1.993647
v -0.29892 1.847798 -0.9700168
v 0.447976 1.852127 -0.9019888
v 0.172259 -0.8540198 -1.836932
v -0.618744 2.242295 -0.03884281
v -0.452646 2.244783 0.6925293
v 0.29425 2.249114 0.7605573
v 0.589759 2.2493 0.07122821
v 0.025498 2.245086 -0.4228279
v -1.492595 -0.5773606 -1.525467
v -0.848353 -0.5745698 -1.909452
v -0.482384 -1.210185 -1.752737
v -0.900444 -1.605809 -1.271896
v -1.524789 -1.214702 -1.131436
v 1.717965 -1.195904 -0.8360847
v 1.133806 -1.594017 -1.086617
v 0.804971 -1.202723 -1.635485
v 1.185898 -0.5627776 -1.724172
v 1.750159 -0.5585645 -1.230116
v 1.033161 -1.87844 -0.3999764
v 1.199259 -1.875951 0.3313957
v 0.90375 -1.876139 1.020725
v -0.277996 -1.886984 -0.9620605
v 0.4689 -1.882654 -0.8940324
v 0.259508 -1.87893 1.40471
v 0.843666 -1.480818 1.655242
v 1.041959 -0.8409884 1.992583
v 0.778643 -0.2038352 2.28788
v 1.422885 -0.2010444 1.903895
v 1.041959 -0.8409884 1.992583
v 0.154299 0.1872719 2.428341
v 1.840946 0.1945795 1.423054
v -0.592597 0.1829419 2.360313
v 2.136455 0.1947663 0.733725
v 1.507171 1.467535 0.8723076
v 1.87314 0.8319195 1.029023
v 2.136455 0.1947663 0.733725
v 2.196538 -0.200554 0.09920808
v 1.178335 1.858829 0.3234394
v 2.03044 -0.2030433 -0.632164
v -0.592597 0.1829419 2.360313
v -0.179476 1.460228 1.877595
v -0.21167 0.8228869 2.271626
v -1.176755 -0.2151693 2.109782
v -0.508312 1.851522 1.328727
v -1.741017 -0.2193834 1.615726
v -2.069852 0.1719104 1.066858
v -2.23595 0.1694221 0.335485
v -2.175866 -0.2258991 -0.2990319
v -1.912551 -0.8630523 -0.5943298
v -1.880357 -0.2257114 -0.9883611
v -2.175866 -0.2258991 -0.2990319
v -0.922238 -1.889774 -0.5780744
v -1.546582 -1.498667 -0.4376145
v -1.217747 -1.889961 0.1112537
v -1.08137 0.8098565 -1.557889
v -1.462297 0.1699115 -1.469201
v -0.818055 0.1727034 -1.853186
v -1.08137 0.8098565 -1.557889
v -0.883078 1.449686 -1.220548
v 0.553185 -0.2140747 -1.92562
v -0.19371 -0.2184037 -1.993647
v -0.29892 1.847798 -0.9700168
v 0.025498 2.245086 -0.4228279
v -0.618744 2.242295 -0.03884281
v 0.882826 1.858643 1.012768
v 0.29425 2.249114 0.7605573
v -0.452646 2.244783 0.6925293
v -0.452646 2.244783 0.6925293
v -1.492595 -0.5773606 -1.525467
v 1.701605 0.1882516 -1.181032
v 1.185898 -0.5627776 -1.724172
v 1.750159 -0.5585645 -1.230116
v 0.804971 -1.202723 -1.635485
v 1.185898 -0.5627776 -1.724172
v 1.133806 -1.594017 -1.086617
v 0.4689 -1.882654 -0.8940324

vn 0.8058169 -0.465339 0.3662224
vn 0.7254789 -0.6849566 0.06719317
vn 0.7854369 -0.6146762 0.07254101
vn 0.9184378 -0.3880589 0.07669669
vn 0.8635549 -0.4170622 0.2834293
vn 0.824563 -0.4418494 0.3533626
vn 0.8245628 -0.4418493 0.3533631
vn 0.8245629 -0.4418492 0.3533629
vn 0.8245625 -0.4418497 0.3533634
vn 0.5490241 -0.6850684 0.4788047
vn 0.5418987 -0.8083357 -0.2300854
vn -0.02713812 -0.9995861 0.009564504
vn 0.005601584 -0.9999822 0.002130378
vn 0.005602715 -0.9999822 0.002131368
vn 0.005602364 -0.9999821 0.002130434
vn -0.05061726 -0.7936609 0.6062512
vn -0.1055145 -0.7517048 0.6510045
vn -0.8382652 -0.5025973 0.2114416
vn 0.08386523 -0.7039848 -0.7052463
vn -0.1100056 -0.4366631 0.8928741
vn -0.7586946 -0.4285386 0.4906497
vn -0.3154693 -0.5879765 0.7448242
vn -0.07863157 -0.4457628 0.8916909
vn -0.07863165 -0.4457623 0.8916912
vn -0.07863182 -0.4457619 0.8916913
vn 0.3846453 0.5420431 0.747153
vn 0.1566157 0.6915438 0.7051517
vn 0.3109512 0.3924595 0.8656125
vn 0.5511083 0.4184783 0.7219111
vn 0.5056139 0.5766741 0.6417177
vn 0.4543837 0.7393996 0.4968139
vn 0.8412898 0.4826972 -0.2433825
vn 0.5335628 0.7819496 -0.322282
vn 0.7021918 0.7114508 -0.02765173
vn 0.8696976 0.4516699 -0.1990489
vn 0.790998 0.2782292 -0.5448951
vn 0.139319 0.4452827 -0.884485
vn 0.4881918 0.1849678 -0.8529102
vn -0.8693748 0.4879603 -0.07799032
vn -0.6470243 0.5136933 0.5634526
vn -0.7106703 0.6854302 -0.1585352
vn -0.6307251 0.6603301 -0.407615
vn -0.7747639 0.5010875 -0.3855546
vn -0.8245628 0.4418494 -0.353363
vn -0.8288826 0.3976345 -0.3934978
vn -0.8296363 0.3832231 -0.4060095
vn -0.8245631 0.4418489 -0.353363
vn -0.9529368 0.3028347 -0.01423695
vn -0.5889027 0.6288207 0.5077189
vn -0.5670102 0.5145897 0.6431928
vn -0.677232 0.4113584 0.6100338
vn -0.5917014 0.4453391 0.6719843
vn -0.8696975 -0.4516702 0.1990487
vn -0.8696975 -0.4516702 0.1990486
vn -0.4354883 0.108209 -0.8936672
vn 0.1587696 0.3483851 -0.9238075
vn 0.07863143 0.4457626 -0.891691
vn 0.07479058 0.5149962 -0.8539236
vn 0.2227951 0.7257037 -0.6509354
vn 0.07226137 -0.3232573 -0.9435482
vn -0.005602592 0.9999821 -0.002130602
vn -0.005603519 0.9999822 -0.002129397
vn 0.2182108 0.9713827 0.0938085
vn 0.2753983 0.9540016 -0.1184774
vn 0.1416451 0.9280328 -0.3445171
vn -0.5611601 -0.2646949 -0.7842423
vn -0.2368097 -0.1636961 -0.9576664
vn -0.1696897 -0.555253 -0.8141865
vn -0.4079114 -0.6975424 -0.5891035
vn -0.7438225 -0.4665345 -0.4786166
vn 0.7109057 -0.5381932 -0.4527266
vn 0.5330756 -0.7299605 -0.4277711
vn 0.5917021 -0.4453383 -0.6719842
vn 0.591702 -0.4453382 -0.6719843
vn 0.8672038 -0.2205968 -0.4464242
vn 0.005602074 -0.9999821 0.00213047
vn 0.005602312 -0.9999821 0.002130248
vn 0.005602127 -0.9999821 0.002129965
vn -0.04986271 -0.8123983 -0.5809672
vn 0.1068923 -0.7782128 -0.6188368
vn 0.3152449 -0.7917879 0.5231567
vn -0.07863159 -0.4457626 0.8916911
vn -0.07863144 -0.4457626 0.8916911
vn 0.4734023 0.3750962 0.7969901
vn 0.4719914 0.3817346 0.7946717
vn 0.5039248 -0.1829742 0.8441448
vn 0.3701213 0.4176939 0.8297845
vn 0.5282781 0.4270271 0.7338735
vn -0.09015527 0.1891734 0.9777964
vn 0.9017206 0.1934716 0.3866119
vn 0.8696975 0.45167 -0.1990492
vn 0.8696975 0.4516699 -0.1990491
vn 0.8696975 0.45167 -0.1990492
vn 0.8696976 0.4516697 -0.1990495
vn 0.5534916 0.7982759 0.2374931
vn 0.9367449 -0.1162455 -0.3301453
vn -0.5917019 0.4453383 0.6719844
vn -0.5917019 0.4453379 0.6719844
vn -0.5917022 0.445338 0.6719843
vn -0.5917014 0.4453388 0.6719844
vn -0.0558029 0.8265601 0.5600755
vn -0.8561133 -0.4180021 0.3038821
vn -0.8696975 -0.4516701 0.1990487
vn -0.8696975 -0.4516701 0.1990487
vn -0.8696976 -0.4516701 0.1990488
vn -0.870152 -0.3219033 -0.3731137
vn -0.8699415 -0.2267925 -0.4379121
vn -0.9017207 -0.1934713 -0.3866119
vn -0.4546724 -0.8311392 -0.3201266
vn -0.621711 -0.7268065 -0.2919382
vn -0.553492 -0.7982755 -0.2374936
vn -0.503925 0.1829747 -0.8441445
vn -0.5080099 0.1306958 -0.8513781
vn 0.07863146 0.4457627 -0.891691
vn 0.07863142 0.4457627 -0.891691
vn 0.07863133 0.4457622 -0.8916913
vn 0.1489598 -0.2222039 -0.9635542
vn -0.02427981 -0.12304 -0.9921047
vn -0.2934562 0.8229995 -0.4863697
vn -0.2739206 0.8481657 -0.4534121
vn -0.4827209 0.8680141 -0.1163281
vn 0.4784283 0.8537835 0.2053292
vn 0.115976 0.8402978 0.5295746
vn -0.05245741 0.8514838 0.5217508
vn -0.4727552 0.8364623 0.2771886
vn -0.7833057 0.07819333 -0.6166995
vn 0.8808766 0.08783986 -0.4651244
vn 0.5693768 0.09071808 -0.8170559
vn 0.6555769 0.09188353 -0.7495176
vn 0.1290415 -0.4538631 -0.8816783
vn 0.1742047 -0.2361785 -0.9559669
vn 0.1476741 -0.7613766 -0.6312671
vn 0.2944007 -0.8974198 -0.328582

vt 0.722365 0.875448
vt 0.72858 0.775002
vt 0.776232 0.698417
vt 0.847119 0.674947
vt 0.914165 0.713557
vt 0.951761 0.799498
vt 0.945546 0.899945
vt 0.897894 0.97653
vt 0.827007 1
vt 0.759961 0.96139
vt 0.713066 0.682853
vt 0.220187 0.4013
vt 0.212091 0.483921
vt 0.165036 0.534919
vt 0.096994 0.534814
vt 0.055152 0.267342
vt 0.123193 0.267447
vt 0.186231 0.318614
vt 0.189957 0.874734
vt 0.21243 0.051247
vt 0.220397 0.133893
vt 0.186311 0.216474
vt 0.034295 0.050973
vt 0.097413 0
vt 0.165455 0.000105
vt 0.906462 0.349227
vt 0.837229 0.380926
vt 0.767944 0.349505
vt 0.906239 0.081846
vt 0.949112 0.164385
vt 0.949197 0.266516
vt 0.529863 0.228436
vt 0.546929 0.327483
vt 0.529144 0.421037
vt 0.382232 0.205167
vt 0.428075 0.152841
vt 0.484465 0.161729
vt 0.480766 0.082322
vt 0.462468 0.646966
vt 0.533243 0.664716
vt 0.583329 0.738181
vt 0.593597 0.839302
vt 0.560122 0.929452
vt 0.495693 0.974199
vt 0.424918 0.956449
vt 0.374832 0.882983
vt 0.364564 0.781862
vt 0.398038 0.691712
vt 0.600086 0.651369
vt 0.637466 0.612024
vt 0.414795 0.604899
vt 0.408434 0.554584
vt 0.330281 0.40147
vt 0.275209 0.432948
vt 0.248959 0.620493
vt 0.520179 0.020547
vt 0.58765 0
vt 0.667091 0.236418
vt 0.59962 0.256965
vt 0.248894 0.814719
vt 0.706376 0.368114
vt 0.688591 0.461668
vt 0.62112 0.482215
vt 0.597207 0.401361
vt 0.649898 0.330842
vt 0.152954 0.629441
vt 0.21185 0.689464
vt 0.189314 0.786575
vt 0.116489 0.786571
vt 0.094017 0.689456
vt 0.797769 0.604083
vt 0.734603 0.58852
vt 0.747096 0.525362
vt 0.817984 0.501892
vt 0.849301 0.550545
vt 0.033956 0.483646
vt 0 0.400961
vt 0.008096 0.31834
vt 0.117132 0.874729
vt 0.154193 0.946302
vt 0.696795 0.945827
vt 0.008176 0.2162
vt 0.000209 0.133554
vt 0.724986 0.164835
vt 0.767721 0.082124
vt 0.706504 0.082989
vt 0.725071 0.266966
vt 0.836954 0.050425
vt 0.706727 0.350371
vt 0.887757 0
vt 0.4833 0.473364
vt 0.42691 0.464476
vt 0.381512 0.397768
vt 0.364446 0.298721
vt 1 0.216091
vt 0.898651 0.621408
vt 0.512657 0.501892
vt 0.631104 0.561709
vt 0.583432 0.519642
vt 0.445813 0.515239
vt 0.888117 0.432632
vt 0.275468 0.102415
vt 0.33049 0.134063
vt 0.364446 0.216748
vt 0.364366 0.318889
vt 0.0583 0.620481
vt 0.117237 0.560465
vt 0.059002 0.534919
vt 0.058235 0.814707
vt 0.035764 0.717592
vt 0 0.78916
vt 0.24966 0.534931
vt 0.190062 0.56047
vt 0.657407 0.028529
vt 0.702805 0.095236
vt 0.706504 0.174643
vt 0.308492 0.789179
vt 0.27143 0.717607
vt 0.626966 0.916106
vt 0.681748 0.853582
vt 0.648379 0.776778
vt 0.553057 0.501892
vt 0.974232 0.35502
vt 0.955887 0.438425
vt 0.665136 0.689966
vt 0.364446 0.973969
vt 0.911144 0.558251
vt 0.449833 0.036869
vt 0.397141 0.107388
vt 0.253193 0.909938
vt 0.312791 0.884398
vt 0.217429 0.981505
vt 0.681748 0.634201

usemtl unnamed
usemap unnamed
f 15/15/15 76/76/76 12/12/12
f 15/15/15 12/12/12 14/14/14
f 14/14/14 12/12/12 13/13/13
f 10/10/10 81/81/81 1/1/1
f 10/10/10 1/1/1 9/9/9
f 9/9/9 1/1/1 8/8/8
f 24/24/24 25/25/25 20/20/20
f 24/24/24 20/20/20 23/23/23
f 23/23/23 20/20/20 83/83/83
f 28/28/28 89/89/89 87/87/87
f 28/28/28 87/87/87 26/26/26
f 26/26/26 87/87/87 84/84/84
f 26/26/26 84/84/84 85/85/85
f 85/85/85 84/84/84 86/86/86
f 88/88/88 90/90/90 29/29/29
f 88/88/88 29/29/29 26/26/26
f 26/26/26 29/29/29 30/30/30
f 26/26/26 30/30/30 31/31/31
f 31/31/31 30/30/30 95/95/95
f 125/125/125 121/121/121 49/49/49
f 125/125/125 49/49/49 50/50/50
f 50/50/50 49/49/49 97/97/97
f 50/50/50 97/97/97 98/98/98
f 98/98/98 97/97/97 99/99/99
f 52/52/52 100/100/100 97/97/97
f 52/52/52 97/97/97 51/51/51
f 51/51/51 97/97/97 39/39/39
f 51/51/51 39/39/39 48/48/48
f 48/48/48 39/39/39 47/47/47
f 106/106/106 108/108/108 107/107/107
f 106/106/106 107/107/107 70/70/70
f 70/70/70 107/107/107 66/66/66
f 70/70/70 66/66/66 69/69/69
f 69/69/69 66/66/66 68/68/68
f 69/69/69 68/68/68 79/79/79
f 79/79/79 68/68/68 19/19/19
f 79/79/79 19/19/19 80/80/80
f 80/80/80 19/19/19 132/132/132
f 69/69/69 79/79/79 109/109/109
f 69/69/69 109/109/109 110/110/110
f 110/110/110 109/109/109 111/111/111
f 130/130/130 132/132/132 19/19/19
f 130/130/130 19/19/19 60/60/60
f 60/60/60 19/19/19 68/68/68
f 60/60/60 68/68/68 67/67/67
f 67/67/67 68/68/68 66/66/66
f 67/67/67 66/66/66 55/55/55
f 55/55/55 66/66/66 113/113/113
f 55/55/55 113/113/113 112/112/112
f 61/61/61 62/62/62 63/63/63
f 61/61/61 63/63/63 64/64/64
f 64/64/64 63/63/63 34/34/34
f 64/64/64 34/34/34 33/33/33
f 33/33/33 34/34/34 32/32/32
f 33/33/33 32/32/32 59/59/59
f 59/59/59 32/32/32 37/37/37
f 59/59/59 37/37/37 58/58/58
f 58/58/58 37/37/37 116/116/116
f 63/63/63 122/122/122 34/34/34
f 43/43/43 44/44/44 39/39/39
f 39/39/39 44/44/44 45/45/45
f 39/39/39 45/45/45 46/46/46
f 46/46/46 45/45/45 126/126/126
f 2/2/2 11/11/11 3/3/3
f 3/3/3 11/11/11 71/71/71
f 3/3/3 71/71/71 4/4/4
f 4/4/4 71/71/71 75/75/75
f 4/4/4 75/75/75 96/96/96
f 96/96/96 75/75/75 127/127/127
f 57/57/57 114/114/114 37/37/37
f 57/57/57 37/37/37 56/56/56
f 56/56/56 37/37/37 38/38/38
f 56/56/56 38/38/38 128/128/128
f 128/128/128 38/38/38 36/36/36
f 128/128/128 36/36/36 129/129/129
f 67/67/67 55/55/55 118/118/118
f 67/67/67 118/118/118 60/60/60
f 60/60/60 118/118/118 117/117/117
f 60/60/60 117/117/117 130/130/130
f 130/130/130 117/117/117 131/131/131
f 73/73/73 74/74/74 71/71/71
f 73/73/73 71/71/71 72/72/72
f 72/72/72 71/71/71 11/11/11
f 72/72/72 11/11/11 133/133/133
f 96/96/96 5/5/5 4/4/4
f 4/4/4 5/5/5 1/1/1
f 4/4/4 1/1/1 3/3/3
f 3/3/3 1/1/1 2/2/2
f 7/7/7 8/8/8 1/1/1
f 7/7/7 1/1/1 6/6/6
f 6/6/6 1/1/1 5/5/5
f 78/78/78 16/16/16 12/12/12
f 78/78/78 12/12/12 77/77/77
f 77/77/77 12/12/12 76/76/76
f 82/82/82 83/83/83 20/20/20
f 82/82/82 20/20/20 16/16/16
f 16/16/16 20/20/20 17/17/17
f 16/16/16 17/17/17 12/12/12
f 12/12/12 17/17/17 18/18/18
f 12/12/12 18/18/18 54/54/54
f 54/54/54 18/18/18 53/53/53
f 27/27/27 28/28/28 26/26/26
f 27/27/27 26/26/26 101/101/101
f 101/101/101 26/26/26 124/124/124
f 26/26/26 85/85/85 88/88/88
f 92/92/92 93/93/93 32/32/32
f 92/92/92 32/32/32 91/91/91
f 91/91/91 32/32/32 34/34/34
f 35/35/35 36/36/36 32/32/32
f 35/35/35 32/32/32 94/94/94
f 94/94/94 32/32/32 93/93/93
f 39/39/39 46/46/46 47/47/47
f 103/103/103 104/104/104 18/18/18
f 103/103/103 18/18/18 102/102/102
f 102/102/102 18/18/18 21/21/21
f 102/102/102 21/21/21 20/20/20
f 20/20/20 21/21/21 22/22/22
f 20/20/20 22/22/22 17/17/17
f 17/17/17 22/22/22 18/18/18
f 18/18/18 104/104/104 105/105/105
f 18/18/18 105/105/105 53/53/53
f 37/37/37 114/114/114 115/115/115
f 37/37/37 115/115/115 116/116/116
f 97/97/97 49/49/49 40/40/40
f 40/40/40 49/49/49 41/41/41
f 40/40/40 41/41/41 39/39/39
f 39/39/39 41/41/41 42/42/42
f 39/39/39 42/42/42 43/43/43
f 43/43/43 42/42/42 119/119/119
f 65/65/65 61/61/61 64/64/64
f 65/65/65 64/64/64 59/59/59
f 59/59/59 64/64/64 33/33/33
f 41/41/41 49/49/49 121/121/121
f 41/41/41 121/121/121 42/42/42
f 42/42/42 121/121/121 120/120/120
f 42/42/42 120/120/120 119/119/119
f 65/65/65 59/59/59 58/58/58
f 26/26/26 31/31/31 123/123/123
f 26/26/26 123/123/123 124/124/124
f 110/110/110 106/106/106 70/70/70
f 110/110/110 70/70/70 69/69/69
f 71/71/71 74/74/74 75/75/75
f 36/36/36 38/38/38 37/37/37
f 36/36/36 37/37/37 32/32/32
f 97/97/97 40/40/40 39/39/39
f 18/18/18 22/22/22 21/21/21
