mtllib ./AugmentedDodecahedron.mtl
g AugmentedDodecahedron
v 0.8319606 -0.2151945 0.6094282
v 0.3140266 0.1783387 0.982758
v -0.3233524 -0.2169394 0.9807672
v -0.1993384 -0.8547676 0.6062064
v 0.5146835 -0.8536897 0.3767064
v -1.033527 -0.2181097 -0.00325191
v -0.6382514 -0.8554908 -0.001950682
v -0.8389094 0.1765375 0.604101
v -0.5201625 0.8149976 0.3732997
v 0.1923906 0.8161106 0.6073228
v 0.6351506 0.8167424 0.001960721
v 1.030427 0.1793613 0.003260948
v 0.8358076 -0.215286 -0.604092
v 0.5170615 -0.8537459 -0.3732907
v -0.1954914 -0.854859 -0.6073127
v -0.3171274 -0.2170871 -0.982749
v 0.3202516 0.178191 -0.9807582
v 0.1962376 0.8160192 -0.6061974
v -0.5177844 0.8149413 -0.3766963
v -0.8350614 0.1764461 -0.6094181
v -0.003439439 1.21006 -9.342047E-05
v -0.1993384 -0.8547676 0.6062064
v -0.3233524 -0.2169394 0.9807672
v -0.3233524 -0.2169394 0.9807672
v -0.8389094 0.1765375 0.604101
v 0.3140266 0.1783387 0.982758
v 0.8319606 -0.2151945 0.6094282
v 1.030427 0.1793613 0.003260948
v 0.5146835 -0.8536897 0.3767064
v 0.5170615 -0.8537459 -0.3732907
v -0.1954914 -0.854859 -0.6073127
v -0.1954914 -0.854859 -0.6073127
v 0.5170615 -0.8537459 -0.3732907
v -0.1954914 -0.854859 -0.6073127
v 0.5170615 -0.8537459 -0.3732907
v 0.8358076 -0.215286 -0.604092
v 0.3202516 0.178191 -0.9807582
v 0.3202516 0.178191 -0.9807582
v 0.8358076 -0.215286 -0.604092
v -0.8389094 0.1765375 0.604101
v -0.5201625 0.8149976 0.3732997
v -1.033527 -0.2181097 -0.00325191
v -0.8350614 0.1764461 -0.6094181
v -0.3171274 -0.2170871 -0.982749
v 0.1962376 0.8160192 -0.6061974
v 0.3202516 0.178191 -0.9807582
v -0.3171274 -0.2170871 -0.982749
v -0.003439439 1.21006 -9.342047E-05

vn 0.6258364 -0.5221608 0.5793763
vn 0.2743814 -0.4467244 0.8515588
vn 0.2743814 -0.4467244 0.8515587
vn 0.1979436 -0.7654874 0.612248
vn 0.6167558 -0.7607316 0.202237
vn -0.8030813 -0.4973665 0.3281569
vn -0.703239 -0.647938 -0.2926283
vn -0.7245821 -0.4482852 0.5234704
vn -0.2662362 0.5253873 0.8081377
vn 0.2152884 0.7074921 0.6731314
vn 0.7450611 0.6203851 0.244962
vn 0.8030816 0.4973662 -0.3281568
vn 0.8951089 -0.4458384 0.002871298
vn 0.8951091 -0.4458381 0.002871554
vn 0.00153585 -0.999999 7.9932E-05
vn 0.2797746 -0.4468529 -0.8497347
vn 0.2797749 -0.4468526 -0.8497347
vn 0.6776305 0.5486407 -0.4897044
vn -0.7052265 0.645727 -0.2927323
vn -0.6258364 0.5221606 -0.5793765
vn -0.42565 0.8499731 -0.3104321
vn -0.5936098 -0.6807311 0.4292233
vn -0.7245818 -0.4482859 0.5234702
vn -0.2797751 0.4468526 0.8497347
vn -0.2797754 0.4468525 0.8497346
vn 0.2594914 0.5261953 0.8098043
vn 0.7212488 0.4483643 0.5279865
vn 0.8951088 -0.4458387 0.0028712
vn 0.00153585 -0.999999 7.9932E-05
vn 0.00153585 -0.999999 7.9932E-05
vn 0.001535441 -0.9999989 8.022703E-05
vn -0.4230356 -0.8513271 -0.3102955
vn 0.2797746 -0.4468529 -0.8497347
vn 0.2797742 -0.4468533 -0.8497345
vn 0.2797759 -0.4468523 -0.8497344
vn 0.2797759 -0.4468523 -0.8497344
vn 0.2797759 -0.4468523 -0.8497344
vn 0.7245821 0.4482854 -0.5234703
vn 0.7245828 0.4482837 -0.5234708
vn -0.8951088 0.4458386 -0.002871847
vn -0.7783989 0.627765 -0.002515177
vn -0.8951092 0.445838 -0.002871946
vn -0.7212488 -0.4483642 -0.5279865
vn -0.7212488 -0.4483647 -0.5279862
vn -0.2568766 0.5471797 -0.7966235
vn -0.2743821 0.4467246 -0.8515584
vn -0.274382 0.4467252 -0.8515581
vn 0.3060663 0.9250833 0.2248208

vt 0.593656 0.568981
vt 0.558707 0.462562
vt 0.739943 0.461991
vt 0.886903 0.568057
vt 0.796492 0.634181
vt 0.279078 0.736273
vt 0.06602 0.736082
vt 0.344997 0.645714
vt 0 0.218815
vt 0.126817 0.239491
vt 0.205123 0.437636
vt 0.416583 0.424862
vt 0.594742 0.913714
vt 0.797163 0.847237
vt 1 0.979074
vt 0.468871 0.770791
vt 0.362265 0.917359
vt 0.126701 0.539421
vt 0.728445 0.333507
vt 0.567197 0.19611
vt 0.910016 0.426155
vt 0.000263 0.645404
vt 0.172681 0.589554
vt 0.263845 0
vt 0.084687 0.070801
vt 0.289882 0.104256
vt 0.468967 0.218822
vt 0.468967 0.741742
vt 0.943938 0.806725
vt 0.887989 0.979111
vt 0.887989 0.912789
vt 0 0.938653
vt 0.36242 0.62411
vt 0.468967 0.589554
vt 0.944044 0.461991
vt 0.887989 0.634342
vt 0.943945 0.806725
vt 0.289694 0.589553
vt 0.468851 0.518752
vt 0.861258 0.016194
vt 0.910184 0.222312
vt 0.64928 0
vt 0.344734 0.938962
vt 0.180067 1.001539
vt 0.729872 0.461991
vt 0.569506 0.404002
vt 0.468967 0.239679
vt 0.004343 0.402437

usemtl unnamed
usemap unnamed
f 15/15/15 30/30/30 29/29/29
f 35/35/35 37/37/37 36/36/36
f 31/31/31 5/5/5 4/4/4
f 4/4/4 5/5/5 1/1/1
f 4/4/4 1/1/1 3/3/3
f 3/3/3 1/1/1 2/2/2
f 23/23/23 8/8/8 6/6/6
f 23/23/23 6/6/6 22/22/22
f 22/22/22 6/6/6 7/7/7
f 22/22/22 7/7/7 32/32/32
f 32/32/32 7/7/7 44/44/44
f 18/18/18 48/48/48 11/11/11
f 11/11/11 48/48/48 10/10/10
f 11/11/11 10/10/10 26/26/26
f 26/26/26 10/10/10 9/9/9
f 26/26/26 9/9/9 24/24/24
f 24/24/24 9/9/9 25/25/25
f 5/5/5 14/14/14 13/13/13
f 5/5/5 13/13/13 1/1/1
f 1/1/1 13/13/13 28/28/28
f 33/33/33 34/34/34 16/16/16
f 33/33/33 16/16/16 17/17/17
f 18/18/18 11/11/11 12/12/12
f 18/18/18 12/12/12 38/38/38
f 38/38/38 12/12/12 39/39/39
f 21/21/21 45/45/45 19/19/19
f 19/19/19 45/45/45 20/20/20
f 19/19/19 20/20/20 40/40/40
f 40/40/40 20/20/20 42/42/42
f 46/46/46 47/47/47 20/20/20
f 46/46/46 20/20/20 45/45/45
f 27/27/27 12/12/12 11/11/11
f 27/27/27 11/11/11 26/26/26
f 41/41/41 21/21/21 19/19/19
f 41/41/41 19/19/19 40/40/40
f 7/7/7 6/6/6 43/43/43
f 7/7/7 43/43/43 44/44/44
f 48/48/48 9/9/9 10/10/10
