mtllib ./AugmentedTruncatedCube.mtl
g AugmentedTruncatedCube
v 0.528543 1.231334 -0.001423441
v -0.001439 1.229801 -0.5320995
v -0.532116 1.229793 -0.00211644
v -0.002134 1.231325 0.5285596
v 0.373389 0.7020804 0.9045669
v 0.904066 0.7020893 0.3745838
v -0.37661 0.7009914 0.9040769
v -0.906592 0.6994582 0.3734008
v -0.9061 0.6983799 -0.3765983
v -0.375423 0.6983877 -0.9065813
v 0.374576 0.6994777 -0.9060913
v 0.904558 0.7010109 -0.3754153
v 0.905676 0.1699197 -0.9049821
v 0.906765 -0.5800794 -0.9039029
v 0.377205 -1.111179 -0.9034867
v -0.372794 -1.112268 -0.9039767
v -0.903893 -0.5827104 -0.9050859
v -0.904982 0.1672887 -0.9061652
v 0.904489 0.1725223 0.9056761
v 0.905578 -0.5774758 0.9067553
v 0.906695 -1.108568 0.3771884
v 0.907187 -1.109646 -0.3728106
v -0.906169 0.1698913 0.904493
v -0.90508 -0.5801067 0.9055723
v -0.373981 -1.109666 0.9066815
v 0.376018 -1.108576 0.9071715
v -0.903471 -1.112276 -0.3739936
v -0.903962 -1.111198 0.3760054
v -0.002134 1.231325 0.5285596
v 0.373389 0.7020804 0.9045669
v -0.37661 0.7009914 0.9040769
v -0.532116 1.229793 -0.00211644
v -0.906592 0.6994582 0.3734008
v -0.9061 0.6983799 -0.3765983
v -0.001439 1.229801 -0.5320995
v -0.375423 0.6983877 -0.9065813
v 0.374576 0.6994777 -0.9060913
v 0.528543 1.231334 -0.001423441
v 0.904558 0.7010109 -0.3754153
v 0.904066 0.7020893 0.3745838
v 0.906765 -0.5800794 -0.9039029
v 0.905676 0.1699197 -0.9049821
v 0.905578 -0.5774758 0.9067553
v 0.904489 0.1725223 0.9056761
v -0.904982 0.1672887 -0.9061652
v -0.903893 -0.5827104 -0.9050859
v -0.90508 -0.5801067 0.9055723
v -0.906169 0.1698913 0.904493
v 0.907187 -1.109646 -0.3728106
v 0.376018 -1.108576 0.9071715
v 0.906695 -1.108568 0.3771884
v -0.373981 -1.109666 0.9066815
v -0.903962 -1.111198 0.3760054
v -0.903471 -1.112276 -0.3739936
v -0.372794 -1.112268 -0.9039767
v 0.377205 -1.111179 -0.9034867
v -0.904982 0.1672887 -0.9061652
v -0.903893 -0.5827104 -0.9050859
v -0.906169 0.1698913 0.904493
v -0.373981 -1.109666 0.9066815
v 0.904066 0.7020893 0.3745838
v 0.906695 -1.108568 0.3771884
v 0.905676 0.1699197 -0.9049821
v 0.906765 -0.5800794 -0.9039029

vn 0.3385295 0.9339768 -0.1143913
vn -0.1439142 0.891248 -0.4300766
vn -0.3412405 0.933315 0.1117053
vn 0.1413236 0.8928958 0.4275102
vn 0.4986448 0.7085503 0.4993096
vn 0.4986448 0.7085503 0.4993095
vn -0.001101651 0.3346876 0.9423286
vn -0.5391229 0.6492064 0.5365424
vn -0.9432917 0.3319632 -0.001096111
vn -0.5384175 0.6476603 -0.539113
vn 0.0001338232 0.3319776 -0.9432874
vn 0.537237 0.6492233 -0.5384102
vn 0.0006551998 -0.001437788 -0.9999989
vn 0.0006554594 -0.001437667 -0.9999989
vn 0.0006555336 -0.001437488 -0.9999989
vn 0.0006552472 -0.001437562 -0.9999989
vn 0.0006554774 -0.00143772 -0.9999989
vn 0.000656403 -0.001438102 -0.9999988
vn 0.9999987 0.001453415 0.000653455
vn 0.9999988 0.001452638 0.0006529283
vn 0.9999987 0.001452639 0.0006532798
vn 0.9999988 0.001452888 0.0006539819
vn -0.0006557189 0.00143782 0.9999989
vn -0.0006554591 0.001437728 0.9999989
vn -0.0006553134 0.001437511 0.9999989
vn 0.1064567 -0.105373 0.9887183
vn -0.9999987 -0.001453144 -0.0006533418
vn -0.9884091 -0.1082322 0.1064575
vn -0.001372957 0.5785231 0.8156651
vn 0.04499694 0.09306028 0.9946433
vn -0.5262855 0.6699265 0.5236622
vn -0.8173335 0.5761632 -0.001364564
vn -0.9989069 0.0467366 -0.0007220589
vn -0.5255973 0.6684172 -0.5262757
vn -0.0003033712 0.5761754 -0.8173262
vn 0.0005846873 0.04675204 -0.9989066
vn 0.5243399 0.6699427 -0.5255898
vn 0.8156575 0.578535 -0.0002967162
vn 0.9987671 0.04963909 0.0005834699
vn 0.9423238 0.3347027 0.0001369321
vn 0.9999987 0.001452895 0.0006541102
vn 0.9999987 0.00145291 0.0006540725
vn 0.1663398 -0.1650953 0.9721496
vn 0.3563218 0.3591661 0.8625745
vn -0.9999987 -0.001452943 -0.0006539926
vn -0.9999988 -0.00145287 -0.0006540471
vn -0.9716678 -0.167907 0.1663394
vn -0.9999987 -0.00145291 -0.0006522394
vn 0.05058926 -0.9975826 -0.04764195
vn 0.001452122 -0.999998 0.001438834
vn 0.001451692 -0.999998 0.001438655
vn 0.001451671 -0.999998 0.001438278
vn 0.001451396 -0.999998 0.001438243
vn -0.1054443 -0.9888029 -0.105597
vn -0.1652143 -0.972282 -0.1654456
vn 0.3588931 -0.8628489 -0.3559324
vn -0.5778092 0.5756805 -0.5785574
vn -0.5761331 -0.5790181 -0.5768961
vn -0.5785667 0.5773396 0.5761422
vn -0.5768905 -0.5773579 0.577802
vn 0.5761323 0.5790183 0.5768964
vn 0.5778093 -0.5756805 0.5785574
vn 0.5768891 0.5773588 -0.5778028
vn 0.5785657 -0.5773407 -0.5761421

vt 0.915344 0.33693
vt 0.821423 0.461179
vt 0.727639 0.336748
vt 0.82156 0.212499
vt 0.887972 0.124641
vt 0.981756 0.249072
vt 0.567732 0.124736
vt 0.661324 0.248762
vt 0.226444 0.512572
vt 0.755011 0.549037
vt 0.320433 0.688668
vt 0.981659 0.424916
vt 0.320626 0.864512
vt 0.22691 0.989033
vt 0.094183 0.989288
vt 0.000195 0.865129
vt 2E-06 0.689285
vt 0.093718 0.564764
vt 0.660328 0.875229
vt 0.566611 0.999747
vt 0.433884 1
vt 0.339897 0.875839
vt 0.661159 0.249638
vt 0.660559 0.425479
vt 0.566283 0.549256
vt 0.433557 0.548461
vt 0.000191 0.211957
vt 0.094178 0.087795
vt 0.501793 0
vt 0.435006 0.123941
vt 0.755245 0.124513
vt 0.339706 0.538539
vt 0.320431 0.38841
vt 0.661227 0.424606
vt 0.339706 0.538539
vt 0.226445 0.564509
vt 0.887738 0.549165
vt 0.679412 0.549256
vt 0.56615 0.575224
vt 0.660137 0.699385
vt 0.339706 0.699995
vt 0.433423 0.575476
vt 0.34013 0.42356
vt 0.34073 0.247718
vt 0.093717 0.512319
vt 0 0.3878
vt 0.226905 0.088048
vt 0.320622 0.212567
vt 0.999908 0.673596
vt 0.906213 0.973866
vt 1 0.84944
vt 0.773486 0.973988
vt 0.679568 0.849734
vt 0.679477 0.67389
vt 0.773264 0.549464
vt 0.905991 0.549342
vt 0.661159 0.548946
vt 0.679412 0.54955
vt 0.661393 0.124422
vt 0.160637 0
vt 0.341155 0.123379
vt 0.339706 0.547899
vt 0.98159 0.549256
vt 0.999843 0.549256

usemtl unnamed
usemap unnamed
f 10/10/10 57/57/57 34/34/34
f 10/10/10 34/34/34 2/2/2
f 2/2/2 34/34/34 3/3/3
f 2/2/2 3/3/3 1/1/1
f 1/1/1 3/3/3 4/4/4
f 1/1/1 4/4/4 6/6/6
f 6/6/6 4/4/4 5/5/5
f 23/23/23 24/24/24 30/30/30
f 23/23/23 30/30/30 7/7/7
f 7/7/7 30/30/30 29/29/29
f 45/45/45 46/46/46 33/33/33
f 45/45/45 33/33/33 9/9/9
f 9/9/9 33/33/33 32/32/32
f 13/13/13 14/14/14 36/36/36
f 13/13/13 36/36/36 11/11/11
f 11/11/11 36/36/36 35/35/35
f 19/19/19 20/20/20 39/39/39
f 19/19/19 39/39/39 40/40/40
f 40/40/40 39/39/39 38/38/38
f 17/17/17 18/18/18 36/36/36
f 17/17/17 36/36/36 16/16/16
f 16/16/16 36/36/36 15/15/15
f 41/41/41 42/42/42 39/39/39
f 41/41/41 39/39/39 22/22/22
f 22/22/22 39/39/39 21/21/21
f 28/28/28 60/60/60 47/47/47
f 28/28/28 47/47/47 33/33/33
f 33/33/33 47/47/47 48/48/48
f 52/52/52 53/53/53 49/49/49
f 52/52/52 49/49/49 50/50/50
f 50/50/50 49/49/49 51/51/51
f 56/56/56 64/64/64 49/49/49
f 56/56/56 49/49/49 55/55/55
f 55/55/55 49/49/49 54/54/54
f 55/55/55 54/54/54 58/58/58
f 8/8/8 59/59/59 31/31/31
f 8/8/8 31/31/31 3/3/3
f 3/3/3 31/31/31 4/4/4
f 26/26/26 62/62/62 43/43/43
f 26/26/26 43/43/43 30/30/30
f 30/30/30 43/43/43 44/44/44
f 30/30/30 44/44/44 61/61/61
f 12/12/12 63/63/63 37/37/37
f 12/12/12 37/37/37 1/1/1
f 1/1/1 37/37/37 2/2/2
f 36/36/36 14/14/14 15/15/15
f 39/39/39 20/20/20 21/21/21
f 30/30/30 24/24/24 25/25/25
f 30/30/30 25/25/25 26/26/26
f 33/33/33 46/46/46 27/27/27
f 33/33/33 27/27/27 28/28/28
f 49/49/49 53/53/53 54/54/54
