mtllib ./BiAugmentedTruncatedCube.mtl
g BiAugmentedTruncatedCube
v 0.534652 1.434034 -0.007982514
v 0.001857 1.433613 -0.5358356
v -0.525992 1.437252 -0.003048514
v 0.006803 1.437673 0.5248045
v 0.381947 0.9076474 0.9000908
v 0.909795 0.9040082 0.3673037
v -0.368042 0.9099224 0.9035798
v -0.900837 0.9095013 0.3757267
v -0.904334 0.906631 -0.3742604
v -0.376486 0.9029918 -0.9070474
v 0.373503 0.9007168 -0.9105364
v 0.906298 0.901137 -0.3826824
v 0.525992 -1.437252 0.003048514
v -0.001857 -1.433613 0.5358356
v -0.534652 -1.434034 0.007982514
v -0.006803 -1.437673 -0.5248045
v 0.368042 -0.9099224 -0.9035798
v 0.900837 -0.9095013 -0.3757267
v -0.381947 -0.9076474 -0.9000908
v -0.909795 -0.9040082 -0.3673037
v -0.906298 -0.901137 0.3826824
v -0.373503 -0.9007168 0.9105364
v 0.376486 -0.9029918 0.9070474
v 0.904334 -0.906631 0.3742604
v 0.902225 0.3687837 -0.9109662
v 0.899963 -0.3812073 -0.908084
v -0.910669 -0.3757144 -0.899662
v -0.908407 0.3742767 -0.9025432
v 0.910669 0.3757144 0.899662
v 0.908407 -0.3742767 0.9025432
v -0.899963 0.3812073 0.908084
v -0.902225 -0.3687837 0.9109662
v 0.006803 1.437673 0.5248045
v 0.534652 1.434034 -0.007982514
v 0.006803 1.437673 0.5248045
v 0.381947 0.9076474 0.9000908
v -0.368042 0.9099224 0.9035798
v 0.001857 1.433613 -0.5358356
v -0.376486 0.9029918 -0.9070474
v 0.373503 0.9007168 -0.9105364
v 0.001857 1.433613 -0.5358356
v -0.006803 -1.437673 -0.5248045
v 0.368042 -0.9099224 -0.9035798
v -0.534652 -1.434034 0.007982514
v -0.381947 -0.9076474 -0.9000908
v -0.006803 -1.437673 -0.5248045
v -0.001857 -1.433613 0.5358356
v -0.001857 -1.433613 0.5358356
v -0.373503 -0.9007168 0.9105364
v 0.376486 -0.9029918 0.9070474
v 0.904334 -0.906631 0.3742604
v 0.900837 -0.9095013 -0.3757267
v 0.899963 -0.3812073 -0.908084
v 0.902225 0.3687837 -0.9109662
v 0.908407 -0.3742767 0.9025432
v 0.910669 0.3757144 0.899662
v -0.900837 0.9095013 0.3757267
v -0.908407 0.3742767 -0.9025432
v -0.904334 0.906631 -0.3742604
v -0.910669 -0.3757144 -0.899662
v -0.902225 -0.3687837 0.9109662
v -0.899963 0.3812073 0.908084
v -0.908407 0.3742767 -0.9025432
v -0.899963 0.3812073 0.908084
v 0.908407 -0.3742767 0.9025432
v 0.899963 -0.3812073 -0.908084

vn 0.003016149 0.9999881 -0.003842283
vn -0.356465 0.8625625 -0.3590527
vn -0.4257566 0.8997614 0.09571206
vn -0.2665455 0.9257253 0.2683025
vn 0.5422862 0.6496357 0.5328219
vn 0.7193857 0.5922941 0.3628663
vn 0.005402052 0.336938 0.9415115
vn -0.6495167 0.6567203 0.3832057
vn -0.6132387 0.6711378 -0.4165483
vn -0.5383698 0.6487818 -0.5378106
vn -0.003391745 0.3297211 -0.9440724
vn 0.985208 0.1446724 -0.09184317
vn 0.4266628 -0.8990177 0.09862249
vn 0.2690687 -0.9236538 0.2728841
vn -0.003016149 -0.9999881 0.003842283
vn 0.3531321 -0.8652984 -0.3557479
vn 0.5333539 -0.6528986 -0.5378265
vn 0.6093513 -0.6743285 -0.4170998
vn -0.004948902 -0.106809 -0.9942674
vn -0.958529 -0.2476538 -0.1410312
vn -0.9122471 -0.3444009 0.2217957
vn -0.5372704 -0.6455187 0.5428134
vn 0.004327882 -0.09919403 0.9950589
vn 0.6530859 -0.6537909 0.3821473
vn -0.004664045 -0.003828514 -0.9999819
vn -0.004663479 -0.003828199 -0.9999819
vn -0.004662424 -0.003827848 -0.9999819
vn -0.004663039 -0.003827591 -0.9999819
vn 0.9730673 0.1644231 0.1615706
vn 0.9999846 -0.003034136 -0.004651898
vn 0.004663053 0.003828377 0.9999819
vn 0.004663478 0.003828281 0.9999819
vn 0.5044566 0.7074955 0.4949483
vn 0.6389322 0.754447 -0.1502517
vn 0.005548802 0.5804689 0.8142636
vn 0.004803176 0.05201105 0.9986351
vn -0.5204927 0.6735299 0.5248285
vn -0.002066846 0.574219 -0.8186992
vn -0.004512557 0.04436406 -0.9990054
vn 0.5245341 0.666326 -0.5299753
vn 0.4997923 0.7036685 -0.5050333
vn -0.005548802 -0.5804689 -0.8142636
vn -0.004915688 -0.09377056 -0.9955818
vn -0.6402788 -0.7555522 -0.1385062
vn -0.5294302 -0.6703448 -0.5199438
vn -0.5044562 -0.7074957 -0.4949483
vn -0.4997933 -0.7036678 0.505033
vn 0.002066846 -0.574219 0.8186992
vn 0.004373581 -0.08614603 0.9962731
vn 0.5253887 -0.6695114 0.5250918
vn 0.9999845 -0.003034075 -0.004651554
vn 0.9999846 -0.003033875 -0.00465163
vn 0.9999846 -0.003033874 -0.004652428
vn 0.8622546 0.3534163 -0.3627865
vn 0.004662424 0.003827848 0.9999819
vn 0.004661807 0.003827594 0.9999819
vn -0.9999845 0.003033879 0.004651763
vn -0.9999846 0.003034318 0.004651453
vn -0.9999846 0.003035242 0.004651066
vn -0.9893017 -0.1043588 -0.1019381
vn -0.9715122 -0.1631464 0.1718933
vn -0.9999846 0.003033865 0.004652406
vn -0.5782927 0.5768849 -0.5768723
vn -0.5729078 0.5813043 0.577808
vn 0.5782927 -0.5768849 0.5768723
vn 0.5729078 -0.5813043 -0.577808

vt 0.978809 0.723546
vt 0.923218 0.838549
vt 0.86735 0.723737
vt 0.922941 0.608735
vt 0.329922 0.141186
vt 0.233314 0.20736
vt 0.65907 0.667806
vt 0.749031 0.642688
vt 0.749227 0.805191
vt 0.805096 0.920003
vt 0.885355 0.437963
vt 0.096804 0.207123
vt 0.111459 0.723737
vt 0.055591 0.838549
vt 0 0.723546
vt 0.055869 0.608734
vt 0.174187 0.527685
vt 0.229778 0.642688
vt 0.774488 0.034352
vt 0.42653 0.20736
vt 0.563039 0.207123
vt 0.659484 0.140613
vt 0.34093 0.859879
vt 0.229582 0.805191
vt 0.749247 0.425517
vt 0.660396 0.302147
vt 0.910596 0.046798
vt 0.999447 0.170168
vt 0.329725 0.301348
vt 0.329563 0.434032
vt 0.669525 0.829832
vt 0.580675 0.953202
vt 0.261839 0.000335
vt 0.165231 0.066509
vt 0.670079 0.527685
vt 0.555434 0.562037
vt 0.804622 0.527685
vt 1 0.472315
vt 0.988991 0.332194
vt 0.000359 0.140613
vt 0.068786 0
vt 0.659843 0
vt 0.670852 0.140121
vt 0.494612 0.066509
vt 0.329922 0.141185
vt 0.398004 0.000335
vt 0.591057 0
vt 0.329922 1
vt 0.444566 0.965648
vt 0.173713 0.920003
vt 0.232921 0.527685
vt 0.096412 0.527448
vt 0 0.43346
vt 0.000163 0.300776
vt 0.330475 0.697853
vt 0.419325 0.574483
vt 0.563431 0.527448
vt 0.33028 0.434032
vt 0.426922 0.527685
vt 0.330118 0.301348
vt 0.659681 0.300776
vt 0.659843 0.43346
vt 0.670552 0.920233
vt 0.670079 0.527916
vt 0.308257 0.920233
vt 0.308731 0.527916

usemtl unnamed
usemap unnamed
f 31/31/31 32/32/32 36/36/36
f 31/31/31 36/36/36 7/7/7
f 7/7/7 36/36/36 35/35/35
f 25/25/25 26/26/26 39/39/39
f 25/25/25 39/39/39 11/11/11
f 11/11/11 39/39/39 38/38/38
f 40/40/40 41/41/41 34/34/34
f 40/40/40 34/34/34 12/12/12
f 12/12/12 34/34/34 6/6/6
f 12/12/12 6/6/6 29/29/29
f 29/29/29 6/6/6 5/5/5
f 27/27/27 28/28/28 39/39/39
f 27/27/27 39/39/39 19/19/19
f 19/19/19 39/39/39 43/43/43
f 19/19/19 43/43/43 42/42/42
f 59/59/59 58/58/58 57/57/57
f 57/57/57 58/58/58 60/60/60
f 57/57/57 60/60/60 20/20/20
f 20/20/20 60/60/60 45/45/45
f 20/20/20 45/45/45 44/44/44
f 44/44/44 45/45/45 46/46/46
f 55/55/55 56/56/56 36/36/36
f 55/55/55 36/36/36 23/23/23
f 23/23/23 36/36/36 49/49/49
f 23/23/23 49/49/49 48/48/48
f 47/47/47 22/22/22 21/21/21
f 21/21/21 22/22/22 61/61/61
f 21/21/21 61/61/61 57/57/57
f 57/57/57 61/61/61 62/62/62
f 10/10/10 63/63/63 9/9/9
f 10/10/10 9/9/9 2/2/2
f 2/2/2 9/9/9 3/3/3
f 2/2/2 3/3/3 1/1/1
f 1/1/1 3/3/3 4/4/4
f 3/3/3 9/9/9 8/8/8
f 3/3/3 8/8/8 37/37/37
f 37/37/37 8/8/8 64/64/64
f 16/16/16 17/17/17 18/18/18
f 16/16/16 18/18/18 13/13/13
f 13/13/13 18/18/18 24/24/24
f 13/13/13 24/24/24 50/50/50
f 50/50/50 24/24/24 65/65/65
f 17/17/17 66/66/66 18/18/18
f 6/6/6 34/34/34 33/33/33
f 6/6/6 33/33/33 5/5/5
f 3/3/3 37/37/37 4/4/4
f 15/15/15 16/16/16 13/13/13
f 15/15/15 13/13/13 14/14/14
f 14/14/14 13/13/13 50/50/50
f 44/44/44 47/47/47 21/21/21
f 44/44/44 21/21/21 20/20/20
f 20/20/20 21/21/21 57/57/57
f 39/39/39 26/26/26 43/43/43
f 51/51/51 52/52/52 12/12/12
f 51/51/51 12/12/12 30/30/30
f 30/30/30 12/12/12 29/29/29
f 54/54/54 40/40/40 12/12/12
f 54/54/54 12/12/12 53/53/53
f 53/53/53 12/12/12 52/52/52
f 36/36/36 32/32/32 49/49/49
