mtllib ./ElongatedSquareGyroBiCupola.mtl
g ElongatedSquareGyroBiCupola
v -0.371346 0.3757054 0.906543
v -0.372864 -0.3742937 0.9065042
v 0.37713 -0.3758107 0.9041082
v 0.378648 0.3741874 0.904147
v 0.378027 0.9045472 0.3738467
v -0.371967 0.9060652 0.3762427
v 0.90728 0.3731452 0.3721259
v 0.905763 -0.3768529 0.3720862
v 0.374363 -0.906109 0.3737534
v -0.375632 -0.904591 0.3761494
v -0.904885 -0.3731889 0.3778712
v -0.903367 0.3768092 0.3779099
v 0.372864 0.3742937 -0.9065042
v 0.371346 -0.3757054 -0.906543
v -0.378648 -0.3741874 -0.904147
v -0.37713 0.3758107 -0.9041082
v -0.374363 0.906109 -0.3737534
v 0.375632 0.904591 -0.3761494
v -0.905763 0.3768529 -0.3720862
v -0.90728 -0.3731452 -0.3721259
v -0.378027 -0.9045472 -0.3738467
v 0.371967 -0.9060652 -0.3762427
v 0.903367 -0.3768092 -0.3779099
v 0.904885 0.3731889 -0.3778712
v 0.378648 0.3741874 0.904147
v 0.378027 0.9045472 0.3738467
v 0.90728 0.3731452 0.3721259
v 0.37713 -0.3758107 0.9041082
v 0.905763 -0.3768529 0.3720862
v 0.374363 -0.906109 0.3737534
v -0.372864 -0.3742937 0.9065042
v -0.375632 -0.904591 0.3761494
v -0.904885 -0.3731889 0.3778712
v -0.371346 0.3757054 0.906543
v -0.903367 0.3768092 0.3779099
v -0.371967 0.9060652 0.3762427
v -0.37713 0.3758107 -0.9041082
v -0.374363 0.906109 -0.3737534
v -0.905763 0.3768529 -0.3720862
v -0.378648 -0.3741874 -0.904147
v -0.90728 -0.3731452 -0.3721259
v -0.378027 -0.9045472 -0.3738467
v 0.371346 -0.3757054 -0.906543
v 0.371967 -0.9060652 -0.3762427
v 0.903367 -0.3768092 -0.3779099
v 0.372864 0.3742937 -0.9065042
v 0.904885 0.3731889 -0.3778712
v 0.375632 0.904591 -0.3761494
v -0.905763 0.3768529 -0.3720862
v -0.903367 0.3768092 0.3779099
v 0.375632 0.904591 -0.3761494
v 0.378027 0.9045472 0.3738467
v 0.903367 -0.3768092 -0.3779099
v 0.905763 -0.3768529 0.3720862
v -0.378027 -0.9045472 -0.3738467
v -0.375632 -0.904591 0.3761494

vn -0.3170681 0.1607824 0.9346749
vn -0.200058 -0.4038245 0.8926941
vn 0.3230334 -0.160891 0.9326113
vn 0.2057575 0.403721 0.8914445
vn 0.003690202 0.7070646 0.7071396
vn 0.003690202 0.7070644 0.7071396
vn 0.9272557 0.3466859 0.1414411
vn 0.7093603 -0.001472221 0.7048446
vn 0.3471531 -0.926808 0.1432198
vn 0.0008276124 -0.7071471 0.707066
vn -0.9263336 -0.3467028 0.147321
vn -0.7048424 0.00139 0.7093627
vn 0.3177165 0.1595941 -0.9346583
vn 0.198422 -0.4045387 -0.8927359
vn -0.3236817 -0.1594856 -0.9326279
vn -0.2041218 0.4046427 -0.8914027
vn -0.0008275599 0.7071466 -0.7070668
vn -0.0008280363 0.7071468 -0.7070664
vn -0.678118 0.6799866 -0.2788804
vn -0.7093603 0.001472221 -0.7048446
vn -0.6808643 -0.6772077 -0.278951
vn -0.003690202 -0.7070646 -0.7071396
vn 0.6763219 -0.6799541 -0.2832864
vn 0.7048424 -0.00139 -0.7093627
vn 0.5803584 0.5761478 0.5755329
vn 0.697328 0.6939269 0.1794413
vn 0.7093603 -0.001472238 0.7048446
vn 0.578022 -0.5785508 0.5754734
vn 0.6945138 -0.6967621 0.1793689
vn 0.0008280925 -0.7071468 0.7070664
vn -0.5766701 -0.5762147 0.5791619
vn -0.6961679 -0.6939482 0.1838107
vn -0.7048423 0.001389999 0.7093627
vn -0.574333 0.5784843 0.5792218
vn -0.6933532 0.6967412 0.1838837
vn -0.3462305 0.9267913 0.1455428
vn -0.578022 0.5785508 -0.5754734
vn -0.542225 0.8284588 -0.1401717
vn -0.7093603 0.001472209 -0.7048446
vn -0.5803584 -0.5761478 -0.5755329
vn -0.8288994 -0.5417667 -0.1393363
vn -0.003690202 -0.7070646 -0.7071396
vn 0.574333 -0.5784843 -0.5792218
vn 0.5413181 -0.8284423 -0.1437297
vn 0.7048424 -0.001389999 -0.7093627
vn 0.5766701 0.5762147 -0.5791619
vn 0.8279929 0.541783 -0.1445646
vn 0.6790689 0.6772405 -0.2832154
vn -0.9999929 0.002023203 0.003194125
vn -0.9999928 0.002023841 0.003194763
vn 0.002024153 0.999998 5.186811E-05
vn 0.002024194 0.9999981 5.190905E-05
vn 0.9999929 -0.002023203 -0.003194125
vn 0.9999928 -0.002022565 -0.003194763
vn -0.002024153 -0.999998 -5.186803E-05
vn -0.002024112 -0.9999982 -5.190931E-05

vt 0.568436 0.290912
vt 0.457583 0.183367
vt 0.568668 0.076046
vt 0.67952 0.183591
vt 0.757905 0.259637
vt 0.64682 0.366958
vt 0.785215 0.552372
vt 0.647216 0.000159
vt 0.474732 0.552372
vt 0.379198 0.107321
vt 0.514371 0.737868
vt 0.489887 0.3668
vt 0.300486 0.183367
vt 0.189633 0.290912
vt 0.078549 0.183591
vt 0.189401 0.076046
vt 0.267786 0
vt 0.378871 0.107321
vt 0.148001 0.62929
vt 0 0.107704
vt 0.458483 0.94581
vt 0.111248 0.366958
vt 0.689517 0.498265
vt 0.379034 0.259254
vt 0.796704 0.683479
vt 0.920551 0.62929
vt 0.758069 0.107704
vt 0.486221 0.683479
vt 0.610068 0.62929
vt 0.490283 0
vt 0.390524 0.683678
vt 0.379034 0.814786
vt 0.379034 0.259254
vt 0.080041 0.367158
vt 0.068552 0.498265
vt 0.203888 0.421347
vt 0.271848 0.683479
vt 0.283337 0.552372
vt 0.110853 0.000159
vt 0.58233 1
vt 0.59382 0.868893
vt 0.000164 0.259637
vt 0.678028 0.367158
vt 0.554181 0.421347
vt 0.268182 0.3668
vt 0.98851 0.367158
vt 0.864663 0.421347
vt 1 0.498265
vt 0.689517 0.814504
vt 0.610068 0.683479
vt 0.379034 0.497983
vt 0.299586 0.366958
vt 0.768966 0.366958
vt 0.689517 0.497983
vt 0.458483 0.366958
vt 0.379034 0.497983

usemtl unnamed
usemap unnamed
f 10/10/10 30/30/30 2/2/2
f 2/2/2 30/30/30 3/3/3
f 2/2/2 3/3/3 1/1/1
f 1/1/1 3/3/3 4/4/4
f 1/1/1 4/4/4 6/6/6
f 6/6/6 4/4/4 5/5/5
f 46/46/46 48/48/48 47/47/47
f 47/47/47 48/48/48 26/26/26
f 47/47/47 26/26/26 7/7/7
f 7/7/7 26/26/26 25/25/25
f 3/3/3 8/8/8 27/27/27
f 3/3/3 27/27/27 4/4/4
f 43/43/43 23/23/23 44/44/44
f 44/44/44 23/23/23 29/29/29
f 44/44/44 29/29/29 9/9/9
f 9/9/9 29/29/29 28/28/28
f 40/40/40 21/21/21 41/41/41
f 41/41/41 21/21/21 32/32/32
f 41/41/41 32/32/32 11/11/11
f 11/11/11 32/32/32 31/31/31
f 1/1/1 12/12/12 33/33/33
f 1/1/1 33/33/33 2/2/2
f 37/37/37 19/19/19 38/38/38
f 38/38/38 19/19/19 35/35/35
f 38/38/38 35/35/35 36/36/36
f 36/36/36 35/35/35 34/34/34
f 22/22/22 42/42/42 14/14/14
f 14/14/14 42/42/42 15/15/15
f 14/14/14 15/15/15 13/13/13
f 13/13/13 15/15/15 16/16/16
f 13/13/13 16/16/16 18/18/18
f 18/18/18 16/16/16 17/17/17
f 15/15/15 20/20/20 39/39/39
f 15/15/15 39/39/39 16/16/16
f 13/13/13 24/24/24 45/45/45
f 13/13/13 45/45/45 14/14/14
f 11/11/11 50/50/50 49/49/49
f 11/11/11 49/49/49 41/41/41
f 36/36/36 52/52/52 51/51/51
f 36/36/36 51/51/51 38/38/38
f 7/7/7 54/54/54 53/53/53
f 7/7/7 53/53/53 47/47/47
f 9/9/9 56/56/56 55/55/55
f 9/9/9 55/55/55 44/44/44
