mtllib ./ElongatedSquareCupola.mtl
g ElongatedSquareCupola
v 0.856436 -0.5519522 -0.4809599
v 0.946469 -0.551506 0.2636162
v 0.483643 -0.5537277 0.8537753
v -0.260924 -0.5573147 0.9438093
v -0.851076 -0.5601669 0.4809783
v -0.941109 -0.5606132 -0.2635978
v -0.478283 -0.5583923 -0.8537569
v 0.266284 -0.5548044 -0.9437909
v -0.854691 0.1898252 0.480966
v -0.944724 0.1893789 -0.2636101
v -0.481898 0.1915997 -0.8537692
v 0.26267 0.1951867 -0.9438032
v 0.852821 0.1980388 -0.4809721
v 0.942855 0.1984851 0.263604
v 0.480029 0.1962643 0.853763
v -0.264539 0.1926764 0.9437971
v -0.067154 0.7239399 -0.5265073
v -0.52998 0.7217191 0.06365175
v 0.060172 0.7245713 0.5264828
v 0.522998 0.726792 -0.06367527
v -0.941109 -0.5606132 -0.2635978
v -0.851076 -0.5601669 0.4809783
v -0.478283 -0.5583923 -0.8537569
v -0.481898 0.1915997 -0.8537692
v 0.266284 -0.5548044 -0.9437909
v -0.478283 -0.5583923 -0.8537569
v 0.856436 -0.5519522 -0.4809599
v 0.946469 -0.551506 0.2636162
v 0.942855 0.1984851 0.263604
v 0.483643 -0.5537277 0.8537753
v 0.946469 -0.551506 0.2636162
v 0.480029 0.1962643 0.853763
v -0.260924 -0.5573147 0.9438093
v 0.483643 -0.5537277 0.8537753
v -0.851076 -0.5601669 0.4809783
v -0.854691 0.1898252 0.480966
v 0.522998 0.726792 -0.06367527
v -0.067154 0.7239399 -0.5265073
v 0.060172 0.7245713 0.5264828
v 0.522998 0.726792 -0.06367527
v 0.060172 0.7245713 0.5264828
v -0.52998 0.7217191 0.06365175
v -0.854691 0.1898252 0.480966
v -0.944724 0.1893789 -0.2636101
v -0.481898 0.1915997 -0.8537692

vn 0.00482012 -0.9999886 1.640159E-05
vn 0.004821331 -0.9999885 1.639022E-05
vn 0.00481996 -0.9999885 1.600735E-05
vn 0.004819789 -0.9999885 1.615985E-05
vn 0.004820092 -0.9999886 1.64188E-05
vn 0.004820153 -0.9999885 1.67756E-05
vn 0.004820336 -0.9999884 1.67614E-05
vn 0.004820649 -0.9999885 1.5642E-05
vn -0.9927568 -0.004783206 0.1200455
vn -0.9172825 -0.004427895 -0.3982123
vn -0.7868691 -0.003802852 -0.6171082
vn 0.3678358 0.3737679 -0.8514661
vn 0.8746824 0.286889 -0.3906729
vn 0.951377 0.2856712 -0.1152116
vn 0.7251279 0.3861922 0.5701273
vn -0.3714214 0.3702329 0.8514541
vn -0.3055744 0.9224137 -0.2361725
vn -0.4947756 0.858146 -0.1370506
vn -0.004819649 0.9999885 -1.678778E-05
vn -0.004819649 0.9999885 -1.67878E-05
vn -0.9908682 -0.004778281 -0.1347486
vn -0.9927568 -0.004783208 0.1200455
vn -0.7868692 -0.003802876 -0.6171082
vn -0.1189226 0.1810398 -0.9762593
vn 0.1347469 0.0006330028 -0.99088
vn -0.1200439 -0.000594835 -0.9927685
vn 0.7959303 0.003826225 -0.6053763
vn 0.9927568 0.004782536 -0.1200462
vn 0.7251279 0.386192 0.5701275
vn 0.7868692 0.003801828 0.6171083
vn 0.7868692 0.003801818 0.6171082
vn 0.1171716 0.1822101 0.9762533
vn -0.1347469 -0.0006333374 0.99088
vn 0.1200439 0.0005947613 0.9927685
vn -0.6171008 -0.002961611 0.7868786
vn -0.5719709 0.3799429 0.726975
vn 0.5686638 0.6980878 -0.4350805
vn 0.1943168 0.6795311 -0.7074451
vn 0.552992 0.7097881 0.4363495
vn 0.552992 0.7097879 0.4363498
vn -0.200858 0.6776497 0.7074228
vn -0.439764 0.7050048 0.5563957
vn -0.8133652 0.5734386 0.0980072
vn -0.6625797 0.6921558 -0.286197
vn -0.5598085 0.7044097 -0.4363733

vt 0.333045 0
vt 0.471184 0.171326
vt 0.471371 0.41385
vt 0.333497 0.585504
vt 0.138326 0.585736
vt 0.000187 0.41441
vt 0 0.171887
vt 0.137875 0.000232
vt 0.999899 0.585708
vt 0.999884 0.757198
vt 0.999863 0.999722
vt 0.666644 0.17149
vt 0.666787 0.414014
vt 0.666888 0.585504
vt 0.804814 0.242549
vt 0.666686 0.75735
vt 0.333178 0.828496
vt 0.138007 0.82826
vt 0.138197 0.585736
vt 0.333368 0.585972
vt 0.804713 0.757172
vt 0.804728 0.585682
vt 0.804692 0.999696
vt 0.666542 0
vt 0.471473 0.171668
vt 0.471371 0.000178
vt 0.471616 0.414192
vt 0.471717 0.585682
vt 0.999985 0.242524
vt 0.804794 2.6E-05
vt 0.999965 0
vt 0.666787 0.58586
vt 0.471515 0.757172
vt 0.471616 0.585682
vt 0.471371 0.999696
vt 0.666542 0.999874
vt 0.804794 0.413888
vt 0.80465 0.171364
vt 0.804829 0.41404
vt 1 0.414014
vt 0.804692 0.757476
vt 0.804549 1
vt 0 0.828093
vt 0.137872 0.99975
vt 0.333043 0.999986

usemtl unnamed
usemap unnamed
f 4/4/4 5/5/5 1/1/1
f 4/4/4 1/1/1 3/3/3
f 3/3/3 1/1/1 2/2/2
f 7/7/7 8/8/8 1/1/1
f 7/7/7 1/1/1 6/6/6
f 6/6/6 1/1/1 5/5/5
f 11/11/11 23/23/23 10/10/10
f 10/10/10 23/23/23 21/21/21
f 10/10/10 21/21/21 9/9/9
f 9/9/9 21/21/21 22/22/22
f 14/14/14 28/28/28 13/13/13
f 13/13/13 28/28/28 27/27/27
f 13/13/13 27/27/27 12/12/12
f 12/12/12 27/27/27 25/25/25
f 12/12/12 25/25/25 24/24/24
f 24/24/24 25/25/25 26/26/26
f 30/30/30 31/31/31 29/29/29
f 30/30/30 29/29/29 15/15/15
f 15/15/15 29/29/29 39/39/39
f 36/36/36 35/35/35 16/16/16
f 16/16/16 35/35/35 33/33/33
f 16/16/16 33/33/33 32/32/32
f 32/32/32 33/33/33 34/34/34
f 44/44/44 43/43/43 18/18/18
f 44/44/44 18/18/18 17/17/17
f 17/17/17 18/18/18 19/19/19
f 17/17/17 19/19/19 20/20/20
f 39/39/39 29/29/29 40/40/40
f 17/17/17 45/45/45 44/44/44
f 24/24/24 38/38/38 12/12/12
f 12/12/12 38/38/38 37/37/37
f 12/12/12 37/37/37 13/13/13
f 13/13/13 37/37/37 14/14/14
f 42/42/42 36/36/36 16/16/16
f 42/42/42 16/16/16 41/41/41
f 41/41/41 16/16/16 32/32/32
