mtllib ./ElongatedTriangularOrthoBiCupola.mtl
g ElongatedTriangularOrthoBiCupola
v -0.371233 0.2224134 0.9874831
v 0.007117 -0.4251517 0.9907573
v 0.378747 0.2262634 0.9837481
v 0.373482 0.6543933 0.3679738
v -0.376498 0.6505432 0.3717098
v 0.751833 0.006829134 0.371248
v 0.380203 -0.6445869 0.3782583
v -0.369778 -0.648437 0.3819933
v -0.748129 -0.0008718647 0.3787191
v 0.368993 0.2105807 -0.9909112
v -0.002637 -0.4408354 -0.9839019
v -0.380987 0.2067297 -0.9871762
v -0.380203 0.6445869 -0.3782583
v 0.369778 0.648437 -0.3819933
v -0.751833 -0.006829134 -0.371248
v -0.373482 -0.6543933 -0.3679738
v 0.376498 -0.6505432 -0.3717098
v 0.748129 0.0008718647 -0.3787191
v 0.378747 0.2262634 0.9837481
v 0.373482 0.6543933 0.3679738
v 0.751833 0.006829134 0.371248
v 0.007117 -0.4251517 0.9907573
v 0.380203 -0.6445869 0.3782583
v -0.371233 0.2224134 0.9874831
v -0.376498 0.6505432 0.3717098
v -0.380987 0.2067297 -0.9871762
v -0.380203 0.6445869 -0.3782583
v -0.002637 -0.4408354 -0.9839019
v 0.376498 -0.6505432 -0.3717098
v 0.368993 0.2105807 -0.9909112
v 0.748129 0.0008718647 -0.3787191
v 0.369778 0.648437 -0.3819933
v -0.376498 0.6505432 0.3717098
v -0.380203 0.6445869 -0.3782583
v 0.376498 -0.6505432 -0.3717098
v 0.380203 -0.6445869 0.3782583

vn 0.001752142 0.4992563 0.8664527
vn 0.549785 -0.3052838 0.7775207
vn 0.2412368 0.4222234 0.8738034
vn -0.00137112 0.8210458 0.5708609
vn -0.001371478 0.8210456 0.5708612
vn 0.996374 -0.02183947 0.08223144
vn 0.7120526 -0.4000132 0.577036
vn -0.6218057 -0.7248856 0.2964774
vn -0.9698833 0.1175946 0.2133027
vn 0.4737411 -0.004521341 -0.8806527
vn 0.4233655 -0.2508951 -0.8705248
vn -0.00709322 0.6223344 -0.7827195
vn -0.007075122 0.8118746 -0.5837891
vn -0.007075651 0.811875 -0.5837887
vn -0.9409421 -0.1881009 -0.281507
vn -0.3768052 -0.9043546 -0.2004013
vn 0.004333224 -0.9888092 -0.1491236
vn 0.7063481 -0.4091854 -0.5776157
vn 0.8156829 0.4782235 0.3255206
vn 0.7058652 0.7043811 0.07484408
vn 0.7120527 -0.400014 0.5770355
vn -0.4199907 -0.7365573 0.5301806
vn 0.005649359 -0.9939344 0.1098308
vn -0.8129184 -0.1569071 0.5608422
vn -0.8570494 0.4906376 0.1572933
vn -0.8553606 -0.008525872 -0.517963
vn -0.8645669 0.4921391 -0.1016032
vn -0.5438104 -0.6357182 -0.5478438
vn 0.7063488 -0.409185 -0.5776151
vn 0.8123903 0.4729283 -0.3411172
vn 0.9590493 0.2682931 -0.09079257
vn 0.4689985 0.8779368 -0.09626865
vn -0.005172721 0.9999554 -0.007916122
vn -0.005172712 0.9999554 -0.007916113
vn 0.8685898 -0.4955317 -0.0003545841
vn 0.8685903 -0.4955309 -0.0003554965

vt 0.463878 0.880323
vt 0.46412 0.641112
vt 0.664863 0.760934
vt 0.731697 0.880611
vt 0.530712 1
vt 0.537447 0.244209
vt 0.531196 0.521579
vt 0.115969 0.195316
vt 0.347907 0.195315
vt 0.932924 0.760645
vt 0.732181 0.880467
vt 0.731939 0.641256
vt 0.798773 0.521579
vt 0.999758 0.640968
vt 0.347909 0.434525
vt 0.115971 0.434527
vt 1E-06 0.434528
vt 1 0.880179
vt 0.464626 0.460571
vt 0.684586 0.429122
vt 0.731939 0.6414
vt 0.115968 1E-06
vt 0 0.195317
vt 0.347906 0
vt 0.463876 0.195314
vt 0.34791 0.62984
vt 0.463878 0.434525
vt 0.115972 0.629841
vt 0.799257 1
vt 0.936699 0.061008
vt 0.716739 0.092457
vt 0.863878 0.27737
vt 0.758156 0.521579
vt 0.937447 0.369826
vt 0.643169 0
vt 0.463878 0.151752

usemtl unnamed
usemap unnamed
f 1/1/1 2/2/2 3/3/3
f 1/1/1 3/3/3 5/5/5
f 5/5/5 3/3/3 4/4/4
f 30/30/30 32/32/32 31/31/31
f 31/31/31 32/32/32 20/20/20
f 31/31/31 20/20/20 6/6/6
f 6/6/6 20/20/20 19/19/19
f 2/2/2 7/7/7 21/21/21
f 2/2/2 21/21/21 3/3/3
f 29/29/29 11/11/11 10/10/10
f 10/10/10 11/11/11 12/12/12
f 10/10/10 12/12/12 14/14/14
f 14/14/14 12/12/12 13/13/13
f 10/10/10 18/18/18 29/29/29
f 32/32/32 34/34/34 33/33/33
f 32/32/32 33/33/33 20/20/20
f 6/6/6 36/36/36 35/35/35
f 6/6/6 35/35/35 31/31/31
f 23/23/23 22/22/22 8/8/8
f 23/23/23 8/8/8 16/16/16
f 16/16/16 8/8/8 15/15/15
f 16/16/16 15/15/15 28/28/28
f 28/28/28 15/15/15 26/26/26
f 27/27/27 26/26/26 15/15/15
f 27/27/27 15/15/15 9/9/9
f 9/9/9 15/15/15 8/8/8
f 9/9/9 8/8/8 24/24/24
f 24/24/24 8/8/8 22/22/22
f 25/25/25 27/27/27 9/9/9
f 25/25/25 9/9/9 24/24/24
f 17/17/17 23/23/23 16/16/16
f 17/17/17 16/16/16 28/28/28
