mtllib ./ElongatedTriangularCupola.mtl
g ElongatedTriangularCupola
v -0.750011 -0.572441 0.004673205
v -0.376612 -0.5756613 -0.6457589
v 0.373386 -0.5756873 -0.6476069
v 0.749985 -0.572494 0.0009792049
v 0.376586 -0.5692738 0.6514123
v -0.373412 -0.5692478 0.6532593
v 0.750002 0.177497 -0.002724064
v 0.376603 0.1807173 0.647709
v -0.373395 0.1807432 0.649556
v -0.749994 0.177549 0.0009709366
v -0.376595 0.1743298 -0.6494621
v 0.373403 0.1743038 -0.6513091
v 0.001084 0.7920262 0.4291068
v 0.374483 0.788806 -0.2213263
v -0.375514 0.788833 -0.2194793
v 0.376586 -0.5692738 0.6514123
v 0.749985 -0.572494 0.0009792049
v -0.373412 -0.5692478 0.6532593
v -0.750011 -0.572441 0.004673205
v -0.373395 0.1807432 0.649556
v -0.373412 -0.5692478 0.6532593
v -0.376612 -0.5756613 -0.6457589
v 0.373386 -0.5756873 -0.6476069
v 0.373403 0.1743038 -0.6513091
v 0.373386 -0.5756873 -0.6476069
v -0.373395 0.1807432 0.649556
v -0.749994 0.177549 0.0009709366
v -0.375514 0.788833 -0.2194793
v -0.376595 0.1743298 -0.6494621
v 0.373403 0.1743038 -0.6513091
v 0.374483 0.788806 -0.2213263
v 0.001084 0.7920262 0.4291068

vn -2.294138E-05 -0.999988 0.004937146
vn -2.248323E-05 -0.999988 0.004937981
vn -2.294008E-05 -0.9999879 0.004937193
vn -2.316766E-05 -0.9999879 0.004937144
vn -2.294267E-05 -0.9999878 0.004937097
vn -2.249439E-05 -0.999988 0.004936317
vn 0.9409312 0.2884938 0.1772563
vn 0.3826625 0.213868 0.8987937
vn 0.002435774 0.1618229 0.9868169
vn -0.9614998 0.08265022 -0.262082
vn -0.4761281 0.0826652 -0.8754819
vn -0.002462845 -0.004936266 -0.9999849
vn -0.425774 0.871608 0.2429322
vn -0.001529737 0.7746652 -0.6323697
vn -0.4780701 0.8783162 -0.003158716
vn 0.6565136 0.00370966 0.7543051
vn 0.9815121 -0.0009671168 -0.1913983
vn 0.002462765 0.004937617 0.9999849
vn -0.9815119 0.0009673756 0.1913985
vn -0.864791 0.002498677 0.5021258
vn -0.8647912 0.002498991 0.5021255
vn -0.6565136 -0.003709407 -0.7543052
vn -0.002463521 -0.004936941 -0.9999849
vn 0.8602865 0.09947366 -0.5000123
vn 0.8647912 -0.002498312 -0.5021254
vn -0.7060863 0.5793831 0.4071332
vn -0.706086 0.5793834 0.4071335
vn -0.8176478 0.3310307 -0.4710317
vn -0.001997511 0.5733123 -0.8193347
vn -0.001997907 0.5733126 -0.8193344
vn 0.8528116 0.5221977 -0.004679017
vn 0.5458903 0.5586333 0.6244461

vt 0.502565 0.874789
vt 0.502876 0.624867
vt 0.739946 0.500151
vt 0.976707 0.625358
vt 0.976396 0.875281
vt 0.739325 0.999996
vt 0.776299 0.124961
vt 0.776634 0.374884
vt 0.776802 0.499845
vt 0.272482 0.125244
vt 0.272141 0.375166
vt 0.296126 0.500155
vt 0.315887 0.625035
vt 0.316197 0.874957
vt 0.079126 0.750241
vt 0.503068 0.37519
vt 0.502733 0.125267
vt 0.503235 0.500151
vt 0.000341 0.124934
vt 0.296808 0.00031
vt 0.024667 0
vt 0 0.374856
vt 0.023985 0.499845
vt 0.776131 0
vt 0.502565 0.000306
vt 0.236761 0.500155
vt 0 0.625361
vt 0.502565 0.250467
vt 0.000309 0.875283
vt 0.237379 1
vt 0.999665 0.124711
vt 1 0.374634

usemtl unnamed
usemap unnamed
f 4/4/4 5/5/5 1/1/1
f 4/4/4 1/1/1 3/3/3
f 3/3/3 1/1/1 2/2/2
f 1/1/1 5/5/5 6/6/6
f 12/12/12 23/23/23 11/11/11
f 11/11/11 23/23/23 22/22/22
f 11/11/11 22/22/22 10/10/10
f 10/10/10 22/22/22 19/19/19
f 10/10/10 19/19/19 20/20/20
f 20/20/20 19/19/19 21/21/21
f 9/9/9 18/18/18 8/8/8
f 8/8/8 18/18/18 16/16/16
f 8/8/8 16/16/16 7/7/7
f 7/7/7 16/16/16 17/17/17
f 7/7/7 17/17/17 24/24/24
f 24/24/24 17/17/17 25/25/25
f 13/13/13 14/14/14 15/15/15
f 13/13/13 15/15/15 26/26/26
f 26/26/26 15/15/15 27/27/27
f 28/28/28 11/11/11 10/10/10
f 14/14/14 30/30/30 29/29/29
f 14/14/14 29/29/29 15/15/15
f 9/9/9 8/8/8 32/32/32
f 32/32/32 8/8/8 7/7/7
f 32/32/32 7/7/7 31/31/31
f 31/31/31 7/7/7 24/24/24
