mtllib ./ElongatedPentagonalCupola.mtl
g ElongatedPentagonalCupola
v -0.14744 -0.5379285 -1.200513
v 0.588032 -0.5442214 -1.053745
v 1.096814 -0.5446283 -0.5027089
v 1.184568 -0.538993 0.2421182
v 0.817775 -0.5294688 0.8962383
v 0.136538 -0.5196936 1.209798
v -0.598934 -0.5134007 1.06303
v -1.107716 -0.5129949 0.5119942
v -1.19547 -0.5186291 -0.2328328
v -0.828677 -0.5281534 -0.8869529
v 0.144269 0.2302375 1.203214
v -0.591204 0.2365304 1.056446
v -1.099986 0.2369372 0.50541
v -1.18774 0.2313019 -0.2394171
v -0.820947 0.2217777 -0.8935372
v -0.13971 0.2120026 -1.207097
v 0.595762 0.2057096 -1.060329
v 1.104545 0.2053038 -0.5092931
v 1.192299 0.2109381 0.235534
v 0.825506 0.2204623 0.889654
v -0.550104 0.6183779 -0.3174703
v -0.46235 0.6240132 0.4273568
v 0.273122 0.6177203 0.5741248
v 0.639915 0.6081961 -0.07999522
v 0.131133 0.6086028 -0.6310313
v -0.598934 -0.5134007 1.06303
v 0.136538 -0.5196936 1.209798
v -1.107716 -0.5129949 0.5119942
v -1.099986 0.2369372 0.50541
v -1.19547 -0.5186291 -0.2328328
v -1.107716 -0.5129949 0.5119942
v -0.828677 -0.5281534 -0.8869529
v -0.14744 -0.5379285 -1.200513
v -0.820947 0.2217777 -0.8935372
v -0.828677 -0.5281534 -0.8869529
v 0.588032 -0.5442214 -1.053745
v 1.096814 -0.5446283 -0.5027089
v 1.104545 0.2053038 -0.5092931
v 1.184568 -0.538993 0.2421182
v 1.096814 -0.5446283 -0.5027089
v 0.817775 -0.5294688 0.8962383
v 0.825506 0.2204623 0.889654
v 0.817775 -0.5294688 0.8962383
v -0.820947 0.2217777 -0.8935372
v -0.13971 0.2120026 -1.207097
v 0.595762 0.2057096 -1.060329
v 1.104545 0.2053038 -0.5092931
v 1.192299 0.2109381 0.235534
v 0.825506 0.2204623 0.889654
v 0.144269 0.2302375 1.203214
v -0.591204 0.2365304 1.056446
v -1.099986 0.2369372 0.50541
v -1.18774 0.2313019 -0.2394171

vn -0.01030717 -0.9999084 0.008779129
vn -0.01030741 -0.9999084 0.00877877
vn -0.01030777 -0.9999084 0.008779421
vn -0.01030761 -0.9999084 0.008779388
vn -0.01030719 -0.9999084 0.008779107
vn -0.01030724 -0.9999084 0.008779048
vn -0.0103068 -0.9999085 0.008779211
vn -0.01030669 -0.9999085 0.008778967
vn -0.01030753 -0.9999084 0.008778681
vn -0.01030661 -0.9999084 0.008779666
vn 0.009393492 0.008682155 0.9999183
vn -0.5801284 0.01313024 0.8144194
vn -0.7346426 0.01352792 0.6783195
vn -0.9538668 0.007196895 -0.3001438
vn -0.872191 0.004695632 -0.4891431
vn -0.0093935 -0.0086823 -0.9999183
vn 0.5801283 -0.01313049 -0.8144194
vn 0.7346419 -0.01352891 -0.6783202
vn 0.9538668 -0.007198093 0.3001438
vn 0.8721909 -0.004696701 0.4891432
vn -0.2387433 0.9662471 -0.0967905
vn -0.2341782 0.9218194 0.3088849
vn 0.1817491 0.9530349 0.2422638
vn 0.3012912 0.9488468 -0.09441088
vn 0.02024724 0.9129055 -0.4076688
vn -0.3922988 0.01211909 0.9197582
vn 0.2232564 0.006256486 0.9747398
vn -0.7346426 0.01352796 0.6783195
vn -0.9930778 0.01126279 0.1169172
vn -0.9959899 0.009485219 -0.08896224
vn -0.9930778 0.01126278 0.1169172
vn -0.872191 0.004695632 -0.4891431
vn -0.2232564 -0.006256845 -0.9747398
vn -0.4181564 -0.003665139 -0.9083677
vn -0.4181564 -0.003665103 -0.9083678
vn 0.3922989 -0.01211896 -0.9197581
vn 0.7346422 -0.0135284 -0.6783199
vn 0.9930778 -0.01126405 -0.1169172
vn 0.9959899 -0.009486484 0.08896228
vn 0.9930778 -0.01126404 -0.1169172
vn 0.8721909 -0.00469672 0.4891431
vn 0.4181564 0.003664572 0.9083678
vn 0.4181563 0.003664645 0.9083678
vn -0.3091282 0.8449826 -0.4363993
vn -0.05511273 0.8343345 -0.5484968
vn 0.3184434 0.8384622 -0.4422389
vn 0.503577 0.8313273 -0.2351706
vn 0.5179807 0.8416302 0.1528225
vn 0.378285 0.8381335 0.3929797
vn 0.01373047 0.8501078 0.5264299
vn -0.2578411 0.8453478 0.4678731
vn -0.4974512 0.8521802 0.1622701
vn -0.5256959 0.8430004 -0.1139923

vt 0.404738 0.499701
vt 0.250372 0.55271
vt 0.095863 0.50016
vt 0.00023 0.362125
vt 0 0.191329
vt 0.095262 0.053009
vt 0.249628 0
vt 0.404137 0.052549
vt 0.49977 0.190584
vt 0.5 0.361381
vt 0.662624 0.691026
vt 0.662492 0.861823
vt 0.662385 1
vt 0.499776 0.723741
vt 0.499595 0.861919
vt 0.825223 0.690887
vt 0.825355 0.861684
vt 0.825462 0.999861
vt 0.162609 0.723506
vt 0.16279 0.861684
vt 0.888133 0.27656
vt 0.7925 0.414596
vt 0.638133 0.361587
vt 0.638363 0.19079
vt 0.792871 0.138241
vt 0.500107 0.861684
vt 0.500239 0.690887
vt 0.5 0.999861
vt 0.5 0.552945
vt 0.337391 0.723506
vt 0.337615 0.55271
vt 0.33721 0.861684
vt 0.662838 0.691026
vt 0.825116 0.552709
vt 0.662731 0.552848
vt 0.66297 0.861823
vt 0.663076 1
vt 0.162385 0.55271
vt 0.000224 0.723742
vt 0 0.552945
vt 0.000405 0.861919
vt 0.662731 0.552848
vt 0.500346 0.552709
vt 1 0.191328
vt 0.904738 0.053009
vt 0.750372 0
vt 0.595863 0.052549
vt 0.50023 0.190585
vt 0.5 0.361381
vt 0.595262 0.499701
vt 0.749628 0.55271
vt 0.904137 0.50016
vt 0.99977 0.362125

usemtl unnamed
usemap unnamed
f 4/4/4 5/5/5 1/1/1
f 4/4/4 1/1/1 3/3/3
f 3/3/3 1/1/1 2/2/2
f 9/9/9 10/10/10 1/1/1
f 9/9/9 1/1/1 8/8/8
f 8/8/8 1/1/1 7/7/7
f 43/43/43 42/42/42 27/27/27
f 27/27/27 42/42/42 11/11/11
f 27/27/27 11/11/11 26/26/26
f 26/26/26 11/11/11 12/12/12
f 26/26/26 12/12/12 28/28/28
f 28/28/28 12/12/12 13/13/13
f 15/15/15 32/32/32 14/14/14
f 14/14/14 32/32/32 30/30/30
f 14/14/14 30/30/30 29/29/29
f 29/29/29 30/30/30 31/31/31
f 18/18/18 37/37/37 17/17/17
f 17/17/17 37/37/37 36/36/36
f 17/17/17 36/36/36 16/16/16
f 16/16/16 36/36/36 33/33/33
f 16/16/16 33/33/33 34/34/34
f 34/34/34 33/33/33 35/35/35
f 20/20/20 41/41/41 19/19/19
f 19/19/19 41/41/41 39/39/39
f 19/19/19 39/39/39 38/38/38
f 38/38/38 39/39/39 40/40/40
f 1/1/1 5/5/5 6/6/6
f 1/1/1 6/6/6 7/7/7
f 49/49/49 48/48/48 23/23/23
f 23/23/23 48/48/48 24/24/24
f 23/23/23 24/24/24 21/21/21
f 21/21/21 24/24/24 25/25/25
f 21/21/21 25/25/25 44/44/44
f 44/44/44 25/25/25 45/45/45
f 48/48/48 47/47/47 24/24/24
f 24/24/24 47/47/47 46/46/46
f 24/24/24 46/46/46 25/25/25
f 25/25/25 46/46/46 45/45/45
f 50/50/50 49/49/49 23/23/23
f 50/50/50 23/23/23 22/22/22
f 22/22/22 23/23/23 21/21/21
f 22/22/22 21/21/21 52/52/52
f 52/52/52 21/21/21 53/53/53
f 51/51/51 50/50/50 22/22/22
f 51/51/51 22/22/22 52/52/52
f 21/21/21 44/44/44 53/53/53
