mtllib ./ElongatedPentagonalGyroCupolaRotunda.mtl
g ElongatedPentagonalGyroCupolaRotunda
v 0.608552 -1.00442 0.1953594
v 0.006013 -1.002608 0.6419504
v -0.604919 -1.004301 0.2069114
v -0.379957 -1.007159 -0.5085497
v 0.370009 -1.007232 -0.5156887
v 0.974891 -0.6137804 -0.7201709
v 1.213434 -0.6109681 -0.009122783
v 0.36396 -0.6154734 -1.155211
v -0.386006 -0.6154005 -1.148072
v -0.988545 -0.6135883 -0.7014799
v -1.213507 -0.6107301 0.01398022
v -0.974965 -0.6079168 0.7250283
v -0.364033 -0.6062236 1.160068
v 0.385933 -0.6062977 1.152929
v 0.988472 -0.6081098 0.7063383
v 0.604929 1.17058 -0.2075724
v -0.006003 1.168887 -0.6426115
v -0.608542 1.170699 -0.1960205
v -0.369999 1.173512 0.5150276
v 0.379967 1.173438 0.5078886
v 0.984801 0.7783002 0.3065418
v 1.213479 0.139026 -0.01210505
v 0.974937 0.1362138 -0.7231531
v 0.598832 0.7737488 -0.8439584
v 0.988517 0.1418843 0.7033561
v 0.009873 0.7812325 1.029142
v 0.385978 0.1436964 1.149947
v -0.363988 0.1437704 1.157086
v -0.978635 0.7784922 0.3252328
v -0.97492 0.1420773 0.722047
v -1.213462 0.139264 0.01099795
v -0.614639 0.7738678 -0.8324074
v -0.9885 0.1364058 -0.7044621
v -0.385961 0.1345936 -1.151053
v 0.364005 0.1345206 -1.158193
v 0.604929 1.17058 -0.2075724
v 0.604929 1.17058 -0.2075724
v 1.213479 0.139026 -0.01210505
v 0.984801 0.7783002 0.3065418
v 0.984801 0.7783002 0.3065418
v 0.379967 1.173438 0.5078886
v 0.009873 0.7812325 1.029142
v 0.009873 0.7812325 1.029142
v 0.385978 0.1436964 1.149947
v -0.369999 1.173512 0.5150276
v -0.978635 0.7784922 0.3252328
v -0.608542 1.170699 -0.1960205
v -1.213462 0.139264 0.01099795
v -0.978635 0.7784922 0.3252328
v -0.614639 0.7738678 -0.8324074
v -0.006003 1.168887 -0.6426115
v 0.598832 0.7737488 -0.8439584
v -0.385961 0.1345936 -1.151053
v -0.006003 1.168887 -0.6426115
v 0.598832 0.7737488 -0.8439584
v 0.974937 0.1362138 -0.7231531
v -0.974965 -0.6079168 0.7250283
v -0.364033 -0.6062236 1.160068
v 0.385933 -0.6062977 1.152929
v 0.385933 -0.6062977 1.152929
v 0.988472 -0.6081098 0.7063383
v 1.213434 -0.6109681 -0.009122783
v 0.974891 -0.6137804 -0.7201709
v 0.974891 -0.6137804 -0.7201709
v 0.36396 -0.6154734 -1.155211
v 0.36396 -0.6154734 -1.155211
v -0.386006 -0.6154005 -1.148072
v 0.364005 0.1345206 -1.158193
v -0.988545 -0.6135883 -0.7014799
v -1.213507 -0.6107301 0.01398022
v -1.213507 -0.6107301 0.01398022

vn 0.2346952 -0.9640746 0.1244128
vn -0.063883 -0.9150288 0.398298
vn -0.3004003 -0.9524834 0.05035382
vn -0.1371551 -0.9537569 -0.2674634
vn 0.2835557 -0.9177393 -0.2781204
vn 0.4377089 -0.839815 -0.321126
vn 0.5301701 -0.8458238 -0.05917677
vn 0.1043195 -0.8476316 -0.5202293
vn -0.1733572 -0.8405424 -0.5132601
vn -0.4657682 -0.846553 -0.2576975
vn -0.5449196 -0.8384451 0.008520977
vn -0.3922496 -0.844079 0.3656105
vn -0.1634915 -0.836422 0.5231339
vn 0.2232735 -0.8436286 0.4883031
vn 0.4438064 -0.8372688 0.3194011
vn 0.1649203 0.9845274 -0.05922237
vn -0.003211336 0.9378616 -0.346995
vn -0.2049256 0.9763893 -0.06833565
vn -0.1245829 0.9773366 0.1711499
vn 0.2044655 0.9403105 0.272048
vn 0.8480082 0.4460284 -0.2862529
vn 0.8480082 0.4460284 -0.2862529
vn 0.9168105 0.253457 -0.3085742
vn 0.8480076 0.4460287 -0.2862546
vn 0.7179745 0.2165084 0.6615412
vn 0.5326227 0.450035 0.7167857
vn 0.562911 0.3291694 0.7581417
vn -0.4081017 0.2174707 0.8866565
vn -0.7550842 0.3437083 0.5583123
vn -0.772636 0.2179364 0.5962697
vn -0.9444347 0.08876479 0.3164869
vn -0.541986 0.4112029 -0.7329144
vn -0.8066544 0.2133759 -0.5511619
vn -0.2497844 0.1262327 -0.9600382
vn 0.3265744 0.2516265 -0.9110617
vn 0.8480082 0.4460284 -0.2862529
vn 0.8480079 0.4460285 -0.2862539
vn 0.9854996 0.1686109 0.01899625
vn 0.5791579 0.7953373 0.178927
vn 0.7656435 0.3435596 0.5438354
vn 0.5326226 0.4500353 0.7167857
vn 0.005826994 0.797062 0.6038694
vn -0.2819039 0.3450188 0.8952611
vn 0.009507035 0.06086655 0.9981008
vn -0.5187922 0.4501384 0.7267946
vn -0.5754908 0.7954503 0.1899191
vn -0.8532167 0.4461945 -0.270059
vn -0.9224692 0.2536371 -0.291065
vn -0.8532166 0.4461946 -0.2700587
vn -0.3614325 0.7927315 -0.4908601
vn -0.008488148 0.443655 -0.8961576
vn 0.2819443 0.3378561 -0.897976
vn -0.008488668 0.4436548 -0.8961576
vn -0.008485667 0.4436539 -0.8961582
vn 0.3521779 0.7926611 -0.4976539
vn 0.5778404 0.08418699 -0.8117962
vn -0.7345967 0.002741522 0.6784986
vn -0.1954871 0.003911324 0.9806986
vn 0.009519099 0.003975475 0.999947
vn 0.5954595 0.003158722 0.8033792
vn 0.8722985 0.001891949 0.4889702
vn 0.9931158 -0.0005258662 -0.1171351
vn 0.9480715 -0.001322885 -0.3180546
vn 0.5800577 -0.003274262 -0.8145689
vn 0.580058 -0.003273869 -0.8145686
vn -0.009519651 -0.003974919 -0.9999469
vn -0.4182926 -0.003585803 -0.9083054
vn -0.009520365 -0.003975634 -0.9999469
vn -0.8722984 -0.001891981 -0.4889704
vn -0.953955 -0.001135393 -0.2999475
vn -0.9480719 0.001321417 0.3180533

vt 0.233142 0.316688
vt 0.101049 0.273447
vt 0.100887 0.147896
vt 0.23288 0.113542
vt 0.314618 0.217861
vt 0.427463 0.273111
vt 0.345987 0.371938
vt 0.4273 0.14756
vt 0.345562 0.043241
vt 0.213469 0
vt 0.081476 0.034354
vt 0 0.133181
vt 0.000162 0.258732
vt 0.081901 0.363051
vt 0.213994 0.406292
vt 0.465112 0.166409
vt 0.54911 0.063529
vt 0.684718 0.103022
vt 0.684531 0.230311
vt 0.548806 0.269485
vt 0.409358 0.514269
vt 0.346119 0.610911
vt 0.574564 0.66666
vt 0.699978 0.666576
vt 0.569987 0.89693
vt 0.700258 0.999821
vt 0.574844 0.999905
vt 0.563979 0.436238
vt 0.697836 0.602777
vt 0.56408 0.563527
vt 0.58848 0.66649
vt 0.26527 0.574185
vt 0.143198 0.509943
vt 0.142415 0.637229
vt 0.868385 0.475904
vt 0.346376 0.406292
vt 0.772804 0.769506
vt 0.56988 0.769641
vt 0.427463 0.269343
vt 0.692399 0.833204
vt 0.772911 0.896794
vt 0.646882 0.333245
vt 0.697673 0.39682
vt 0.588216 0.333245
vt 0.780401 0.499746
vt 0.782794 0.166782
vt 0.346119 0.510936
vt 0.148602 0.406989
vt 0.274014 0.407603
vt 0.647373 0
vt 0.993359 0.333245
vt 1 0.429005
vt 0.780401 0.409129
vt 0.345337 0.638223
vt 0.427766 0.063386
vt 0.98077 0.554297
vt 0.427564 0.563613
vt 0.427463 0.436325
vt 0.451699 0.333331
vt 0.432427 1
vt 0.42757 0.897025
vt 0.427463 0.769737
vt 0.432147 0.666755
vt 0.89306 0.654418
vt 0.780674 0.576026
vt 0.004137 0.739532
vt 0 0.636532
vt 0.146552 0.740229
vt 0.000783 0.509245
vt 0.006187 0.406292
vt 0.451963 0.666576

usemtl unnamed
usemap unnamed
f 36/36/36 21/21/21 22/22/22
f 61/61/61 62/62/62 38/38/38
f 38/38/38 62/62/62 23/23/23
f 38/38/38 23/23/23 37/37/37
f 37/37/37 23/23/23 24/24/24
f 18/18/18 46/46/46 19/19/19
f 18/18/18 19/19/19 16/16/16
f 16/16/16 19/19/19 20/20/20
f 16/16/16 20/20/20 39/39/39
f 38/38/38 40/40/40 25/25/25
f 25/25/25 40/40/40 41/41/41
f 25/25/25 41/41/41 27/27/27
f 27/27/27 41/41/41 26/26/26
f 20/20/20 19/19/19 42/42/42
f 48/48/48 49/49/49 47/47/47
f 48/48/48 47/47/47 33/33/33
f 33/33/33 47/47/47 32/32/32
f 33/33/33 32/32/32 34/34/34
f 34/34/34 32/32/32 54/54/54
f 16/16/16 55/55/55 17/17/17
f 16/16/16 17/17/17 18/18/18
f 18/18/18 17/17/17 50/50/50
f 52/52/52 56/56/56 35/35/35
f 52/52/52 35/35/35 51/51/51
f 51/51/51 35/35/35 53/53/53
f 31/31/31 71/71/71 30/30/30
f 30/30/30 71/71/71 57/57/57
f 30/30/30 57/57/57 28/28/28
f 28/28/28 57/57/57 58/58/58
f 28/28/28 58/58/58 44/44/44
f 44/44/44 58/58/58 59/59/59
f 62/62/62 63/63/63 23/23/23
f 64/64/64 65/65/65 35/35/35
f 64/64/64 35/35/35 56/56/56
f 70/70/70 48/48/48 69/69/69
f 69/69/69 48/48/48 33/33/33
f 69/69/69 33/33/33 67/67/67
f 67/67/67 33/33/33 34/34/34
f 67/67/67 34/34/34 66/66/66
f 66/66/66 34/34/34 68/68/68
f 11/11/11 10/10/10 3/3/3
f 3/3/3 10/10/10 4/4/4
f 3/3/3 4/4/4 1/1/1
f 1/1/1 4/4/4 5/5/5
f 1/1/1 5/5/5 7/7/7
f 7/7/7 5/5/5 6/6/6
f 10/10/10 9/9/9 4/4/4
f 4/4/4 9/9/9 8/8/8
f 4/4/4 8/8/8 5/5/5
f 5/5/5 8/8/8 6/6/6
f 12/12/12 11/11/11 3/3/3
f 12/12/12 3/3/3 2/2/2
f 2/2/2 3/3/3 1/1/1
f 2/2/2 1/1/1 14/14/14
f 14/14/14 1/1/1 15/15/15
f 13/13/13 12/12/12 2/2/2
f 13/13/13 2/2/2 14/14/14
f 1/1/1 7/7/7 15/15/15
f 29/29/29 31/31/31 30/30/30
f 29/29/29 30/30/30 45/45/45
f 45/45/45 30/30/30 28/28/28
f 45/45/45 28/28/28 43/43/43
f 43/43/43 28/28/28 44/44/44
f 61/61/61 38/38/38 25/25/25
f 61/61/61 25/25/25 60/60/60
f 60/60/60 25/25/25 27/27/27
