mtllib ./GyroElongatedSquarePyramid.mtl
g GyroElongatedSquarePyramid
v 0.044407 -0.3831152 -0.4260359
v 0.554353 0.07964096 -0.128864
v 0.329582 -0.525566 0.2528472
v 0.307436 0.1510162 0.57572
v 0.013087 0.573716 0.0305738
v -0.435884 0.1731622 0.478326
v -0.496859 0.1109599 -0.266598
v -0.413737 -0.50342 0.1554542
v 0.097614 0.3236058 -0.6714232
v 0.554353 0.07964096 -0.128864
v 0.307436 0.1510162 0.57572
v 0.013087 0.573716 0.0305738
v 0.307436 0.1510162 0.57572
v -0.496859 0.1109599 -0.266598
v -0.435884 0.1731622 0.478326
v 0.044407 -0.3831152 -0.4260359
v 0.329582 -0.525566 0.2528472
v 0.097614 0.3236058 -0.6714232
v 0.097614 0.3236058 -0.6714232
v 0.097614 0.3236058 -0.6714232
v -0.435884 0.1731622 0.478326
v 0.329582 -0.525566 0.2528472
v -0.413737 -0.50342 0.1554542
v 0.307436 0.1510162 0.57572
v -0.413737 -0.50342 0.1554542
v -0.413737 -0.50342 0.1554542

vn 0.7104003 -0.4203451 -0.5644835
vn 0.8843436 -0.3638954 -0.2924324
vn 0.9269506 -0.3725027 -0.0447709
vn 0.9312801 -0.1316235 0.3396949
vn 0.6724157 0.7400963 -0.01070825
vn -0.4065558 0.8447402 0.3480321
vn -0.6024914 0.7780798 -0.1777526
vn -0.9933898 -0.07428055 0.0875155
vn 0.6642292 -0.289334 -0.6892645
vn 0.6724157 0.7400963 -0.01070825
vn 0.6912544 0.7020563 0.1711266
vn -0.4725885 0.8747303 0.1072712
vn -0.05972751 0.7729818 0.6316105
vn -0.799002 -0.3137427 -0.5129926
vn -0.9933898 -0.07428055 0.0875155
vn -0.4224347 -0.6574785 -0.623916
vn -0.002382905 -0.9788848 -0.2043995
vn 0.6301326 0.7523322 -0.19217
vn -0.5142838 0.7864279 -0.3421162
vn -0.4801868 -0.2552384 -0.8392105
vn -0.1298578 -0.4304963 0.8932022
vn -0.1298578 -0.4304963 0.8932022
vn -0.1298573 -0.4304959 0.8932024
vn -0.1298583 -0.4304968 0.8932018
vn -0.6291445 -0.4961526 -0.5983393
vn -0.002382905 -0.9788848 -0.2043995

vt 0.717174 0.157912
vt 0.999893 0.32465
vt 0.717067 0.482562
vt 0.965823 0.517158
vt 0.43397 0.67535
vt 0.4346 0.034027
vt 0.43397 0.358677
vt 0.282552 0.034162
vt 1 0
vt 0.151121 0.841867
vt 0.433824 1
vt 0.717067 0.192585
vt 0.683435 0
vt 0.283008 0.358812
vt 0.43397 0.235106
vt 0 0.192567
vt 0.033736 0
vt 0.151266 0.517217
vt 0.716436 0.517234
vt 0.000456 0.517217
vt 0.762284 0.517572
vt 0.43397 0.846176
vt 0.761947 0.846514
vt 0.434306 0.517234
vt 0.282552 0.034162
vt 0.282552 0.034162

usemtl unnamed
usemap unnamed
f 14/14/14 8/8/8 15/15/15
f 16/16/16 17/17/17 26/26/26
f 1/1/1 9/9/9 2/2/2
f 1/1/1 2/2/2 3/3/3
f 3/3/3 2/2/2 4/4/4
f 5/5/5 11/11/11 10/10/10
f 5/5/5 10/10/10 18/18/18
f 6/6/6 13/13/13 12/12/12
f 6/6/6 12/12/12 7/7/7
f 7/7/7 12/12/12 19/19/19
f 16/16/16 25/25/25 14/14/14
f 16/16/16 14/14/14 20/20/20
f 21/21/21 23/23/23 22/22/22
f 21/21/21 22/22/22 24/24/24
