mtllib ./GyroElongatedTriangularCupola.mtl
g GyroElongatedTriangularCupola
v 0.731961 -0.5038131 -0.1745158
v 0.518557 -0.5046659 0.5444822
v -0.210807 -0.5083408 0.7191662
v -0.726767 -0.511162 0.1748532
v -0.513363 -0.5103092 -0.5441449
v 0.216001 -0.5066343 -0.7188289
v -0.719675 0.1304529 -0.2134501
v -0.175368 0.1330668 -0.7294181
v 0.54362 0.1368178 -0.5160121
v 0.718301 0.1379541 0.213361
v -0.30171 0.744939 -0.3145073
v -0.127029 0.7460752 0.4148658
v 0.417278 0.7486901 -0.1011023
v 0.173994 0.1353403 0.729329
v -0.544994 0.1315892 0.515923
v -0.513363 -0.5103092 -0.5441449
v 0.216001 -0.5066343 -0.7188289
v 0.731961 -0.5038131 -0.1745158
v 0.518557 -0.5046659 0.5444822
v 0.718301 0.1379541 0.213361
v 0.731961 -0.5038131 -0.1745158
v 0.417278 0.7486901 -0.1011023
v -0.30171 0.744939 -0.3145073
v -0.127029 0.7460752 0.4148658
v 0.173994 0.1353403 0.729329
v -0.30171 0.744939 -0.3145073
v -0.719675 0.1304529 -0.2134501
v -0.210807 -0.5083408 0.7191662
v -0.210807 -0.5083408 0.7191662
v -0.726767 -0.511162 0.1748532
v -0.513363 -0.5103092 -0.5441449

vn 0.005117645 -0.9999869 0.0003324972
vn 0.005118357 -0.9999869 0.0003332469
vn 0.005117664 -0.9999869 0.0003325162
vn 0.005117409 -0.9999869 0.0003325302
vn 0.005117629 -0.9999869 0.0003324783
vn 0.005117884 -0.9999869 0.0003316153
vn -0.6682243 0.2414091 -0.703703
vn -0.1368296 0.3312616 -0.933565
vn 0.6999421 0.2609144 -0.6648344
vn 0.9415784 0.2498056 -0.2258923
vn -0.005118553 0.9999869 -0.0003318977
vn 0.4284213 0.780132 0.455905
vn 0.3342671 0.872229 0.3570467
vn 0.5348492 0.2323187 0.812382
vn -0.7425207 0.3286664 0.5836449
vn -0.4766694 -0.002732158 -0.8790785
vn 0.2843655 -0.05608424 -0.9570743
vn 0.8790676 0.004340963 -0.4766775
vn 0.6871124 -0.05346429 0.7245814
vn 0.7309227 0.3380218 0.5928688
vn 0.9479018 -0.1497579 0.2811668
vn 0.4816232 0.5578026 -0.6759406
vn -0.2012977 0.5209344 -0.8295221
vn -0.6215886 0.5192539 0.5865179
vn -0.2771174 0.2439528 0.9293509
vn -0.7969854 0.5733426 0.1899807
vn -0.9727857 0.2243531 0.05791115
vn 0.2308952 -0.1532025 0.9608417
vn -0.5229604 -0.002393175 0.8523538
vn -0.9705992 -0.06211081 0.23255
vn -0.9463184 -0.1596389 -0.2810638

vt 0.663112 0.874726
vt 0.49538 1
vt 0.327404 0.875274
vt 0.327159 0.625274
vt 0.49489 0.5
vt 0.662867 0.624726
vt 0.563643 0
vt 0.486409 0.12495
vt 0.486311 0.37495
vt 0.563448 0.5
vt 0.249646 0.538467
vt 0.137895 0.469475
vt 0.32678 0.413414
vt 0.094843 0.228146
vt 0.858261 0.716635
vt 0.371806 0.03337
vt 0.327159 0.249847
vt 0.371638 0.466382
vt 0.153587 0
vt 0.283729 0.172086
vt 0.327159 0.007466
vt 0.678299 0.375074
vt 0.678396 0.125074
vt 1 0.645721
vt 0.844424 0.5
vt 0.983854 0.86209
vt 0.842115 0.933003
vt 0 0.104565
vt 0.691078 0.590148
vt 0.689745 0.840143
vt 0.663112 0.964909

usemtl unnamed
usemap unnamed
f 4/4/4 5/5/5 1/1/1
f 4/4/4 1/1/1 3/3/3
f 3/3/3 1/1/1 2/2/2
f 1/1/1 5/5/5 6/6/6
f 14/14/14 28/28/28 19/19/19
f 14/14/14 19/19/19 20/20/20
f 20/20/20 19/19/19 21/21/21
f 13/13/13 11/11/11 12/12/12
f 13/13/13 12/12/12 20/20/20
f 20/20/20 12/12/12 14/14/14
f 24/24/24 26/26/26 15/15/15
f 15/15/15 26/26/26 27/27/27
f 15/15/15 27/27/27 30/30/30
f 30/30/30 27/27/27 31/31/31
f 16/16/16 7/7/7 8/8/8
f 16/16/16 8/8/8 17/17/17
f 17/17/17 8/8/8 9/9/9
f 17/17/17 9/9/9 18/18/18
f 18/18/18 9/9/9 10/10/10
f 7/7/7 23/23/23 8/8/8
f 8/8/8 23/23/23 22/22/22
f 8/8/8 22/22/22 9/9/9
f 9/9/9 22/22/22 10/10/10
f 25/25/25 24/24/24 15/15/15
f 25/25/25 15/15/15 29/29/29
f 29/29/29 15/15/15 30/30/30
