mtllib ./HexagonalAntiPrism.mtl
g HexagonalAntiPrism
v 0 -0.75 0.3208503
v 0.649519 -0.3749999 0.3208502
v 0.649519 0.3750001 0.3208499
v 0 0.7500002 0.3208498
v -0.649519 0.3750001 0.3208499
v -0.649519 -0.3749999 0.3208502
v -0.375 -0.6495192 -0.3208498
v -0.75 -1.147449E-07 -0.32085
v -0.375 0.649519 -0.3208503
v 0.375 0.649519 -0.3208503
v 0.75 -1.147449E-07 -0.32085
v 0.375 -0.6495192 -0.3208498
v 0.375 0.649519 -0.3208503
v 0 0.7500002 0.3208498
v -0.375 0.649519 -0.3208503
v -0.375 0.649519 -0.3208503
v 0 0.7500002 0.3208498
v -0.649519 0.3750001 0.3208499
v -0.75 -1.147449E-07 -0.32085
v -0.649519 -0.3749999 0.3208502
v -0.75 -1.147449E-07 -0.32085
v -0.649519 -0.3749999 0.3208502
v -0.375 -0.6495192 -0.3208498
v 0 -0.75 0.3208503
v 0.375 -0.6495192 -0.3208498
v 0.649519 -0.3749999 0.3208502
v 0.375 -0.6495192 -0.3208498
v 0 -0.75 0.3208503
v 0.75 -1.147449E-07 -0.32085
v 0.649519 0.3750001 0.3208499
v 0.75 -1.147449E-07 -0.32085
v 0.649519 0.3750001 0.3208499

vn 0 3.576279E-07 1
vn 0 3.576278E-07 1
vn 0 3.576279E-07 1
vn 0 3.576278E-07 1
vn 0 3.576279E-07 1
vn 0 3.576278E-07 1
vn 0 -3.576279E-07 -1
vn 0 -3.576278E-07 -1
vn 0 -3.576279E-07 -1
vn 0 -3.576278E-07 -1
vn 0 -3.576279E-07 -1
vn 0 -3.576278E-07 -1
vn 0.4991808 0.8646066 -0.05722072
vn 0.258819 0.9659259 -3.855096E-07
vn 0 0.9879615 -0.1547009
vn -0.7071068 0.7071069 -2.528811E-07
vn -0.4939807 0.8555999 0.1547002
vn -0.8646065 0.4991809 0.05722022
vn -0.9659258 0.2588191 -5.249333E-08
vn -0.9879615 5.532522E-08 0.1547005
vn -0.8555997 -0.4939809 -0.1547003
vn -0.7071068 -0.7071069 2.528811E-07
vn -0.4991808 -0.8646066 -0.0572201
vn -0.258819 -0.9659259 3.053744E-07
vn 0 -0.9879616 -0.1547002
vn 0.8646065 -0.4991808 0.05722058
vn 0.7071068 -0.7071069 2.528811E-07
vn 0.4939807 -0.8555998 0.1547008
vn 0.9659258 -0.2588191 1.326285E-07
vn 0.9879615 5.532522E-08 0.1547005
vn 0.8555997 0.4939807 -0.1547006
vn 0.7071068 0.7071069 -2.528811E-07

vt 0.500295 0.402161
vt 0.5 0.134212
vt 0.749705 0
vt 0.999705 0.133737
vt 1 0.401686
vt 0.750295 0.535898
vt 0.249705 0
vt 0.499705 0.133737
vt 0.5 0.401686
vt 0.250295 0.535898
vt 0.000295 0.402161
vt 0 0.134212
vt 0.75 0.76797
vt 0.5 0.901707
vt 0.727429 1
vt 0.75 0.901901
vt 0.977525 1
vt 0.999868 0.767951
vt 0.750032 0.633951
vt 0.97758 0.535898
vt 0.27206 1
vt 0.499705 0.90214
vt 0.25 0.767928
vt 0.5 0.634191
vt 0.272571 0.535898
vt 0 0.767947
vt 0.249868 0.633998
vt 0.022343 0.535898
vt 0.249837 0.901947
vt 0.022289 1
vt 0.72794 0.535898
vt 0.500295 0.633758

usemtl unnamed
usemap unnamed
f 4/4/4 5/5/5 1/1/1
f 4/4/4 1/1/1 3/3/3
f 3/3/3 1/1/1 2/2/2
f 1/1/1 5/5/5 6/6/6
f 10/10/10 11/11/11 7/7/7
f 10/10/10 7/7/7 9/9/9
f 9/9/9 7/7/7 8/8/8
f 7/7/7 11/11/11 12/12/12
f 32/32/32 31/31/31 13/13/13
f 32/32/32 13/13/13 14/14/14
f 14/14/14 13/13/13 15/15/15
f 19/19/19 20/20/20 18/18/18
f 19/19/19 18/18/18 16/16/16
f 16/16/16 18/18/18 17/17/17
f 22/22/22 21/21/21 23/23/23
f 22/22/22 23/23/23 24/24/24
f 24/24/24 23/23/23 25/25/25
f 29/29/29 30/30/30 26/26/26
f 29/29/29 26/26/26 27/27/27
f 27/27/27 26/26/26 28/28/28
