mtllib ./IcosiDodecahedron.mtl
g IcosiDodecahedron
v 0 -2.820236E-07 -0.7885951
v 0.207295 0.4145888 -0.6379882
v 0.463526 -2.281623E-07 -0.637988
v -0.207295 -0.4145893 -0.6379879
v -0.463526 -2.281623E-07 -0.637988
v 0.75 -8.715033E-08 -0.24369
v 0.542705 -0.4145892 -0.3942979
v -0.128115 0.6708199 -0.3942983
v 0.335411 0.67082 -0.2436903
v -0.75 -8.715033E-08 -0.24369
v -0.542705 0.4145889 -0.3942982
v 0.128115 -0.6708202 -0.3942978
v -0.335411 -0.6708202 -0.2436898
v 0.67082 0.414589 -1.482686E-07
v 0.75 8.715033E-08 0.24369
v 0.414589 -0.6708201 2.399039E-07
v -0.414589 0.6708201 -2.399039E-07
v 0.335411 0.6708202 0.2436898
v -0.67082 -0.414589 1.482686E-07
v -0.75 8.715033E-08 0.24369
v -0.335411 -0.67082 0.2436903
v 0.463526 2.281623E-07 0.637988
v 0.542705 -0.4145889 0.3942982
v 0.128115 -0.6708199 0.3942983
v -0.542705 0.4145892 0.3942979
v -0.128115 0.6708202 0.3942978
v 0.207295 0.4145893 0.6379879
v -0.463526 2.281623E-07 0.637988
v -0.207295 -0.4145888 0.6379882
v 0 2.820236E-07 0.7885951
v 0.463526 -2.281623E-07 -0.637988
v 0.207295 0.4145888 -0.6379882
v -0.463526 -2.281623E-07 -0.637988
v -0.207295 -0.4145893 -0.6379879
v 0.128115 -0.6708202 -0.3942978
v -0.128115 0.6708199 -0.3942983
v 0.67082 0.414589 -1.482686E-07
v -0.67082 -0.414589 1.482686E-07
v -0.128115 0.6708202 0.3942978
v 0.128115 -0.6708199 0.3942983
v 0.463526 2.281623E-07 0.637988
v 0.207295 0.4145893 0.6379879
v -0.463526 2.281623E-07 0.637988
v -0.207295 -0.4145888 0.6379882
v -0.542705 0.4145889 -0.3942982
v -0.128115 0.6708199 -0.3942983
v 0.542705 -0.4145892 -0.3942979
v 0.128115 -0.6708202 -0.3942978
v 0.463526 -2.281623E-07 -0.637988
v 0.75 -8.715033E-08 -0.24369
v -0.463526 -2.281623E-07 -0.637988
v -0.75 -8.715033E-08 -0.24369
v -0.414589 0.6708201 -2.399039E-07
v 0.414589 -0.6708201 2.399039E-07
v 0.75 8.715033E-08 0.24369
v 0.463526 2.281623E-07 0.637988
v -0.75 8.715033E-08 0.24369
v -0.463526 2.281623E-07 0.637988
v 0.128115 -0.6708199 0.3942983
v 0.542705 -0.4145889 0.3942982
v -0.542705 0.4145892 0.3942979
v -0.128115 0.6708202 0.3942978

vn 0 -3.660232E-07 -1
vn -2.359509E-06 0.3414383 -0.9399044
vn 0.30539 -0.1526991 -0.9399043
vn 2.359509E-06 -0.341439 -0.9399042
vn -0.30539 0.1526984 -0.9399045
vn 0.9437146 -0.3145725 -0.1022102
vn 0.7926357 -0.5149191 -0.3264768
vn 0.0390295 0.9919918 -0.1201214
vn 0.5393448 0.7453558 -0.3918572
vn -0.9437146 0.3145725 -0.1022104
vn -0.7926357 0.5149189 -0.3264771
vn -0.0390295 -0.9919919 -0.1201207
vn -0.5393448 -0.7453561 -0.3918567
vn 0.9822468 0.1875938 -6.708875E-08
vn 0.9642755 -0.1716397 0.2017737
vn 0.7774371 -0.6289607 2.249339E-07
vn -0.7774371 0.6289607 -2.249339E-07
vn 0.4253255 0.850651 0.3090167
vn -0.9822468 -0.1875938 6.708875E-08
vn -0.9642755 0.1716399 0.2017736
vn -0.4253255 -0.8506508 0.3090173
vn 0.7946544 -0.1875938 0.5773498
vn 0.8438382 -0.496159 0.2043613
vn 0.4911239 -0.7946542 0.3568224
vn -0.8438382 0.4961591 0.2043609
vn -0.4911239 0.7946545 0.3568218
vn 0.6097466 0.5593143 0.561584
vn -0.7946544 0.1875942 0.5773497
vn -0.6097466 -0.559314 0.5615844
vn -0.09213106 0.149072 0.984525
vn 0.7946544 -0.1875942 -0.5773497
vn 0.494135 0.6468329 -0.5808942
vn -0.7946544 0.1875938 -0.5773498
vn -0.494135 -0.6468333 -0.5808938
vn 0.4911239 -0.7946545 -0.3568218
vn -0.4911239 0.7946542 -0.3568224
vn 0.7863185 0.5806925 -0.2109491
vn -0.7863185 -0.5806926 -0.2109487
vn 0.05043325 0.9865922 0.155218
vn -0.05043325 -0.9865921 0.1552187
vn 0.2916332 -0.3306638 0.8975587
vn -0.1320373 0.3961076 0.9086612
vn -0.30539 0.1526991 0.9399043
vn 0.1320361 -0.3961072 0.9086614
vn -0.2763918 0.4472137 -0.8506513
vn -0.2763936 0.4472123 -0.8506514
vn 0.2763918 -0.4472143 -0.850651
vn 0.2763936 -0.4472129 -0.8506511
vn 0.7236069 0.4472136 -0.525731
vn 0.7236065 0.4472148 -0.5257306
vn -0.7236069 -0.4472139 -0.5257307
vn -0.7236065 -0.4472152 -0.5257303
vn 0 1 -3.576279E-07
vn 0 -1 3.576279E-07
vn 0.723607 0.4472139 0.5257307
vn 0.7236065 0.4472152 0.5257303
vn -0.723607 -0.4472136 0.5257311
vn -0.7236065 -0.4472148 0.5257306
vn 0.2763933 -0.4472141 0.8506505
vn 0.2763942 -0.4472144 0.8506502
vn -0.2763926 0.4472138 0.850651
vn -0.2763934 0.4472138 0.8506507

vt 0.904302 0.26629
vt 1 0.173023
vt 0.999849 0.359804
vt 0.775937 0.359515
vt 0.776088 0.172734
vt 0.261809 0.604135
vt 0.12095 0.661962
vt 0.267911 0
vt 0.19394 0.120662
vt 0.514128 0.90651
vt 0.654986 0.848683
vt 0.508026 0.510823
vt 0.581996 0.390162
vt 0.387821 0.604038
vt 0.348955 0.755176
vt 0.121041 0.848743
vt 0.654895 0.661902
vt 0.26814 0.282323
vt 0.388115 0.906608
vt 0.426982 0.755469
vt 0.507797 0.2285
vt 0.387968 0.906255
vt 0.261956 0.906353
vt 0.160055 0.999822
vt 0.513981 0.604293
vt 0.615882 0.510823
vt 0.314031 0.423426
vt 0.387968 0.60439
vt 0.461905 0.087397
vt 0.885253 0.755357
vt 0.159817 0.510823
vt 0.119774 0.000191
vt 0.61612 0.999822
vt 0.656162 0.510633
vt 0.019049 0.755432
vt 0.756887 0.755214
vt 0.120003 0.282514
vt 0.655933 0.228309
vt 0.387968 0.261574
vt 0.387968 0.24925
vt 0.980799 0.661843
vt 0.980951 0.848624
vt 0.757039 0.848912
vt 0.756887 0.662132
vt 0.792545 0.021647
vt 0.93093 0.021825
vt 0.930534 0.510823
vt 0.792148 0.510645
vt 0 0.087588
vt 0.000142 0.262074
vt 0.775937 0.423235
vt 0.775795 0.24875
vt 0.387827 0.087088
vt 0.38811 0.423735
vt 0.074341 0.423735
vt 0.194257 0.510823
vt 0.701595 0.087088
vt 0.58168 0
vt 0.773099 0.511002
vt 0.911485 0.510823
vt 0.773495 1
vt 0.911881 0.999822

usemtl unnamed
usemap unnamed
f 23/23/23 24/24/24 16/16/16
f 23/23/23 16/16/16 6/6/6
f 6/6/6 16/16/16 7/7/7
f 6/6/6 7/7/7 31/31/31
f 25/25/25 26/26/26 17/17/17
f 25/25/25 17/17/17 10/10/10
f 10/10/10 17/17/17 11/11/11
f 10/10/10 11/11/11 33/33/33
f 6/6/6 14/14/14 15/15/15
f 6/6/6 15/15/15 23/23/23
f 23/23/23 15/15/15 22/22/22
f 7/7/7 16/16/16 35/35/35
f 36/36/36 11/11/11 17/17/17
f 10/10/10 19/19/19 20/20/20
f 10/10/10 20/20/20 25/25/25
f 25/25/25 20/20/20 28/28/28
f 53/53/53 39/39/39 8/8/8
f 8/8/8 39/39/39 18/18/18
f 8/8/8 18/18/18 9/9/9
f 9/9/9 18/18/18 37/37/37
f 9/9/9 37/37/37 49/49/49
f 49/49/49 37/37/37 50/50/50
f 54/54/54 40/40/40 12/12/12
f 12/12/12 40/40/40 21/21/21
f 12/12/12 21/21/21 13/13/13
f 13/13/13 21/21/21 38/38/38
f 13/13/13 38/38/38 51/51/51
f 51/51/51 38/38/38 52/52/52
f 18/18/18 39/39/39 27/27/27
f 18/18/18 27/27/27 55/55/55
f 55/55/55 27/27/27 56/56/56
f 21/21/21 40/40/40 29/29/29
f 21/21/21 29/29/29 57/57/57
f 57/57/57 29/29/29 58/58/58
f 59/59/59 60/60/60 41/41/41
f 59/59/59 41/41/41 44/44/44
f 44/44/44 41/41/41 30/30/30
f 44/44/44 30/30/30 43/43/43
f 43/43/43 30/30/30 61/61/61
f 30/30/30 41/41/41 42/42/42
f 30/30/30 42/42/42 61/61/61
f 61/61/61 42/42/42 62/62/62
f 47/47/47 48/48/48 1/1/1
f 47/47/47 1/1/1 3/3/3
f 3/3/3 1/1/1 2/2/2
f 45/45/45 46/46/46 1/1/1
f 45/45/45 1/1/1 5/5/5
f 5/5/5 1/1/1 4/4/4
f 32/32/32 8/8/8 9/9/9
f 32/32/32 9/9/9 49/49/49
f 34/34/34 12/12/12 13/13/13
f 34/34/34 13/13/13 51/51/51
f 1/1/1 46/46/46 2/2/2
f 1/1/1 48/48/48 4/4/4
f 55/55/55 37/37/37 18/18/18
f 57/57/57 38/38/38 21/21/21
