mtllib ./OctagonalAntiPrism.mtl
g OctagonalAntiPrism
v 0 -0.979922 0.3226114
v 0.69291 -0.69291 0.3226113
v 0.979922 1.153747E-07 0.322611
v 0.69291 0.6929102 0.3226108
v 0 0.9799222 0.3226107
v -0.69291 0.6929102 0.3226108
v -0.979922 1.153747E-07 0.322611
v -0.69291 -0.69291 0.3226113
v -0.375 -0.9053302 -0.3226107
v -0.90533 -0.3750001 -0.3226109
v -0.90533 0.3749999 -0.3226112
v -0.375 0.90533 -0.3226114
v 0.375 0.90533 -0.3226114
v 0.90533 0.3749999 -0.3226112
v 0.90533 -0.3750001 -0.3226109
v 0.375 -0.9053302 -0.3226107
v 0.375 0.90533 -0.3226114
v 0 0.9799222 0.3226107
v -0.375 0.90533 -0.3226114
v -0.375 0.90533 -0.3226114
v 0 0.9799222 0.3226107
v -0.69291 0.6929102 0.3226108
v -0.90533 0.3749999 -0.3226112
v -0.979922 1.153747E-07 0.322611
v -0.90533 -0.3750001 -0.3226109
v -0.90533 -0.3750001 -0.3226109
v -0.979922 1.153747E-07 0.322611
v -0.69291 -0.69291 0.3226113
v -0.375 -0.9053302 -0.3226107
v 0 -0.979922 0.3226114
v 0.375 -0.9053302 -0.3226107
v 0.69291 -0.69291 0.3226113
v 0.375 -0.9053302 -0.3226107
v 0 -0.979922 0.3226114
v 0.90533 -0.3750001 -0.3226109
v 0.979922 1.153747E-07 0.322611
v 0.90533 0.3749999 -0.3226112
v 0.90533 0.3749999 -0.3226112
v 0.979922 1.153747E-07 0.322611
v 0.69291 0.6929102 0.3226108

vn 0 3.576279E-07 1
vn 0 3.576279E-07 1
vn 0 3.576279E-07 1
vn 0 3.576279E-07 1
vn 0 3.576279E-07 1
vn 0 3.576279E-07 1
vn 0 3.576279E-07 1
vn 0 3.576279E-07 1
vn 0 -3.576279E-07 -1
vn 0 -3.576278E-07 -1
vn 0 -3.576279E-07 -1
vn 0 -3.576279E-07 -1
vn 0 -3.576279E-07 -1
vn 0 -3.576279E-07 -1
vn 0 -3.576279E-07 -1
vn 0 -3.576279E-07 -1
vn 0.3823681 0.9231194 -0.04056302
vn 0.1950899 0.9807854 -3.939258E-07
vn 0 0.9933839 -0.1148422
vn -0.5555698 0.8314701 -9.01732E-07
vn -0.3801507 0.9177675 0.1148414
vn -0.7065248 0.706525 0.04056158
vn -0.9231192 0.3823681 -0.04056282
vn -0.9807853 0.1950899 -1.129392E-07
vn -0.9933838 -4.107064E-08 -0.1148418
vn -0.83147 -0.5555699 -4.056879E-07
vn -0.9177673 -0.3801507 0.1148419
vn -0.7065248 -0.7065249 0.04056209
vn -0.3823681 -0.9231194 -0.04056236
vn -0.1950899 -0.9807854 3.075865E-07
vn 0 -0.993384 -0.1148415
vn 0.7065248 -0.7065249 0.04056209
vn 0.5555698 -0.8314701 -3.070183E-07
vn 0.3801507 -0.9177673 0.1148421
vn 0.9231192 -0.3823682 -0.04056255
vn 0.9807853 -0.1950899 2.659993E-08
vn 0.9933838 -4.107064E-08 -0.1148418
vn 0.83147 0.5555699 -8.030624E-07
vn 0.9177673 0.3801508 0.1148416
vn 0.7065248 0.706525 0.04056158

vt 0 0.853553
vt 0 0.646447
vt 0.167532 0.5
vt 0.404459 0.5
vt 0.571991 0.646447
vt 0.571991 0.853553
vt 0.404459 1
vt 0.167532 1
vt 0 0.353553
vt 0 0.146447
vt 0.167532 0
vt 0.404459 0
vt 0.571991 0.146447
vt 0.571991 0.353553
vt 0.404459 0.5
vt 0.167532 0.5
vt 0.999844 0.295014
vt 0.793397 0.382683
vt 0.992939 0.441456
vt 0.582834 0.786793
vt 0.793397 0.866633
vt 0.780181 0.675613
vt 0.572506 0.579883
vt 0.774313 0.484313
vt 0.571991 0.433316
vt 0.793397 0.795006
vt 0.999712 0.882912
vt 0.996179 0.691569
vt 0.793553 0.587899
vt 1 0.500229
vt 0.800459 0.441456
vt 0.585208 0.19102
vt 0.782554 0.07984
vt 0.571991 0
vt 0.792883 0.28675
vt 0.591076 0.38232
vt 0.793397 0.433316
vt 1 0.087907
vt 0.793685 0
vt 0.797219 0.191344

usemtl unnamed
usemap unnamed
f 4/4/4 5/5/5 1/1/1
f 4/4/4 1/1/1 3/3/3
f 3/3/3 1/1/1 2/2/2
f 7/7/7 8/8/8 1/1/1
f 7/7/7 1/1/1 6/6/6
f 6/6/6 1/1/1 5/5/5
f 12/12/12 13/13/13 9/9/9
f 12/12/12 9/9/9 11/11/11
f 11/11/11 9/9/9 10/10/10
f 15/15/15 16/16/16 9/9/9
f 15/15/15 9/9/9 14/14/14
f 14/14/14 9/9/9 13/13/13
f 39/39/39 38/38/38 40/40/40
f 40/40/40 38/38/38 17/17/17
f 40/40/40 17/17/17 18/18/18
f 18/18/18 17/17/17 19/19/19
f 25/25/25 24/24/24 23/23/23
f 23/23/23 24/24/24 22/22/22
f 23/23/23 22/22/22 20/20/20
f 20/20/20 22/22/22 21/21/21
f 31/31/31 30/30/30 29/29/29
f 29/29/29 30/30/30 28/28/28
f 29/29/29 28/28/28 26/26/26
f 26/26/26 28/28/28 27/27/27
f 37/37/37 36/36/36 35/35/35
f 35/35/35 36/36/36 32/32/32
f 35/35/35 32/32/32 33/33/33
f 33/33/33 32/32/32 34/34/34
