mtllib ./Octahedron.mtl
g Octahedron
v -0.216506 0.3749999 -0.3061862
v 0.216506 0.3750001 0.3061859
v 0.433013 -1.095006E-07 -0.306186
v -0.433013 1.095006E-07 0.306186
v 0.216506 -0.3749999 0.3061862
v -0.216506 -0.3750001 -0.3061859
v -0.216506 0.3749999 -0.3061862
v 0.216506 0.3750001 0.3061859
v -0.433013 1.095006E-07 0.306186
v 0.216506 0.3750001 0.3061859
v 0.216506 0.3750001 0.3061859
v 0.433013 -1.095006E-07 -0.306186
v 0.216506 -0.3749999 0.3061862
v -0.216506 0.3749999 -0.3061862
v -0.433013 1.095006E-07 0.306186
v -0.433013 1.095006E-07 0.306186
v 0.216506 -0.3749999 0.3061862
v -0.216506 -0.3750001 -0.3061859
v -0.216506 -0.3750001 -0.3061859
v 0.216506 -0.3749999 0.3061862
v 0.433013 -1.095006E-07 -0.306186
v -0.216506 -0.3750001 -0.3061859
v 0.433013 -1.095006E-07 -0.306186
v -0.216506 0.3749999 -0.3061862

vn 0.4714046 0.8164967 -0.3333334
vn 0.4714046 0.8164967 -0.3333334
vn 0.4714046 0.8164967 -0.3333334
vn -0.4714046 0.8164968 0.3333328
vn 0 3.576278E-07 1
vn -0.9428087 -1.192097E-07 -0.3333345
vn -0.4714046 0.8164968 0.3333328
vn -0.4714046 0.8164968 0.3333328
vn 0 3.576278E-07 1
vn 0 3.576278E-07 1
vn 0.9428087 1.192097E-07 0.3333345
vn 0.9428087 1.192097E-07 0.3333345
vn 0.9428087 1.192097E-07 0.3333345
vn -0.9428087 -1.192097E-07 -0.3333345
vn -0.9428087 -1.192097E-07 -0.3333345
vn -0.4714046 -0.8164967 0.3333334
vn -0.4714046 -0.8164967 0.3333334
vn -0.4714046 -0.8164967 0.3333334
vn 0.4714046 -0.8164968 -0.3333328
vn 0.4714046 -0.8164968 -0.3333328
vn 0.4714046 -0.8164968 -0.3333328
vn 0 -3.576278E-07 -1
vn 0 -3.576278E-07 -1
vn 0 -3.576278E-07 -1

vt 0.666667 0.166371
vt 0.333727 0.333333
vt 0.333333 0
vt 0 0.333333
vt 0.666667 0.833628
vt 0.66706 0.666667
vt 0.000393 0.666667
vt 0.333333 0.499705
vt 1 1
vt 0.999607 0.666667
vt 0.666667 0.833038
vt 0.333333 0.666667
vt 0.333727 1
vt 1 0.499705
vt 0.666667 0.333333
vt 0.333333 0
vt 0 0.166371
vt 0.33294 0.333333
vt 0.333333 0.499705
vt 0.666273 0.666667
vt 0.666667 0.333333
vt 0.666667 0.166962
vt 1 0.333333
vt 0.999607 0

usemtl unnamed
usemap unnamed
f 1/1/1 2/2/2 3/3/3
f 7/7/7 4/4/4 8/8/8
f 9/9/9 5/5/5 10/10/10
f 11/11/11 13/13/13 12/12/12
f 14/14/14 6/6/6 15/15/15
f 16/16/16 18/18/18 17/17/17
f 19/19/19 21/21/21 20/20/20
f 22/22/22 24/24/24 23/23/23
