mtllib ./PentaKisDodecahedron.mtl
g PentaKisDodecahedron
v 0.13528 -0.4946677 0.8860763
v 0.070657 -0.9620599 0.4170524
v 0.698343 -0.5703689 0.5398893
v -0.50217 -0.5818668 0.7167573
v -0.22851 0.04479637 1.024822
v 0.513447 0.05190234 0.9155111
v 0.546867 -0.8646851 -0.03721469
v 0.977437 -0.3652261 -0.1253349
v 0.522242 -0.6301323 -0.6593029
v -0.038179 -0.9989952 -0.3240897
v -0.518057 -0.8748841 0.1196773
v -0.67827 -0.6416302 -0.4824348
v -0.965032 -0.38383 0.1608431
v -0.783436 0.01825524 0.6588051
v -0.977437 0.3652261 0.1253349
v -0.522242 0.6301323 0.6593029
v 0.117475 0.5804453 0.8351119
v 0.038179 0.9989952 0.3240897
v 0.67827 0.6416302 0.4824348
v 0.939647 0.03475815 0.404948
v 0.965032 0.38383 -0.1608431
v 0.518057 0.8748841 -0.1196773
v 0.50217 0.5818668 -0.7167573
v -0.070657 0.9620599 -0.4170524
v -0.546867 0.8646851 0.03721469
v -0.698343 0.5703689 -0.5398893
v -0.939647 -0.03475815 -0.404948
v -0.513447 -0.05190234 -0.9155111
v -0.117475 -0.5804453 -0.8351119
v 0.22851 -0.04479637 -1.024822
v 0.783436 -0.01825524 -0.6588051
v -0.13528 0.4946677 -0.8860763
v 0.13528 -0.4946677 0.8860763
v 0.070657 -0.9620599 0.4170524
v 0.13528 -0.4946677 0.8860763
v -0.50217 -0.5818668 0.7167573
v 0.698343 -0.5703689 0.5398893
v -0.038179 -0.9989952 -0.3240897
v -0.22851 0.04479637 1.024822
v -0.783436 0.01825524 0.6588051
v -0.977437 0.3652261 0.1253349
v -0.783436 0.01825524 0.6588051
v -0.522242 0.6301323 0.6593029
v 0.513447 0.05190234 0.9155111
v 0.939647 0.03475815 0.404948
v 0.939647 0.03475815 0.404948
v 0.67827 0.6416302 0.4824348
v 0.965032 0.38383 -0.1608431
v -0.070657 0.9620599 -0.4170524
v 0.038179 0.9989952 0.3240897
v -0.965032 -0.38383 0.1608431
v -0.939647 -0.03475815 -0.404948
v -0.939647 -0.03475815 -0.404948
v -0.67827 -0.6416302 -0.4824348
v -0.513447 -0.05190234 -0.9155111
v 0.522242 -0.6301323 -0.6593029
v 0.22851 -0.04479637 -1.024822
v 0.783436 -0.01825524 -0.6588051
v 0.783436 -0.01825524 -0.6588051
v 0.977437 -0.3652261 -0.1253349
v -0.13528 0.4946677 -0.8860763
v -0.13528 0.4946677 -0.8860763
v -0.698343 0.5703689 -0.5398893
v 0.50217 0.5818668 -0.7167573

vn 0.3064386 -0.6950379 0.6503983
vn 0.3435721 -0.8755727 0.3396039
vn 0.6955182 -0.5708246 0.4363645
vn -0.52931 -0.5825558 0.6168143
vn -0.1430519 0.0883506 0.9857639
vn 0.4195563 0.09373873 0.9028764
vn 0.5341639 -0.8445992 -0.03635009
vn 0.9071487 -0.4152699 -0.06805872
vn 0.6508403 -0.6497222 -0.3927701
vn 0.2970048 -0.940441 -0.1654058
vn -0.5060233 -0.8545617 0.1168971
vn -0.7241552 -0.6628912 -0.1901966
vn -0.8802874 -0.4323893 0.195278
vn -0.7862081 -0.1690115 0.5944007
vn -0.9396491 0.0006573533 0.3421391
vn -0.6508403 0.6497222 0.3927701
vn 0.1147468 0.5669621 0.8157129
vn 0.2096703 0.9061221 0.367398
vn 0.5142049 0.5085714 0.6906146
vn 0.9272398 -0.1526007 0.3419641
vn 0.8802875 0.4323893 -0.195278
vn 0.5060233 0.8545617 -0.1168971
vn 0.52931 0.5825558 -0.6168142
vn 0.2145696 0.8809184 -0.4218327
vn -0.5341639 0.8445992 0.03635009
vn -0.6955182 0.5708246 -0.4363645
vn -0.9272398 0.1526007 -0.3419642
vn -0.7552281 0.1593804 -0.6357898
vn -0.1147468 -0.566962 -0.8157128
vn 0.1430519 -0.08835059 -0.9857638
vn 0.7862081 0.1690115 -0.5944006
vn 0.09278105 0.6988616 -0.709214
vn -0.09278105 -0.6988616 0.709214
vn -0.2145696 -0.8809184 0.4218327
vn 0.1416775 -0.3047364 0.9418405
vn -0.1922663 -0.3640405 0.9113223
vn 0.4536843 -0.3578533 0.8161566
vn -0.2096703 -0.9061221 -0.367398
vn -0.5366774 -0.1717542 0.8261223
vn -0.7924027 0.3378425 0.507898
vn -0.9071488 0.41527 0.0680587
vn -0.5433522 0.231286 0.8070163
vn -0.3026492 0.5007483 0.8109592
vn 0.7552281 -0.1593804 0.6357897
vn 0.7485529 0.2436588 0.616684
vn 0.898724 0.3540385 0.2587509
vn 0.7241552 0.6628912 0.1901966
vn 0.9982096 0.01921629 0.05664172
vn -0.3435721 0.8755727 -0.3396039
vn -0.2970048 0.940441 0.1654058
vn -0.9982096 -0.01921629 -0.05664172
vn -0.898724 -0.3540385 -0.2587509
vn -0.7485529 -0.2436588 -0.6166839
vn -0.5142049 -0.5085714 -0.6906146
vn -0.4195563 -0.09373871 -0.9028763
vn 0.3026492 -0.5007483 -0.8109592
vn 0.5366774 0.1717542 -0.8261223
vn 0.5433521 -0.231286 -0.8070163
vn 0.7924027 -0.3378425 -0.507898
vn 0.9396491 -0.0006573392 -0.342139
vn -0.3064386 0.6950379 -0.6503983
vn -0.1416775 0.3047364 -0.9418405
vn -0.4536843 0.3578533 -0.8161566
vn 0.1922663 0.3640405 -0.9113224

vt 0.666681 0.370487
vt 0.666696 0.184572
vt 0.769124 0.335549
vt 0.102486 0.164455
vt 0.564198 0.835545
vt 0.421666 0.744645
vt 0.792659 0.143702
vt 0.911557 0.244343
vt 0.897157 0.036997
vt 0.745825 5.7E-05
vt 0.126258 0.356244
vt 0.230888 0.462695
vt 0.245031 0.255315
vt 0.21714 0.076217
vt 0.333341 0.147015
vt 0.769522 0.536944
vt 0.540453 0.643749
vt 0.58713 0.500003
vt 0.435838 0.537269
vt 0.883887 0.423508
vt 0.42165 0.255315
vt 0.540423 0.356244
vt 0.564195 0.164455
vt 0.666436 0.315681
vt 0.87402 0.643649
vt 0.897555 0.835496
vt 0.782792 0.923454
vt 0.89714 0.99995
vt 0.126228 0.643749
vt 0.102483 0.835545
vt 0.449542 0.076217
vt 0.666681 0.129765
vt 0 0.129765
vt 0.000245 0.315681
vt 0.449532 0.92375
vt 0.563963 1
vt 0.333341 0.852921
vt 0.079602 0.500003
vt 0.102698 0
vt 0.669219 0.658621
vt 0.755122 0.74429
vt 0.666679 0.870263
vt 0.66646 0.684348
vt 0.769539 0.500003
vt 0.335669 0.659162
vt 0.335642 0.340774
vt 0.435793 0.462695
vt 1 0.352429
vt 0.999983 0.684518
vt 0.920854 0.500003
vt 0.666679 0.852375
vt 0.33104 0.340774
vt 0.331012 0.659162
vt 0.230843 0.537269
vt 0.245016 0.744645
vt 0.000221 0.684348
vt 0.563984 0
vt 2E-06 0.870263
vt 0.997459 0.158675
vt 0.333341 0.147015
vt 0.999997 0.870434
vt 0.21715 0.92375
vt 0.333341 0.852921
vt 0.102719 1

usemtl unnamed
usemap unnamed
f 9/9/9 59/59/59 8/8/8
f 9/9/9 8/8/8 7/7/7
f 7/7/7 8/8/8 3/3/3
f 7/7/7 3/3/3 2/2/2
f 2/2/2 3/3/3 1/1/1
f 34/34/34 33/33/33 4/4/4
f 34/34/34 4/4/4 11/11/11
f 11/11/11 4/4/4 13/13/13
f 11/11/11 13/13/13 12/12/12
f 12/12/12 13/13/13 52/52/52
f 19/19/19 18/18/18 17/17/17
f 19/19/19 17/17/17 6/6/6
f 6/6/6 17/17/17 5/5/5
f 6/6/6 5/5/5 35/35/35
f 35/35/35 5/5/5 36/36/36
f 35/35/35 37/37/37 6/6/6
f 4/4/4 39/39/39 14/14/14
f 4/4/4 14/14/14 13/13/13
f 13/13/13 14/14/14 15/15/15
f 49/49/49 61/61/61 26/26/26
f 49/49/49 26/26/26 25/25/25
f 25/25/25 26/26/26 41/41/41
f 25/25/25 41/41/41 16/16/16
f 16/16/16 41/41/41 40/40/40
f 17/17/17 18/18/18 43/43/43
f 17/17/17 43/43/43 5/5/5
f 5/5/5 43/43/43 42/42/42
f 8/8/8 48/48/48 20/20/20
f 8/8/8 20/20/20 3/3/3
f 3/3/3 20/20/20 44/44/44
f 45/45/45 19/19/19 6/6/6
f 47/47/47 46/46/46 21/21/21
f 47/47/47 21/21/21 22/22/22
f 22/22/22 21/21/21 23/23/23
f 22/22/22 23/23/23 24/24/24
f 24/24/24 23/23/23 32/32/32
f 26/26/26 28/28/28 27/27/27
f 26/26/26 27/27/27 41/41/41
f 41/41/41 27/27/27 51/51/51
f 54/54/54 53/53/53 55/55/55
f 54/54/54 55/55/55 29/29/29
f 29/29/29 55/55/55 30/30/30
f 29/29/29 30/30/30 56/56/56
f 56/56/56 30/30/30 58/58/58
f 21/21/21 60/60/60 31/31/31
f 21/21/21 31/31/31 23/23/23
f 23/23/23 31/31/31 57/57/57
f 55/55/55 63/63/63 62/62/62
f 55/55/55 62/62/62 30/30/30
f 30/30/30 62/62/62 64/64/64
f 10/10/10 9/9/9 7/7/7
f 10/10/10 7/7/7 2/2/2
f 38/38/38 34/34/34 11/11/11
f 38/38/38 11/11/11 12/12/12
f 18/18/18 47/47/47 22/22/22
f 18/18/18 22/22/22 24/24/24
f 50/50/50 49/49/49 25/25/25
f 50/50/50 25/25/25 16/16/16
f 38/38/38 54/54/54 29/29/29
f 38/38/38 29/29/29 56/56/56
