mtllib ./PentagonalIcosiTetrahedron.mtl
g PentagonalIcosiTetrahedron
v -0.155042 1.543569 0.7439605
v -1.069155 1.166076 0.3495596
v -1.342756 0.5666393 0.7077739
v -0.928483 0.3294465 1.286235
v -0.307188 0.7298116 1.413516
v -1.706578 -0.206183 0.07213608
v -1.095802 1.124798 -0.3988295
v -1.391767 0.4907168 -0.6687282
v 0.074033 1.591436 -0.2947346
v -0.474263 1.356062 -0.7491256
v 0.836 1.155171 0.7692217
v 1.174167 1.111805 0.1011926
v 0.759894 1.348997 -0.4772685
v 1.706578 0.206183 -0.07213608
v 0.927212 0.5536455 1.207796
v 1.341933 0.005427326 0.9078571
v 0.305674 0.3223826 1.558092
v 0.153873 -0.7314395 1.549658
v -0.837066 -0.4140036 1.323986
v -1.174614 -0.8007788 0.7772083
v -0.759894 -1.348997 0.4772685
v -0.074276 -1.422334 0.7723116
v 1.068464 -0.6859487 1.006418
v 1.095802 -1.124798 0.3988295
v 1.392215 -0.8017431 -0.2096727
v 0.474506 -1.525163 0.2715486
v 0.155042 -1.543569 -0.7439605
v -0.786541 -1.390275 -0.2711205
v -1.223626 -0.8767013 -0.5992938
v -0.927212 -0.5536455 -1.207796
v -0.241351 -0.7960846 -1.39033
v 1.019696 -0.9309724 -0.8476608
v 0.928483 -0.3294465 -1.286235
v 1.224449 0.3046347 -1.016336
v 0.242866 -0.2561096 -1.581278
v -0.153873 0.7314395 -1.549658
v -1.018629 0.1898046 -1.245546
v 0.787232 0.9101477 -1.084857
v -1.069155 1.166076 0.3495596
v -1.342756 0.5666393 0.7077739
v -0.155042 1.543569 0.7439605
v -1.095802 1.124798 -0.3988295
v -1.069155 1.166076 0.3495596
v 1.174167 1.111805 0.1011926
v -0.928483 0.3294465 1.286235
v 0.153873 -0.7314395 1.549658
v -0.307188 0.7298116 1.413516
v 0.305674 0.3223826 1.558092
v -0.928483 0.3294465 1.286235
v 0.153873 -0.7314395 1.549658
v -0.837066 -0.4140036 1.323986
v -0.928483 0.3294465 1.286235
v 0.153873 -0.7314395 1.549658
v 0.153873 -0.7314395 1.549658
v 0.305674 0.3223826 1.558092
v 0.927212 0.5536455 1.207796
v 1.706578 0.206183 -0.07213608
v 1.068464 -0.6859487 1.006418
v 1.341933 0.005427326 0.9078571
v 1.706578 0.206183 -0.07213608
v 1.095802 -1.124798 0.3988295
v 0.153873 -0.7314395 1.549658
v -0.074276 -1.422334 0.7723116
v -1.706578 -0.206183 0.07213608
v -0.786541 -1.390275 -0.2711205
v -1.223626 -0.8767013 -0.5992938
v -1.706578 -0.206183 0.07213608
v -0.759894 -1.348997 0.4772685
v -1.174614 -0.8007788 0.7772083
v 0.155042 -1.543569 -0.7439605
v -0.759894 -1.348997 0.4772685
v 1.392215 -0.8017431 -0.2096727
v 1.019696 -0.9309724 -0.8476608
v 0.928483 -0.3294465 -1.286235
v 1.019696 -0.9309724 -0.8476608
v -1.391767 0.4907168 -0.6687282
v -1.018629 0.1898046 -1.245546
v -1.391767 0.4907168 -0.6687282
v -0.153873 0.7314395 -1.549658
v 1.224449 0.3046347 -1.016336
v -0.153873 0.7314395 -1.549658
v 0.242866 -0.2561096 -1.581278
v 1.706578 0.206183 -0.07213608
v 1.706578 0.206183 -0.07213608
v 1.174167 1.111805 0.1011926
v 0.759894 1.348997 -0.4772685

vn -0.09640913 0.7127301 0.6947817
vn -0.5127265 0.6006294 0.6134787
vn -0.5127264 0.6006293 0.6134789
vn -0.5127268 0.6006293 0.6134785
vn -0.1608954 0.6448557 0.7471775
vn -0.933193 0.1868107 0.307006
vn -0.9076012 0.4197336 0.009164551
vn -0.9076012 0.4197333 0.009163843
vn 0.07866733 0.9397436 -0.3327065
vn -0.3272172 0.8907061 -0.31555
vn 0.642473 0.6169356 0.4545536
vn 0.6376638 0.7191294 0.2761121
vn 0.408519 0.8684413 -0.2809306
vn 0.8242775 0.4098202 0.3906587
vn 0.5716156 0.4056655 0.7132259
vn 0.636894 0.06134133 0.7685072
vn 0.2140443 0.5964696 0.7735692
vn -0.3598774 -0.6424209 0.6765972
vn -0.7360934 -0.2479665 0.6298248
vn -0.5211676 -0.5112488 0.6833807
vn -0.3598774 -0.642421 0.6765972
vn -0.3598773 -0.642421 0.6765972
vn 0.5119778 -0.08059221 0.8552098
vn 0.6251773 -0.7435538 0.2372369
vn 0.9535201 -0.283436 -0.1022918
vn 0.3272169 -0.8907062 0.3155501
vn -0.07668615 -0.7463276 -0.6611463
vn -0.5419496 -0.8301765 -0.1307584
vn -0.5663081 -0.5811739 -0.5844076
vn -0.5722859 -0.3417162 -0.7454656
vn -0.2024715 -0.3512346 -0.9141334
vn 0.5576872 -0.814351 -0.1606788
vn 0.682952 -0.007870852 -0.7304209
vn 0.6279798 0.03774806 -0.7773137
vn 0.1318464 -0.433477 -0.8914676
vn -0.1521729 0.6804016 -0.7168664
vn -0.5572805 0.5316128 -0.6378293
vn 0.6062078 0.5607584 -0.56397
vn -0.9076011 0.4197337 0.009165103
vn -0.9331928 0.1868105 0.3070064
vn -0.06838275 0.9971815 0.03087196
vn -0.4980553 0.7869772 -0.3641539
vn -0.3672997 0.9293189 -0.03817953
vn 0.3594704 0.9251588 0.1219117
vn -0.8247622 -0.07294132 0.5607558
vn -0.2149363 0.02314758 0.9763538
vn -0.2149363 0.02314758 0.9763538
vn -0.2149366 0.02314749 0.9763538
vn -0.2149361 0.02314764 0.9763539
vn -0.214935 0.02314878 0.9763541
vn -0.214935 0.02314878 0.9763541
vn -0.214935 0.02314878 0.9763541
vn 0.5119779 -0.08059259 0.8552096
vn 0.5119793 -0.08059381 0.8552088
vn 0.5119793 -0.08059381 0.8552088
vn 0.5119793 -0.08059381 0.8552088
vn 0.9074578 -0.320153 0.2720706
vn 0.8012357 -0.4673651 0.3736195
vn 0.9074578 -0.3201528 0.2720708
vn 0.9171893 -0.2429706 -0.3157992
vn 0.9074578 -0.3201533 0.2720702
vn 0.3670362 -0.7461614 0.5554528
vn 0.009860673 -0.9773294 0.2114954
vn -0.7793167 -0.6235416 0.06214109
vn -0.7793167 -0.6235416 0.06214109
vn -0.7793167 -0.6235416 0.06214109
vn -0.8896353 -0.362004 -0.2783926
vn -0.6330301 -0.7713863 0.06508629
vn -0.7793168 -0.6235414 0.0621405
vn 0.2900066 -0.9541644 -0.07393698
vn -0.1313484 -0.9895638 0.05925702
vn 0.5576873 -0.8143508 -0.1606795
vn 0.8626404 -0.2060122 -0.4619639
vn 0.2846045 -0.536224 -0.7946473
vn 0.2846037 -0.5362236 -0.7946478
vn -0.5572807 0.5316123 -0.6378297
vn -0.7417693 -0.1246706 -0.6589657
vn -0.8621555 -0.130866 -0.4894507
vn -0.283713 -0.08339255 -0.9552763
vn 0.6381444 0.3853517 -0.6665403
vn 0.4051801 0.1914011 -0.893977
vn 0.4051801 0.1914011 -0.893977
vn 0.7794603 0.5239609 -0.3433757
vn 0.77946 0.5239605 -0.3433769
vn 0.77946 0.5239605 -0.3433769
vn 0.77946 0.5239605 -0.3433769

vt 0.59789 0.343456
vt 0.51377 0.423364
vt 0.409525 0.384315
vt 0.381289 0.295254
vt 0.461836 0.259555
vt 0.712952 0.70395
vt 0.822288 0.857032
vt 0.718219 0.817554
vt 0.285272 0.151109
vt 0.176397 0.119113
vt 0.662121 0.200813
vt 0.749673 0.18721
vt 0.300764 0.259587
vt 0.746328 0.055066
vt 0.586285 0.119148
vt 0.610187 0.037004
vt 0.477392 0.151086
vt 0.937418 0.439227
vt 0.879931 0.546962
vt 0.766598 0.557316
vt 0.711973 0.490117
vt 0.77946 0.423364
vt 0.521355 0
vt 0.487293 0.591828
vt 0.805276 0.304917
vt 0.544244 0.686639
vt 0.050865 0.702137
vt 0.104964 0.555658
vt 0.218328 0.545628
vt 0.275367 0.64039
vt 0.209873 0.729953
vt 0.381289 0.679584
vt 0.851732 0.125905
vt 0.957437 0.166563
vt 0.243505 0.808881
vt 0.068668 0.234989
vt 0 0.142418
vt 0.204892 0.318635
vt 0.905922 0.810142
vt 0.872046 0.73131
vt 0.38113 0.0726
vt 0.152543 0.036956
vt 0.241396 0
vt 0.381289 0.29533
vt 0.937262 0.641561
vt 0.381446 0.79416
vt 0.469901 1
vt 0.48694 0.908344
vt 0.381289 0.996494
vt 0.989294 0.423364
vt 0.937418 0.567739
vt 0.989714 0.646093
vt 0.38158 0.072524
vt 0.48694 0.979883
vt 0.549498 0.883388
vt 0.486978 0.79416
vt 0.38623 0.456354
vt 0.55287 0.502321
vt 0.519311 0.423364
vt 0.965938 0.321794
vt 0.749673 0.37137
vt 0.711853 0.530273
vt 0.657618 0.676706
vt 0.99991 0.831816
vt 1 0.646093
vt 0.937418 0.735282
vt 0.276149 0.438057
vt 0.050546 0.488303
vt 0.11824 0.421743
vt 0.486324 0.79416
vt 0.711973 0.744108
vt 0.398697 0.587992
vt 0.769004 0.201127
vt 0.159726 0.855531
vt 0.05578 0.815755
vt 0.056637 0.049627
vt 0.363967 0.64415
vt 0.381289 0.552543
vt 0.376555 0.775776
vt 0.204954 0.403935
vt 0.965385 0
vt 0.835118 0.042115
vt 0.34113 0.421743
vt 0.649441 0.979883
vt 0.711973 0.883372
vt 0.649428 0.79416

usemtl unnamed
usemap unnamed
f 50/50/50 52/52/52 51/51/51
f 54/54/54 56/56/56 55/55/55
f 64/64/64 66/66/66 65/65/65
f 84/84/84 86/86/86 85/85/85
f 4/4/4 5/5/5 1/1/1
f 4/4/4 1/1/1 3/3/3
f 3/3/3 1/1/1 2/2/2
f 7/7/7 8/8/8 6/6/6
f 7/7/7 6/6/6 39/39/39
f 39/39/39 6/6/6 40/40/40
f 83/83/83 80/80/80 38/38/38
f 83/83/83 38/38/38 13/13/13
f 13/13/13 38/38/38 36/36/36
f 13/13/13 36/36/36 9/9/9
f 9/9/9 36/36/36 10/10/10
f 9/9/9 10/10/10 41/41/41
f 41/41/41 10/10/10 42/42/42
f 41/41/41 42/42/42 43/43/43
f 41/41/41 44/44/44 13/13/13
f 41/41/41 13/13/13 9/9/9
f 45/45/45 40/40/40 6/6/6
f 45/45/45 6/6/6 19/19/19
f 19/19/19 6/6/6 20/20/20
f 19/19/19 20/20/20 18/18/18
f 18/18/18 20/20/20 21/21/21
f 18/18/18 21/21/21 22/22/22
f 46/46/46 48/48/48 47/47/47
f 46/46/46 47/47/47 49/49/49
f 12/12/12 1/1/1 11/11/11
f 12/12/12 11/11/11 14/14/14
f 14/14/14 11/11/11 15/15/15
f 14/14/14 15/15/15 16/16/16
f 16/16/16 15/15/15 53/53/53
f 16/16/16 53/53/53 23/23/23
f 57/57/57 59/59/59 58/58/58
f 57/57/57 58/58/58 24/24/24
f 24/24/24 58/58/58 62/62/62
f 24/24/24 62/62/62 26/26/26
f 26/26/26 62/62/62 63/63/63
f 26/26/26 63/63/63 70/70/70
f 70/70/70 63/63/63 71/71/71
f 73/73/73 33/33/33 60/60/60
f 73/73/73 60/60/60 25/25/25
f 25/25/25 60/60/60 61/61/61
f 78/78/78 77/77/77 67/67/67
f 67/67/67 77/77/77 30/30/30
f 67/67/67 30/30/30 29/29/29
f 29/29/29 30/30/30 27/27/27
f 29/29/29 27/27/27 28/28/28
f 28/28/28 27/27/27 68/68/68
f 28/28/28 68/68/68 67/67/67
f 67/67/67 68/68/68 69/69/69
f 24/24/24 26/26/26 70/70/70
f 24/24/24 70/70/70 72/72/72
f 72/72/72 70/70/70 32/32/32
f 30/30/30 77/77/77 79/79/79
f 30/30/30 79/79/79 31/31/31
f 31/31/31 79/79/79 35/35/35
f 31/31/31 35/35/35 27/27/27
f 27/27/27 35/35/35 74/74/74
f 27/27/27 74/74/74 75/75/75
f 42/42/42 10/10/10 36/36/36
f 42/42/42 36/36/36 76/76/76
f 76/76/76 36/36/36 37/37/37
f 34/34/34 60/60/60 33/33/33
f 34/34/34 33/33/33 81/81/81
f 81/81/81 33/33/33 82/82/82
f 15/15/15 11/11/11 1/1/1
f 15/15/15 1/1/1 17/17/17
f 17/17/17 1/1/1 5/5/5
f 36/36/36 38/38/38 80/80/80
f 27/27/27 30/30/30 31/31/31
