mtllib ./SmallDiTrigonalIcosiDodecahedron.mtl
g SmallDiTrigonalIcosiDodecahedron
v 1.322824 0.3065707 -1.023584
v 0.953579 0.8245549 -0.6262794
v 0.503895 1.199247 -1.095204
v 0.725374 1.144686 -0.3807314
v 0.356129 1.66267 0.01657341
v 0.862255 1.110966 0.06083661
v 1.083733 1.056405 0.7753087
v 1.175058 0.7699941 0.08819273
v 1.681184 0.2182901 0.1324559
v 1.2315 0.5929819 -0.3364682
v 1.334229 -0.1446972 -0.424646
v 1.186463 0.3187253 0.6871309
v 0.367535 1.211401 0.6155117
v 0.009175 1.299683 -0.5405285
v 0.606625 0.4615676 -1.183381
v 1.341278 -0.4235971 -0.05448186
v 1.352684 -0.8748649 0.5444553
v 1.131205 -0.8203042 -0.1700167
v 0.7913 -1.462191 -0.3569545
v 0.994324 -0.7865843 -0.6115848
v 0.772846 -0.7320235 -1.326057
v 1.1198 -0.3690363 -0.7689549
v 0.670116 0.005656558 -1.237878
v 0.341616 -1.087498 -0.8258787
v 0.699975 -1.17578 0.3301615
v 1.249954 -0.1371858 0.6326341
v 0.880709 0.3807984 1.029939
v 0.385989 0.4812336 1.584614
v 0.755233 -0.03674958 1.187309
v 0.552209 -0.7123566 1.441939
v 0.983439 -0.3568817 0.9417613
v 0.643534 -0.9987678 0.7548225
v 0.046083 -0.1606525 1.397676
v 0.374583 0.9325024 0.9856758
v -0.075101 1.307194 0.5167516
v -0.7913 1.462191 0.3569545
v -0.341616 1.087498 0.8258787
v -0.772846 0.7320235 1.326057
v -0.063695 0.8559265 1.11569
v -0.26672 0.1803195 1.37032
v -0.994324 0.7865843 0.6115848
v -0.296579 1.361755 -0.1977205
v -0.205255 1.075344 -0.8848365
v -0.552209 0.7123566 -1.441939
v -0.643534 0.9987678 -0.7548225
v -1.352684 0.8748649 -0.5444553
v -0.699975 1.17578 -0.3301615
v -1.131205 0.8203042 0.1700167
v -0.983439 0.3568817 -0.9417613
v 0.16399 0.5573606 -1.282141
v 0.26672 -0.1803195 -1.37032
v -0.385989 -0.4812336 -1.584614
v -0.046083 0.1606525 -1.397676
v -0.755233 0.03674958 -1.187309
v 0.063695 -0.8559265 -1.11569
v -0.356129 -1.66267 -0.01657341
v -0.725374 -1.144686 0.3807314
v -0.503895 -1.199247 1.095204
v -0.953579 -0.8245549 0.6262794
v -1.322824 -0.3065707 1.023584
v -1.2315 -0.5929819 0.3364682
v -1.681184 -0.2182901 -0.1324559
v -1.175058 -0.7699941 -0.08819273
v -1.083733 -1.056405 -0.7753087
v -0.862255 -1.110966 -0.06083661
v -0.367535 -1.211401 -0.6155117
v -1.186463 -0.3187253 -0.6871309
v -1.334229 0.1446972 0.424646
v -0.606625 -0.4615676 1.183381
v -0.009175 -1.299683 0.5405285
v -0.374583 -0.9325024 -0.9856758
v 0.075101 -1.307194 -0.5167516
v 0.296579 -1.361755 0.1977205
v -0.880709 -0.3807984 -1.029939
v -1.249954 0.1371858 -0.6326341
v -1.341278 0.4235971 0.05448186
v -1.1198 0.3690363 0.7689549
v -0.670116 -0.005656558 1.237878
v -0.16399 -0.5573606 1.282141
v 0.205255 -1.075344 0.8848365
v 1.334229 -0.1446972 -0.424646
v 1.681184 0.2182901 0.1324559
v 1.2315 0.5929819 -0.3364682
v 1.322824 0.3065707 -1.023584
v 1.186463 0.3187253 0.6871309
v 1.083733 1.056405 0.7753087
v 1.175058 0.7699941 0.08819273
v 1.681184 0.2182901 0.1324559
v 1.352684 -0.8748649 0.5444553
v 0.356129 1.66267 0.01657341
v 0.374583 0.9325024 0.9856758
v 1.083733 1.056405 0.7753087
v 0.880709 0.3807984 1.029939
v 0.385989 0.4812336 1.584614
v 0.009175 1.299683 -0.5405285
v 0.503895 1.199247 -1.095204
v 0.725374 1.144686 -0.3807314
v -0.7913 1.462191 0.3569545
v 0.772846 -0.7320235 -1.326057
v -0.356129 -1.66267 -0.01657341
v 0.341616 -1.087498 -0.8258787
v 0.7913 -1.462191 -0.3569545
v 0.994324 -0.7865843 -0.6115848
v -0.385989 -0.4812336 -1.584614
v -1.681184 -0.2182901 -0.1324559
v -0.880709 -0.3807984 -1.029939
v -1.083733 -1.056405 -0.7753087
v -0.374583 -0.9325024 -0.9856758
v -0.983439 0.3568817 -0.9417613
v -0.552209 0.7123566 -1.441939
v -0.643534 0.9987678 -0.7548225
v -1.352684 0.8748649 -0.5444553
v -1.334229 0.1446972 0.424646
v -1.322824 -0.3065707 1.023584
v -1.2315 -0.5929819 0.3364682
v -1.681184 -0.2182901 -0.1324559
v -0.994324 0.7865843 0.6115848
v -0.7913 1.462191 0.3569545
v -0.341616 1.087498 0.8258787
v -0.772846 0.7320235 1.326057
v -0.503895 -1.199247 1.095204
v -0.009175 -1.299683 0.5405285
v -0.356129 -1.66267 -0.01657341
v -0.725374 -1.144686 0.3807314
v 0.643534 -0.9987678 0.7548225
v 0.552209 -0.7123566 1.441939
v 0.983439 -0.3568817 0.9417613
v 0.296579 -1.361755 0.1977205
v 0.7913 -1.462191 -0.3569545
v 0.075101 -1.307194 -0.5167516
v -0.755233 0.03674958 -1.187309
v -0.755233 0.03674958 -1.187309
v -1.083733 -1.056405 -0.7753087
v -0.880709 -0.3807984 -1.029939
v -1.186463 -0.3187253 -0.6871309
v -0.063695 0.8559265 1.11569
v 0.953579 0.8245549 -0.6262794
v 1.322824 0.3065707 -1.023584
v 1.2315 0.5929819 -0.3364682
v 0.880709 0.3807984 1.029939
v 0.755233 -0.03674958 1.187309
v 0.385989 0.4812336 1.584614
v 0.205255 -1.075344 0.8848365
v -0.009175 -1.299683 0.5405285
v -0.953579 -0.8245549 0.6262794
v -1.2315 -0.5929819 0.3364682
v -1.322824 -0.3065707 1.023584
v 0.063695 -0.8559265 -1.11569
v 0.772846 -0.7320235 -1.326057
v 0.341616 -1.087498 -0.8258787
v 1.1198 -0.3690363 -0.7689549
v -0.772846 0.7320235 1.326057
v -1.1198 0.3690363 0.7689549
v -0.994324 0.7865843 0.6115848
v 0.503895 1.199247 -1.095204
v 0.009175 1.299683 -0.5405285
v -0.205255 1.075344 -0.8848365
v -0.296579 1.361755 -0.1977205
v -0.205255 1.075344 -0.8848365
v -0.699975 1.17578 -0.3301615
v -0.643534 0.9987678 -0.7548225
v -0.503895 -1.199247 1.095204

vn 0.9936678 -0.07982885 -0.07906821
vn 0.5749734 0.4739673 -0.6669039
vn 0.2697318 0.3045678 -0.9135007
vn 0.2963288 0.7052472 -0.644062
vn 0.2963288 0.7052472 -0.644062
vn 0.6354422 0.7721114 0.007582839
vn 0.3457784 0.9277506 0.1404146
vn 0.7366099 0.6762857 0.006598436
vn 0.7118433 0.6699501 0.2108224
vn 0.9886627 0.1283699 0.07789373
vn 0.9498306 -0.2408384 -0.1995461
vn 0.6373163 0.6212457 0.4559407
vn 0.2611009 0.860595 0.4372674
vn 0.2963288 0.7052472 -0.644062
vn 0.4309542 0.3279032 -0.8406891
vn 0.9528609 -0.3009284 -0.0387056
vn 0.8621429 -0.4919017 0.1214183
vn 0.8269972 -0.5375024 -0.1648232
vn 0.7430935 -0.6436083 0.1832495
vn 0.7654479 -0.5786745 -0.2814703
vn 0.6652657 -0.6999915 -0.2596797
vn 0.6596271 -0.1339134 -0.7395672
vn 0.4411399 0.02763807 -0.8970128
vn 0.4653431 -0.8598787 -0.2099158
vn 0.4632287 -0.8463321 0.2629475
vn 0.8609521 -0.06876211 0.5040172
vn 0.6373165 0.621246 0.4559396
vn 0.4164378 0.7299219 0.5420276
vn 0.2953049 -0.07274805 0.9526295
vn -0.1027602 -0.2275909 0.9683196
vn 0.3247407 -0.4189203 0.8479677
vn 0.3247407 -0.4189203 0.8479677
vn -0.01251523 -0.1203989 0.9926468
vn 0.2215152 0.7808578 0.5841166
vn -0.03162146 0.9041906 0.4259575
vn 0.147924 0.9536569 0.2620253
vn -0.1500679 0.8623797 0.4835092
vn -0.275522 0.8796729 0.3876382
vn -0.1217656 0.3818821 0.9161548
vn -0.1997191 0.08366387 0.976275
vn -0.4653431 0.8598787 0.2099157
vn -0.1781713 0.9837714 -0.02119151
vn -0.0152075 0.6016914 -0.798584
vn 0.1027602 0.2275909 -0.9683196
vn -0.3247408 0.4189203 -0.8479677
vn -0.3247408 0.4189203 -0.8479677
vn -0.4829882 0.8401761 -0.2466306
vn -0.8036227 0.5827544 0.1207815
vn -0.3247408 0.4189203 -0.8479677
vn 0.148443 0.3394742 -0.9288284
vn 0.1997191 -0.08366364 -0.9762749
vn 0.12904 0.03888142 -0.9908769
vn -0.032738 0.1141303 -0.9929264
vn -0.2953049 0.07274805 -0.9526295
vn 0.1217656 -0.3818821 -0.9161547
vn -0.547694 -0.7595077 -0.3509696
vn -0.5717387 -0.8123077 0.1152011
vn -0.4433298 -0.893685 0.06918129
vn -0.5749734 -0.4739673 0.6669039
vn -0.3992052 -0.1634353 0.9021776
vn -0.7779198 -0.1802858 0.601945
vn -0.7779198 -0.1802858 0.601945
vn -0.8347759 -0.5470136 -0.06265394
vn -0.6289605 -0.7652388 -0.1371805
vn -0.6458287 -0.7634256 0.009317951
vn -0.2262747 -0.8551785 -0.4663366
vn -0.8702776 -0.4012198 -0.2857264
vn -0.7779198 -0.1802858 0.601945
vn -0.3896635 -0.2872702 0.8750076
vn -0.2094315 -0.9777748 -0.009746284
vn -0.2215151 -0.7808579 -0.5841166
vn 0.4653443 -0.8598779 -0.209916
vn 0.3588804 -0.9138198 0.1901011
vn -0.718654 -0.40049 -0.5684578
vn -0.8700762 0.07802992 -0.4867019
vn -0.9456077 0.3149115 0.08158994
vn -0.6596271 0.1339134 0.7395672
vn -0.4760586 -0.004019033 0.8794045
vn -0.1165004 -0.3959562 0.9108494
vn 0.0152075 -0.6016914 0.798584
vn 0.7779198 0.1802858 -0.601945
vn 0.7779198 0.1802858 -0.601945
vn 0.7779198 0.1802858 -0.601945
vn 0.3992051 0.1634353 -0.9021776
vn 0.8774049 0.06537703 0.4752752
vn 0.9391361 0.09119295 0.3312206
vn 0.9886624 0.1283711 0.07789479
vn 0.8957168 -0.3553906 0.2671869
vn 0.3247407 -0.4189203 0.8479677
vn 0.1606698 0.9634436 0.2143869
vn 0.2269904 0.2830023 0.9318719
vn 0.2269904 0.2830023 0.9318719
vn 0.2269904 0.2830023 0.9318719
vn -0.12904 -0.03888142 0.9908769
vn 0.01567481 0.9862362 -0.1645985
vn 0.4433298 0.893685 -0.06918129
vn 0.5717386 0.8123077 -0.1152011
vn -0.7430935 0.6436083 -0.1832495
vn 0.3122533 -0.0007677594 -0.9499988
vn 0.4077719 -0.9122514 0.03898463
vn 0.4544908 -0.430485 -0.7798212
vn 0.4544908 -0.430485 -0.7798212
vn 0.4544908 -0.430485 -0.7798212
vn -0.5528158 -0.5568802 -0.6199027
vn -0.7118433 -0.6699501 -0.2108224
vn -0.2269905 -0.2830023 -0.9318719
vn -0.2269905 -0.2830023 -0.9318719
vn -0.2269905 -0.2830023 -0.9318719
vn -0.7963191 0.1370549 -0.5891451
vn -0.7020865 0.5150052 -0.4917765
vn -0.5207285 0.7612177 -0.3865096
vn -0.8621429 0.4919017 -0.1214183
vn -0.9498307 0.2408384 0.1995461
vn -0.9936678 0.07982887 0.07906821
vn -0.9886627 -0.1283699 -0.07789373
vn -0.8957168 0.3553906 -0.2671869
vn -0.4544908 0.430485 0.7798212
vn -0.4544908 0.430485 0.7798212
vn -0.4544908 0.430485 0.7798212
vn -0.3122532 0.0007677525 0.9499986
vn -0.2697318 -0.3045678 0.9135007
vn -0.2963287 -0.7052472 0.644062
vn -0.2963287 -0.7052472 0.644062
vn -0.2963287 -0.7052472 0.644062
vn 0.4424149 -0.8053773 0.3945081
vn 0.7020866 -0.5150052 0.4917765
vn 0.8042914 -0.1779237 0.5669731
vn -0.2094315 -0.9777749 -0.009746601
vn -0.147924 -0.9536569 -0.2620253
vn -0.1053119 -0.9069993 -0.4077522
vn -0.748297 -0.02497015 -0.6628937
vn -0.7482978 -0.02496983 -0.6628929
vn -0.7482977 -0.02497049 -0.662893
vn -0.7482975 -0.02497054 -0.6628931
vn -0.7482975 -0.02497081 -0.6628932
vn 0.03873457 0.7984319 0.6008381
vn 0.7323076 0.6576257 -0.1767883
vn 0.7323073 0.6576259 -0.1767886
vn 0.7323074 0.657626 -0.1767881
vn 0.7482976 0.02497035 0.6628931
vn 0.7482973 0.02497013 0.6628934
vn 0.7482978 0.02496983 0.6628929
vn 0.2717671 -0.8749225 0.4008161
vn 0.2717674 -0.8749226 0.4008155
vn -0.7323077 -0.6576257 0.1767884
vn -0.7323075 -0.6576258 0.1767882
vn -0.7323073 -0.6576259 0.1767886
vn -0.0387347 -0.798432 -0.6008379
vn -0.03873413 -0.7984322 -0.6008376
vn -0.03873454 -0.7984318 -0.6008381
vn 0.8763304 -0.3765637 -0.3004078
vn -0.8763298 0.3765643 0.3004085
vn -0.8763304 0.3765638 0.3004077
vn -0.8763303 0.3765638 0.3004082
vn -0.2717676 0.8749223 -0.4008162
vn -0.271768 0.8749223 -0.4008158
vn -0.2717672 0.8749227 -0.4008157
vn -0.2717668 0.8749229 -0.4008155
vn -0.2717668 0.8749227 -0.4008158
vn -0.2717668 0.8749227 -0.4008158
vn -0.2717668 0.8749227 -0.4008158
vn 0.2717676 -0.8749223 0.4008162

vt 0.377414 0.088956
vt 0.999953 0.801346
vt 0.948466 0.725526
vt 0.825007 0.203971
vt 0.82496 0.110216
vt 0.107566 0.645194
vt 0.018428 0.700253
vt 0.066533 0.611113
vt 0.000139 0.555968
vt 0.377554 0.199172
vt 0.311064 0.144161
vt 8.6E-05 0.666184
vt 0.107513 0.75541
vt 0.741728 0.139236
vt 0.916722 0.830366
vt 0.270058 0.178279
vt 0.203708 0.233484
vt 0.21494 0.144301
vt 0.125758 0.089323
vt 0.221882 0.089183
vt 0.233114 0
vt 0.948589 0.97098
vt 0.897102 0.89516
vt 0.144073 0.055238
vt 0.125898 0.199539
vt 0.270198 0.288495
vt 5.3E-05 0.734302
vt 0 0.844517
vt 1 0.498102
vt 0.948589 0.422223
vt 0.460995 0.891365
vt 0.377781 0.826534
vt 0.916739 0.527026
vt 0.066447 0.789446
vt 0.162571 0.789499
vt 0.251656 0.844657
vt 0.155532 0.844604
vt 0.144143 0.933764
vt 0.948466 0.667678
vt 0.897055 0.591798
vt 0.233282 0.878705
vt 0.25171 0.734441
vt 0.865206 0.696602
vt 0.781974 0.725622
vt 0.647285 0.826534
vt 0.564024 0.79761
vt 0.544273 0.663001
vt 0.595843 0.567626
vt 0.564071 0.891365
vt 0.865253 0.790357
vt 0.833508 0.895197
vt 0.73061 0.895256
vt 0.813824 0.830425
vt 0.730563 0.801501
vt 0.782097 0.971076
vt 0.474824 0.126065
vt 0.563816 0.087144
vt 0.542851 0
vt 0.73061 0.497947
vt 0.730563 0.591703
vt 0.2945 0.845968
vt 0.377781 0.874824
vt 0.63978 0.150234
vt 0.597737 0.228146
vt 0.576773 0.141002
vt 0.513722 0.228103
vt 0.678677 0.252271
vt 0.377667 0.781069
vt 0.813842 0.526967
vt 0.4798 0.087101
vt 0.537761 0.291166
vt 0.089042 0.089377
vt 0.077809 0.17856
vt 0.63971 0.306103
vt 0.461224 0.508438
vt 0.564121 0.508589
vt 0.781974 0.667582
vt 0.833461 0.591762
vt 0.865311 0.486959
vt 0.865358 0.393203
vt 0.294614 0.687313
vt 0.2945 0.781069
vt 0.377781 0.752213
vt 1 0.895101
vt 0.311291 0.322494
vt 0.377781 0.377505
vt 0.377641 0.267289
vt 0.35924 0.233257
vt 0.461042 0.79761
vt 0.17396 0.700339
vt 0.307035 0.687313
vt 0.377781 0.632107
vt 0.306901 0.577098
vt 0.999953 0.591858
vt 0.251742 0.666324
vt 0.251796 0.556108
vt 0.162657 0.611166
vt 0.647171 0.663151
vt 0.865358 1
vt 0 0.144615
vt 0.812514 0
vt 0.741728 0.055149
vt 0.812569 0.110216
vt 0.576659 0.393203
vt 0.741728 0.165171
vt 0.377781 0.466882
vt 0.306901 0.521891
vt 0.377647 0.577098
vt 0.429352 0.567383
vt 0.377781 0.662758
vt 0.480679 0.662908
vt 0.512582 0.579657
vt 0.595975 0.464666
vt 0.647514 0.393597
vt 0.544616 0.393446
vt 0.512794 0.413064
vt 0.741728 0.393203
vt 0.812569 0.338136
vt 0.741784 0.282987
vt 0.865206 0.696602
vt 0.782097 0.422127
vt 0.730563 0.82663
vt 0.647332 0.79761
vt 0.647285 0.891365
vt 0.125985 0.267656
vt 0.126125 0.377872
vt 0.215167 0.322634
vt 0.440832 0.140932
vt 0.377781 0.228033
vt 0.461797 0.228076
vt 0.377912 0.559797
vt 0.66565 0.354282
vt 0.378124 0.393203
vt 0.377993 0.496164
vt 0.429483 0.464422
vt 0.096124 0.844571
vt 0.155671 0.556055
vt 0.144368 0.466882
vt 0.096263 0.556022
vt 0.281657 0.377645
vt 0.222249 0.377732
vt 0.233709 0.466882
vt 0.07795 0.288776
vt 0.048176 0.233711
vt 0.618815 0.06309
vt 0.665764 0.102081
vt 0.707807 0.024168
vt 0.500694 0.330114
vt 0.440719 0.393133
vt 0.453746 0.291122
vt 0.28129 0.089096
vt 0.730563 0.548159
vt 0.647383 0.496557
vt 0.647302 0.56019
vt 0.429059 0.79761
vt 0.51237 0.746251
vt 0.460962 0.714359
vt 0.563859 0.71451
vt 0.251849 0.466882
vt 0.251796 0.577098
vt 0.281526 0.522006
vt 0.000227 0.322948

usemtl unnamed
usemap unnamed
f 4/4/4 14/14/14 5/5/5
f 81/81/81 83/83/83 82/82/82
f 31/31/31 32/32/32 89/89/89
f 91/91/91 93/93/93 92/92/92
f 45/45/45 49/49/49 46/46/46
f 61/61/61 68/68/68 62/62/62
f 101/101/101 103/103/103 102/102/102
f 106/106/106 108/108/108 107/107/107
f 117/117/117 119/119/119 118/118/118
f 122/122/122 124/124/124 123/123/123
f 159/159/159 161/161/161 160/160/160
f 1/1/1 10/10/10 11/11/11
f 1/1/1 11/11/11 151/151/151
f 151/151/151 11/11/11 18/18/18
f 151/151/151 18/18/18 20/20/20
f 20/20/20 18/18/18 19/19/19
f 138/138/138 137/137/137 139/139/139
f 139/139/139 137/137/137 8/8/8
f 139/139/139 8/8/8 9/9/9
f 9/9/9 8/8/8 12/12/12
f 20/20/20 24/24/24 21/21/21
f 20/20/20 21/21/21 151/151/151
f 162/162/162 144/144/144 143/143/143
f 143/143/143 144/144/144 125/125/125
f 143/143/143 125/125/125 126/126/126
f 126/126/126 125/125/125 127/127/127
f 126/126/126 127/127/127 141/141/141
f 141/141/141 127/127/127 26/26/26
f 141/141/141 26/26/26 140/140/140
f 140/140/140 26/26/26 85/85/85
f 140/140/140 85/85/85 86/86/86
f 86/86/86 85/85/85 87/87/87
f 28/28/28 27/27/27 34/34/34
f 28/28/28 34/34/34 136/136/136
f 136/136/136 34/34/34 35/35/35
f 136/136/136 35/35/35 37/37/37
f 37/37/37 35/35/35 36/36/36
f 37/37/37 41/41/41 38/38/38
f 37/37/37 38/38/38 136/136/136
f 96/96/96 95/95/95 97/97/97
f 96/96/96 97/97/97 137/137/137
f 137/137/137 97/97/97 6/6/6
f 137/137/137 6/6/6 8/8/8
f 8/8/8 6/6/6 7/7/7
f 105/105/105 67/67/67 63/63/63
f 105/105/105 63/63/63 146/146/146
f 146/146/146 63/63/63 65/65/65
f 146/146/146 65/65/65 145/145/145
f 145/145/145 65/65/65 57/57/57
f 145/145/145 57/57/57 58/58/58
f 58/58/58 57/57/57 70/70/70
f 100/100/100 72/72/72 73/73/73
f 100/100/100 73/73/73 144/144/144
f 144/144/144 73/73/73 25/25/25
f 144/144/144 25/25/25 125/125/125
f 125/125/125 25/25/25 17/17/17
f 152/152/152 154/154/154 153/153/153
f 153/153/153 154/154/154 113/113/113
f 153/153/153 113/113/113 114/114/114
f 114/114/114 113/113/113 115/115/115
f 129/129/129 128/128/128 130/130/130
f 129/129/129 130/130/130 150/150/150
f 150/150/150 130/130/130 66/66/66
f 150/150/150 66/66/66 71/71/71
f 71/71/71 66/66/66 64/64/64
f 74/74/74 132/132/132 104/104/104
f 74/74/74 104/104/104 71/71/71
f 71/71/71 104/104/104 148/148/148
f 71/71/71 148/148/148 150/150/150
f 150/150/150 148/148/148 149/149/149
f 113/113/113 154/154/154 76/76/76
f 113/113/113 76/76/76 116/116/116
f 116/116/116 76/76/76 75/75/75
f 116/116/116 75/75/75 135/135/135
f 135/135/135 75/75/75 134/134/134
f 135/135/135 134/134/134 133/133/133
f 140/140/140 142/142/142 141/141/141
f 145/145/145 147/147/147 146/146/146
f 156/156/156 155/155/155 157/157/157
f 156/156/156 157/157/157 158/158/158
f 158/158/158 157/157/157 47/47/47
f 158/158/158 47/47/47 98/98/98
f 98/98/98 47/47/47 48/48/48
f 98/98/98 48/48/48 154/154/154
f 154/154/154 48/48/48 76/76/76
f 34/34/34 7/7/7 13/13/13
f 34/34/34 13/13/13 35/35/35
f 35/35/35 13/13/13 90/90/90
f 35/35/35 90/90/90 42/42/42
f 42/42/42 90/90/90 95/95/95
f 47/47/47 111/111/111 112/112/112
f 47/47/47 112/112/112 48/48/48
f 48/48/48 112/112/112 76/76/76
f 131/131/131 134/134/134 109/109/109
f 131/131/131 109/109/109 110/110/110
f 110/110/110 109/109/109 111/111/111
f 110/110/110 111/111/111 157/157/157
f 99/99/99 55/55/55 51/51/51
f 99/99/99 51/51/51 23/23/23
f 23/23/23 51/51/51 50/50/50
f 23/23/23 50/50/50 15/15/15
f 15/15/15 50/50/50 3/3/3
f 15/15/15 3/3/3 2/2/2
f 22/22/22 99/99/99 23/23/23
f 22/22/22 23/23/23 84/84/84
f 84/84/84 23/23/23 15/15/15
f 84/84/84 15/15/15 2/2/2
f 30/30/30 29/29/29 33/33/33
f 30/30/30 33/33/33 79/79/79
f 79/79/79 33/33/33 69/69/69
f 79/79/79 69/69/69 121/121/121
f 121/121/121 69/69/69 59/59/59
f 77/77/77 60/60/60 78/78/78
f 77/77/77 78/78/78 120/120/120
f 120/120/120 78/78/78 40/40/40
f 120/120/120 40/40/40 39/39/39
f 39/39/39 40/40/40 94/94/94
f 35/35/35 42/42/42 36/36/36
f 44/44/44 43/43/43 50/50/50
f 44/44/44 50/50/50 53/53/53
f 53/53/53 50/50/50 51/51/51
f 53/53/53 51/51/51 52/52/52
f 52/52/52 51/51/51 55/55/55
f 50/50/50 43/43/43 3/3/3
f 54/54/54 44/44/44 53/53/53
f 54/54/54 53/53/53 52/52/52
f 63/63/63 67/67/67 64/64/64
f 63/63/63 64/64/64 65/65/65
f 65/65/65 64/64/64 66/66/66
f 65/65/65 66/66/66 56/56/56
f 56/56/56 66/66/66 130/130/130
f 60/60/60 59/59/59 69/69/69
f 60/60/60 69/69/69 78/78/78
f 78/78/78 69/69/69 40/40/40
f 40/40/40 69/69/69 33/33/33
f 40/40/40 33/33/33 94/94/94
f 94/94/94 33/33/33 29/29/29
f 80/80/80 30/30/30 79/79/79
f 80/80/80 79/79/79 121/121/121
f 109/109/109 134/134/134 75/75/75
f 109/109/109 75/75/75 112/112/112
f 112/112/112 75/75/75 76/76/76
f 13/13/13 7/7/7 6/6/6
f 13/13/13 6/6/6 90/90/90
f 90/90/90 6/6/6 97/97/97
f 88/88/88 85/85/85 26/26/26
f 88/88/88 26/26/26 16/16/16
f 16/16/16 26/26/26 17/17/17
f 16/16/16 17/17/17 18/18/18
f 18/18/18 17/17/17 25/25/25
f 18/18/18 25/25/25 19/19/19
f 19/19/19 25/25/25 73/73/73
f 17/17/17 26/26/26 127/127/127
f 56/56/56 57/57/57 65/65/65
f 16/16/16 18/18/18 11/11/11
f 16/16/16 11/11/11 88/88/88
