mtllib ./TetraKisHexahedron.mtl
g TetraKisHexahedron
v -0.000374 -0.4021192 -0.3933269
v -0.376709 -0.529094 0.00498819
v -0.373784 -0.004662191 -0.531168
v 0.373285 -0.531496 0.006731191
v 0.37621 -0.00706519 -0.5294251
v -0.002194 -0.3933229 0.4021172
v -0.37621 0.00706519 0.5294251
v 0.373784 0.004662191 0.531168
v 0.562496 -0.001802 0.001307001
v 0.376709 0.529094 -0.00498819
v 0.002194 0.3933229 -0.4021172
v -0.373285 0.531496 -0.006731191
v -0.562496 0.001802 -0.001307001
v 0.000374 0.4021192 0.3933269
v -0.000374 -0.4021192 -0.3933269
v 0.373285 -0.531496 0.006731191
v 0.37621 -0.00706519 -0.5294251
v -0.376709 -0.529094 0.00498819
v 0.373285 -0.531496 0.006731191
v 0.373784 0.004662191 0.531168
v 0.562496 -0.001802 0.001307001
v 0.373784 0.004662191 0.531168
v 0.376709 0.529094 -0.00498819
v -0.373784 -0.004662191 -0.531168
v 0.37621 -0.00706519 -0.5294251
v 0.376709 0.529094 -0.00498819
v -0.373285 0.531496 -0.006731191
v -0.37621 0.00706519 0.5294251
v -0.376709 -0.529094 0.00498819
v -0.562496 0.001802 -0.001307001
v -0.373784 -0.004662191 -0.531168
v -0.37621 0.00706519 0.5294251
v 0.000374 0.4021192 0.3933269
v -0.373285 0.531496 -0.006731191

vn -0.1650532 -0.7046252 -0.6901167
vn -0.50831 -0.7207515 -0.4713156
vn -0.506991 -0.4843655 -0.7129869
vn -0.002338839 -0.952117 -0.3057255
vn 0.8454695 -0.2470226 -0.4734568
vn -0.003901264 -0.6992419 0.7148746
vn -0.2392217 -0.4899983 0.8382571
vn 0.2321786 -0.4915089 0.8393524
vn 0.9862767 -0.1206847 -0.112665
vn 0.50831 0.7207515 0.4713156
vn 0.003901277 0.6992419 -0.7148746
vn -0.2318652 0.8285049 -0.5097238
vn -0.9862767 0.1206847 0.112665
vn 0.1650532 0.7046252 0.6901167
vn 0.4466149 -0.6408393 -0.624388
vn 0.8441507 -0.4834103 -0.2317844
vn 0.001149698 -0.3266976 -0.9451283
vn -0.2395345 -0.8269946 0.5086289
vn 0.2318652 -0.828505 0.5097238
vn 0.8926755 -0.315576 0.3217798
vn 0.8947175 0.316839 0.3147917
vn 0.506991 0.4843655 0.7129869
vn 0.8961641 0.3098462 -0.3176247
vn -0.2321786 0.4915088 -0.8393524
vn 0.2392217 0.4899983 -0.8382571
vn 0.2395345 0.8269946 -0.5086289
vn -0.8441507 0.4834104 0.2317845
vn -0.8454695 0.2470226 0.4734568
vn -0.896164 -0.3098462 0.3176247
vn -0.8947175 -0.316839 -0.3147917
vn -0.8926755 0.315576 -0.3217798
vn -0.001149698 0.3266976 0.9451283
vn -0.4466149 0.6408393 0.6243879
vn 0.002338834 0.952117 0.3057255

vt 0.518029 0.374958
vt 0.345344 0.166716
vt 0.690576 0.166581
vt 0.345455 0.500012
vt 0.690576 0.666616
vt 0.806706 0.686521
vt 0.99996 0.500522
vt 0.691176 0.500012
vt 0.518005 0.87497
vt 0.345344 0.166716
vt 0.883942 0.313375
vt 1 0.499502
vt 0.172683 0.87497
vt 0.172658 0.374958
vt 0.517923 0.500012
vt 0.345344 0.666704
vt 0.690687 0.499877
vt 0.999432 0.873158
vt 0.690648 0.872648
vt 0.345416 1
vt 0.172783 0
vt 0.000112 0.166581
vt 0.690648 0.999913
vt 0.999472 0.126866
vt 0.690687 0.127376
vt 0.691216 0.500012
vt 0.345344 0.666704
vt 0.000112 0.666616
vt 3.9E-05 0.999913
vt 0.517904 0
vt 0.345271 1
vt 0 0.499877
vt 0.172764 0.500012
vt 0.345232 0.500012

usemtl unnamed
usemap unnamed
f 3/3/3 17/17/17 1/1/1
f 3/3/3 1/1/1 2/2/2
f 2/2/2 1/1/1 4/4/4
f 16/16/16 15/15/15 5/5/5
f 16/16/16 5/5/5 9/9/9
f 9/9/9 5/5/5 23/23/23
f 9/9/9 20/20/20 16/16/16
f 22/22/22 21/21/21 10/10/10
f 22/22/22 10/10/10 14/14/14
f 14/14/14 10/10/10 34/34/34
f 27/27/27 31/31/31 13/13/13
f 27/27/27 13/13/13 28/28/28
f 28/28/28 13/13/13 29/29/29
f 30/30/30 3/3/3 2/2/2
f 14/14/14 32/32/32 22/22/22
f 33/33/33 27/27/27 28/28/28
f 19/19/19 8/8/8 6/6/6
f 19/19/19 6/6/6 18/18/18
f 18/18/18 6/6/6 7/7/7
f 6/6/6 8/8/8 7/7/7
f 26/26/26 25/25/25 11/11/11
f 26/26/26 11/11/11 12/12/12
f 12/12/12 11/11/11 24/24/24
f 11/11/11 25/25/25 24/24/24
