mtllib ./TriangularHebeSphenoRotunda.mtl
g TriangularHebeSphenoRotunda
v 0.977489 -0.0626958 0.5740451
v 0.983095 0.203971 -0.1269241
v 0.377761 0.637998 -0.2146233
v -0.001962 0.6395742 0.4321448
v 0.36869 0.2065214 0.9195691
v 0.369332 -0.4944678 0.6528983
v 0.749055 -0.4960441 0.006131178
v 0.378799 -0.4962263 -0.6461049
v 0.61284 0.2037887 -0.7791592
v 0.008147 -0.06317441 -1.133528
v -0.600653 0.2060428 -0.7880062
v -0.372219 0.639392 -0.2200913
v -0.37118 -0.4948333 -0.6515719
v -0.980376 0.207619 -0.1412381
v -0.750903 -0.493257 -0.004804824
v -0.985981 -0.05904781 0.5597311
v -0.381289 0.2079144 0.9141011
v -0.380647 -0.4930748 0.6474302
v 0.36869 0.2065214 0.9195691
v 0.977489 -0.0626958 0.5740451
v 0.983095 0.203971 -0.1269241
v 0.749055 -0.4960441 0.006131178
v 0.977489 -0.0626958 0.5740451
v 0.61284 0.2037887 -0.7791592
v 0.008147 -0.06317441 -1.133528
v 0.378799 -0.4962263 -0.6461049
v 0.008147 -0.06317441 -1.133528
v -0.600653 0.2060428 -0.7880062
v -0.600653 0.2060428 -0.7880062
v -0.372219 0.639392 -0.2200913
v -0.980376 0.207619 -0.1412381
v -0.001962 0.6395742 0.4321448
v 0.377761 0.637998 -0.2146233
v -0.985981 -0.05904781 0.5597311
v -0.985981 -0.05904781 0.5597311
v -0.750903 -0.493257 -0.004804824
v -0.380647 -0.4930748 0.6474302
v -0.985981 -0.05904781 0.5597311
v -0.381289 0.2079144 0.9141011
v 0.36869 0.2065214 0.9195691
v -0.37118 -0.4948333 -0.6515719
v 0.378799 -0.4962263 -0.6461049
v 0.749055 -0.4960441 0.006131178
v 0.369332 -0.4944678 0.6528983

vn 0.5249885 0.7940866 0.30629
vn 0.5823963 0.812899 0.003144172
vn 0.361096 0.9096631 -0.2052393
vn 0.5249885 0.7940867 0.3062902
vn 0.5249884 0.7940865 0.3062906
vn 0.3172191 -0.5165026 0.7953599
vn 0.5735124 -0.7459754 0.3385326
vn 0.7170156 -0.3538739 -0.6005514
vn 0.7528808 -0.3568321 -0.5530295
vn 0.005908302 0.7938304 -0.6081107
vn 0.005908317 0.7938301 -0.6081111
vn 0.005908862 0.7938302 -0.6081109
vn -0.6114849 -0.4783071 -0.6303241
vn -0.5611029 0.8158534 0.1398105
vn -0.8799956 -0.3505153 -0.3205414
vn -0.5264438 0.7960403 0.298625
vn -0.292584 0.815199 0.4998456
vn -0.08739178 -0.9949242 0.04988835
vn 0.1019167 -0.3536284 0.9298173
vn 0.4942034 -0.5774038 0.6498984
vn 0.8832672 -0.3537911 -0.3076864
vn 0.8608468 -0.3567785 -0.3628389
vn 0.9344511 -0.3352409 -0.1200611
vn 0.2956236 0.8127581 -0.5020269
vn 0.5821424 -0.3354154 -0.7406799
vn 0.003466166 -0.7462571 -0.6656491
vn -0.304578 -0.5777986 -0.7572194
vn -0.7094929 -0.3512237 -0.6109516
vn -0.5735132 0.7459748 -0.3385326
vn -0.401828 0.9157058 -0.004167771
vn -0.8567847 -0.3535874 -0.3753611
vn -0.3705854 0.8690836 0.3276592
vn 0.001868524 0.9999976 -0.001340067
vn -0.9338405 -0.3317702 -0.133681
vn -0.5811554 -0.7438303 0.3301138
vn -0.3120536 -0.9333543 0.1774051
vn -0.1167759 -0.3532221 0.9282229
vn -0.3637945 -0.331489 0.8704991
vn -0.1757445 -0.3501679 0.9200525
vn -0.003467099 0.7462566 0.6656495
vn -0.001867624 -0.9999974 0.001340074
vn -0.001867491 -0.9999975 0.001339891
vn -0.001867586 -0.9999974 0.001340096
vn -0.001867141 -0.9999975 0.00134088

vt 0.024077 0.499759
vt 0 0.345268
vt 0.193231 0.25027
vt 0.336731 0.346049
vt 0.232188 0.500242
vt 0.781322 0.626243
vt 0.738774 0.505243
vt 0.113817 0.654993
vt 0.336592 0.654358
vt 0.025654 0
vt 0.233766 0.000482
vt 0.337334 0.155157
vt 0.781351 0.348853
vt 0.549269 0.404288
vt 0.738922 0.162621
vt 0.337381 0.345337
vt 0.337334 0.154445
vt 0.689592 0.599087
vt 0.999962 0.662856
vt 0.926447 0.48756
vt 0.337334 0.845248
vt 0.114558 0.845884
vt 0.226546 1
vt 0.000602 0.154377
vt 0.224605 0.500242
vt 0.738774 0.469845
vt 0.926443 0.48756
vt 1 0.312277
vt 0.738774 0.404253
vt 0.680176 0.249829
vt 0.957572 0.126046
vt 0.549193 0.095418
vt 0.738698 0.095384
vt 0.815364 0
vt 0.719719 0.788225
vt 0.513498 0.716013
vt 0.738848 0.812467
vt 0.815251 0.975101
vt 0.957489 0.84908
vt 0.395856 0
vt 0.337368 0.677076
vt 0.337334 0.521213
vt 0.513429 0.404288
vt 0.689558 0.443225

usemtl unnamed
usemap unnamed
f 2/2/2 24/24/24 3/3/3
f 2/2/2 3/3/3 1/1/1
f 1/1/1 3/3/3 4/4/4
f 1/1/1 4/4/4 5/5/5
f 39/39/39 38/38/38 37/37/37
f 39/39/39 37/37/37 19/19/19
f 19/19/19 37/37/37 6/6/6
f 19/19/19 6/6/6 20/20/20
f 20/20/20 6/6/6 7/7/7
f 8/8/8 25/25/25 9/9/9
f 8/8/8 9/9/9 22/22/22
f 22/22/22 9/9/9 21/21/21
f 22/22/22 21/21/21 23/23/23
f 3/3/3 24/24/24 10/10/10
f 3/3/3 10/10/10 12/12/12
f 12/12/12 10/10/10 11/11/11
f 27/27/27 26/26/26 13/13/13
f 27/27/27 13/13/13 28/28/28
f 28/28/28 13/13/13 31/31/31
f 16/16/16 17/17/17 32/32/32
f 16/16/16 32/32/32 14/14/14
f 14/14/14 32/32/32 30/30/30
f 14/14/14 30/30/30 29/29/29
f 32/32/32 33/33/33 30/30/30
f 31/31/31 13/13/13 15/15/15
f 31/31/31 15/15/15 34/34/34
f 41/41/41 42/42/42 18/18/18
f 41/41/41 18/18/18 36/36/36
f 36/36/36 18/18/18 35/35/35
f 40/40/40 32/32/32 17/17/17
f 43/43/43 44/44/44 18/18/18
f 43/43/43 18/18/18 42/42/42
