mtllib ./TriangularOrthoBiCupola.mtl
g TriangularOrthoBiCupola
v 0.217254 0.3752708 -0.6119422
v 0.216427 -0.3747293 -0.6125669
v -0.432678 0.000987781 -0.6126081
v -0.649105 0.3757161 -4.213437E-05
v 0.000827 0.7499991 0.0006247318
v -0.649932 -0.374283 -0.0006658662
v -0.000827 -0.7499991 -0.0006247318
v 0.649105 -0.3757161 4.213437E-05
v 0.649932 0.374283 0.0006658662
v -0.433347 -3.178109E-05 0.6121361
v 0.215758 -0.3757478 0.6121782
v 0.216585 0.3742513 0.6128029
v -0.432678 0.000987781 -0.6126081
v 0.217254 0.3752708 -0.6119422
v -0.432678 0.000987781 -0.6126081
v -0.649105 0.3757161 -4.213437E-05
v -0.649932 -0.374283 -0.0006658662
v 0.216427 -0.3747293 -0.6125669
v -0.000827 -0.7499991 -0.0006247318
v 0.217254 0.3752708 -0.6119422
v 0.649105 -0.3757161 4.213437E-05
v 0.216427 -0.3747293 -0.6125669
v 0.217254 0.3752708 -0.6119422
v 0.649932 0.374283 0.0006658662
v 0.000827 0.7499991 0.0006247318
v -0.649105 0.3757161 -4.213437E-05
v 0.000827 0.7499991 0.0006247318
v 0.216585 0.3742513 0.6128029
v 0.215758 -0.3757478 0.6121782
v 0.649932 0.374283 0.0006658662
v 0.216585 0.3742513 0.6128029
v -0.000827 -0.7499991 -0.0006247318
v -0.649932 -0.374283 -0.0006658662
v -0.433347 -3.178109E-05 0.6121361

vn 0.0005451916 0.0008323932 -0.9999996
vn -0.3144459 -0.5433364 -0.7784019
vn -0.2461789 -0.4254047 -0.8708772
vn -0.4071526 0.7080374 -0.5769835
vn -0.4071531 0.7080374 -0.5769832
vn -0.9999992 0.00110314 -0.0005452982
vn -0.408713 -0.7061757 -0.5781608
vn 0.7294576 -0.6334755 0.2580706
vn 0.8168111 -0.0004209081 -0.5769051
vn -0.4147826 -0.2393198 0.8778849
vn -0.2471289 -0.4268541 0.8698983
vn -0.3140945 0.5440302 0.778059
vn -0.4071531 0.7080374 -0.5769832
vn -0.4071535 0.7080374 -0.5769829
vn -0.9426264 0.001317064 -0.3338471
vn -0.9999992 0.00110314 -0.0005452982
vn -0.4087133 -0.7061752 -0.5781612
vn 0.4706861 -0.8167388 -0.3337553
vn 0.4990445 -0.8665763 -0.0004480913
vn 0.8168113 -0.000420502 -0.5769048
vn 0.8168113 -0.000420502 -0.5769048
vn 0.8168116 -0.0004200959 -0.5769044
vn 0.4724863 0.8162537 -0.3323955
vn 0.5009544 0.8654732 0.0009941189
vn 0.5009544 0.8654732 0.0009941189
vn -0.407784 0.7070763 0.5777158
vn -0.407784 0.7070763 0.5777158
vn 0.4721227 0.8156986 0.3342698
vn 0.7850701 -0.2734942 0.5557571
vn 0.8161807 -0.001380872 0.5777951
vn 0.8161809 -0.001381231 0.5777948
vn -0.4093428 -0.7071365 0.5765385
vn -0.4093423 -0.7071365 0.5765389
vn -0.9429905 0.0007630367 0.332819

vt 0.520438 0.809554
vt 0.363637 0.680073
vt 0.677426 0.680226
vt 0.677798 0.741038
vt 0.991587 0.741192
vt 0.713833 0.678343
vt 0.363823 0.421264
vt 0.66826 0.21411
vt 0.00055 0.776873
vt 0.091237 0.259429
vt 0.362328 0.129091
vt 0.363637 0.387898
vt 0.677612 0.999846
vt 0.9914 1
vt 0.965846 0.741038
vt 0.965654 0.523931
vt 0.677612 0.421418
vt 0.711844 0
vt 0.450748 0.02757
vt 0.314337 0.77642
vt 0 0.518065
vt 0.313788 0.517612
vt 0.711844 0
vt 0.711983 0.217107
vt 0.963842 0.062738
vt 0.001309 0.389144
vt 0.27371 0.517612
vt 1 0.319822
vt 0.363637 0.276206
vt 0.711727 0.359168
vt 0.407104 0.421264
vt 0.271092 0
vt 0 0.130338
vt 0.677612 0.421264

usemtl unnamed
usemap unnamed
f 3/3/3 1/1/1 2/2/2
f 3/3/3 2/2/2 17/17/17
f 17/17/17 2/2/2 7/7/7
f 5/5/5 14/14/14 13/13/13
f 5/5/5 13/13/13 4/4/4
f 6/6/6 34/34/34 16/16/16
f 6/6/6 16/16/16 15/15/15
f 30/30/30 31/31/31 29/29/29
f 30/30/30 29/29/29 8/8/8
f 8/8/8 29/29/29 19/19/19
f 8/8/8 19/19/19 18/18/18
f 20/20/20 9/9/9 21/21/21
f 20/20/20 21/21/21 22/22/22
f 25/25/25 28/28/28 24/24/24
f 25/25/25 24/24/24 23/23/23
f 32/32/32 11/11/11 10/10/10
f 10/10/10 11/11/11 12/12/12
f 10/10/10 12/12/12 26/26/26
f 26/26/26 12/12/12 27/27/27
f 10/10/10 33/33/33 32/32/32
