mtllib ./TriDiminishedRhombIcosiDodecahedron.mtl
g TriDiminishedRhombIcosiDodecahedron
v 1.076523 -1.169197 -0.3324326
v 1.468574 -0.5298622 -0.3392909
v 1.47938 -0.5284449 0.4106302
v 1.087329 -1.167779 0.4174885
v 1.593605 0.109247 0.03273897
v 1.403857 0.5040143 0.6415529
v 1.289632 -0.1336777 1.019444
v 0.780311 -0.5290336 1.40257
v 0.65528 -1.168143 1.030541
v 0.440075 1.532574 0.4217085
v -0.2698 1.530568 0.6637275
v -0.779122 1.135212 1.046854
v -0.893347 0.4975206 1.424745
v -0.568844 -0.1389314 1.65306
v 0.070436 -0.5310395 1.64459
v 1.079355 1.140466 0.4132386
v 1.261343 -0.1373904 -0.9438741
v 1.386373 0.5017199 -0.5718442
v 0.936841 0.4990616 -1.172188
v 0.619017 1.13639 -0.9370275
v 1.068549 1.139048 -0.3366824
v 0.429269 1.531157 -0.3282126
v -0.097536 1.133507 -1.158485
v -0.287284 1.528274 -0.5496696
v -0.719333 1.52791 0.06338346
v -1.228654 1.132554 0.4465096
v 0.741216 -0.5341635 -1.310669
v 0.416714 0.1022885 -1.538983
v 0.024662 -0.5370466 -1.532126
v -0.614618 -0.1449376 -1.523656
v -0.222567 0.4943965 -1.530513
v -1.555988 -0.5406572 -0.5274769
v -1.745736 -0.14589 0.08133806
v -1.620705 0.4932192 0.4533669
v -1.123939 -0.5402935 -1.14053
v 0.626991 -1.171855 -0.9327777
v -0.089562 -1.174739 -1.154235
v -0.054595 -1.17015 1.272561
v -0.771148 -1.173033 1.051104
v -1.22068 -1.175691 0.4507595
v -1.231486 -1.177109 -0.2991616
v -0.799437 -1.176746 -0.9122147
v -1.538504 -0.5383628 0.6859203
v -1.413474 0.1007474 1.05795
v -1.088972 -0.5357046 1.286265
v 0.780311 -0.5290336 1.40257
v 1.289632 -0.1336777 1.019444
v 1.403857 0.5040143 0.6415529
v 1.386373 0.5017199 -0.5718442
v 0.936841 0.4990616 -1.172188
v 1.068549 1.139048 -0.3366824
v 1.079355 1.140466 0.4132386
v 1.079355 1.140466 0.4132386
v 0.440075 1.532574 0.4217085
v -0.2698 1.530568 0.6637275
v -0.719333 1.52791 0.06338346
v 1.261343 -0.1373904 -0.9438741
v 0.936841 0.4990616 -1.172188
v -0.222567 0.4943965 -1.530513
v 0.416714 0.1022885 -1.538983
v -1.228654 1.132554 0.4465096
v -0.719333 1.52791 0.06338346
v -0.287284 1.528274 -0.5496696
v -0.097536 1.133507 -1.158485
v -0.222567 0.4943965 -1.530513
v -0.614618 -0.1449376 -1.523656
v -1.555988 -0.5406572 -0.5274769
v -0.614618 -0.1449376 -1.523656
v 0.626991 -1.171855 -0.9327777
v -0.089562 -1.174739 -1.154235
v -0.799437 -1.176746 -0.9122147
v -1.123939 -0.5402935 -1.14053
v -1.231486 -1.177109 -0.2991616
v -1.555988 -0.5406572 -0.5274769
v -1.22068 -1.175691 0.4507595
v -1.231486 -1.177109 -0.2991616
v 0.65528 -1.168143 1.030541
v -0.054595 -1.17015 1.272561
v -0.771148 -1.173033 1.051104
v 0.070436 -0.5310395 1.64459
v -0.054595 -1.17015 1.272561
v -0.568844 -0.1389314 1.65306
v -0.893347 0.4975206 1.424745
v 0.741216 -0.5341635 -1.310669
v -0.779122 1.135212 1.046854

vn 0.7507095 -0.5693924 -0.3350039
vn 0.9357831 -0.240768 -0.2575667
vn 0.9368016 -0.2938235 0.1899224
vn 0.597652 -0.7382958 0.3126205
vn 0.9723485 0.2330871 -0.01445155
vn 0.9673089 0.1527865 0.2024098
vn 0.8219679 -0.3255827 0.4672952
vn 0.7326467 -0.4437361 0.516069
vn 0.1567305 -0.9815108 0.1098734
vn 0.2870737 0.4497658 0.8457538
vn -0.2873155 0.8312718 0.4758542
vn 0.06703934 0.6484656 0.7582864
vn 0.2870732 0.449766 0.8457538
vn 0.2870732 0.4497661 0.8457539
vn 0.3132599 0.2325319 0.9207591
vn 0.2870725 0.4497645 0.845755
vn 0.8222968 -0.2272372 -0.5217196
vn 0.9336974 0.1629974 -0.318812
vn 0.785601 0.1892237 -0.5890887
vn 0.4229023 0.7018661 -0.5731821
vn 0.5875791 0.7501743 -0.3032979
vn 0.3527463 0.9174966 -0.183767
vn 0.2383599 0.5802218 -0.7787988
vn 0.06850119 0.9697558 -0.2342686
vn -0.003453872 0.9999925 -0.00184109
vn -0.4237653 0.8497706 0.3135493
vn 0.3585255 -0.3266759 -0.8744956
vn 0.2952216 -0.03561732 -0.9547648
vn -0.08304132 -0.3737384 -0.9238095
vn -0.1057901 -0.1512469 -0.982819
vn -0.0144068 -0.001890005 -0.9998946
vn -0.8369418 0.3018135 -0.4565491
vn -0.9923431 -0.05403694 0.111063
vn -0.916555 0.3925394 -0.07641766
vn -0.7326474 0.4437342 -0.5160698
vn 0.2529971 -0.5263557 -0.8117526
vn 0.08165319 -0.518884 -0.8509362
vn 0.003454629 -0.9999925 0.001841139
vn 0.003454467 -0.9999924 0.001841097
vn 0.003454592 -0.9999924 0.001841251
vn 0.003454718 -0.9999924 0.001841418
vn 0.003454714 -0.9999924 0.001841236
vn -0.8933067 -0.3579687 0.2717746
vn -0.8111107 0.1969212 0.5507462
vn -0.6241852 -0.2982359 0.7221138
vn 0.304697 0.3219571 0.8963836
vn 0.2870741 0.4497657 0.8457538
vn 0.2870736 0.4497653 0.8457541
vn 0.6790959 0.5271406 -0.5108344
vn 0.3660211 0.4772996 -0.7988829
vn 0.8927841 0.4502761 -0.01371596
vn 0.8927841 0.450276 -0.01371581
vn 0.5227349 0.8524464 -0.009143976
vn 0.1181512 0.9929893 -0.003579736
vn -0.00345368 0.9999924 -0.001841712
vn -0.4237653 0.8497705 0.3135496
vn 0.5760646 0.0004857386 -0.817404
vn 0.5760646 0.0004857386 -0.817404
vn 0.2625622 0.4465488 -0.8553686
vn 0.2625621 0.4465498 -0.8553682
vn -0.8455242 0.5170612 -0.1331793
vn -0.732647 0.4437359 -0.5160689
vn -0.7326466 0.4437358 -0.5160694
vn -0.7326467 0.4437359 -0.5160693
vn -0.7326466 0.4437363 -0.5160688
vn -0.7326468 0.4437369 -0.5160682
vn -0.7326474 0.4437342 -0.5160698
vn -0.7326474 0.4437342 -0.5160698
vn 0.04644573 -0.9984596 -0.03035688
vn 0.003454708 -0.9999924 0.001840777
vn -0.4164481 -0.4876009 -0.7673439
vn -0.4864041 -0.5040254 -0.7137013
vn -0.693503 -0.5290313 -0.48906
vn -0.6935029 -0.5290312 -0.48906
vn -0.8287589 -0.5034441 0.2443416
vn -0.8927844 -0.4502756 0.01371612
vn 0.2763089 -0.5232971 0.8061104
vn 0.2763093 -0.5232967 0.8061104
vn -0.3660209 -0.4773001 0.7988825
vn -0.2625623 -0.4465493 0.8553684
vn -0.2625624 -0.4465491 0.8553684
vn -0.3636721 -0.3289348 0.8715186
vn -0.6429728 0.1482346 0.7514071
vn 0.7174981 -0.4457242 -0.5352817
vn -0.7174979 0.4457241 0.5352821

vt 0.151201 0.325027
vt 0.151305 0.203556
vt 0.266854 0.203665
vt 0.26675 0.325136
vt 0.209164 0.103999
vt 0.302679 0.064384
vt 0.360369 0.16405
vt 0.418061 0.261038
vt 0.360201 0.360595
vt 0.38243 0.864503
vt 0.288995 0.936015
vt 0.173446 0.936098
vt 0.079918 0.864721
vt 0.044136 0.749147
vt 0.079767 0.633521
vt 0.418061 0.748877
vt 0.057857 0.163764
vt 0.115717 0.064207
vt 0.022205 0.09949
vt 0.85969 0.807305
vt 0.957329 0.751925
vt 0.865847 0.685929
vt 0.744378 0.800832
vt 0.750535 0.679456
vt 0.72194 0.579376
vt 0.173487 1
vt 0.486093 0.878817
vt 0.596007 0.916312
vt 0.56693 0.813615
vt 0.676743 0.776183
vt 0.70582 0.87888
vt 0.447922 0.319575
vt 0.547042 0.312549
vt 0.658155 0.345905
vt 0 0.611564
vt 0.418061 0.780719
vt 0.498898 0.715516
vt 0.395859 0.417859
vt 0.360104 0.475055
vt 0.266592 0.510337
vt 0.151043 0.510228
vt 0.057592 0.47477
vt 0.578732 0.195741
vt 0.689845 0.229097
vt 0.660275 0.116632
vt 0.173202 0.562009
vt 0.288751 0.561926
vt 0.382279 0.633303
vt 0.990038 0.852236
vt 0.892399 0.907616
vt 0.151478 0
vt 0.267027 0.000109
vt 1 0.655845
vt 0.908518 0.589849
vt 0.819579 0.523996
vt 0.289037 0.999917
vt 0.465109 0.946886
vt 0.575023 0.98438
vt 0.70582 0.897143
vt 0.797302 0.963139
vt 0.738819 0.406904
vt 0.758225 0.472245
vt 0.708958 0.51697
vt 0.609839 0.523996
vt 0.498726 0.49064
vt 0.418061 0.429641
vt 0.02468 0.510337
vt 0.024961 0.674783
vt 0.05769 0.360309
vt 0.021934 0.417506
vt 0.566665 0.617457
vt 0.676579 0.654951
vt 0.595477 0.523996
vt 0.705391 0.56149
vt 0.499198 0.130576
vt 0.418353 0.207109
vt 0.137461 0.510337
vt 0.044027 0.581849
vt 0.580741 0.051467
vt 0.742949 0.033357
vt 0.631836 0
vt 0.760526 0.105439
vt 0.790095 0.217905
vt 0 0.260644
vt 0.820363 0.327795

usemtl unnamed
usemap unnamed
f 67/67/67 68/68/68 35/35/35
f 48/48/48 16/16/16 10/10/10
f 48/48/48 10/10/10 47/47/47
f 47/47/47 10/10/10 46/46/46
f 7/7/7 8/8/8 4/4/4
f 7/7/7 4/4/4 3/3/3
f 3/3/3 4/4/4 1/1/1
f 3/3/3 1/1/1 2/2/2
f 2/2/2 1/1/1 17/17/17
f 2/2/2 17/17/17 18/18/18
f 18/18/18 17/17/17 19/19/19
f 21/21/21 49/49/49 20/20/20
f 21/21/21 20/20/20 22/22/22
f 22/22/22 20/20/20 24/24/24
f 22/22/22 24/24/24 54/54/54
f 54/54/54 24/24/24 25/25/25
f 54/54/54 25/25/25 55/55/55
f 13/13/13 14/14/14 10/10/10
f 13/13/13 10/10/10 12/12/12
f 12/12/12 10/10/10 11/11/11
f 12/12/12 11/11/11 26/26/26
f 26/26/26 11/11/11 56/56/56
f 37/37/37 71/71/71 29/29/29
f 37/37/37 29/29/29 27/27/27
f 27/27/27 29/29/29 28/28/28
f 27/27/27 28/28/28 57/57/57
f 57/57/57 28/28/28 58/58/58
f 71/71/71 73/73/73 72/72/72
f 71/71/71 72/72/72 29/29/29
f 29/29/29 72/72/72 30/30/30
f 29/29/29 30/30/30 28/28/28
f 28/28/28 30/30/30 31/31/31
f 24/24/24 20/20/20 23/23/23
f 23/23/23 20/20/20 50/50/50
f 23/23/23 50/50/50 59/59/59
f 59/59/59 50/50/50 60/60/60
f 65/65/65 66/66/66 32/32/32
f 65/65/65 32/32/32 64/64/64
f 64/64/64 32/32/32 63/63/63
f 27/27/27 36/36/36 37/37/37
f 42/42/42 70/70/70 69/69/69
f 42/42/42 69/69/69 41/41/41
f 41/41/41 69/69/69 40/40/40
f 72/72/72 73/73/73 74/74/74
f 62/62/62 63/63/63 32/32/32
f 62/62/62 32/32/32 61/61/61
f 61/61/61 32/32/32 34/34/34
f 61/61/61 34/34/34 44/44/44
f 44/44/44 34/34/34 33/33/33
f 44/44/44 33/33/33 43/43/43
f 43/43/43 33/33/33 32/32/32
f 43/43/43 32/32/32 75/75/75
f 75/75/75 32/32/32 76/76/76
f 46/46/46 10/10/10 15/15/15
f 46/46/46 15/15/15 77/77/77
f 77/77/77 15/15/15 78/78/78
f 85/85/85 61/61/61 44/44/44
f 85/85/85 44/44/44 83/83/83
f 83/83/83 44/44/44 45/45/45
f 83/83/83 45/45/45 82/82/82
f 82/82/82 45/45/45 79/79/79
f 82/82/82 79/79/79 80/80/80
f 80/80/80 79/79/79 81/81/81
f 51/51/51 52/52/52 5/5/5
f 5/5/5 52/52/52 6/6/6
f 5/5/5 6/6/6 3/3/3
f 3/3/3 6/6/6 7/7/7
f 84/84/84 17/17/17 1/1/1
f 84/84/84 1/1/1 69/69/69
f 69/69/69 1/1/1 4/4/4
f 69/69/69 4/4/4 9/9/9
f 9/9/9 4/4/4 8/8/8
f 10/10/10 14/14/14 15/15/15
f 49/49/49 50/50/50 20/20/20
f 18/18/18 51/51/51 5/5/5
f 18/18/18 5/5/5 2/2/2
f 2/2/2 5/5/5 3/3/3
f 53/53/53 21/21/21 22/22/22
f 53/53/53 22/22/22 54/54/54
f 39/39/39 40/40/40 69/69/69
f 39/39/39 69/69/69 38/38/38
f 38/38/38 69/69/69 9/9/9
f 75/75/75 79/79/79 45/45/45
f 75/75/75 45/45/45 43/43/43
f 43/43/43 45/45/45 44/44/44
f 32/32/32 33/33/33 34/34/34
