mtllib ./TruncatedIcosahedron.mtl
g TruncatedIcosahedron
v 0.056929 -2.730957E-07 -0.7636311
v 0.345188 -0.07307425 -0.679616
v 0.344069 -0.3650882 -0.5785319
v 0.055118 -0.4724893 -0.6000739
v -0.122344 -0.2468523 -0.714471
v -0.052607 0.2837928 -0.7092722
v -0.341416 0.3207338 -0.6057532
v -0.341188 0.554283 -0.4034022
v -0.052237 0.6616839 -0.3818613
v 0.126116 0.4945118 -0.5708992
v 0.523911 0.1376448 -0.5412431
v 0.414375 0.4214379 -0.4868842
v 0.524281 0.515536 -0.2138322
v 0.701743 0.2899 -0.09943512
v 0.701515 0.0563499 -0.3017861
v -0.411154 -0.2099122 -0.610952
v -0.5225 -0.3986072 -0.3930369
v -0.700853 -0.2314351 -0.2039989
v -0.699734 0.0605789 -0.3050831
v -0.520689 0.0738818 -0.5565941
v 0.521673 -0.4463842 -0.3390759
v 0.700396 -0.2356641 -0.2007019
v 0.699502 -0.294128 0.1027321
v 0.520232 -0.540981 0.1518922
v 0.410325 -0.6350791 -0.1211598
v -0.056229 -0.6611853 -0.3821588
v 0.121375 -0.7424811 -0.1427017
v -0.057669 -0.7557831 0.1088093
v -0.345928 -0.682709 0.02479425
v -0.345039 -0.6242452 -0.2786398
v -0.520232 0.540981 -0.1518922
v -0.699502 0.294128 -0.1027321
v -0.700396 0.2356641 0.2007019
v -0.521673 0.4463842 0.3390759
v -0.410325 0.6350791 0.1211598
v 0.057669 0.7557831 -0.1088093
v -0.121375 0.7424811 0.1427017
v 0.056229 0.6611853 0.3821588
v 0.345039 0.6242452 0.2786398
v 0.345928 0.682709 -0.02479425
v 0.700853 0.2314351 0.2039989
v 0.5225 0.3986072 0.3930369
v 0.411154 0.2099122 0.610952
v 0.520689 -0.0738818 0.5565941
v 0.699734 -0.0605789 0.3050831
v -0.701743 -0.2899 0.09943512
v -0.524281 -0.515536 0.2138322
v -0.414375 -0.4214379 0.4868842
v -0.523911 -0.1376448 0.5412431
v -0.701515 -0.0563499 0.3017861
v 0.341188 -0.554283 0.4034022
v 0.341416 -0.3207338 0.6057532
v 0.052607 -0.2837928 0.7092722
v -0.126116 -0.4945118 0.5708992
v 0.052237 -0.6616839 0.3818613
v -0.344069 0.3650882 0.5785319
v -0.345188 0.07307425 0.679616
v -0.056929 2.730957E-07 0.7636311
v 0.122344 0.2468523 0.714471
v -0.055118 0.4724893 0.6000739
v 0.414375 0.4214379 -0.4868842
v 0.523911 0.1376448 -0.5412431
v -0.411154 -0.2099122 -0.610952
v -0.520689 0.0738818 -0.5565941
v 0.345188 -0.07307425 -0.679616
v 0.701515 0.0563499 -0.3017861
v 0.523911 0.1376448 -0.5412431
v 0.344069 -0.3650882 -0.5785319
v -0.122344 -0.2468523 -0.714471
v 0.055118 -0.4724893 -0.6000739
v 0.121375 -0.7424811 -0.1427017
v -0.056229 -0.6611853 -0.3821588
v 0.055118 -0.4724893 -0.6000739
v -0.699734 0.0605789 -0.3050831
v 0.057669 0.7557831 -0.1088093
v 0.345928 0.682709 -0.02479425
v 0.524281 0.515536 -0.2138322
v 0.700853 0.2314351 0.2039989
v 0.701743 0.2899 -0.09943512
v 0.699734 -0.0605789 0.3050831
v -0.121375 0.7424811 0.1427017
v -0.057669 -0.7557831 0.1088093
v -0.700396 0.2356641 0.2007019
v -0.699502 0.294128 -0.1027321
v -0.410325 0.6350791 0.1211598
v -0.521673 0.4463842 0.3390759
v 0.056229 0.6611853 0.3821588
v -0.121375 0.7424811 0.1427017
v -0.126116 -0.4945118 0.5708992
v 0.052237 -0.6616839 0.3818613
v 0.5225 0.3986072 0.3930369
v 0.345039 0.6242452 0.2786398
v 0.411154 0.2099122 0.610952
v -0.701515 -0.0563499 0.3017861
v -0.700396 0.2356641 0.2007019
v -0.523911 -0.1376448 0.5412431
v 0.052607 -0.2837928 0.7092722
v 0.341416 -0.3207338 0.6057532
v 0.520689 -0.0738818 0.5565941
v -0.126116 -0.4945118 0.5708992
v -0.414375 -0.4214379 0.4868842
v 0.520689 -0.0738818 0.5565941

vn 0.05308982 0.05712688 -0.9969545
vn 0.273512 -0.02652637 -0.9615029
vn 0.1888067 -0.3218794 -0.9277639
vn 0.1888061 -0.3218792 -0.9277641
vn -0.06218855 -0.1513018 -0.9865295
vn -0.1284065 0.515399 -0.8472756
vn -0.599957 0.3713048 -0.7086499
vn -0.3502964 0.8446845 -0.4047227
vn -0.114189 0.7911313 -0.600893
vn 0.3002264 0.7058958 -0.6415416
vn 0.7969278 0.3951159 -0.4569352
vn 0.7969286 0.3951149 -0.4569344
vn 0.816823 0.4807934 -0.3188072
vn 0.8000202 0.5964921 -0.06453646
vn 0.796927 0.3951171 -0.4569356
vn -0.7256796 -0.2915163 -0.6232233
vn -0.6745522 -0.6363364 -0.3742397
vn -0.8815125 -0.265448 -0.3904779
vn -0.9782587 -0.06447983 -0.1971092
vn -0.7938979 -0.1961803 -0.5755343
vn 0.767942 -0.5139383 -0.3822729
vn 0.8466071 -0.2687823 -0.4593609
vn 0.8843969 -0.3962283 0.2466685
vn 0.7335645 -0.6748658 0.08024512
vn 0.4084793 -0.9108856 -0.0585848
vn -0.2655109 -0.8611798 -0.4334438
vn -0.1900677 -0.963936 -0.1862849
vn -0.3032743 -0.9227015 0.2380062
vn -0.4878578 -0.8695068 -0.07715508
vn -0.3992594 -0.7318603 -0.5522433
vn -0.7663276 0.6200162 -0.1682917
vn -0.7812801 0.4905201 -0.3859943
vn -0.7931233 0.5984903 0.1129823
vn -0.7931188 0.5984954 0.1129867
vn -0.4736581 0.8737547 -0.1104583
vn 0.1900648 0.9639366 0.1862843
vn 0.1900677 0.9639359 0.1862849
vn 0.1900644 0.9639365 0.186285
vn 0.5418999 0.8249676 0.1605407
vn 0.6234196 0.7674249 0.1496901
vn 0.8117071 0.2979076 0.5023772
vn 0.7921683 0.5528659 0.2584739
vn 0.7938991 0.1961836 0.5755313
vn 0.7938985 0.196183 0.5755324
vn 0.7938968 0.1961856 0.5755338
vn -0.9114263 -0.3813723 0.1544581
vn -0.649496 -0.7414255 0.1686511
vn -0.5578681 -0.6893708 0.4621161
vn -0.7969276 -0.3951157 0.4569353
vn -0.9912714 -0.08577491 0.1001179
vn 0.428159 -0.720956 0.5448876
vn 0.6452444 -0.5006306 0.5770866
vn 0.1839043 -0.6437568 0.7428032
vn 0.1839044 -0.6437567 0.7428032
vn 0.3095492 -0.896423 0.3171834
vn -0.3345605 0.5194547 0.78628
vn -0.5052196 -0.02512631 0.8626251
vn -0.06823993 -0.01648217 0.9975329
vn 0.1231597 0.4274694 0.8956013
vn -0.02394748 0.7121734 0.7015951
vn 0.3510566 0.4263693 -0.8336478
vn 0.3363436 0.3007564 -0.8924229
vn -0.3309607 0.05272397 -0.9421706
vn -0.4312826 0.1355807 -0.8919716
vn 0.746174 -0.2203294 -0.6282351
vn 0.9720433 -0.08012755 -0.2207066
vn 0.746174 -0.2203304 -0.6282349
vn 0.4041086 -0.7321672 -0.5482951
vn -0.3335449 -0.621653 -0.7087282
vn -0.3335444 -0.621653 -0.7087283
vn 0.3461553 -0.852901 -0.3908152
vn 0.3321612 -0.7904095 -0.5147058
vn 0.3321621 -0.7904099 -0.5147046
vn -0.7428468 0.4387981 -0.5056037
vn 0.003621401 0.9449778 -0.3271146
vn 0.3368728 0.8401166 -0.4251129
vn 0.3368728 0.8401167 -0.4251128
vn 0.9999926 -0.003016345 0.002353058
vn 0.9999927 -0.003014277 0.002352342
vn 0.989745 -0.09409519 0.1074752
vn -0.330107 0.9254273 -0.1860486
vn 0.3301075 -0.9254268 0.1860499
vn -0.9999926 0.003024492 -0.002355878
vn -0.9999926 0.00303872 -0.002360804
vn -0.3321612 0.79041 0.5147049
vn -0.7095078 0.311644 0.6320418
vn 0.0007398012 0.7557817 0.6548234
vn -0.3321648 0.7904062 0.5147085
vn -0.3368711 -0.8401171 0.4251134
vn -0.3368685 -0.8401177 0.4251141
vn 0.3335449 0.621653 0.7087282
vn 0.3335442 0.62165 0.7087311
vn 0.3421706 0.0450416 0.9385579
vn -0.7461751 0.220329 0.628234
vn -0.7461762 0.2203296 0.6282325
vn -0.6098284 -0.003199339 0.7925271
vn 0.2060756 -0.1067746 0.9726933
vn 0.3309602 -0.05272571 0.9421706
vn 0.3309568 -0.05272528 0.9421718
vn -0.3363437 -0.3007563 0.892423
vn -0.3363448 -0.3007578 0.8924221
vn 0.7428467 -0.4387981 0.5056036

vt 0.206713 0.430433
vt 0.277824 0.440712
vt 0.259773 0.495241
vt 0.177505 0.518662
vt 0.144713 0.478609
vt 0.191972 0.33585
vt 0.11523 0.289444
vt 0.124171 0.176459
vt 0.206438 0.153038
vt 0.248341 0.251546
vt 0.960661 0.484809
vt 0.99995 0.576721
vt 0.945694 0.633557
vt 0.872872 0.576772
vt 0.882122 0.484841
vt 0.471673 0.449122
vt 0.485809 0.358333
vt 0.568513 0.33791
vt 0.60549 0.416077
vt 0.545639 0.484809
vt 0.449081 0.711622
vt 0.505562 0.627454
vt 0.582242 0.674046
vt 0.573152 0.787008
vt 0.490854 0.810231
vt 0.362797 0.275939
vt 0.348681 0.171519
vt 0.408532 0.102786
vt 0.459637 0.164728
vt 0.431371 0.271742
vt 0.071111 0.111652
vt 0.009111 0.159828
vt 0 0.101372
vt 0.05637 0.017069
vt 0.100319 0.023422
vt 1 0.803978
vt 0.960751 0.895921
vt 0.882212 0.895953
vt 0.872922 0.804029
vt 0.945719 0.747186
vt 0.800076 0.633615
vt 0.800101 0.747244
vt 0.736569 0.782382
vt 0.69728 0.690471
vt 0.736529 0.598528
vt 0.596779 0.230896
vt 0.542341 0.144305
vt 0.573939 0.061941
vt 0.647905 0.097629
vt 0.662021 0.202049
vt 0.626126 0.851943
vt 0.68819 0.803917
vt 0.697224 0.862394
vt 0.640743 0.946561
vt 0.596803 0.940103
vt 0.223153 0.816057
vt 0.143234 0.85133
vt 0.093717 0.759501
vt 0.143033 0.667475
vt 0.223029 0.702429
vt 0.319452 0.261826
vt 0.334194 0.356408
vt 0.067971 0.432202
vt 0.05323 0.33762
vt 0.363367 0.606553
vt 0.490945 0.532836
vt 0.419848 0.522386
vt 0.377984 0.701171
vt 0.403098 0.453319
vt 0.34866 0.366727
vt 0.46153 0.89839
vt 0.390433 0.88794
vt 0.34866 0.78933
vt 0.00017 0.272812
vt 0.235646 0.064808
vt 0.306756 0.075087
vt 0.34866 0.173596
vt 0.629689 0.531401
vt 0.553009 0.484809
vt 0.644306 0.626019
vt 0.182586 0
vt 0.514505 0.963326
vt 0.698998 0.280216
vt 0.670732 0.387229
vt 0.338869 0.815826
vt 0.281073 0.872756
vt 0.280825 0.645499
vt 0.338745 0.702197
vt 0.522833 0
vt 0.44013 0.020423
vt 0.178628 0.518662
vt 0.258625 0.553616
vt 0.120833 0.575592
vt 0.179155 1
vt 0.259074 0.964727
vt 0.121235 0.943301
vt 0.0222 0.759644
vt 0 0.667761
vt 0.049316 0.575735
vt 0.000201 0.851615
vt 0.049718 0.943444
vt 0.69728 0.690954

usemtl unnamed
usemap unnamed
f 11/11/11 12/12/12 13/13/13
f 11/11/11 13/13/13 14/14/14
f 14/14/14 13/13/13 40/40/40
f 14/14/14 40/40/40 39/39/39
f 39/39/39 40/40/40 36/36/36
f 39/39/39 36/36/36 38/38/38
f 38/38/38 36/36/36 37/37/37
f 11/11/11 14/14/14 15/15/15
f 26/26/26 27/27/27 28/28/28
f 26/26/26 28/28/28 29/29/29
f 29/29/29 28/28/28 47/47/47
f 29/29/29 47/47/47 17/17/17
f 17/17/17 47/47/47 46/46/46
f 17/17/17 46/46/46 18/18/18
f 18/18/18 46/46/46 19/19/19
f 18/18/18 19/19/19 16/16/16
f 16/16/16 19/19/19 20/20/20
f 44/44/44 45/45/45 41/41/41
f 44/44/44 41/41/41 43/43/43
f 43/43/43 41/41/41 42/42/42
f 55/55/55 82/82/82 25/25/25
f 55/55/55 25/25/25 51/51/51
f 51/51/51 25/25/25 24/24/24
f 51/51/51 24/24/24 23/23/23
f 23/23/23 24/24/24 21/21/21
f 23/23/23 21/21/21 22/22/22
f 22/22/22 21/21/21 65/65/65
f 22/22/22 65/65/65 66/66/66
f 66/66/66 65/65/65 67/67/67
f 29/29/29 17/17/17 30/30/30
f 30/30/30 17/17/17 69/69/69
f 30/30/30 69/69/69 26/26/26
f 26/26/26 69/69/69 70/70/70
f 25/25/25 82/82/82 71/71/71
f 25/25/25 71/71/71 68/68/68
f 68/68/68 71/71/71 72/72/72
f 68/68/68 72/72/72 73/73/73
f 102/102/102 52/52/52 23/23/23
f 102/102/102 23/23/23 80/80/80
f 80/80/80 23/23/23 66/66/66
f 80/80/80 66/66/66 78/78/78
f 78/78/78 66/66/66 79/79/79
f 83/83/83 84/84/84 19/19/19
f 83/83/83 19/19/19 50/50/50
f 50/50/50 19/19/19 46/46/46
f 50/50/50 46/46/46 49/49/49
f 49/49/49 46/46/46 48/48/48
f 100/100/100 97/97/97 58/58/58
f 58/58/58 97/97/97 93/93/93
f 58/58/58 93/93/93 59/59/59
f 59/59/59 93/93/93 91/91/91
f 59/59/59 91/91/91 60/60/60
f 60/60/60 91/91/91 87/87/87
f 60/60/60 87/87/87 85/85/85
f 85/85/85 87/87/87 88/88/88
f 46/46/46 47/47/47 48/48/48
f 48/48/48 47/47/47 28/28/28
f 48/48/48 28/28/28 89/89/89
f 89/89/89 28/28/28 90/90/90
f 91/91/91 92/92/92 87/87/87
f 100/100/100 58/58/58 57/57/57
f 100/100/100 57/57/57 96/96/96
f 96/96/96 57/57/57 86/86/86
f 96/96/96 86/86/86 94/94/94
f 94/94/94 86/86/86 95/95/95
f 98/98/98 99/99/99 93/93/93
f 98/98/98 93/93/93 97/97/97
f 100/100/100 96/96/96 101/101/101
f 4/4/4 5/5/5 1/1/1
f 4/4/4 1/1/1 3/3/3
f 3/3/3 1/1/1 2/2/2
f 75/75/75 76/76/76 10/10/10
f 75/75/75 10/10/10 9/9/9
f 9/9/9 10/10/10 6/6/6
f 9/9/9 6/6/6 8/8/8
f 8/8/8 6/6/6 7/7/7
f 8/8/8 7/7/7 31/31/31
f 31/31/31 7/7/7 32/32/32
f 31/31/31 32/32/32 33/33/33
f 81/81/81 75/75/75 8/8/8
f 81/81/81 8/8/8 35/35/35
f 35/35/35 8/8/8 31/31/31
f 35/35/35 31/31/31 34/34/34
f 34/34/34 31/31/31 33/33/33
f 54/54/54 55/55/55 51/51/51
f 54/54/54 51/51/51 53/53/53
f 53/53/53 51/51/51 52/52/52
f 62/62/62 2/2/2 1/1/1
f 62/62/62 1/1/1 61/61/61
f 61/61/61 1/1/1 10/10/10
f 61/61/61 10/10/10 77/77/77
f 77/77/77 10/10/10 76/76/76
f 74/74/74 32/32/32 7/7/7
f 74/74/74 7/7/7 64/64/64
f 64/64/64 7/7/7 1/1/1
f 64/64/64 1/1/1 63/63/63
f 63/63/63 1/1/1 5/5/5
f 68/68/68 65/65/65 21/21/21
f 68/68/68 21/21/21 25/25/25
f 25/25/25 21/21/21 24/24/24
f 17/17/17 18/18/18 16/16/16
f 17/17/17 16/16/16 69/69/69
f 14/14/14 39/39/39 42/42/42
f 14/14/14 42/42/42 41/41/41
f 86/86/86 57/57/57 56/56/56
f 86/86/86 56/56/56 85/85/85
f 85/85/85 56/56/56 60/60/60
f 26/26/26 29/29/29 30/30/30
f 59/59/59 60/60/60 56/56/56
f 59/59/59 56/56/56 58/58/58
f 58/58/58 56/56/56 57/57/57
f 6/6/6 10/10/10 1/1/1
f 6/6/6 1/1/1 7/7/7
f 66/66/66 23/23/23 22/22/22
f 8/8/8 75/75/75 9/9/9
f 23/23/23 52/52/52 51/51/51
